<svg xmlns="http://www.w3.org/2000/svg" viewBox="17481 -129.844 53.645 53.644">
  <defs>
    <style>
      .cls-1 {
        fill: #009c49;
      }
    </style>
  </defs>
  <g id="Group_54" data-name="Group 54" transform="translate(17481 -129.844)">
    <g id="Group_52" data-name="Group 52" transform="translate(15.101 15.654)">
      <path id="Path_365" data-name="Path 365" class="cls-1" d="M15.04,27.129a2.046,2.046,0,0,1-1.578-.676L7.376,20.367a2.231,2.231,0,0,1,3.156-3.156l4.057,4.282L25.858,7.745a2.237,2.237,0,0,1,3.381,2.93L16.392,26.452a1.363,1.363,0,0,1-1.352.676Z" transform="translate(-6.7 -6.945)"/>
    </g>
    <g id="Group_53" data-name="Group 53">
      <path id="Path_366" data-name="Path 366" class="cls-1" d="M51.39,53.644H2.254A2.129,2.129,0,0,1,0,51.39V2.254A2.129,2.129,0,0,1,2.254,0H51.39a2.129,2.129,0,0,1,2.254,2.254V51.39a2.129,2.129,0,0,1-2.254,2.254ZM4.508,49.136H49.136V4.508H4.508V49.136Z"/>
    </g>
  </g>
</svg>
