<svg xmlns="http://www.w3.org/2000/svg" viewBox="642 478 20.199 20.115">
  <defs>
    <style>
      .cls-1 {
        fill: #a7a7a7;
      }
    </style>
  </defs>
  <path id="Path_367" data-name="Path 367" class="cls-1" d="M20.166,7.013A10.626,10.626,0,0,0,13.247.094.981.981,0,0,0,12.4.263L.253,12.328A.958.958,0,0,0,0,13c.169,1.941.169,3.966.169,6.159a.846.846,0,0,0,.844.844c2.109,0,4.219.084,6.159.169h.084a.766.766,0,0,0,.591-.253L20,7.856A.981.981,0,0,0,20.166,7.013ZM1.856,18.319V16.632a2.47,2.47,0,0,1,1.6,1.688Zm0-2.531c0-.759-.084-1.6-.084-2.363a8.358,8.358,0,0,1,5.063,5.063A22.908,22.908,0,0,0,4.388,18.4,3.242,3.242,0,0,0,1.856,15.788Zm5.653,2.194A9.374,9.374,0,0,0,2.278,12.75L11.56,3.469,16.791,8.7ZM17.381,8.11,12.15,2.878l1.013-1.013a8.685,8.685,0,0,1,3.122,2.025A8.31,8.31,0,0,1,18.31,7.013Z" transform="translate(642 477.939)"/>
</svg>
