<svg xmlns="http://www.w3.org/2000/svg" viewBox="325.74 619.201 25.888 25.888">
  <defs>
    <style>
      .cls-1 {
        fill: #fff;
      }
    </style>
  </defs>
  <path id="Path_51" data-name="Path 51" class="cls-1" d="M.509,5.509,17.207,0h.329A.255.255,0,0,1,17.7.082h.082c.082,0,.165.082.247.164s.165.164.165.247V.576a.255.255,0,0,1,.082.164v.329L12.848,17.76a.79.79,0,0,1-.74.576h0a.719.719,0,0,1-.74-.493L8.242,10.113.509,6.989a.825.825,0,0,1-.494-.822C-.066,5.838.18,5.591.509,5.509Zm11.434,9.62,3.7-11.346L9.8,9.62ZM8.571,8.551l5.922-5.92L3.142,6.331Z" transform="translate(338.705 619.201) rotate(45)"/>
</svg>
