<?xml version="1.0" standalone="no"?>
<!DOCTYPE svg PUBLIC "-//W3C//DTD SVG 1.1//EN" "http://www.w3.org/Graphics/SVG/1.1/DTD/svg11.dtd" >
<svg xmlns="http://www.w3.org/2000/svg">
<metadata></metadata>
<defs>
<font id="HDI-GerlingSansCondBlackRg" horiz-adv-x="532" vert-adv-y="2048" >
<font-face units-per-em="2048" ascent="1638" descent="-410" />
<missing-glyph horiz-adv-x="500" />
<glyph unicode="ff" horiz-adv-x="1383" vert-adv-y="2457" d="M829 840h-301v-840h-324v840h-186v227h186v174q0 320 336 320q86 0 187 -21q12 -2 22 -4l-8 -225q-40 16 -88 16q-69 0 -97 -31q-28 -32 -28 -114v-115h301v174q0 320 336 320q86 0 187 -21q12 -2 22 -4l-9 -225q-39 16 -88 16q-68 0 -96 -31q-28 -32 -28 -114v-115h194 v-227h-194v-840h-324v840z" />
<glyph unicode="fi" horiz-adv-x="1290" vert-adv-y="2457" d="M18 840v227h186v174q0 320 336 320q87 0 188 -21q12 -2 22 -4l-9 -225q-39 16 -88 16q-68 0 -97 -31q-28 -32 -28 -114v-115h195v-227h-195v-840h-324v840h-186zM827 0v1067h324v-1067h-324zM827 1249v287h324v-287h-324z" />
<glyph unicode="fl" horiz-adv-x="1290" vert-adv-y="2457" d="M18 840v227h186v174q0 320 336 320q87 0 188 -21q12 -2 22 -4l-9 -225q-39 16 -88 16q-68 0 -97 -31q-28 -32 -28 -114v-115h195v-227h-195v-840h-324v840h-186zM827 0v1536h324v-1536h-324z" />
<glyph unicode="ffi" horiz-adv-x="1898" vert-adv-y="2457" d="M829 840h-301v-840h-324v840h-186v227h186v174q0 320 336 320q86 0 187 -21q12 -2 22 -4l-8 -225q-40 16 -88 16q-69 0 -97 -31q-28 -32 -28 -114v-115h301v174q0 320 336 320q86 0 187 -21q12 -2 22 -4l-9 -225q-39 16 -88 16q-68 0 -96 -31q-28 -32 -28 -114v-115h194 v-227h-194v-840h-324v840zM1450 0v1067h324v-1067h-324zM1450 1249v287h324v-287h-324z" />
<glyph unicode="ffl" horiz-adv-x="1895" vert-adv-y="2457" d="M829 840h-301v-840h-324v840h-186v227h186v174q0 320 336 320q86 0 187 -21q12 -2 22 -4l-8 -225q-40 16 -88 16q-69 0 -97 -31q-28 -32 -28 -114v-115h301v174q0 320 336 320q86 0 187 -21q12 -2 22 -4l-9 -225q-39 16 -88 16q-68 0 -96 -31q-28 -32 -28 -114v-115h194 v-227h-194v-840h-324v840zM1447 0v1536h324v-1536h-324z" />
<glyph horiz-adv-x="0" vert-adv-y="0" />
<glyph vert-adv-y="2457" />
<glyph unicode=" " vert-adv-y="2457" />
<glyph unicode="!" horiz-adv-x="795" vert-adv-y="2457" d="M250 0v307h295v-307h-295zM236 1430h324l-41 -975h-242z" />
<glyph unicode="&#x22;" horiz-adv-x="1065" vert-adv-y="2457" d="M627 1004v532h258v-532h-258zM180 1004v532h258v-532h-258z" />
<glyph unicode="#" horiz-adv-x="1065" vert-adv-y="2457" d="M90 834v188h182l58 408h188l-57 -408h203l57 408h188l-55 -408h181v-188h-207l-33 -238h180v-188h-207l-57 -408h-189l56 408h-203l-56 -408h-188l55 408h-155v188h182l33 238h-156zM434 834l-33 -238h203l33 238h-203z" />
<glyph unicode="$" horiz-adv-x="1085" vert-adv-y="2457" d="M492 1454v174h92v-174q133 -9 179 -17q58 -10 161 -42l-18 -254q-170 81 -322 86v-353q184 -44 274 -116q152 -120 152 -345q0 -193 -116 -309q-75 -74 -180 -105q-44 -12 -130 -24v-182h-92v182q-251 12 -383 58l23 272q170 -98 360 -102v397q-151 41 -238 101 q-178 123 -178 350q0 172 111 281q68 67 160 95q48 15 145 27zM584 575v-372q143 39 143 192q0 56 -21 94q-32 56 -122 86zM492 899v328q-48 -9 -73 -24q-60 -36 -60 -129q0 -87 64 -136q24 -19 69 -39z" />
<glyph unicode="%" horiz-adv-x="1745" vert-adv-y="2457" d="M1343 807q307 0 307 -416t-307 -416q-198 0 -269 179q-38 95 -38 234q0 419 307 419zM1343 643q-53 0 -74 -59q-20 -53 -20 -196q0 -117 15 -174q19 -75 79 -75q44 0 65 38q29 51 29 213q0 122 -14 178q-19 75 -80 75zM401 1455q171 0 248 -134q59 -103 59 -282 q0 -416 -307 -416q-198 0 -269 179q-38 94 -38 234q0 419 307 419zM401 1291q-53 0 -74 -59q-20 -53 -20 -196q0 -118 15 -174q19 -75 79 -75q44 0 65 38q29 51 29 213q0 121 -14 178q-19 75 -80 75zM459 -68l647 1565h184l-647 -1565h-184z" />
<glyph unicode="&#x26;" horiz-adv-x="1442" vert-adv-y="2457" d="M789 756l192 -240q61 102 64 275h283q-4 -147 -44 -263q-41 -116 -128 -229l227 -299h-352l-82 111q-124 -136 -348 -136q-236 0 -373 135q-119 119 -119 306q0 100 35 178t102 137q36 32 117 76q-48 48 -86 105q-72 109 -72 206q0 61 28 125q51 116 176 170 q96 42 223 42q154 0 263 -62q150 -86 150 -258q0 -211 -256 -379zM617 912l13 10q46 38 71 63q70 72 70 144q0 62 -39 97q-35 32 -98 32q-69 0 -109 -40q-37 -37 -37 -95q0 -81 129 -211zM801 287l-280 328q-45 -48 -59 -70q-38 -59 -38 -126q0 -74 50 -136q60 -75 155 -75 q104 0 172 79z" />
<glyph unicode="'" vert-adv-y="2457" d="M137 1004v532h258v-532h-258z" />
<glyph unicode="(" horiz-adv-x="645" vert-adv-y="2457" d="M373 1548h247q-254 -434 -254 -917q0 -484 254 -918h-247q-121 213 -175 348q-106 270 -106 569q0 312 116 594q52 125 165 324z" />
<glyph unicode=")" horiz-adv-x="645" vert-adv-y="2457" d="M25 1548h248q121 -214 174 -348q106 -268 106 -570q0 -313 -116 -593q-51 -124 -164 -324h-248q254 435 254 918q0 482 -254 917z" />
<glyph unicode="*" horiz-adv-x="1063" vert-adv-y="2457" d="M145 1170l74 223l245 -131l-45 274h234l-43 -274l237 131l70 -223l-266 -48l196 -196l-196 -135l-117 245l-125 -245l-190 135l190 196z" />
<glyph unicode="+" horiz-adv-x="1229" vert-adv-y="2457" d="M508 625v411h213v-411h411v-213h-411v-412h-213v412h-412v213h412z" />
<glyph unicode="," vert-adv-y="2457" d="M20 -225l98 532h308l-164 -532h-242z" />
<glyph unicode="-" horiz-adv-x="682" vert-adv-y="2457" d="M86 463v250h510v-250h-510z" />
<glyph unicode="." vert-adv-y="2457" d="M119 0v307h295v-307h-295z" />
<glyph unicode="/" horiz-adv-x="606" vert-adv-y="2457" d="M29 -25l336 1479h213l-336 -1479h-213z" />
<glyph unicode="0" horiz-adv-x="1085" vert-adv-y="2457" d="M543 1455q253 0 368 -202q103 -179 103 -537q0 -305 -73 -478q-111 -263 -398 -263q-296 0 -405 279q-66 168 -66 459q0 307 73 479q111 263 398 263zM543 1221q-75 0 -113 -105q-43 -116 -43 -403q0 -237 32 -363q36 -141 124 -141q58 0 93 62q63 111 63 440 q0 239 -32 368q-35 142 -124 142z" />
<glyph unicode="1" horiz-adv-x="1085" vert-adv-y="2457" d="M131 1100l432 330h258v-1430h-324v1053l-214 -184z" />
<glyph unicode="2" horiz-adv-x="1085" vert-adv-y="2457" d="M106 0v250l104 117q32 35 74 80q136 147 203 235q141 188 141 317q0 84 -53 136q-54 54 -138 54q-77 0 -183 -53q-51 -25 -101 -61l-22 298q134 40 188 52q127 30 224 30q188 0 306 -118q115 -114 115 -284q0 -196 -174 -442q-110 -156 -273 -312l-51 -49h512v-250h-872z " />
<glyph unicode="3" horiz-adv-x="1085" vert-adv-y="2457" d="M90 37l14 262q123 -44 161 -55q66 -19 123 -19q134 0 200 72q48 52 48 129q0 111 -78 156q-56 32 -177 32h-98v234q142 0 213 19q136 37 136 156q0 90 -69 140q-59 42 -144 42q-74 0 -223 -51q-28 -10 -57 -19l-16 254q242 66 411 66q173 0 289 -92q133 -106 133 -286 q0 -148 -117 -240q-60 -47 -167 -88v-4q79 -14 123 -36q177 -90 177 -312q0 -198 -160 -313q-64 -46 -151 -74q-111 -35 -227 -35q-93 0 -235 30q-60 13 -109 32z" />
<glyph unicode="4" horiz-adv-x="1085" vert-adv-y="2457" d="M47 276v295l484 859h352v-921h155v-233h-155v-276h-307v276h-529zM588 509v585h-4l-316 -585h320z" />
<glyph unicode="5" horiz-adv-x="1085" vert-adv-y="2457" d="M135 670v760h782v-242h-499v-266q11 1 38 3q46 5 84 5q216 0 331 -129q110 -123 110 -334q0 -207 -135 -344q-147 -148 -410 -148q-119 0 -213 25q-42 11 -119 41l16 254q175 -70 266 -70q118 0 189 71q70 69 70 170q0 136 -113 200q-77 43 -172 43q-68 0 -225 -39z" />
<glyph unicode="6" horiz-adv-x="1085" vert-adv-y="2457" d="M940 1397l-18 -248q-156 64 -243 64q-177 0 -249 -163q-38 -87 -49 -257h4q109 123 247 123q141 0 245 -104q63 -63 98 -156q37 -101 37 -207q0 -150 -70 -271q-116 -203 -380 -203q-266 0 -389 215q-99 175 -99 473q0 333 117 539q142 253 448 253q118 0 301 -58z M544 674q-77 0 -113 -63q-33 -57 -33 -184q0 -225 143 -225q73 0 110 66q37 64 37 176q0 102 -35 165q-36 65 -109 65z" />
<glyph unicode="7" horiz-adv-x="1085" vert-adv-y="2457" d="M973 1430v-283l-420 -1147h-352l457 1180h-545v250h860z" />
<glyph unicode="8" horiz-adv-x="1085" vert-adv-y="2457" d="M335 740q-107 37 -167 128q-66 99 -66 223q0 143 100 242q123 122 339 122q203 0 322 -117q56 -56 85 -131q24 -61 24 -119q0 -132 -103 -238q-54 -56 -134 -86v-4q100 -28 173 -103q111 -112 111 -282q0 -176 -123 -285q-130 -115 -357 -115q-231 0 -360 130 q-114 116 -114 275q0 139 78 238q39 48 93 79q32 19 99 39v4zM557 850q5 4 7 6q113 76 113 200q0 47 -17 86q-37 86 -127 86q-84 0 -120 -85q-16 -37 -16 -77q0 -88 64 -154q23 -25 52 -42q39 -23 44 -20zM526 637q-7 -4 -14 -9q-132 -83 -132 -238q0 -86 51 -137 q49 -51 114 -51q57 0 105 47q54 53 54 140q0 112 -81 184q-24 21 -58 42q-38 23 -39 22z" />
<glyph unicode="9" horiz-adv-x="1085" vert-adv-y="2457" d="M146 33l18 248q153 -64 242 -64q178 0 250 163q38 87 49 257h-4q-110 -123 -246 -123q-143 0 -247 104q-63 63 -97 156q-37 100 -37 207q0 150 70 271q117 203 379 203q267 0 390 -215q99 -175 99 -474q0 -331 -117 -539q-142 -252 -449 -252q-120 0 -300 58zM544 1228 q-73 0 -110 -66q-36 -64 -36 -177q0 -102 35 -164q36 -65 109 -65q77 0 113 63q33 58 33 183q0 226 -144 226z" />
<glyph unicode=":" vert-adv-y="2457" d="M119 760v307h295v-307h-295zM119 0v307h295v-307h-295z" />
<glyph unicode=";" vert-adv-y="2457" d="M20 -225l98 532h308l-164 -532h-242zM118 760v307h295v-307h-295z" />
<glyph unicode="&#x3c;" horiz-adv-x="1229" vert-adv-y="2457" d="M1132 188v-204l-1036 446v176l1036 447v-205l-762 -330z" />
<glyph unicode="=" horiz-adv-x="1229" vert-adv-y="2457" d="M1132 848v-213h-1036v213h1036zM1132 401v-213h-1036v213h1036z" />
<glyph unicode="&#x3e;" horiz-adv-x="1229" vert-adv-y="2457" d="M96 188l762 330l-762 330v205l1036 -447v-176l-1036 -446v204z" />
<glyph unicode="?" horiz-adv-x="948" vert-adv-y="2457" d="M340 457v70q0 52 22 106q20 46 82 132q47 65 76 119q35 65 35 143q0 170 -202 170q-92 0 -172 -33q-20 -8 -67 -33l-12 264q156 60 333 60q176 0 293 -67q163 -93 163 -297q0 -96 -42 -190q-33 -73 -125 -195q-47 -62 -77 -111q-33 -55 -33 -105v-33h-274zM327 0v307h295 v-307h-295z" />
<glyph unicode="@" horiz-adv-x="1638" vert-adv-y="2457" d="M1038 1083h195l-84 -432q-15 -76 -14 -98q2 -55 54 -55q60 0 111 48q95 90 95 286q0 262 -189 368q-141 79 -329 79q-255 0 -421 -167q-163 -163 -163 -403q0 -248 158 -408q149 -150 386 -150q131 0 235 26q125 31 225 116h174q-66 -89 -119 -136q-206 -182 -518 -182 q-222 0 -402 104q-165 95 -256 254q-96 167 -96 375q0 307 213 520q115 114 271 173q143 54 300 54q230 0 413 -106q134 -78 208 -205q74 -128 74 -292q0 -214 -126 -351q-88 -95 -226 -141q-79 -26 -148 -26q-105 0 -137 100h-4q-76 -100 -199 -100q-120 0 -208 88 q-99 99 -99 259q0 209 130 328q104 95 262 95q126 0 220 -102zM798 941q-93 0 -151 -80q-51 -70 -51 -170t57 -152q46 -41 113 -41q79 0 135 56q70 69 70 186q0 109 -56 160q-46 41 -117 41z" />
<glyph unicode="A" horiz-adv-x="1327" vert-adv-y="2457" d="M970 0l-88 319h-448l-98 -319h-324l475 1430h369l459 -1430h-345zM817 561l-148 594h-4l-170 -594h322z" />
<glyph unicode="B" horiz-adv-x="1176" vert-adv-y="2457" d="M135 0v1430h533q201 0 308 -118q87 -97 87 -239q0 -163 -113 -258q-64 -54 -145 -69v-4q84 -20 129 -44q158 -86 158 -297q0 -232 -178 -333q-121 -68 -265 -68h-514zM459 1197v-349h82q127 0 175 84q23 40 23 92q0 50 -24 90q-49 83 -168 83h-88zM459 615v-373h94 q215 0 215 186q0 96 -54 145q-47 42 -126 42h-129z" />
<glyph unicode="C" horiz-adv-x="1176" vert-adv-y="2457" d="M1114 1385l-16 -279q-148 83 -284 83q-208 0 -307 -173q-69 -122 -69 -295q0 -209 106 -340q105 -131 276 -131q137 0 269 67q9 5 17 9l12 -299q-163 -52 -345 -52q-290 0 -471 181q-208 207 -208 567q0 348 199 548q182 184 461 184q188 0 360 -70z" />
<glyph unicode="D" horiz-adv-x="1366" vert-adv-y="2457" d="M135 0v1430h508q298 0 471 -195q168 -189 168 -526q0 -357 -209 -545q-182 -164 -473 -164h-465zM471 1180v-930h107q194 0 285 156q67 116 67 302q0 191 -68 311q-91 161 -305 161h-86z" />
<glyph unicode="E" horiz-adv-x="1063" vert-adv-y="2457" d="M135 0v1430h825v-250h-501v-320h477v-250h-477v-360h526v-250h-850z" />
<glyph unicode="F" horiz-adv-x="985" vert-adv-y="2457" d="M135 0v1430h793v-250h-469v-332h450v-250h-450v-598h-324z" />
<glyph unicode="G" horiz-adv-x="1366" vert-adv-y="2457" d="M745 577v242h504v-768q-177 -76 -460 -76q-333 0 -521 209q-174 192 -174 527q0 363 223 567q193 177 520 177q166 0 373 -58l-20 -281q-179 81 -326 81q-244 0 -353 -194q-73 -129 -73 -304q0 -169 70 -293q98 -173 311 -173q73 0 115 21v323h-189z" />
<glyph unicode="H" horiz-adv-x="1290" vert-adv-y="2457" d="M819 0v594h-348v-594h-336v1430h336v-570h348v570h336v-1430h-336z" />
<glyph unicode="I" horiz-adv-x="606" vert-adv-y="2457" d="M135 0v1430h336v-1430h-336z" />
<glyph unicode="J" horiz-adv-x="797" vert-adv-y="2457" d="M662 1430v-963q0 -492 -397 -492q-120 0 -230 41l12 273q74 -27 117 -27q162 0 162 205v963h336z" />
<glyph unicode="K" horiz-adv-x="1251" vert-adv-y="2457" d="M135 0v1430h336v-590h4l352 590h377l-442 -670l477 -760h-401l-363 656h-4v-656h-336z" />
<glyph unicode="L" horiz-adv-x="985" vert-adv-y="2457" d="M135 0v1430h336v-1172h473v-258h-809z" />
<glyph unicode="M" horiz-adv-x="1745" vert-adv-y="2457" d="M1303 0v1131h-4l-322 -1131h-221l-310 1131h-4v-1131h-307v1430h506l232 -920h4l250 920h483v-1430h-307z" />
<glyph unicode="N" horiz-adv-x="1366" vert-adv-y="2457" d="M129 0v1430h393l416 -992h4v992h295v-1430h-397l-412 1035h-4v-1035h-295z" />
<glyph unicode="O" horiz-adv-x="1403" vert-adv-y="2457" d="M702 1455q340 0 500 -279q106 -185 106 -461t-106 -461q-159 -279 -502 -279q-274 0 -433 183q-173 199 -173 551q0 286 107 471q160 275 501 275zM700 1213q-147 0 -214 -168q-48 -122 -48 -328q0 -219 54 -344q67 -156 208 -156q124 0 191 118q73 130 73 379 q0 215 -53 339q-67 160 -211 160z" />
<glyph unicode="P" horiz-adv-x="1139" vert-adv-y="2457" d="M135 0v1430h457q259 0 385 -138q104 -114 104 -313q0 -227 -135 -351q-117 -106 -313 -106h-162v-522h-336zM459 772h106q83 0 132 55q48 55 48 153q0 200 -198 200h-88v-408z" />
<glyph unicode="Q" horiz-adv-x="1403" vert-adv-y="2457" d="M1290 -281h-373l-182 256h-35q-342 0 -499 275q-107 188 -107 465q0 278 107 465q159 275 499 275q343 0 502 -279q106 -185 106 -459q0 -289 -117 -484q-44 -73 -97 -121q-27 -26 -85 -63zM700 1213q-147 0 -214 -168q-48 -122 -48 -328q0 -219 54 -344 q67 -156 208 -156q124 0 191 118q73 129 73 379q0 214 -53 339q-67 160 -211 160z" />
<glyph unicode="R" horiz-adv-x="1214" vert-adv-y="2457" d="M135 0v1430h524q162 0 272 -62q165 -95 165 -307q0 -98 -38 -175q-43 -87 -129 -135q-37 -20 -118 -40v-5q69 -10 105 -45q47 -46 93 -194l148 -467h-352l-111 383q-39 135 -86 170q-33 24 -137 24v-577h-336zM459 1188v-369h104q91 0 145 54q52 52 52 136q0 56 -24 98 q-46 81 -175 81h-102z" />
<glyph unicode="S" horiz-adv-x="1100" vert-adv-y="2457" d="M927 1405l-14 -266q-151 74 -285 74q-69 0 -118 -28q-70 -40 -70 -122q0 -56 23 -85q50 -66 189 -121q221 -88 291 -209q60 -104 60 -236q0 -181 -117 -298q-141 -139 -390 -139q-174 0 -377 60l18 278q26 -10 57 -23q157 -65 254 -65q66 0 116 24q95 45 95 143 q0 59 -24 90q-53 67 -194 124q-219 88 -288 206q-57 100 -57 226q0 93 39 178q44 93 121 148q128 91 339 91q100 0 236 -29q25 -5 68 -14q10 -3 28 -7z" />
<glyph unicode="T" horiz-adv-x="1024" vert-adv-y="2457" d="M344 0v1172h-311v258h958v-258h-311v-1172h-336z" />
<glyph unicode="U" horiz-adv-x="1290" vert-adv-y="2457" d="M1170 1430v-912q0 -276 -159 -420q-136 -123 -366 -123q-257 0 -397 154q-127 140 -127 389v912h336v-965q0 -232 189 -232q188 0 188 232v965h336z" />
<glyph unicode="V" horiz-adv-x="1251" vert-adv-y="2457" d="M442 0l-426 1430h360l252 -1043h4l258 1043h345l-433 -1430h-360z" />
<glyph unicode="W" horiz-adv-x="1745" vert-adv-y="2457" d="M1059 0l-185 1110h-4l-178 -1110h-393l-287 1430h324l172 -1016h4l170 1016h393l174 -1016h4l184 1016h295l-280 -1430h-393z" />
<glyph unicode="X" horiz-adv-x="1251" vert-adv-y="2457" d="M428 758l-367 672h377l194 -449l216 449h360l-375 -672l404 -758h-377l-228 512l-258 -512h-360z" />
<glyph unicode="Y" horiz-adv-x="1212" vert-adv-y="2457" d="M438 0v547l-434 883h385l229 -553l213 553h377l-434 -889v-541h-336z" />
<glyph unicode="Z" horiz-adv-x="1063" vert-adv-y="2457" d="M61 0v274l555 898h-541v258h918v-262l-555 -910h563v-258h-940z" />
<glyph unicode="[" horiz-adv-x="645" vert-adv-y="2457" d="M147 -287v1835h436v-205h-186v-1425h186v-205h-436z" />
<glyph unicode="\" horiz-adv-x="606" vert-adv-y="2457" d="M242 1454l336 -1479h-213l-336 1479h213z" />
<glyph unicode="]" horiz-adv-x="645" vert-adv-y="2457" d="M497 1548v-1835h-436v205h186v1425h-186v205h436z" />
<glyph unicode="^" horiz-adv-x="1229" vert-adv-y="2457" d="M135 641l381 789h197l380 -789h-213l-266 576l-266 -576h-213z" />
<glyph unicode="_" horiz-adv-x="1024" vert-adv-y="2457" d="M1024 -256h-1024v103h1024v-103z" />
<glyph unicode="`" horiz-adv-x="455" vert-adv-y="2457" d="M199 1188l-205 299h283l110 -299h-188z" />
<glyph unicode="a" horiz-adv-x="1100" vert-adv-y="2457" d="M201 776l-14 240q217 68 360 68q257 0 362 -116q83 -90 83 -277v-390q0 -201 8 -301h-295l-8 148h-4q-15 -46 -62 -84q-98 -80 -235 -80q-147 0 -237 90q-89 89 -89 230q0 362 529 362h98q-3 70 -17 102q-42 103 -182 103q-134 0 -297 -95zM697 514q-127 -1 -194 -20 q-138 -39 -138 -166q0 -139 137 -139q84 0 136 58q59 68 59 206v61z" />
<glyph unicode="b" horiz-adv-x="1176" vert-adv-y="2457" d="M104 0q1 13 4 50q4 61 4 190v1296h324v-627h4q77 175 274 175q200 0 297 -169q78 -136 78 -359q0 -242 -89 -398q-99 -174 -291 -174q-190 0 -285 186h-4q-1 -89 -9 -170h-307zM600 863q-164 0 -164 -324q0 -138 35 -220q43 -102 128 -102q89 0 127 103q27 70 27 216 q0 137 -18 205q-31 122 -135 122z" />
<glyph unicode="c" horiz-adv-x="909" vert-adv-y="2457" d="M856 272l11 -243q-172 -45 -294 -45q-295 0 -424 225q-79 139 -79 320q0 262 153 414q142 141 372 141q84 0 199 -34l62 -18l-16 -243q-121 45 -189 45q-137 0 -200 -111q-45 -80 -45 -199q0 -157 86 -236q69 -62 175 -62q67 0 189 46z" />
<glyph unicode="d" horiz-adv-x="1176" vert-adv-y="2457" d="M1063 1536v-1296q0 -142 8 -240h-307q-8 81 -9 170h-4q-95 -186 -285 -186q-192 0 -292 174q-88 156 -88 398q0 223 78 359q97 169 297 169q196 0 274 -175h4v627h324zM575 863q-91 0 -127 -95q-26 -67 -26 -231q0 -320 154 -320q73 0 114 73q49 87 49 251 q0 322 -164 322z" />
<glyph unicode="e" horiz-adv-x="1100" vert-adv-y="2457" d="M965 45q-170 -61 -341 -61q-270 0 -410 157q-128 143 -128 390q0 235 124 389q132 164 361 164q138 0 236 -58q215 -127 215 -499v-78h-629q5 -111 66 -172q72 -72 199 -72q140 0 300 84zM393 625h334q-5 262 -167 262q-166 0 -167 -262z" />
<glyph unicode="f" horiz-adv-x="758" vert-adv-y="2457" d="M18 840v227h186v174q0 320 336 320q87 0 188 -21q12 -2 22 -4l-9 -225q-39 16 -88 16q-68 0 -97 -31q-28 -32 -28 -114v-115h195v-227h-195v-840h-324v840h-186z" />
<glyph unicode="g" horiz-adv-x="1176" vert-adv-y="2457" d="M1071 1067q-8 -99 -8 -240v-698q0 -194 -52 -314q-117 -270 -490 -270q-170 0 -386 64l10 264q185 -94 339 -94q180 0 234 139q28 73 29 270h-4q-22 -57 -62 -99q-86 -89 -220 -89q-156 0 -255 114q-120 138 -120 419q0 234 82 377q99 173 299 173q198 0 284 -186h4 l9 170h307zM577 850q-155 0 -155 -309q0 -314 157 -314q75 0 115 71q45 79 45 230q0 139 -36 223q-42 99 -126 99z" />
<glyph unicode="h" horiz-adv-x="1139" vert-adv-y="2457" d="M113 0v1536h324v-627h4q28 76 83 117q78 58 190 58q178 0 256 -133q56 -95 56 -252v-699h-324v658q0 167 -122 167q-143 0 -143 -227v-598h-324z" />
<glyph unicode="i" horiz-adv-x="569" vert-adv-y="2457" d="M123 0v1067h324v-1067h-324zM123 1249v287h324v-287h-324z" />
<glyph unicode="j" horiz-adv-x="569" vert-adv-y="2457" d="M123 1067h324v-1128q0 -394 -313 -394q-109 0 -185 31l8 213q23 -10 55 -10q111 0 111 151v1137zM123 1249v287h324v-287h-324z" />
<glyph unicode="k" horiz-adv-x="1100" vert-adv-y="2457" d="M123 0v1536h324v-901h4l270 432h336l-334 -489l357 -578h-361l-268 506h-4v-506h-324z" />
<glyph unicode="l" horiz-adv-x="569" vert-adv-y="2457" d="M123 0v1536h324v-1536h-324z" />
<glyph unicode="m" horiz-adv-x="1708" vert-adv-y="2457" d="M1271 0v657q0 168 -123 168q-77 0 -111 -58q-21 -37 -21 -91v-676h-324v657q0 168 -114 168q-142 0 -142 -227v-598h-324v844q0 130 -8 223h295l1 -18q6 -75 7 -160h4q39 85 87 127q79 67 213 67q132 0 206 -70q40 -37 72 -108q39 76 83 114q77 64 204 64q319 0 319 -385 v-698h-324z" />
<glyph unicode="n" horiz-adv-x="1139" vert-adv-y="2457" d="M702 0v657q0 168 -123 168q-143 0 -143 -227v-598h-324v844q0 130 -8 223h295l1 -18q6 -75 7 -160h4q39 85 87 127q78 67 210 67q318 0 318 -385v-698h-324z" />
<glyph unicode="o" horiz-adv-x="1176" vert-adv-y="2457" d="M587 1084q238 0 372 -152q131 -148 131 -396q0 -283 -165 -434q-129 -118 -337 -118q-236 0 -371 150q-131 147 -131 398q0 284 161 432q130 120 340 120zM588 863q-166 0 -166 -324q0 -334 166 -334t166 330q0 328 -166 328z" />
<glyph unicode="p" horiz-adv-x="1176" vert-adv-y="2457" d="M112 -442v1269q0 117 -8 240h307q8 -82 9 -170h4q96 186 286 186q191 0 290 -175q89 -155 89 -397q0 -223 -78 -359q-97 -168 -297 -168q-197 0 -274 174h-4v-600h-324zM599 850q-73 0 -114 -73q-49 -86 -49 -251q0 -321 164 -321q91 0 127 94q26 67 26 232 q0 319 -154 319z" />
<glyph unicode="q" horiz-adv-x="1176" vert-adv-y="2457" d="M1071 1067q-8 -99 -8 -240v-1269h-324v600h-4q-77 -174 -274 -174q-200 0 -297 168q-78 136 -78 359q0 242 88 397q100 175 291 175q190 0 286 -186h4q1 87 9 170h307zM576 850q-154 0 -154 -318q0 -139 18 -206q31 -121 135 -121q164 0 164 319q0 141 -35 224 q-43 102 -128 102z" />
<glyph unicode="r" horiz-adv-x="797" vert-adv-y="2457" d="M112 0v844q0 130 -8 223h295q1 -26 4 -96l2 -37q2 -41 2 -60h4q60 104 90 136q73 73 207 73h47v-299q-56 13 -106 13q-121 0 -171 -88q-42 -73 -42 -232v-477h-324z" />
<glyph unicode="s" horiz-adv-x="872" vert-adv-y="2457" d="M755 1041l-8 -242q-151 58 -254 58q-66 0 -100 -27q-27 -22 -27 -56q0 -48 60 -81q36 -20 163 -68q89 -34 138 -80q86 -82 86 -226q0 -193 -144 -278q-97 -57 -254 -57q-196 0 -346 51l8 250q128 -74 270 -74q159 0 159 93q0 24 -15 38q-24 23 -130 63q-112 42 -161 75 q-141 97 -141 274q0 133 90 222q107 108 312 108q160 0 294 -43z" />
<glyph unicode="t" horiz-adv-x="797" vert-adv-y="2457" d="M29 840v227h184v219l316 100v-319h209v-227h-209v-490q0 -133 112 -133q50 0 103 23v-228q-79 -28 -220 -28q-164 0 -246 90q-73 80 -73 225v541h-176z" />
<glyph unicode="u" horiz-adv-x="1139" vert-adv-y="2457" d="M1026 1067v-844q0 -146 8 -223h-295q-8 92 -8 178h-4q-39 -85 -87 -127q-78 -67 -209 -67q-318 0 -318 385v698h324v-657q0 -168 122 -168q143 0 143 227v598h324z" />
<glyph unicode="v" horiz-adv-x="1063" vert-adv-y="2457" d="M340 0l-332 1067h336l196 -760h5l194 760h316l-334 -1067h-381z" />
<glyph unicode="w" horiz-adv-x="1630" vert-adv-y="2457" d="M10 1067h324l155 -760h4l152 760h369l145 -760h4l150 760h307l-285 -1067h-344l-174 780h-4l-164 -780h-352z" />
<glyph unicode="x" horiz-adv-x="1063" vert-adv-y="2457" d="M692 0l-166 358l-180 -358h-336l334 569l-303 498h360l150 -319l145 319h336l-303 -498l323 -569h-360z" />
<glyph unicode="y" horiz-adv-x="1063" vert-adv-y="2457" d="M1052 1067l-376 -1165q-51 -158 -120 -241q-96 -116 -250 -116q-100 0 -198 27l11 240q43 -25 100 -25q81 0 127 80q31 54 35 133l-371 1067h336l199 -723h4l188 723h315z" />
<glyph unicode="z" horiz-adv-x="872" vert-adv-y="2457" d="M67 825v242h740v-264l-400 -561h410v-242h-762v267l408 558h-396z" />
<glyph unicode="{" horiz-adv-x="682" vert-adv-y="2457" d="M37 542v177q82 3 127 53t45 137v362q0 141 104 218q81 59 195 59h154v-164h-92q-63 0 -85 -39q-18 -32 -18 -110v-355q0 -219 -229 -247v-5q75 -8 118 -32q111 -60 111 -230v-340q0 -69 13 -101q21 -48 90 -48h92v-164h-154q-142 0 -226 85q-73 74 -73 192v348 q0 109 -60 163q-42 38 -112 41z" />
<glyph unicode="|" horiz-adv-x="455" vert-adv-y="2457" d="M121 -512v2048h213v-2048h-213z" />
<glyph unicode="}" horiz-adv-x="682" vert-adv-y="2457" d="M645 719v-177q-80 -3 -124 -53q-48 -54 -48 -151v-348q0 -118 -73 -192q-84 -85 -226 -85h-154v164h92q63 0 85 38q18 32 18 111v340q0 177 119 234q41 21 110 28v5q-229 27 -229 247v355q0 68 -13 100q-21 49 -90 49h-92v164h154q123 0 206 -68q93 -76 93 -209v-362 q0 -98 56 -148q44 -40 116 -42z" />
<glyph unicode="~" horiz-adv-x="1229" vert-adv-y="2457" d="M215 338l-74 178q38 70 78 109q72 71 174 71q66 0 130 -22q35 -11 105 -47q145 -74 214 -74q49 0 96 47q28 28 75 98l74 -178q-110 -180 -240 -180q-74 0 -156 34q-31 14 -102 51q-111 58 -194 58q-78 0 -130 -63q-25 -29 -50 -82z" />
<glyph unicode="&#xa0;" vert-adv-y="2457" />
<glyph unicode="&#xa1;" horiz-adv-x="795" vert-adv-y="2457" d="M545 1067v-307h-295v307h295zM560 -362h-324l41 974h242z" />
<glyph unicode="&#xa2;" horiz-adv-x="1085" vert-adv-y="2457" d="M778 826l-88 -600q22 -6 39 -6q61 0 111 15q32 9 89 32l11 -246q-151 -41 -287 -45l-37 -252h-111l39 260q-110 25 -163 58q-133 80 -194 239q-42 112 -42 243q0 278 169 433q139 127 359 127h29l35 233h110l-34 -250q65 -20 118 -37l-16 -245q-79 30 -137 41zM583 271 l82 555q-84 -25 -126 -85q-58 -82 -58 -221q0 -167 102 -249z" />
<glyph unicode="&#xa3;" horiz-adv-x="1085" vert-adv-y="2457" d="M235 242v422h-143v184h143v129q0 245 136 367q123 111 354 111q122 0 262 -35l-12 -242q-116 43 -203 43q-118 0 -174 -63t-56 -201v-109h312v-184h-312v-422h451v-242h-901v242h143z" />
<glyph unicode="&#xa4;" horiz-adv-x="1065" vert-adv-y="2457" d="M916 1210l112 -112l-108 -109q86 -135 86 -274q0 -134 -86 -275l108 -108l-112 -113l-109 109q-136 -86 -274 -86q-139 0 -275 86l-108 -109l-113 113l109 108q-86 133 -86 275q0 137 86 274l-109 109l113 112l108 -108q132 86 274 86q137 0 275 -86zM533 991 q-105 0 -180 -76q-80 -81 -80 -200q0 -120 80 -201q75 -75 178 -75q106 0 181 75q81 82 81 201q0 117 -81 200q-74 76 -179 76z" />
<glyph unicode="&#xa5;" horiz-adv-x="1085" vert-adv-y="2457" d="M105 578v213h190l-264 639h307l211 -598h5l194 598h306l-261 -639h188v-213h-276l-14 -37v-99h290v-213h-290v-229h-295v229h-291v213h291v105l-15 31h-276z" />
<glyph unicode="&#xa6;" horiz-adv-x="455" vert-adv-y="2457" d="M121 -358v716h213v-716h-213zM121 666v716h213v-716h-213z" />
<glyph unicode="&#xa7;" horiz-adv-x="1063" vert-adv-y="2457" d="M877 1397l-23 -235q-165 72 -264 72q-52 0 -92 -22q-49 -28 -49 -90q0 -41 36 -68q23 -18 134 -79q181 -98 231 -142q105 -90 105 -227q0 -115 -73 -204q-27 -33 -87 -84q47 -32 76 -77q49 -75 49 -163q0 -133 -95 -228q-118 -118 -338 -118q-160 0 -364 75l25 242l15 -7 q72 -32 107 -45q98 -38 176 -38q71 0 115 35q44 34 44 87q0 46 -36 83q-29 30 -93 66l-142 77q-225 124 -225 303q0 105 73 196q49 62 105 81q-69 52 -101 99q-44 66 -44 153q0 121 85 206q109 110 311 110q106 0 244 -31q55 -13 95 -27zM437 801q-62 -65 -62 -134 q0 -81 85 -149q55 -45 171 -100q58 63 58 140q0 75 -84 143q-56 45 -168 100z" />
<glyph unicode="&#xa8;" horiz-adv-x="455" vert-adv-y="2457" d="M-70 1239v258h242v-258h-242zM282 1239v258h242v-258h-242z" />
<glyph unicode="&#xa9;" horiz-adv-x="1638" vert-adv-y="2457" d="M1028 596h164q-21 -107 -68 -171q-102 -140 -286 -140q-163 0 -274 111q-126 125 -126 327q0 203 125 326q109 108 276 108q142 0 237 -82q54 -47 85 -114q17 -38 31 -111h-164q-35 143 -187 143q-123 0 -179 -99q-40 -71 -40 -168q0 -122 63 -201q61 -76 160 -76 q160 0 183 147zM819 1455q196 0 368 -99q173 -99 273 -273q99 -171 99 -368q0 -196 -99 -368q-99 -174 -273 -274q-171 -98 -368 -98q-196 0 -367 98q-174 101 -274 274q-98 171 -98 363q0 309 217 528q108 109 257 167q127 50 265 50zM822 1279q-219 0 -368 -150 q-161 -162 -161 -414q0 -254 161 -415q149 -149 365 -149q214 0 364 149q163 163 163 415q0 249 -163 414q-81 82 -197 122q-82 28 -164 28z" />
<glyph unicode="&#xaa;" horiz-adv-x="715" vert-adv-y="2457" d="M133 1416q153 39 235 39q172 0 240 -75q49 -53 49 -161v-228q0 -137 6 -180h-197l-6 86h-4q-8 -23 -33 -43q-66 -51 -159 -51q-102 0 -161 60q-52 51 -52 131q0 210 344 210h65q-3 61 -32 88q-31 28 -93 28q-87 0 -192 -58zM460 1112q-212 -2 -212 -110q0 -76 86 -76 q72 0 104 55q22 39 22 97v34z" />
<glyph unicode="&#xab;" horiz-adv-x="1065" vert-adv-y="2457" d="M74 532l203 424h256l-185 -424l185 -423h-256zM494 532l203 424h256l-185 -424l185 -423h-256z" />
<glyph unicode="&#xac;" horiz-adv-x="1229" vert-adv-y="2457" d="M919 221v414h-823v213h1036v-627h-213z" />
<glyph unicode="&#xad;" horiz-adv-x="682" vert-adv-y="2457" d="M86 463v250h510v-250h-510z" />
<glyph unicode="&#xae;" horiz-adv-x="1638" vert-adv-y="2457" d="M535 324v792h285q181 0 251 -76q52 -57 52 -159q0 -187 -188 -213l200 -344h-188l-176 336h-72v-336h-164zM699 981v-186h123q59 0 88 12q49 21 49 82q0 49 -37 70q-38 22 -119 22h-104zM819 1455q196 0 368 -99q173 -99 273 -273q99 -171 99 -368q0 -196 -99 -368 q-99 -174 -273 -274q-171 -98 -368 -98q-196 0 -367 98q-174 101 -274 274q-98 171 -98 363q0 309 217 528q108 109 257 167q127 50 265 50zM819 1279q-216 0 -365 -150q-161 -162 -161 -410q0 -258 161 -419q149 -149 365 -149q214 0 364 149q163 163 163 415 q0 250 -163 414q-75 76 -178 115q-90 35 -186 35z" />
<glyph unicode="&#xaf;" horiz-adv-x="455" vert-adv-y="2457" d="M515 1421v-182h-575v182h575z" />
<glyph unicode="&#xb0;" horiz-adv-x="819" vert-adv-y="2457" d="M410 1455q136 0 234 -98t98 -234t-98 -234t-234 -98q-137 0 -235 98q-97 97 -97 231q0 138 97 237q97 98 235 98zM410 1291q-69 0 -119 -50q-49 -49 -49 -117q0 -71 49 -120t119 -49q69 0 118 49q50 50 50 119q0 68 -50 118q-49 50 -118 50z" />
<glyph unicode="&#xb1;" horiz-adv-x="1229" vert-adv-y="2457" d="M508 766v270h213v-270h411v-213h-411v-270h-213v270h-412v213h412zM96 0v213h1036v-213h-1036z" />
<glyph unicode="&#xb2;" horiz-adv-x="692" vert-adv-y="2457" d="M57 577v154l68 69q24 26 55 57q93 92 143 156q72 93 72 159q0 42 -28 71q-36 36 -95 36q-84 0 -184 -68l-17 194q185 50 271 50q123 0 202 -63q85 -68 85 -177q0 -117 -113 -267q-43 -55 -73 -84l-105 -102l-21 -21h318v-164h-578z" />
<glyph unicode="&#xb3;" horiz-adv-x="692" vert-adv-y="2457" d="M176 945v151q105 0 154 14q76 21 76 77q0 46 -41 75q-40 29 -100 29q-50 0 -147 -32q-17 -6 -34 -11l-11 168q157 39 277 39t196 -61q81 -63 81 -166q0 -133 -185 -195v-4q197 -32 197 -210q0 -126 -116 -191q-106 -58 -241 -58q-68 0 -158 18q-43 8 -71 19l10 172 q125 -45 181 -45q88 0 131 43q31 31 31 69q0 99 -165 99h-65z" />
<glyph unicode="&#xb4;" horiz-adv-x="455" vert-adv-y="2457" d="M68 1188l111 299h282l-205 -299h-188z" />
<glyph unicode="&#xb5;" horiz-adv-x="1139" vert-adv-y="2457" d="M113 -442v1509h324v-657q0 -168 122 -168q143 0 143 227v598h324v-844q0 -146 8 -223h-295q-8 92 -8 178h-4q-86 -194 -227 -194q-65 0 -88 45h-4v-471h-295z" />
<glyph unicode="&#xb6;" horiz-adv-x="1270" vert-adv-y="2457" d="M453 -254v953q-119 5 -196 50q-171 100 -171 313q0 220 148 305q111 63 344 63h518v-1684h-213v1520h-217v-1520h-213z" />
<glyph unicode="&#xb7;" vert-adv-y="2457" d="M267 727q70 0 113 -44q44 -44 44 -114t-44 -114q-43 -43 -112 -43q-72 0 -115 43q-44 44 -44 114t44 114q43 44 114 44z" />
<glyph unicode="&#xb8;" horiz-adv-x="455" vert-adv-y="2457" d="M190 14h111l-78 -129q29 10 68 10q81 0 129 -47q45 -45 45 -115q0 -96 -90 -148q-69 -40 -160 -40q-81 0 -163 23q-33 9 -52 20l39 94q2 -1 7 -3q64 -31 136 -31q107 0 107 80q0 35 -28 55q-26 18 -65 18t-71 -16l-45 37z" />
<glyph unicode="&#xb9;" horiz-adv-x="692" vert-adv-y="2457" d="M494 1446v-868h-227v635l-117 -107l-100 140l260 200h184z" />
<glyph unicode="&#xba;" horiz-adv-x="758" vert-adv-y="2457" d="M376 1455q165 0 254 -98q76 -85 76 -223q0 -163 -99 -253q-86 -78 -228 -78q-160 0 -248 98q-80 89 -80 233q0 156 97 243q87 78 228 78zM379 1320q-107 0 -107 -187q0 -94 29 -147q27 -48 76 -48q108 0 108 196q0 186 -106 186z" />
<glyph unicode="&#xbb;" horiz-adv-x="1065" vert-adv-y="2457" d="M789 956l203 -424l-203 -423h-256l184 423l-184 424h256zM369 956l203 -424l-203 -423h-256l184 423l-184 424h256z" />
<glyph unicode="&#xbc;" horiz-adv-x="1593" vert-adv-y="2457" d="M862 156v187l314 525h250v-560h86v-152h-86v-156h-221v156h-343zM1213 308v339h-4l-183 -339h187zM346 -68l645 1565h185l-645 -1565h-185zM479 1446v-868h-227v635l-117 -107l-100 140l260 200h184z" />
<glyph unicode="&#xbd;" horiz-adv-x="1593" vert-adv-y="2457" d="M309 -68l646 1565h184l-645 -1565h-185zM479 1446v-868h-227v635l-117 -107l-100 140l260 200h184zM934 0v154l68 69q25 27 55 57q94 93 142 156q73 92 73 159q0 41 -28 70q-36 36 -95 36q-84 0 -184 -68l-17 195q184 49 271 49q122 0 202 -63q85 -68 85 -176 q0 -117 -114 -267q-42 -56 -72 -84l-105 -103l-21 -20h318v-164h-578z" />
<glyph unicode="&#xbe;" horiz-adv-x="1593" vert-adv-y="2457" d="M862 156v187l313 525h250v-560h86v-152h-86v-156h-221v156h-342zM1212 308v339h-4l-182 -339h186zM383 -68l645 1565h184l-645 -1565h-184zM176 945v151q105 0 154 14q76 21 76 77q0 46 -41 75q-40 29 -100 29q-50 0 -147 -32q-17 -6 -34 -11l-11 168q157 39 277 39 t196 -61q81 -63 81 -166q0 -133 -185 -195v-4q197 -32 197 -210q0 -126 -116 -191q-106 -58 -241 -58q-68 0 -158 18q-43 8 -71 19l10 172q125 -45 181 -45q88 0 131 43q31 31 31 69q0 99 -165 99h-65z" />
<glyph unicode="&#xbf;" horiz-adv-x="948" vert-adv-y="2457" d="M608 610v-70q0 -52 -23 -106q-19 -46 -81 -132q-48 -66 -76 -118q-35 -66 -35 -144q0 -169 202 -169q94 0 171 32q19 8 67 33l13 -264q-156 -59 -333 -59q-179 0 -294 67q-162 94 -162 297q0 96 42 189q33 74 124 195q48 62 77 111q34 55 34 105v33h274zM620 1067v-307 h-295v307h295z" />
<glyph unicode="&#xc0;" horiz-adv-x="1327" vert-adv-y="2457" d="M970 0l-88 319h-448l-98 -319h-324l475 1430h369l459 -1430h-345zM817 561l-148 594h-4l-170 -594h322zM635 1520l-205 299h282l111 -299h-188z" />
<glyph unicode="&#xc1;" horiz-adv-x="1327" vert-adv-y="2457" d="M970 0l-88 319h-448l-98 -319h-324l475 1430h369l459 -1430h-345zM817 561l-148 594h-4l-170 -594h322zM504 1520l110 299h283l-205 -299h-188z" />
<glyph unicode="&#xc2;" horiz-adv-x="1327" vert-adv-y="2457" d="M970 0l-88 319h-448l-98 -319h-324l475 1430h369l459 -1430h-345zM817 561l-148 594h-4l-170 -594h322zM358 1520l158 299h295l157 -299h-204l-101 176l-100 -176h-205z" />
<glyph unicode="&#xc3;" horiz-adv-x="1327" vert-adv-y="2457" d="M970 0l-88 319h-448l-98 -319h-324l475 1430h369l459 -1430h-345zM817 561l-148 594h-4l-170 -594h322zM493 1548h-151q8 86 39 145q55 105 156 105q62 0 158 -46q60 -28 84 -28q42 0 54 74h152q-4 -76 -31 -137q-51 -113 -162 -113q-55 0 -158 45q-66 29 -86 29 q-26 0 -42 -27q-11 -22 -13 -47z" />
<glyph unicode="&#xc4;" horiz-adv-x="1327" vert-adv-y="2457" d="M970 0l-88 319h-448l-98 -319h-324l475 1430h369l459 -1430h-345zM817 561l-148 594h-4l-170 -594h322zM366 1557v258h242v-258h-242zM718 1557v258h242v-258h-242z" />
<glyph unicode="&#xc5;" horiz-adv-x="1327" vert-adv-y="2457" d="M970 0l-88 319h-448l-98 -319h-324l475 1430h369l459 -1430h-345zM817 561l-148 594h-4l-170 -594h322zM663 1944q93 0 161 -67q67 -68 67 -161t-67 -160t-161 -67t-160 67q-67 67 -67 159q0 94 67 162q66 67 160 67zM663 1833q-48 0 -82 -35q-34 -34 -34 -81 q0 -49 34 -83t82 -34t82 34q35 35 35 82t-35 82q-34 35 -82 35z" />
<glyph unicode="&#xc6;" horiz-adv-x="1782" vert-adv-y="2457" d="M885 0v319h-387l-133 -319h-352l653 1430h1001v-250h-467v-320h438v-250h-438v-360h487v-250h-802zM885 561v648h-4l-283 -648h287z" />
<glyph unicode="&#xc7;" horiz-adv-x="1176" vert-adv-y="2457" d="M534 -178l97 166q-132 30 -208 75q-145 85 -230 238q-99 179 -99 422q0 348 199 548q182 184 461 184q188 0 360 -70l-16 -279q-147 83 -284 83q-208 0 -307 -173q-69 -122 -69 -294q0 -209 106 -341q106 -131 276 -131q136 0 269 68q9 5 17 8l12 -299q-162 -51 -358 -51 h-27l-55 -90q30 10 68 10q80 0 128 -47q45 -45 45 -115q0 -97 -90 -149q-68 -39 -159 -39q-82 0 -164 23q-32 9 -52 20l39 94q3 -1 7 -3q62 -31 136 -31q107 0 107 80q0 35 -28 55q-25 18 -64 18t-72 -16z" />
<glyph unicode="&#xc8;" horiz-adv-x="1063" vert-adv-y="2457" d="M135 0v1430h825v-250h-501v-320h477v-250h-477v-360h526v-250h-850zM504 1520l-205 299h282l111 -299h-188z" />
<glyph unicode="&#xc9;" horiz-adv-x="1063" vert-adv-y="2457" d="M135 0v1430h825v-250h-501v-320h477v-250h-477v-360h526v-250h-850zM373 1520l110 299h283l-205 -299h-188z" />
<glyph unicode="&#xca;" horiz-adv-x="1063" vert-adv-y="2457" d="M135 0v1430h825v-250h-501v-320h477v-250h-477v-360h526v-250h-850zM227 1520l158 299h295l157 -299h-204l-101 176l-100 -176h-205z" />
<glyph unicode="&#xcb;" horiz-adv-x="1063" vert-adv-y="2457" d="M135 0v1430h825v-250h-501v-320h477v-250h-477v-360h526v-250h-850zM235 1557v258h242v-258h-242zM587 1557v258h242v-258h-242z" />
<glyph unicode="&#xcc;" horiz-adv-x="606" vert-adv-y="2457" d="M136 0v1430h336v-1430h-336zM275 1520l-205 299h283l110 -299h-188z" />
<glyph unicode="&#xcd;" horiz-adv-x="606" vert-adv-y="2457" d="M135 0v1430h336v-1430h-336zM143 1520l111 299h282l-204 -299h-189z" />
<glyph unicode="&#xce;" horiz-adv-x="606" vert-adv-y="2457" d="M135 0v1430h336v-1430h-336zM-2 1520l158 299h295l157 -299h-204l-101 176l-100 -176h-205z" />
<glyph unicode="&#xcf;" horiz-adv-x="606" vert-adv-y="2457" d="M135 0v1430h336v-1430h-336zM6 1557v258h242v-258h-242zM358 1557v258h242v-258h-242z" />
<glyph unicode="&#xd0;" horiz-adv-x="1366" vert-adv-y="2457" d="M0 615v233h135v582h508q298 0 471 -195q168 -190 168 -526q0 -356 -209 -545q-182 -164 -473 -164h-465v615h-135zM680 848v-233h-209v-365h107q194 0 285 156q67 117 67 302q0 191 -68 311q-91 161 -305 161h-86v-332h209z" />
<glyph unicode="&#xd1;" horiz-adv-x="1366" vert-adv-y="2457" d="M129 0v1430h393l416 -992h4v992h295v-1430h-397l-412 1035h-4v-1035h-295zM514 1548h-152q9 86 40 145q55 105 156 105q61 0 157 -46q60 -28 85 -28q42 0 54 74h152q-4 -76 -31 -137q-51 -113 -163 -113q-54 0 -157 45q-66 29 -87 29q-26 0 -41 -27q-12 -22 -13 -47z" />
<glyph unicode="&#xd2;" horiz-adv-x="1403" vert-adv-y="2457" d="M702 1455q340 0 500 -279q106 -185 106 -461t-106 -461q-159 -279 -502 -279q-274 0 -433 183q-173 199 -173 551q0 286 107 471q160 275 501 275zM700 1213q-147 0 -214 -168q-48 -122 -48 -328q0 -219 54 -344q67 -156 208 -156q124 0 191 118q73 130 73 379 q0 215 -53 339q-67 160 -211 160zM674 1520l-205 299h282l111 -299h-188z" />
<glyph unicode="&#xd3;" horiz-adv-x="1403" vert-adv-y="2457" d="M702 1455q340 0 500 -279q106 -185 106 -461t-106 -461q-159 -279 -502 -279q-274 0 -433 183q-173 199 -173 551q0 286 107 471q160 275 501 275zM700 1213q-147 0 -214 -168q-48 -122 -48 -328q0 -219 54 -344q67 -156 208 -156q124 0 191 118q73 130 73 379 q0 215 -53 339q-67 160 -211 160zM543 1520l110 299h283l-205 -299h-188z" />
<glyph unicode="&#xd4;" horiz-adv-x="1403" vert-adv-y="2457" d="M702 1455q340 0 500 -279q106 -185 106 -461t-106 -461q-159 -279 -502 -279q-274 0 -433 183q-173 199 -173 551q0 286 107 471q160 275 501 275zM700 1213q-147 0 -214 -168q-48 -122 -48 -328q0 -219 54 -344q67 -156 208 -156q124 0 191 118q73 130 73 379 q0 215 -53 339q-67 160 -211 160zM397 1520l158 299h295l157 -299h-204l-101 176l-100 -176h-205z" />
<glyph unicode="&#xd5;" horiz-adv-x="1403" vert-adv-y="2457" d="M702 1455q340 0 500 -279q106 -185 106 -461t-106 -461q-159 -279 -502 -279q-274 0 -433 183q-173 199 -173 551q0 286 107 471q160 275 501 275zM700 1213q-147 0 -214 -168q-48 -122 -48 -328q0 -219 54 -344q67 -156 208 -156q124 0 191 118q73 130 73 379 q0 215 -53 339q-67 160 -211 160zM532 1548h-151q8 86 39 145q55 105 156 105q62 0 158 -46q59 -28 84 -28q42 0 54 74h152q-4 -76 -31 -137q-51 -113 -162 -113q-55 0 -158 45q-66 29 -86 29q-26 0 -42 -27q-11 -22 -13 -47z" />
<glyph unicode="&#xd6;" horiz-adv-x="1403" vert-adv-y="2457" d="M702 1455q340 0 500 -279q106 -185 106 -461t-106 -461q-159 -279 -502 -279q-274 0 -433 183q-173 199 -173 551q0 286 107 471q160 275 501 275zM700 1213q-147 0 -214 -168q-48 -122 -48 -328q0 -219 54 -344q67 -156 208 -156q124 0 191 118q73 130 73 379 q0 215 -53 339q-67 160 -211 160zM405 1557v258h242v-258h-242zM757 1557v258h242v-258h-242z" />
<glyph unicode="&#xd7;" horiz-adv-x="1229" vert-adv-y="2457" d="M465 518l-332 330l152 151l329 -331l330 331l152 -151l-330 -330l330 -330l-152 -151l-330 330l-329 -330l-152 151z" />
<glyph unicode="&#xd8;" horiz-adv-x="1403" vert-adv-y="2457" d="M78 29l148 186q-132 204 -132 499q0 276 108 466q156 275 504 275q230 0 392 -146l133 166l94 -74l-147 -186q131 -207 131 -499q0 -274 -107 -462q-157 -279 -505 -279q-234 0 -392 146l-133 -166zM455 504l450 561q-69 148 -203 148q-124 0 -189 -114 q-75 -132 -75 -377q0 -115 17 -218zM946 926l-448 -563q70 -146 201 -146q126 0 192 118q74 132 74 375q0 116 -19 216z" />
<glyph unicode="&#xd9;" horiz-adv-x="1290" vert-adv-y="2457" d="M1170 1430v-912q0 -276 -159 -420q-136 -123 -366 -123q-257 0 -397 154q-127 140 -127 389v912h336v-965q0 -232 189 -232q188 0 188 232v965h336zM617 1520l-205 299h282l111 -299h-188z" />
<glyph unicode="&#xda;" horiz-adv-x="1290" vert-adv-y="2457" d="M1170 1430v-912q0 -276 -159 -420q-136 -123 -366 -123q-257 0 -397 154q-127 140 -127 389v912h336v-965q0 -232 189 -232q188 0 188 232v965h336zM486 1520l110 299h283l-205 -299h-188z" />
<glyph unicode="&#xdb;" horiz-adv-x="1290" vert-adv-y="2457" d="M1170 1430v-912q0 -276 -159 -420q-136 -123 -366 -123q-257 0 -397 154q-127 140 -127 389v912h336v-965q0 -232 189 -232q188 0 188 232v965h336zM340 1520l158 299h295l157 -299h-204l-101 176l-100 -176h-205z" />
<glyph unicode="&#xdc;" horiz-adv-x="1290" vert-adv-y="2457" d="M1170 1430v-912q0 -276 -159 -420q-136 -123 -366 -123q-257 0 -397 154q-127 140 -127 389v912h336v-965q0 -232 189 -232q188 0 188 232v965h336zM348 1557v258h242v-258h-242zM700 1557v258h242v-258h-242z" />
<glyph unicode="&#xdd;" horiz-adv-x="1212" vert-adv-y="2457" d="M438 0v547l-434 883h385l229 -553l213 553h377l-434 -889v-541h-336zM446 1520l111 299h283l-205 -299h-189z" />
<glyph unicode="&#xde;" horiz-adv-x="1139" vert-adv-y="2457" d="M135 0v1430h336v-173h121q259 0 385 -138q104 -114 104 -313q0 -226 -135 -350q-117 -106 -313 -106h-162v-350h-336zM459 1007v-407h106q83 0 132 55q48 55 48 152q0 200 -198 200h-88z" />
<glyph unicode="&#xdf;" horiz-adv-x="1176" vert-adv-y="2457" d="M123 0v1104q0 219 138 344q125 113 337 113q282 0 392 -190q55 -95 55 -212q0 -159 -91 -259q-66 -71 -168 -87v-4q86 -16 129 -39q175 -93 175 -346q0 -144 -63 -255q-106 -185 -348 -185q-86 0 -146 16l12 233q22 -16 60 -16q84 0 126 73q35 59 35 165q0 131 -52 180 q-43 40 -161 47v233q191 1 191 223q0 202 -148 202q-82 0 -117 -62q-32 -57 -32 -234v-1044h-324z" />
<glyph unicode="&#xe0;" horiz-adv-x="1100" vert-adv-y="2457" d="M201 776l-14 240q217 68 360 68q257 0 362 -116q83 -90 83 -277v-390q0 -201 8 -301h-295l-8 148h-4q-15 -46 -62 -84q-98 -80 -235 -80q-147 0 -237 90q-89 89 -89 230q0 362 529 362h98q-3 70 -17 102q-42 103 -182 103q-134 0 -297 -95zM697 514q-127 -1 -194 -20 q-138 -39 -138 -166q0 -139 137 -139q84 0 136 58q59 68 59 206v61zM523 1188l-205 299h282l111 -299h-188z" />
<glyph unicode="&#xe1;" horiz-adv-x="1100" vert-adv-y="2457" d="M201 776l-14 240q217 68 360 68q257 0 362 -116q83 -90 83 -277v-390q0 -201 8 -301h-295l-8 148h-4q-15 -46 -62 -84q-98 -80 -235 -80q-147 0 -237 90q-89 89 -89 230q0 362 529 362h98q-3 70 -17 102q-42 103 -182 103q-134 0 -297 -95zM697 514q-127 -1 -194 -20 q-138 -39 -138 -166q0 -139 137 -139q84 0 136 58q59 68 59 206v61zM392 1188l110 299h283l-205 -299h-188z" />
<glyph unicode="&#xe2;" horiz-adv-x="1100" vert-adv-y="2457" d="M201 776l-14 240q217 68 360 68q257 0 362 -116q83 -90 83 -277v-390q0 -201 8 -301h-295l-8 148h-4q-15 -46 -62 -84q-98 -80 -235 -80q-147 0 -237 90q-89 89 -89 230q0 362 529 362h98q-3 70 -17 102q-42 103 -182 103q-134 0 -297 -95zM697 514q-127 -1 -194 -20 q-138 -39 -138 -166q0 -139 137 -139q84 0 136 58q59 68 59 206v61zM246 1188l158 299h295l157 -299h-204l-101 176l-100 -176h-205z" />
<glyph unicode="&#xe3;" horiz-adv-x="1100" vert-adv-y="2457" d="M201 776l-14 240q217 68 360 68q257 0 362 -116q83 -90 83 -277v-390q0 -201 8 -301h-295l-8 148h-4q-15 -46 -62 -84q-98 -80 -235 -80q-147 0 -237 90q-89 89 -89 230q0 362 529 362h98q-3 70 -17 102q-42 103 -182 103q-134 0 -297 -95zM697 514q-127 -1 -194 -20 q-138 -39 -138 -166q0 -139 137 -139q84 0 136 58q59 68 59 206v61zM381 1217h-151q9 87 39 145q55 104 156 104q63 0 158 -45q59 -28 84 -28q43 0 54 73h152q-4 -76 -31 -136q-51 -113 -162 -113q-54 0 -158 45q-66 29 -86 29q-26 0 -42 -27q-11 -21 -13 -47z" />
<glyph unicode="&#xe4;" horiz-adv-x="1100" vert-adv-y="2457" d="M201 776l-14 240q217 68 360 68q257 0 362 -116q83 -90 83 -277v-390q0 -201 8 -301h-295l-8 148h-4q-15 -46 -62 -84q-98 -80 -235 -80q-147 0 -237 90q-89 89 -89 230q0 362 529 362h98q-3 70 -17 102q-42 103 -182 103q-134 0 -297 -95zM697 514q-127 -1 -194 -20 q-138 -39 -138 -166q0 -139 137 -139q84 0 136 58q59 68 59 206v61zM254 1239v258h242v-258h-242zM606 1239v258h242v-258h-242z" />
<glyph unicode="&#xe5;" horiz-adv-x="1100" vert-adv-y="2457" d="M201 776l-14 240q217 68 360 68q257 0 362 -116q83 -90 83 -277v-390q0 -201 8 -301h-295l-8 148h-4q-15 -46 -62 -84q-98 -80 -235 -80q-147 0 -237 90q-89 89 -89 230q0 362 529 362h98q-3 70 -17 102q-42 103 -182 103q-134 0 -297 -95zM697 514q-127 -1 -194 -20 q-138 -39 -138 -166q0 -139 137 -139q84 0 136 58q59 68 59 206v61zM572 1612q93 0 160 -67t67 -161q0 -93 -67 -160t-160 -67q-94 0 -161 67t-67 159q0 94 67 162q67 67 161 67zM572 1501q-48 0 -82 -34q-35 -35 -35 -82q0 -48 35 -83q34 -34 82 -34t82 34t34 82t-34 83 q-34 34 -82 34z" />
<glyph unicode="&#xe6;" horiz-adv-x="1669" vert-adv-y="2457" d="M205 776l-14 240q217 68 350 68q195 0 299 -99q128 99 301 99q115 0 203 -39q97 -43 153 -124q46 -67 73 -173q26 -105 26 -221v-78h-629q5 -111 66 -172q72 -72 199 -72q140 0 300 84l7 -244q-170 -61 -341 -61q-169 0 -287 59q-74 38 -134 115q-108 -174 -354 -174 q-178 0 -271 102q-78 85 -78 217q0 363 529 363h98q-3 70 -17 102q-43 103 -182 103q-134 0 -297 -95zM701 515q-119 -3 -186 -23q-140 -40 -140 -163q0 -66 40 -105q35 -35 90 -35q118 0 168 124q28 70 28 161v41zM967 646h334q-3 96 -29 156q-43 94 -130 94 q-61 0 -109 -47q-61 -61 -66 -203z" />
<glyph unicode="&#xe7;" horiz-adv-x="909" vert-adv-y="2457" d="M377 -178l99 170q-112 23 -166 55q-135 79 -197 238q-43 112 -43 244q0 262 153 414q142 141 372 141q84 0 199 -34l62 -18l-16 -243q-121 45 -189 45q-137 0 -200 -111q-45 -80 -45 -199q0 -157 86 -236q70 -63 175 -63q64 0 189 48l11 -244q-155 -41 -289 -45l-57 -99 q31 11 68 11q80 0 128 -48q45 -44 45 -114q0 -97 -90 -149q-70 -40 -159 -40q-79 0 -164 23q-32 9 -52 20l39 95q3 -1 7 -3q65 -32 136 -32q107 0 107 81q0 35 -28 55q-25 17 -64 17q-41 0 -72 -16z" />
<glyph unicode="&#xe8;" horiz-adv-x="1100" vert-adv-y="2457" d="M965 45q-170 -61 -341 -61q-270 0 -410 157q-128 143 -128 390q0 235 124 389q132 164 361 164q138 0 236 -58q215 -127 215 -499v-78h-629q5 -111 66 -172q72 -72 199 -72q140 0 300 84zM393 625h334q-5 262 -167 262q-166 0 -167 -262zM522 1188l-205 299h283l111 -299 h-189z" />
<glyph unicode="&#xe9;" horiz-adv-x="1100" vert-adv-y="2457" d="M965 45q-170 -61 -341 -61q-270 0 -410 157q-128 143 -128 390q0 235 124 389q132 164 361 164q138 0 236 -58q215 -127 215 -499v-78h-629q5 -111 66 -172q72 -72 199 -72q140 0 300 84zM393 625h334q-5 262 -167 262q-166 0 -167 -262zM391 1188l111 299h282l-204 -299 h-189z" />
<glyph unicode="&#xea;" horiz-adv-x="1100" vert-adv-y="2457" d="M965 45q-170 -61 -341 -61q-270 0 -410 157q-128 143 -128 390q0 235 124 389q132 164 361 164q138 0 236 -58q215 -127 215 -499v-78h-629q5 -111 66 -172q72 -72 199 -72q140 0 300 84zM393 625h334q-5 262 -167 262q-166 0 -167 -262zM246 1188l157 299h295l158 -299 h-205l-100 176l-100 -176h-205z" />
<glyph unicode="&#xeb;" horiz-adv-x="1100" vert-adv-y="2457" d="M965 45q-170 -61 -341 -61q-270 0 -410 157q-128 143 -128 390q0 235 124 389q132 164 361 164q138 0 236 -58q215 -127 215 -499v-78h-629q5 -111 66 -172q72 -72 199 -72q140 0 300 84zM393 625h334q-5 262 -167 262q-166 0 -167 -262zM254 1239v258h242v-258h-242z M606 1239v258h242v-258h-242z" />
<glyph unicode="&#xec;" horiz-adv-x="569" vert-adv-y="2457" d="M123 0v1067h324v-1067h-324zM256 1188l-205 299h283l110 -299h-188z" />
<glyph unicode="&#xed;" horiz-adv-x="569" vert-adv-y="2457" d="M123 0v1067h324v-1067h-324zM125 1188l111 299h282l-205 -299h-188z" />
<glyph unicode="&#xee;" horiz-adv-x="569" vert-adv-y="2457" d="M123 0v1067h324v-1067h-324zM-20 1188l158 299h295l157 -299h-204l-101 176l-100 -176h-205z" />
<glyph unicode="&#xef;" horiz-adv-x="569" vert-adv-y="2457" d="M123 0v1067h324v-1067h-324zM-12 1239v258h242v-258h-242zM340 1239v258h242v-258h-242z" />
<glyph unicode="&#xf0;" horiz-adv-x="1176" vert-adv-y="2457" d="M319 1147l-112 111l209 98q-81 50 -172 82l241 123q98 -28 187 -84l176 84l110 -111l-159 -76q82 -86 124 -154q167 -267 167 -632q0 -331 -170 -488q-127 -116 -333 -116q-235 0 -369 151q-132 148 -132 402q0 245 123 400q116 147 289 147q83 0 152 -52q32 -23 50 -57 h4q-45 157 -161 279zM588 863q-166 0 -166 -324q0 -334 166 -334t166 330q0 328 -166 328z" />
<glyph unicode="&#xf1;" horiz-adv-x="1139" vert-adv-y="2457" d="M702 0v657q0 168 -123 168q-143 0 -143 -227v-598h-324v844q0 130 -8 223h295l1 -18q6 -75 7 -160h4q39 85 87 127q78 67 210 67q318 0 318 -385v-698h-324zM399 1217h-152q9 86 40 145q54 104 156 104q63 0 157 -45q60 -28 85 -28q41 0 54 73h151q-4 -76 -31 -136 q-51 -113 -162 -113q-54 0 -157 45q-66 29 -87 29q-26 0 -41 -27q-12 -21 -13 -47z" />
<glyph unicode="&#xf2;" horiz-adv-x="1176" vert-adv-y="2457" d="M587 1084q238 0 372 -152q131 -148 131 -396q0 -283 -165 -434q-129 -118 -337 -118q-236 0 -371 150q-131 147 -131 398q0 284 161 432q130 120 340 120zM588 863q-166 0 -166 -324q0 -334 166 -334t166 330q0 328 -166 328zM559 1188l-205 299h283l111 -299h-189z" />
<glyph unicode="&#xf3;" horiz-adv-x="1176" vert-adv-y="2457" d="M587 1084q238 0 372 -152q131 -148 131 -396q0 -283 -165 -434q-129 -118 -337 -118q-236 0 -371 150q-131 147 -131 398q0 284 161 432q130 120 340 120zM588 863q-166 0 -166 -324q0 -334 166 -334t166 330q0 328 -166 328zM428 1188l111 299h282l-205 -299h-188z" />
<glyph unicode="&#xf4;" horiz-adv-x="1176" vert-adv-y="2457" d="M587 1084q238 0 372 -152q131 -148 131 -396q0 -283 -165 -434q-129 -118 -337 -118q-236 0 -371 150q-131 147 -131 398q0 284 161 432q130 120 340 120zM588 863q-166 0 -166 -324q0 -334 166 -334t166 330q0 328 -166 328zM283 1188l157 299h295l158 -299h-205 l-100 176l-101 -176h-204z" />
<glyph unicode="&#xf5;" horiz-adv-x="1176" vert-adv-y="2457" d="M587 1084q238 0 372 -152q131 -148 131 -396q0 -283 -165 -434q-129 -118 -337 -118q-236 0 -371 150q-131 147 -131 398q0 284 161 432q130 120 340 120zM588 863q-166 0 -166 -324q0 -334 166 -334t166 330q0 328 -166 328zM418 1217h-152q9 87 39 145q56 104 156 104 q64 0 158 -45q60 -28 84 -28q42 0 55 73h151q-4 -76 -31 -136q-51 -113 -162 -113q-54 0 -157 45q-66 29 -87 29q-26 0 -41 -27q-12 -21 -13 -47z" />
<glyph unicode="&#xf6;" horiz-adv-x="1176" vert-adv-y="2457" d="M587 1084q238 0 372 -152q131 -148 131 -396q0 -283 -165 -434q-129 -118 -337 -118q-236 0 -371 150q-131 147 -131 398q0 284 161 432q130 120 340 120zM588 863q-166 0 -166 -324q0 -334 166 -334t166 330q0 328 -166 328zM291 1239v258h242v-258h-242zM643 1239v258 h242v-258h-242z" />
<glyph unicode="&#xf7;" horiz-adv-x="1229" vert-adv-y="2457" d="M96 412v213h1036v-213h-1036zM613 1084q71 0 115 -44q44 -45 44 -114q0 -70 -44 -114t-114 -44t-114 44t-44 114q0 69 44 114q44 44 113 44zM614 269q69 0 114 -45q44 -44 44 -113q0 -70 -44 -114t-113 -44q-71 0 -115 44t-44 114q0 69 44 113q44 45 114 45z" />
<glyph unicode="&#xf8;" horiz-adv-x="1176" vert-adv-y="2457" d="M109 0l108 137q-131 159 -131 398q0 280 162 429q130 120 340 120q175 0 307 -93l90 115l82 -61l-98 -123q121 -157 121 -386q0 -283 -165 -434q-129 -118 -337 -118q-168 0 -295 84l-103 -129zM432 408l285 358q-45 97 -128 97q-171 0 -167 -348q1 -61 10 -107zM745 641 l-278 -354q43 -82 120 -82q167 0 167 330l-1 20q-1 49 -8 86z" />
<glyph unicode="&#xf9;" horiz-adv-x="1139" vert-adv-y="2457" d="M1026 1067v-844q0 -146 8 -223h-295q-8 92 -8 178h-4q-39 -85 -87 -127q-78 -67 -209 -67q-318 0 -318 385v698h324v-657q0 -168 122 -168q143 0 143 227v598h324zM541 1188l-205 299h283l110 -299h-188z" />
<glyph unicode="&#xfa;" horiz-adv-x="1139" vert-adv-y="2457" d="M1026 1067v-844q0 -146 8 -223h-295q-8 92 -8 178h-4q-39 -85 -87 -127q-78 -67 -209 -67q-318 0 -318 385v698h324v-657q0 -168 122 -168q143 0 143 227v598h324zM410 1188l111 299h282l-205 -299h-188z" />
<glyph unicode="&#xfb;" horiz-adv-x="1139" vert-adv-y="2457" d="M1026 1067v-844q0 -146 8 -223h-295q-8 92 -8 178h-4q-39 -85 -87 -127q-78 -67 -209 -67q-318 0 -318 385v698h324v-657q0 -168 122 -168q143 0 143 227v598h324zM265 1188l157 299h295l158 -299h-205l-100 176l-101 -176h-204z" />
<glyph unicode="&#xfc;" horiz-adv-x="1139" vert-adv-y="2457" d="M1026 1067v-844q0 -146 8 -223h-295q-8 92 -8 178h-4q-39 -85 -87 -127q-78 -67 -209 -67q-318 0 -318 385v698h324v-657q0 -168 122 -168q143 0 143 227v598h324zM273 1239v258h242v-258h-242zM625 1239v258h242v-258h-242z" />
<glyph unicode="&#xfd;" horiz-adv-x="1063" vert-adv-y="2457" d="M1052 1067l-376 -1165q-51 -158 -120 -241q-96 -116 -250 -116q-100 0 -198 27l11 240q43 -25 100 -25q81 0 127 80q31 54 35 133l-371 1067h336l199 -723h4l188 723h315zM372 1188l111 299h283l-205 -299h-189z" />
<glyph unicode="&#xfe;" horiz-adv-x="1176" vert-adv-y="2457" d="M113 -442v1978h324v-612h4q19 42 56 77q85 83 215 83q190 0 289 -175q89 -156 89 -398q0 -223 -78 -359q-97 -168 -297 -168q-197 0 -274 174h-4v-600h-324zM600 851q-73 0 -114 -74q-49 -86 -49 -251q0 -321 164 -321q91 0 127 94q26 68 26 230q0 119 -18 191 q-34 131 -136 131z" />
<glyph unicode="&#xff;" horiz-adv-x="1063" vert-adv-y="2457" d="M1052 1067l-376 -1165q-51 -158 -120 -241q-96 -116 -250 -116q-100 0 -198 27l11 240q43 -25 100 -25q81 0 127 80q31 54 35 133l-371 1067h336l199 -723h4l188 723h315zM235 1239v258h242v-258h-242zM587 1239v258h242v-258h-242z" />
<glyph unicode="&#x100;" horiz-adv-x="1327" vert-adv-y="2457" d="M970 0l-88 319h-448l-98 -319h-324l475 1430h369l459 -1430h-345zM817 561l-148 594h-4l-170 -594h322zM951 1750v-182h-575v182h575z" />
<glyph unicode="&#x101;" horiz-adv-x="1100" vert-adv-y="2457" d="M201 776l-14 240q217 68 360 68q257 0 362 -116q83 -90 83 -277v-390q0 -201 8 -301h-295l-8 148h-4q-15 -46 -62 -84q-98 -80 -235 -80q-147 0 -237 90q-89 89 -89 230q0 362 529 362h98q-3 70 -17 102q-42 103 -182 103q-134 0 -297 -95zM697 514q-127 -1 -194 -20 q-138 -39 -138 -166q0 -139 137 -139q84 0 136 58q59 68 59 206v61zM822 1396v-157h-575v157h575z" />
<glyph unicode="&#x102;" horiz-adv-x="1327" vert-adv-y="2457" d="M970 0l-88 319h-448l-98 -319h-324l475 1430h369l459 -1430h-345zM817 561l-148 594h-4l-170 -594h322zM512 1804q1 -42 19 -73q37 -64 130 -64q148 0 154 137h135q-4 -107 -43 -174q-74 -127 -244 -127q-169 0 -243 127q-39 66 -43 174h135z" />
<glyph unicode="&#x103;" horiz-adv-x="1100" vert-adv-y="2457" d="M201 776l-14 240q217 68 360 68q257 0 362 -116q83 -90 83 -277v-390q0 -201 8 -301h-295l-8 148h-4q-15 -46 -62 -84q-98 -80 -235 -80q-147 0 -237 90q-89 89 -89 230q0 362 529 362h98q-3 70 -17 102q-42 103 -182 103q-134 0 -297 -95zM697 514q-127 -1 -194 -20 q-138 -39 -138 -166q0 -139 137 -139q84 0 136 58q59 68 59 206v61zM453 1487q1 -42 19 -73q37 -64 131 -64q146 0 153 137h135q-4 -107 -43 -174q-74 -127 -244 -127t-243 127q-39 66 -43 174h135z" />
<glyph unicode="&#x104;" horiz-adv-x="1327" vert-adv-y="2457" d="M1186 0h-216l-88 319h-448l-98 -319h-324l475 1430h369l459 -1430h-36l-45 -53q-82 -97 -82 -181q0 -110 111 -110q45 0 77 6l29 -90q-73 -27 -184 -27q-104 0 -156 57q-41 46 -41 114q0 127 164 257zM817 561l-148 594h-4l-170 -594h322z" />
<glyph unicode="&#x105;" horiz-adv-x="1100" vert-adv-y="2457" d="M846 0h-141l-8 148h-4q-15 -46 -62 -84q-98 -80 -235 -80q-147 0 -237 90q-89 89 -89 230q0 362 529 362h98q-3 70 -17 102q-42 103 -182 103q-134 0 -297 -95l-14 240q217 68 360 68q257 0 362 -116q83 -90 83 -277v-390q0 -201 8 -301h-61l-45 -53q-82 -97 -82 -182 q0 -109 111 -109q45 0 78 6l28 -90q-72 -27 -184 -27q-104 0 -155 57q-42 46 -42 114q0 127 164 257zM697 514q-127 -1 -194 -20q-138 -39 -138 -166q0 -139 137 -139q84 0 136 58q59 68 59 206v61z" />
<glyph unicode="&#x106;" horiz-adv-x="1175" vert-adv-y="2457" d="M1114 1385l-16 -279q-148 83 -284 83q-208 0 -307 -173q-69 -122 -69 -295q0 -209 106 -340q105 -131 276 -131q137 0 269 67q9 5 17 9l12 -299q-163 -52 -345 -52q-290 0 -471 181q-208 207 -208 567q0 348 199 548q182 184 461 184q188 0 360 -70zM636 1505l111 299 h282l-205 -299h-188z" />
<glyph unicode="&#x107;" horiz-adv-x="909" vert-adv-y="2457" d="M856 272l11 -243q-172 -45 -294 -45q-295 0 -424 225q-79 139 -79 320q0 262 153 414q142 141 372 141q84 0 199 -34l62 -18l-16 -243q-121 45 -189 45q-137 0 -200 -111q-45 -80 -45 -199q0 -157 86 -236q69 -62 175 -62q67 0 189 46zM463 1188l111 299h283l-205 -299 h-189z" />
<glyph unicode="&#x10c;" horiz-adv-x="1175" vert-adv-y="2457" d="M1114 1385l-16 -279q-148 83 -284 83q-208 0 -307 -173q-69 -122 -69 -295q0 -209 106 -340q105 -131 276 -131q137 0 269 67q9 5 17 9l12 -299q-163 -52 -345 -52q-290 0 -471 181q-208 207 -208 567q0 348 199 548q182 184 461 184q188 0 360 -70zM585 1505l-158 299 h205l101 -176l100 176h205l-158 -299h-295z" />
<glyph unicode="&#x10d;" horiz-adv-x="909" vert-adv-y="2457" d="M856 272l11 -243q-172 -45 -294 -45q-295 0 -424 225q-79 139 -79 320q0 262 153 414q142 141 372 141q84 0 199 -34l62 -18l-16 -243q-121 45 -189 45q-137 0 -200 -111q-45 -80 -45 -199q0 -157 86 -236q69 -62 175 -62q67 0 189 46zM413 1188l-158 299h205l100 -176 l100 176h205l-158 -299h-294z" />
<glyph unicode="&#x10e;" horiz-adv-x="1366" vert-adv-y="2457" d="M135 0v1430h508q298 0 471 -195q168 -189 168 -526q0 -357 -209 -545q-182 -164 -473 -164h-465zM471 1180v-930h107q194 0 285 156q67 116 67 302q0 191 -68 311q-91 161 -305 161h-86zM412 1505l-157 299h205l100 -176l100 176h205l-158 -299h-295z" />
<glyph unicode="&#x10f;" horiz-adv-x="1340" vert-adv-y="2457" d="M1063 1536v-1296q0 -142 8 -240h-307q-8 81 -9 170h-4q-95 -186 -285 -186q-192 0 -292 174q-88 156 -88 398q0 223 78 359q97 169 297 169q196 0 274 -175h4v627h324zM575 863q-91 0 -127 -95q-26 -67 -26 -231q0 -320 154 -320q73 0 114 73q49 87 49 251 q0 322 -164 322zM1114 1130l98 406h307l-164 -406h-241z" />
<glyph unicode="&#x110;" horiz-adv-x="1366" vert-adv-y="2457" d="M0 615v233h135v582h508q298 0 471 -195q168 -190 168 -526q0 -356 -209 -545q-182 -164 -473 -164h-465v615h-135zM680 848v-233h-209v-365h107q194 0 285 156q67 117 67 302q0 191 -68 311q-91 161 -305 161h-86v-332h209z" />
<glyph unicode="&#x111;" horiz-adv-x="1175" vert-adv-y="2457" d="M739 1374v162h324v-162h72v-182h-72v-952q0 -142 8 -240h-307q-8 81 -9 170h-4q-95 -186 -285 -186q-192 0 -291 174q-89 158 -89 398q0 221 79 359q96 169 297 169q195 0 273 -175h4v283h-179v182h179zM576 863q-91 0 -127 -94q-27 -69 -27 -232q0 -320 154 -320 q74 0 114 73q49 87 49 251q0 322 -163 322z" />
<glyph unicode="&#x112;" horiz-adv-x="1063" vert-adv-y="2457" d="M135 0v1430h825v-250h-501v-320h477v-250h-477v-360h526v-250h-850zM848 1750v-182h-576v182h576z" />
<glyph unicode="&#x113;" horiz-adv-x="1100" vert-adv-y="2457" d="M965 45q-170 -61 -341 -61q-270 0 -410 157q-128 143 -128 390q0 235 124 389q132 164 361 164q138 0 236 -58q215 -127 215 -499v-78h-629q5 -111 66 -172q72 -72 199 -72q140 0 300 84zM393 625h334q-5 262 -167 262q-166 0 -167 -262zM867 1396v-157h-575v157h575z " />
<glyph unicode="&#x116;" horiz-adv-x="1063" vert-adv-y="2457" d="M135 0v1430h825v-250h-501v-320h477v-250h-477v-360h526v-250h-850zM439 1557v258h242v-258h-242z" />
<glyph unicode="&#x117;" horiz-adv-x="1100" vert-adv-y="2457" d="M965 45q-170 -61 -341 -61q-270 0 -410 157q-128 143 -128 390q0 235 124 389q132 164 361 164q138 0 236 -58q215 -127 215 -499v-78h-629q5 -111 66 -172q72 -72 199 -72q140 0 300 84zM393 625h334q-5 262 -167 262q-166 0 -167 -262zM433 1239v258h242v-258h-242z " />
<glyph unicode="&#x118;" horiz-adv-x="1063" vert-adv-y="2457" d="M861 0h-726v1430h825v-250h-501v-320h477v-250h-477v-360h526v-250h-31l-44 -53q-82 -98 -82 -181q0 -110 110 -110q45 0 78 6l29 -90q-73 -27 -185 -27q-103 0 -155 57q-41 46 -41 114q0 128 164 257z" />
<glyph unicode="&#x119;" horiz-adv-x="1100" vert-adv-y="2457" d="M713 -12q-44 -4 -89 -4q-270 0 -410 157q-128 143 -128 390q0 235 124 389q132 164 361 164q138 0 236 -58q215 -127 215 -499v-78h-629q5 -111 66 -172q72 -72 199 -72q140 0 300 84l7 -244q-69 -25 -139 -40l-49 -58q-82 -97 -82 -181q0 -110 111 -110q45 0 77 6 l29 -90q-73 -27 -184 -27q-104 0 -156 57q-41 46 -41 113q0 129 164 258zM393 625h334q-5 262 -167 262q-166 0 -167 -262z" />
<glyph unicode="&#x11a;" horiz-adv-x="1063" vert-adv-y="2457" d="M135 0v1430h825v-250h-501v-320h477v-250h-477v-360h526v-250h-850zM413 1505l-158 299h205l100 -176l101 176h204l-158 -299h-294z" />
<glyph unicode="&#x11b;" horiz-adv-x="1100" vert-adv-y="2457" d="M965 45q-170 -61 -341 -61q-270 0 -410 157q-128 143 -128 390q0 235 124 389q132 164 361 164q138 0 236 -58q215 -127 215 -499v-78h-629q5 -111 66 -172q72 -72 199 -72q140 0 300 84zM393 625h334q-5 262 -167 262q-166 0 -167 -262zM435 1188l-158 299h205l100 -176 l101 176h205l-158 -299h-295z" />
<glyph unicode="&#x11e;" horiz-adv-x="1366" vert-adv-y="2457" d="M745 577v242h504v-768q-177 -76 -460 -76q-333 0 -521 209q-174 192 -174 527q0 363 223 567q193 177 520 177q166 0 373 -58l-20 -281q-179 81 -326 81q-244 0 -353 -194q-73 -129 -73 -304q0 -169 70 -293q98 -173 311 -173q73 0 115 21v323h-189zM599 1804 q2 -42 19 -73q37 -64 131 -64q147 0 154 137h135q-4 -107 -43 -174q-74 -127 -244 -127t-244 127q-39 66 -43 174h135z" />
<glyph unicode="&#x11f;" horiz-adv-x="1175" vert-adv-y="2457" d="M1071 1067q-8 -99 -8 -240v-698q0 -194 -52 -314q-117 -270 -490 -270q-170 0 -386 64l10 264q185 -94 339 -94q180 0 234 139q28 73 29 270h-4q-22 -57 -62 -99q-86 -89 -220 -89q-156 0 -255 114q-120 138 -120 419q0 234 82 377q99 173 299 173q198 0 284 -186h4 l9 170h307zM577 850q-155 0 -155 -309q0 -314 157 -314q75 0 115 71q45 79 45 230q0 139 -36 223q-42 99 -126 99zM499 1487q1 -42 19 -73q37 -64 131 -64q147 0 153 137h135q-4 -107 -42 -174q-75 -127 -244 -127q-170 0 -244 127q-39 66 -43 174h135z" />
<glyph unicode="&#x122;" horiz-adv-x="1366" vert-adv-y="2457" d="M745 577v242h504v-768q-177 -76 -460 -76q-333 0 -521 209q-174 192 -174 527q0 363 223 567q193 177 520 177q166 0 373 -58l-20 -281q-179 81 -326 81q-244 0 -353 -194q-73 -129 -73 -304q0 -169 70 -293q98 -173 311 -173q73 0 115 21v323h-189zM426 -500l98 406h307 l-163 -406h-242z" />
<glyph unicode="&#x123;" horiz-adv-x="1175" vert-adv-y="2457" d="M1071 1067q-8 -99 -8 -240v-698q0 -194 -52 -314q-117 -270 -490 -270q-170 0 -386 64l10 264q185 -94 339 -94q180 0 234 139q28 73 29 270h-4q-22 -57 -62 -99q-86 -89 -220 -89q-156 0 -255 114q-120 138 -120 419q0 234 82 377q99 173 299 173q198 0 284 -186h4 l9 170h307zM577 850q-155 0 -155 -309q0 -314 157 -314q75 0 115 71q45 79 45 230q0 139 -36 223q-42 99 -126 99zM846 1572l-99 -406h-307l164 406h242z" />
<glyph unicode="&#x12a;" horiz-adv-x="606" vert-adv-y="2457" d="M135 0v1430h336v-1430h-336zM590 1750v-182h-575v182h575z" />
<glyph unicode="&#x12b;" horiz-adv-x="569" vert-adv-y="2457" d="M123 0v1067h324v-1067h-324zM572 1396v-157h-575v157h575z" />
<glyph unicode="&#x12e;" horiz-adv-x="606" vert-adv-y="2457" d="M311 0h-175v1430h336v-1430h-68l-45 -53q-82 -97 -82 -182q0 -109 111 -109q45 0 78 6l28 -90q-72 -27 -184 -27q-104 0 -155 57q-42 46 -42 114q0 127 164 257z" />
<glyph unicode="&#x12f;" horiz-adv-x="569" vert-adv-y="2457" d="M292 0h-169v1067h324v-1067h-62l-45 -53q-82 -97 -82 -182q0 -109 111 -109q45 0 78 6l28 -90q-72 -27 -184 -27q-103 0 -155 57q-42 46 -42 114q0 127 164 257zM123 1249v287h324v-287h-324z" />
<glyph unicode="&#x130;" horiz-adv-x="606" vert-adv-y="2457" d="M135 0v1430h336v-1430h-336zM182 1557v258h242v-258h-242z" />
<glyph unicode="&#x131;" horiz-adv-x="569" vert-adv-y="2457" d="M123 0v1067h324v-1067h-324z" />
<glyph unicode="&#x133;" horiz-adv-x="1063" vert-adv-y="2457" d="M123 0v1067h324v-1067h-324zM123 1249v287h324v-287h-324zM616 1067h324v-1128q0 -394 -313 -394q-108 0 -185 31l8 213q23 -10 55 -10q111 0 111 151v1137zM616 1249v287h324v-287h-324z" />
<glyph unicode="&#x136;" horiz-adv-x="1251" vert-adv-y="2457" d="M135 0v1430h336v-590h4l352 590h377l-442 -670l477 -760h-401l-363 656h-4v-656h-336zM441 -500l99 406h307l-164 -406h-242z" />
<glyph unicode="&#x137;" horiz-adv-x="1100" vert-adv-y="2457" d="M123 0v1536h324v-901h4l270 432h336l-334 -489l357 -578h-361l-268 506h-4v-506h-324zM355 -500l99 406h307l-164 -406h-242z" />
<glyph unicode="&#x139;" horiz-adv-x="985" vert-adv-y="2457" d="M135 0v1430h336v-1172h473v-258h-809zM222 1505l110 299h283l-205 -299h-188z" />
<glyph unicode="&#x13a;" horiz-adv-x="569" vert-adv-y="2457" d="M123 0v1536h324v-1536h-324zM182 1603l111 299h282l-205 -299h-188z" />
<glyph unicode="&#x13b;" horiz-adv-x="985" vert-adv-y="2457" d="M135 0v1430h336v-1172h473v-258h-809zM294 -500l98 406h307l-164 -406h-241z" />
<glyph unicode="&#x13c;" horiz-adv-x="569" vert-adv-y="2457" d="M123 0v1536h324v-1536h-324zM39 -500l98 406h308l-164 -406h-242z" />
<glyph unicode="&#x13d;" horiz-adv-x="985" vert-adv-y="2457" d="M135 0v1430h336v-1172h473v-258h-809zM531 1024l98 406h307l-163 -406h-242z" />
<glyph unicode="&#x13e;" horiz-adv-x="759" vert-adv-y="2457" d="M123 0v1536h324v-1536h-324zM519 1130l99 406h307l-164 -406h-242z" />
<glyph unicode="&#x141;" horiz-adv-x="985" vert-adv-y="2457" d="M135 0v428l-135 -113v242l135 113v760h336v-482l266 220v-242l-266 -219v-449h473v-258h-809z" />
<glyph unicode="&#x142;" horiz-adv-x="569" vert-adv-y="2457" d="M123 0v467l-123 -123v234l123 122v836h324v-512l122 123v-234l-122 -122v-791h-324z" />
<glyph unicode="&#x143;" horiz-adv-x="1366" vert-adv-y="2457" d="M129 0v1430h393l416 -992h4v992h295v-1430h-397l-412 1035h-4v-1035h-295zM612 1505l110 299h283l-205 -299h-188z" />
<glyph unicode="&#x144;" horiz-adv-x="1139" vert-adv-y="2457" d="M702 0v657q0 168 -123 168q-143 0 -143 -227v-598h-324v844q0 130 -8 223h295l1 -18q6 -75 7 -160h4q39 85 87 127q78 67 210 67q318 0 318 -385v-698h-324zM405 1188l111 299h282l-205 -299h-188z" />
<glyph unicode="&#x145;" horiz-adv-x="1366" vert-adv-y="2457" d="M129 0v1430h393l416 -992h4v992h295v-1430h-397l-412 1035h-4v-1035h-295zM437 -500l99 406h307l-164 -406h-242z" />
<glyph unicode="&#x146;" horiz-adv-x="1139" vert-adv-y="2457" d="M702 0v657q0 168 -123 168q-143 0 -143 -227v-598h-324v844q0 130 -8 223h295l1 -18q6 -75 7 -160h4q39 85 87 127q78 67 210 67q318 0 318 -385v-698h-324zM319 -500l98 406h308l-164 -406h-242z" />
<glyph unicode="&#x147;" horiz-adv-x="1366" vert-adv-y="2457" d="M129 0v1430h393l416 -992h4v992h295v-1430h-397l-412 1035h-4v-1035h-295zM536 1505l-158 299h205l100 -176l100 176h205l-157 -299h-295z" />
<glyph unicode="&#x148;" horiz-adv-x="1139" vert-adv-y="2457" d="M702 0v657q0 168 -123 168q-143 0 -143 -227v-598h-324v844q0 130 -8 223h295l1 -18q6 -75 7 -160h4q39 85 87 127q78 67 210 67q318 0 318 -385v-698h-324zM417 1188l-157 299h205l100 -176l100 176h205l-158 -299h-295z" />
<glyph unicode="&#x14c;" horiz-adv-x="1403" vert-adv-y="2457" d="M702 1455q340 0 500 -279q106 -185 106 -461t-106 -461q-159 -279 -502 -279q-274 0 -433 183q-173 199 -173 551q0 286 107 471q160 275 501 275zM700 1213q-147 0 -214 -168q-48 -122 -48 -328q0 -219 54 -344q67 -156 208 -156q124 0 191 118q73 130 73 379 q0 215 -53 339q-67 160 -211 160zM989 1750v-182h-575v182h575z" />
<glyph unicode="&#x14d;" horiz-adv-x="1175" vert-adv-y="2457" d="M587 1084q238 0 372 -152q131 -148 131 -396q0 -283 -165 -434q-129 -118 -337 -118q-236 0 -371 150q-131 147 -131 398q0 284 161 432q130 120 340 120zM588 863q-166 0 -166 -324q0 -334 166 -334t166 330q0 328 -166 328zM875 1396v-157h-575v157h575z" />
<glyph unicode="&#x150;" horiz-adv-x="1403" vert-adv-y="2457" d="M702 1455q340 0 500 -279q106 -185 106 -461t-106 -461q-159 -279 -502 -279q-274 0 -433 183q-173 199 -173 551q0 286 107 471q160 275 501 275zM700 1213q-147 0 -214 -168q-48 -122 -48 -328q0 -219 54 -344q67 -156 208 -156q124 0 191 118q73 130 73 379 q0 215 -53 339q-67 160 -211 160zM376 1505l110 299h283l-205 -299h-188zM728 1505l111 299h282l-205 -299h-188z" />
<glyph unicode="&#x151;" horiz-adv-x="1175" vert-adv-y="2457" d="M587 1084q238 0 372 -152q131 -148 131 -396q0 -283 -165 -434q-129 -118 -337 -118q-236 0 -371 150q-131 147 -131 398q0 284 161 432q130 120 340 120zM588 863q-166 0 -166 -324q0 -334 166 -334t166 330q0 328 -166 328zM262 1188l111 299h282l-204 -299h-189z M615 1188l110 299h283l-205 -299h-188z" />
<glyph unicode="&#x152;" horiz-adv-x="1782" vert-adv-y="2457" d="M1211 250h505v-250h-663q-53 0 -166 -8q-85 -7 -173 -8q-318 -4 -470 173q-170 199 -170 555q0 389 212 583q165 151 439 151q69 0 165 -6q27 -2 44 -3q95 -7 152 -7h604v-250h-479v-320h452v-250h-452v-360zM875 1170q-66 18 -158 18q-184 0 -254 -174 q-45 -112 -45 -300q0 -302 115 -410q66 -62 184 -62q92 0 158 18v910z" />
<glyph unicode="&#x153;" horiz-adv-x="1782" vert-adv-y="2457" d="M1696 449h-629q5 -111 66 -172q72 -72 199 -72q139 0 301 84l6 -244q-170 -61 -340 -61q-230 0 -373 119q-133 -119 -338 -119q-236 0 -370 151q-132 149 -132 402q0 278 162 427q130 120 341 120q201 0 337 -117q133 117 315 117q115 0 203 -39q97 -43 153 -124 q46 -67 73 -173q26 -105 26 -221v-78zM1061 625h340q-5 262 -171 262q-167 0 -169 -262zM588 863q-166 0 -166 -323q0 -335 166 -335t166 330q0 328 -166 328z" />
<glyph unicode="&#x154;" horiz-adv-x="1214" vert-adv-y="2457" d="M135 0v1430h524q162 0 272 -62q165 -95 165 -307q0 -98 -38 -175q-43 -87 -129 -135q-37 -20 -118 -40v-5q69 -10 105 -45q47 -46 93 -194l148 -467h-352l-111 383q-39 135 -86 170q-33 24 -137 24v-577h-336zM459 1188v-369h104q91 0 145 54q52 52 52 136q0 56 -24 98 q-46 81 -175 81h-102zM486 1505l111 299h283l-205 -299h-189z" />
<glyph unicode="&#x155;" horiz-adv-x="797" vert-adv-y="2457" d="M112 0v844q0 130 -8 223h295q1 -26 4 -96l2 -37q2 -41 2 -60h4q60 104 90 136q73 73 207 73h47v-299q-56 13 -106 13q-121 0 -171 -88q-42 -73 -42 -232v-477h-324zM270 1188l111 299h282l-205 -299h-188z" />
<glyph unicode="&#x156;" horiz-adv-x="1214" vert-adv-y="2457" d="M135 0v1430h524q162 0 272 -62q165 -95 165 -307q0 -98 -38 -175q-43 -87 -129 -135q-37 -20 -118 -40v-5q69 -10 105 -45q47 -46 93 -194l148 -467h-352l-111 383q-39 135 -86 170q-33 24 -137 24v-577h-336zM459 1188v-369h104q91 0 145 54q52 52 52 136q0 56 -24 98 q-46 81 -175 81h-102zM400 -500l99 406h307l-164 -406h-242z" />
<glyph unicode="&#x157;" horiz-adv-x="797" vert-adv-y="2457" d="M113 0v844q0 130 -8 223h295q1 -38 4 -96l2 -37q2 -41 2 -60h4q57 102 90 136q73 73 207 73h47v-299q-56 13 -106 13q-120 0 -171 -88q-42 -73 -42 -232v-477h-324zM20 -500l98 406h308l-164 -406h-242z" />
<glyph unicode="&#x158;" horiz-adv-x="1214" vert-adv-y="2457" d="M135 0v1430h524q162 0 272 -62q165 -95 165 -307q0 -98 -38 -175q-43 -87 -129 -135q-37 -20 -118 -40v-5q69 -10 105 -45q47 -46 93 -194l148 -467h-352l-111 383q-39 135 -86 170q-33 24 -137 24v-577h-336zM459 1188v-369h104q91 0 145 54q52 52 52 136q0 56 -24 98 q-46 81 -175 81h-102zM413 1505l-157 299h204l101 -176l100 176h205l-158 -299h-295z" />
<glyph unicode="&#x159;" horiz-adv-x="797" vert-adv-y="2457" d="M112 0v844q0 130 -8 223h295q1 -26 4 -96l2 -37q2 -41 2 -60h4q60 104 90 136q73 73 207 73h47v-299q-56 13 -106 13q-121 0 -171 -88q-42 -73 -42 -232v-477h-324zM282 1188l-157 299h204l101 -176l100 176h205l-158 -299h-295z" />
<glyph unicode="&#x15a;" horiz-adv-x="1100" vert-adv-y="2457" d="M927 1405l-14 -266q-151 74 -285 74q-69 0 -118 -28q-70 -40 -70 -122q0 -56 23 -85q50 -66 189 -121q221 -88 291 -209q60 -104 60 -236q0 -181 -117 -298q-141 -139 -390 -139q-174 0 -377 60l18 278q26 -10 57 -23q157 -65 254 -65q66 0 116 24q95 45 95 143 q0 59 -24 90q-53 67 -194 124q-219 88 -288 206q-57 100 -57 226q0 93 39 178q44 93 121 148q128 91 339 91q100 0 236 -29q25 -5 68 -14q10 -3 28 -7zM516 1505l111 299h283l-205 -299h-189z" />
<glyph unicode="&#x15b;" horiz-adv-x="872" vert-adv-y="2457" d="M755 1041l-8 -242q-151 58 -254 58q-66 0 -100 -27q-27 -22 -27 -56q0 -48 60 -81q36 -20 163 -68q89 -34 138 -80q86 -82 86 -226q0 -193 -144 -278q-97 -57 -254 -57q-196 0 -346 51l8 250q128 -74 270 -74q159 0 159 93q0 24 -15 38q-24 23 -130 63q-112 42 -161 75 q-141 97 -141 274q0 133 90 222q107 108 312 108q160 0 294 -43zM276 1188l111 299h282l-204 -299h-189z" />
<glyph unicode="&#x15e;" horiz-adv-x="1100" vert-adv-y="2457" d="M491 -24q-170 0 -372 59l18 279q27 -11 57 -23q155 -65 254 -65q67 0 116 23q95 45 95 143q0 59 -24 91q-53 66 -194 123q-219 88 -288 206q-57 100 -57 226q0 93 39 178q44 93 121 148q129 91 339 91q100 0 236 -29q25 -5 68 -14q10 -3 28 -7l-14 -266q-151 74 -285 74 q-70 0 -118 -28q-70 -40 -70 -122q0 -56 23 -85q50 -65 189 -121q221 -88 291 -209q60 -104 60 -235q0 -221 -169 -341q-91 -65 -230 -89l-58 -97q29 10 68 10q80 0 128 -47q45 -45 45 -115q0 -97 -90 -149q-68 -39 -159 -39q-82 0 -164 23q-32 9 -52 20l39 94q3 -1 7 -3 q61 -31 136 -31q107 0 107 80q0 35 -28 55q-25 18 -64 18t-72 -16l-45 36z" />
<glyph unicode="&#x15f;" horiz-adv-x="872" vert-adv-y="2457" d="M382 -16q-185 7 -313 51l8 250q128 -74 270 -74q159 0 159 93q0 24 -15 38q-24 24 -130 63q-112 42 -161 75q-141 97 -141 274q0 133 90 222q107 108 312 108q160 0 294 -43l-8 -242q-151 58 -254 58q-66 0 -100 -27q-27 -22 -27 -56q0 -48 60 -81q36 -20 163 -68 q89 -34 138 -79q86 -82 86 -227q0 -295 -319 -331l-62 -103q30 11 68 11q80 0 128 -48q46 -45 46 -114q0 -97 -91 -149q-70 -40 -159 -40q-79 0 -163 23q-33 9 -52 20l39 95l6 -3q66 -32 137 -32q107 0 107 81q0 34 -29 55q-24 17 -64 17t-71 -16l-45 37z" />
<glyph unicode="&#x160;" horiz-adv-x="1100" vert-adv-y="2457" d="M927 1405l-14 -266q-151 74 -285 74q-69 0 -118 -28q-70 -40 -70 -122q0 -56 23 -85q50 -66 189 -121q221 -88 291 -209q60 -104 60 -236q0 -181 -117 -298q-141 -139 -390 -139q-174 0 -377 60l18 278q26 -10 57 -23q157 -65 254 -65q66 0 116 24q95 45 95 143 q0 59 -24 90q-53 67 -194 124q-219 88 -288 206q-57 100 -57 226q0 93 39 178q44 93 121 148q128 91 339 91q100 0 236 -29q25 -5 68 -14q10 -3 28 -7zM403 1520l-157 299h204l101 -176l100 176h205l-158 -299h-295z" />
<glyph unicode="&#x161;" horiz-adv-x="872" vert-adv-y="2457" d="M755 1041l-8 -242q-151 58 -254 58q-66 0 -100 -27q-27 -22 -27 -56q0 -48 60 -81q36 -20 163 -68q89 -34 138 -80q86 -82 86 -226q0 -193 -144 -278q-97 -57 -254 -57q-196 0 -346 51l8 250q128 -74 270 -74q159 0 159 93q0 24 -15 38q-24 23 -130 63q-112 42 -161 75 q-141 97 -141 274q0 133 90 222q107 108 312 108q160 0 294 -43zM288 1188l-157 299h204l101 -176l100 176h205l-158 -299h-295z" />
<glyph unicode="&#x162;" horiz-adv-x="1024" vert-adv-y="2457" d="M344 0v1172h-311v258h958v-258h-311v-1172h-336zM266 -500l99 406h307l-164 -406h-242z" />
<glyph unicode="&#x163;" horiz-adv-x="797" vert-adv-y="2457" d="M29 840v227h184v219l316 100v-319h209v-227h-209v-490q0 -133 112 -133q50 0 103 23v-228q-79 -28 -220 -28q-164 0 -246 90q-73 80 -73 225v541h-176zM217 -500l98 406h307l-164 -406h-241z" />
<glyph unicode="&#x164;" horiz-adv-x="1024" vert-adv-y="2457" d="M344 0v1172h-311v258h958v-258h-311v-1172h-336zM365 1505l-158 299h205l100 -176l101 176h204l-157 -299h-295z" />
<glyph unicode="&#x165;" horiz-adv-x="862" vert-adv-y="2457" d="M29 840v227h184v219l316 100v-319h209v-227h-209v-490q0 -133 112 -133q50 0 103 23v-228q-79 -28 -220 -28q-164 0 -246 90q-73 80 -73 225v541h-176zM583 1144l99 406h307l-164 -406h-242z" />
<glyph unicode="&#x16a;" horiz-adv-x="1290" vert-adv-y="2457" d="M1170 1430v-912q0 -276 -159 -420q-136 -123 -366 -123q-257 0 -397 154q-127 140 -127 389v912h336v-965q0 -232 189 -232q188 0 188 232v965h336zM933 1750v-182h-575v182h575z" />
<glyph unicode="&#x16b;" horiz-adv-x="1139" vert-adv-y="2457" d="M1026 1067v-844q0 -146 8 -223h-295q-8 92 -8 178h-4q-39 -85 -87 -127q-78 -67 -209 -67q-318 0 -318 385v698h324v-657q0 -168 122 -168q143 0 143 227v598h324zM861 1396v-157h-575v157h575z" />
<glyph unicode="&#x16e;" horiz-adv-x="1290" vert-adv-y="2457" d="M1170 1430v-912q0 -276 -159 -420q-136 -123 -366 -123q-257 0 -397 154q-127 140 -127 389v912h336v-965q0 -232 189 -232q188 0 188 232v965h336zM645 1929q94 0 161 -67t67 -160q0 -94 -67 -161q-67 -66 -161 -66t-160 66q-67 67 -67 160q0 94 67 161q66 67 160 67z M645 1818q-48 0 -82 -34t-34 -82t34 -82q34 -35 82 -35q47 0 82 35q35 34 35 82q0 47 -35 82q-34 34 -82 34z" />
<glyph unicode="&#x16f;" horiz-adv-x="1139" vert-adv-y="2457" d="M1026 1067v-844q0 -146 8 -223h-295q-8 92 -8 178h-4q-39 -85 -87 -127q-78 -67 -209 -67q-318 0 -318 385v698h324v-657q0 -168 122 -168q143 0 143 227v598h324zM574 1612q93 0 160 -67t67 -161q0 -93 -67 -160q-66 -67 -160 -67t-161 67t-67 159q0 94 67 162 q67 67 161 67zM574 1501q-48 0 -83 -34q-34 -35 -34 -82q0 -48 34 -83q35 -34 83 -34q47 0 82 34q34 34 34 82t-34 83q-35 34 -82 34z" />
<glyph unicode="&#x170;" horiz-adv-x="1290" vert-adv-y="2457" d="M1170 1430v-912q0 -276 -159 -420q-136 -123 -366 -123q-257 0 -397 154q-127 140 -127 389v912h336v-965q0 -232 189 -232q188 0 188 232v965h336zM320 1505l110 299h283l-205 -299h-188zM672 1505l111 299h282l-205 -299h-188z" />
<glyph unicode="&#x171;" horiz-adv-x="1139" vert-adv-y="2457" d="M1026 1067v-844q0 -146 8 -223h-295q-8 92 -8 178h-4q-39 -85 -87 -127q-78 -67 -209 -67q-318 0 -318 385v698h324v-657q0 -168 122 -168q143 0 143 227v598h324zM248 1188l111 299h283l-205 -299h-189zM600 1188l111 299h283l-205 -299h-189z" />
<glyph unicode="&#x172;" horiz-adv-x="1290" vert-adv-y="2457" d="M747 -17q-57 -8 -103 -8q-256 0 -396 154q-127 140 -127 389v912h336v-965q0 -232 189 -232q188 0 188 232v965h336v-912q0 -190 -75 -316q-58 -99 -155 -156q-22 -13 -67 -34l-55 -65q-82 -97 -82 -181q0 -110 111 -110q45 0 77 6l29 -90q-73 -27 -184 -27 q-104 0 -156 57q-41 46 -41 113q0 129 164 258z" />
<glyph unicode="&#x173;" horiz-adv-x="1139" vert-adv-y="2457" d="M855 0h-116q-8 92 -8 178h-4q-39 -85 -87 -127q-78 -67 -209 -67q-318 0 -318 385v698h324v-657q0 -168 122 -168q143 0 143 227v598h324v-844q0 -146 8 -223h-86l-44 -53q-82 -96 -82 -181q0 -110 111 -110q45 0 77 6l29 -90q-73 -27 -185 -27q-104 0 -155 57 q-41 46 -41 113q0 129 163 258z" />
<glyph unicode="&#x178;" horiz-adv-x="1212" vert-adv-y="2457" d="M438 0v547l-434 883h385l229 -553l213 553h377l-434 -889v-541h-336zM309 1557v258h242v-258h-242zM661 1557v258h242v-258h-242z" />
<glyph unicode="&#x179;" horiz-adv-x="1063" vert-adv-y="2457" d="M61 0v274l555 898h-541v258h918v-262l-555 -910h563v-258h-940zM371 1505l111 299h283l-205 -299h-189z" />
<glyph unicode="&#x17a;" horiz-adv-x="872" vert-adv-y="2457" d="M67 825v242h740v-264l-400 -561h410v-242h-762v267l408 558h-396zM276 1188l111 299h283l-205 -299h-189z" />
<glyph unicode="&#x17b;" horiz-adv-x="1063" vert-adv-y="2457" d="M61 0v274l555 898h-541v258h918v-262l-555 -910h563v-258h-940zM410 1557v258h242v-258h-242z" />
<glyph unicode="&#x17c;" horiz-adv-x="872" vert-adv-y="2457" d="M67 825v242h740v-264l-400 -561h410v-242h-762v267l408 558h-396zM315 1239v258h242v-258h-242z" />
<glyph unicode="&#x17d;" horiz-adv-x="1063" vert-adv-y="2457" d="M61 0v274l555 898h-541v258h918v-262l-555 -910h563v-258h-940zM385 1520l-158 299h205l100 -176l100 176h205l-158 -299h-294z" />
<glyph unicode="&#x17e;" horiz-adv-x="872" vert-adv-y="2457" d="M67 825v242h740v-264l-400 -561h410v-242h-762v267l408 558h-396zM288 1188l-157 299h205l100 -176l100 176h205l-158 -299h-295z" />
<glyph unicode="&#x192;" horiz-adv-x="1085" vert-adv-y="2457" d="M160 621l25 227h206l43 242q26 142 73 221q85 144 268 144q95 0 214 -43l-30 -211q-53 33 -106 33q-49 0 -74 -35q-28 -39 -54 -191l-26 -160h196l-24 -227h-209l-95 -582q-34 -215 -99 -328q-95 -165 -273 -165q-107 0 -203 49l23 217q48 -39 107 -39q92 0 122 178 l110 670h-194z" />
<glyph unicode="&#x1d3;" horiz-adv-x="1290" vert-adv-y="2457" d="M1170 1430v-912q0 -276 -159 -420q-136 -123 -366 -123q-257 0 -397 154q-127 140 -127 389v912h336v-965q0 -232 189 -232q188 0 188 232v965h336zM498 1505l-158 299h205l100 -176l101 176h204l-157 -299h-295z" />
<glyph unicode="&#x218;" horiz-adv-x="1100" vert-adv-y="2457" d="M927 1405l-14 -266q-151 74 -285 74q-69 0 -118 -28q-70 -40 -70 -122q0 -56 23 -85q50 -66 189 -121q221 -88 291 -209q60 -104 60 -236q0 -181 -117 -298q-141 -139 -390 -139q-174 0 -377 60l18 278q26 -10 57 -23q157 -65 254 -65q66 0 116 24q95 45 95 143 q0 59 -24 90q-53 67 -194 124q-219 88 -288 206q-57 100 -57 226q0 93 39 178q44 93 121 148q128 91 339 91q100 0 236 -29q25 -5 68 -14q10 -3 28 -7zM347 -500l98 406h307l-163 -406h-242z" />
<glyph unicode="&#x219;" horiz-adv-x="872" vert-adv-y="2457" d="M755 1041l-8 -242q-151 58 -254 58q-66 0 -100 -27q-27 -22 -27 -56q0 -48 60 -81q36 -20 163 -68q89 -34 138 -80q86 -82 86 -226q0 -193 -144 -278q-97 -57 -254 -57q-196 0 -346 51l8 250q128 -74 270 -74q159 0 159 93q0 24 -15 38q-24 23 -130 63q-112 42 -161 75 q-141 97 -141 274q0 133 90 222q107 108 312 108q160 0 294 -43zM233 -500l99 406h307l-164 -406h-242z" />
<glyph unicode="&#x2c6;" horiz-adv-x="455" vert-adv-y="2457" d="M-78 1188l158 299h295l157 -299h-204l-101 176l-100 -176h-205z" />
<glyph unicode="&#x2c7;" horiz-adv-x="455" vert-adv-y="2457" d="M80 1188l-158 299h205l100 -176l101 176h204l-157 -299h-295z" />
<glyph unicode="&#x2c9;" horiz-adv-x="455" vert-adv-y="2457" d="M515 1421v-182h-575v182h575z" />
<glyph unicode="&#x2d8;" horiz-adv-x="455" vert-adv-y="2457" d="M76 1487q2 -42 19 -73q37 -64 132 -64q147 0 152 137h135q-4 -108 -42 -174q-74 -127 -244 -127t-244 127q-39 66 -43 174h135z" />
<glyph unicode="&#x2d9;" horiz-adv-x="455" vert-adv-y="2457" d="M107 1239v258h242v-258h-242z" />
<glyph unicode="&#x2da;" horiz-adv-x="455" vert-adv-y="2457" d="M227 1612q94 0 161 -67q67 -68 67 -161t-67 -160t-161 -67q-93 0 -160 67t-67 159q0 94 67 162q66 67 160 67zM227 1501q-48 0 -82 -34q-34 -35 -34 -82q0 -48 34 -83q34 -34 82 -34t82 34q35 35 35 82t-35 83q-34 34 -82 34z" />
<glyph unicode="&#x2db;" horiz-adv-x="455" vert-adv-y="2457" d="M250 12h88l-55 -65q-82 -96 -82 -182q0 -109 111 -109q44 0 77 6l29 -90q-73 -27 -185 -27q-103 0 -155 57q-41 46 -41 114q0 129 164 257z" />
<glyph unicode="&#x2dc;" horiz-adv-x="455" vert-adv-y="2457" d="M58 1217h-152q9 87 39 145q55 104 156 104q64 0 158 -45q60 -28 84 -28q42 0 55 73h151q-4 -76 -31 -136q-51 -113 -162 -113q-54 0 -157 45q-66 29 -87 29q-26 0 -41 -27q-12 -21 -13 -47z" />
<glyph unicode="&#x2dd;" horiz-adv-x="455" vert-adv-y="2457" d="M-98 1188l111 299h282l-205 -299h-188zM254 1188l111 299h282l-204 -299h-189z" />
<glyph unicode="&#x384;" vert-adv-y="2457" d="M267 727q70 0 113 -44q44 -44 44 -114t-44 -114q-43 -43 -112 -43q-72 0 -115 43q-44 44 -44 114t44 114q43 44 114 44z" />
<glyph unicode="&#x385;" vert-adv-y="2457" d="M267 727q70 0 113 -44q44 -44 44 -114t-44 -114q-43 -43 -112 -43q-72 0 -115 43q-44 44 -44 114t44 114q43 44 114 44z" />
<glyph unicode="&#x386;" vert-adv-y="2457" d="M267 727q70 0 113 -44q44 -44 44 -114t-44 -114q-43 -43 -112 -43q-72 0 -115 43q-44 44 -44 114t44 114q43 44 114 44z" />
<glyph unicode="&#x387;" vert-adv-y="2457" d="M267 727q70 0 113 -44q44 -44 44 -114t-44 -114q-43 -43 -112 -43q-72 0 -115 43q-44 44 -44 114t44 114q43 44 114 44z" />
<glyph unicode="&#x388;" vert-adv-y="2457" d="M267 727q70 0 113 -44q44 -44 44 -114t-44 -114q-43 -43 -112 -43q-72 0 -115 43q-44 44 -44 114t44 114q43 44 114 44z" />
<glyph unicode="&#x389;" vert-adv-y="2457" d="M267 727q70 0 113 -44q44 -44 44 -114t-44 -114q-43 -43 -112 -43q-72 0 -115 43q-44 44 -44 114t44 114q43 44 114 44z" />
<glyph unicode="&#x38a;" vert-adv-y="2457" d="M267 727q70 0 113 -44q44 -44 44 -114t-44 -114q-43 -43 -112 -43q-72 0 -115 43q-44 44 -44 114t44 114q43 44 114 44z" />
<glyph unicode="&#x38c;" vert-adv-y="2457" d="M267 727q70 0 113 -44q44 -44 44 -114t-44 -114q-43 -43 -112 -43q-72 0 -115 43q-44 44 -44 114t44 114q43 44 114 44z" />
<glyph unicode="&#x38e;" vert-adv-y="2457" d="M267 727q70 0 113 -44q44 -44 44 -114t-44 -114q-43 -43 -112 -43q-72 0 -115 43q-44 44 -44 114t44 114q43 44 114 44z" />
<glyph unicode="&#x38f;" vert-adv-y="2457" d="M267 727q70 0 113 -44q44 -44 44 -114t-44 -114q-43 -43 -112 -43q-72 0 -115 43q-44 44 -44 114t44 114q43 44 114 44z" />
<glyph unicode="&#x390;" vert-adv-y="2457" d="M267 727q70 0 113 -44q44 -44 44 -114t-44 -114q-43 -43 -112 -43q-72 0 -115 43q-44 44 -44 114t44 114q43 44 114 44z" />
<glyph unicode="&#x391;" vert-adv-y="2457" d="M267 727q70 0 113 -44q44 -44 44 -114t-44 -114q-43 -43 -112 -43q-72 0 -115 43q-44 44 -44 114t44 114q43 44 114 44z" />
<glyph unicode="&#x392;" vert-adv-y="2457" d="M267 727q70 0 113 -44q44 -44 44 -114t-44 -114q-43 -43 -112 -43q-72 0 -115 43q-44 44 -44 114t44 114q43 44 114 44z" />
<glyph unicode="&#x393;" vert-adv-y="2457" d="M267 727q70 0 113 -44q44 -44 44 -114t-44 -114q-43 -43 -112 -43q-72 0 -115 43q-44 44 -44 114t44 114q43 44 114 44z" />
<glyph unicode="&#x394;" vert-adv-y="2457" d="M267 727q70 0 113 -44q44 -44 44 -114t-44 -114q-43 -43 -112 -43q-72 0 -115 43q-44 44 -44 114t44 114q43 44 114 44z" />
<glyph unicode="&#x395;" vert-adv-y="2457" d="M267 727q70 0 113 -44q44 -44 44 -114t-44 -114q-43 -43 -112 -43q-72 0 -115 43q-44 44 -44 114t44 114q43 44 114 44z" />
<glyph unicode="&#x396;" vert-adv-y="2457" d="M267 727q70 0 113 -44q44 -44 44 -114t-44 -114q-43 -43 -112 -43q-72 0 -115 43q-44 44 -44 114t44 114q43 44 114 44z" />
<glyph unicode="&#x397;" vert-adv-y="2457" d="M267 727q70 0 113 -44q44 -44 44 -114t-44 -114q-43 -43 -112 -43q-72 0 -115 43q-44 44 -44 114t44 114q43 44 114 44z" />
<glyph unicode="&#x398;" vert-adv-y="2457" d="M267 727q70 0 113 -44q44 -44 44 -114t-44 -114q-43 -43 -112 -43q-72 0 -115 43q-44 44 -44 114t44 114q43 44 114 44z" />
<glyph unicode="&#x399;" vert-adv-y="2457" d="M267 727q70 0 113 -44q44 -44 44 -114t-44 -114q-43 -43 -112 -43q-72 0 -115 43q-44 44 -44 114t44 114q43 44 114 44z" />
<glyph unicode="&#x39a;" vert-adv-y="2457" d="M267 727q70 0 113 -44q44 -44 44 -114t-44 -114q-43 -43 -112 -43q-72 0 -115 43q-44 44 -44 114t44 114q43 44 114 44z" />
<glyph unicode="&#x39b;" vert-adv-y="2457" d="M267 727q70 0 113 -44q44 -44 44 -114t-44 -114q-43 -43 -112 -43q-72 0 -115 43q-44 44 -44 114t44 114q43 44 114 44z" />
<glyph unicode="&#x39c;" vert-adv-y="2457" d="M267 727q70 0 113 -44q44 -44 44 -114t-44 -114q-43 -43 -112 -43q-72 0 -115 43q-44 44 -44 114t44 114q43 44 114 44z" />
<glyph unicode="&#x39d;" vert-adv-y="2457" d="M267 727q70 0 113 -44q44 -44 44 -114t-44 -114q-43 -43 -112 -43q-72 0 -115 43q-44 44 -44 114t44 114q43 44 114 44z" />
<glyph unicode="&#x39e;" vert-adv-y="2457" d="M267 727q70 0 113 -44q44 -44 44 -114t-44 -114q-43 -43 -112 -43q-72 0 -115 43q-44 44 -44 114t44 114q43 44 114 44z" />
<glyph unicode="&#x39f;" vert-adv-y="2457" d="M267 727q70 0 113 -44q44 -44 44 -114t-44 -114q-43 -43 -112 -43q-72 0 -115 43q-44 44 -44 114t44 114q43 44 114 44z" />
<glyph unicode="&#x3a0;" vert-adv-y="2457" d="M267 727q70 0 113 -44q44 -44 44 -114t-44 -114q-43 -43 -112 -43q-72 0 -115 43q-44 44 -44 114t44 114q43 44 114 44z" />
<glyph unicode="&#x3a1;" vert-adv-y="2457" d="M267 727q70 0 113 -44q44 -44 44 -114t-44 -114q-43 -43 -112 -43q-72 0 -115 43q-44 44 -44 114t44 114q43 44 114 44z" />
<glyph unicode="&#x3a3;" vert-adv-y="2457" d="M267 727q70 0 113 -44q44 -44 44 -114t-44 -114q-43 -43 -112 -43q-72 0 -115 43q-44 44 -44 114t44 114q43 44 114 44z" />
<glyph unicode="&#x3a4;" vert-adv-y="2457" d="M267 727q70 0 113 -44q44 -44 44 -114t-44 -114q-43 -43 -112 -43q-72 0 -115 43q-44 44 -44 114t44 114q43 44 114 44z" />
<glyph unicode="&#x3a5;" vert-adv-y="2457" d="M267 727q70 0 113 -44q44 -44 44 -114t-44 -114q-43 -43 -112 -43q-72 0 -115 43q-44 44 -44 114t44 114q43 44 114 44z" />
<glyph unicode="&#x3a6;" vert-adv-y="2457" d="M267 727q70 0 113 -44q44 -44 44 -114t-44 -114q-43 -43 -112 -43q-72 0 -115 43q-44 44 -44 114t44 114q43 44 114 44z" />
<glyph unicode="&#x3a7;" vert-adv-y="2457" d="M267 727q70 0 113 -44q44 -44 44 -114t-44 -114q-43 -43 -112 -43q-72 0 -115 43q-44 44 -44 114t44 114q43 44 114 44z" />
<glyph unicode="&#x3a8;" vert-adv-y="2457" d="M267 727q70 0 113 -44q44 -44 44 -114t-44 -114q-43 -43 -112 -43q-72 0 -115 43q-44 44 -44 114t44 114q43 44 114 44z" />
<glyph unicode="&#x3a9;" vert-adv-y="2457" d="M267 727q70 0 113 -44q44 -44 44 -114t-44 -114q-43 -43 -112 -43q-72 0 -115 43q-44 44 -44 114t44 114q43 44 114 44z" />
<glyph unicode="&#x3aa;" vert-adv-y="2457" d="M267 727q70 0 113 -44q44 -44 44 -114t-44 -114q-43 -43 -112 -43q-72 0 -115 43q-44 44 -44 114t44 114q43 44 114 44z" />
<glyph unicode="&#x3ab;" vert-adv-y="2457" d="M267 727q70 0 113 -44q44 -44 44 -114t-44 -114q-43 -43 -112 -43q-72 0 -115 43q-44 44 -44 114t44 114q43 44 114 44z" />
<glyph unicode="&#x3ac;" vert-adv-y="2457" d="M267 727q70 0 113 -44q44 -44 44 -114t-44 -114q-43 -43 -112 -43q-72 0 -115 43q-44 44 -44 114t44 114q43 44 114 44z" />
<glyph unicode="&#x3ad;" vert-adv-y="2457" d="M267 727q70 0 113 -44q44 -44 44 -114t-44 -114q-43 -43 -112 -43q-72 0 -115 43q-44 44 -44 114t44 114q43 44 114 44z" />
<glyph unicode="&#x3ae;" vert-adv-y="2457" d="M267 727q70 0 113 -44q44 -44 44 -114t-44 -114q-43 -43 -112 -43q-72 0 -115 43q-44 44 -44 114t44 114q43 44 114 44z" />
<glyph unicode="&#x3af;" vert-adv-y="2457" d="M267 727q70 0 113 -44q44 -44 44 -114t-44 -114q-43 -43 -112 -43q-72 0 -115 43q-44 44 -44 114t44 114q43 44 114 44z" />
<glyph unicode="&#x3b0;" vert-adv-y="2457" d="M267 727q70 0 113 -44q44 -44 44 -114t-44 -114q-43 -43 -112 -43q-72 0 -115 43q-44 44 -44 114t44 114q43 44 114 44z" />
<glyph unicode="&#x3b1;" vert-adv-y="2457" d="M267 727q70 0 113 -44q44 -44 44 -114t-44 -114q-43 -43 -112 -43q-72 0 -115 43q-44 44 -44 114t44 114q43 44 114 44z" />
<glyph unicode="&#x3b2;" vert-adv-y="2457" d="M267 727q70 0 113 -44q44 -44 44 -114t-44 -114q-43 -43 -112 -43q-72 0 -115 43q-44 44 -44 114t44 114q43 44 114 44z" />
<glyph unicode="&#x3b3;" vert-adv-y="2457" d="M267 727q70 0 113 -44q44 -44 44 -114t-44 -114q-43 -43 -112 -43q-72 0 -115 43q-44 44 -44 114t44 114q43 44 114 44z" />
<glyph unicode="&#x3b4;" vert-adv-y="2457" d="M267 727q70 0 113 -44q44 -44 44 -114t-44 -114q-43 -43 -112 -43q-72 0 -115 43q-44 44 -44 114t44 114q43 44 114 44z" />
<glyph unicode="&#x3b5;" vert-adv-y="2457" d="M267 727q70 0 113 -44q44 -44 44 -114t-44 -114q-43 -43 -112 -43q-72 0 -115 43q-44 44 -44 114t44 114q43 44 114 44z" />
<glyph unicode="&#x3b6;" vert-adv-y="2457" d="M267 727q70 0 113 -44q44 -44 44 -114t-44 -114q-43 -43 -112 -43q-72 0 -115 43q-44 44 -44 114t44 114q43 44 114 44z" />
<glyph unicode="&#x3b7;" vert-adv-y="2457" d="M267 727q70 0 113 -44q44 -44 44 -114t-44 -114q-43 -43 -112 -43q-72 0 -115 43q-44 44 -44 114t44 114q43 44 114 44z" />
<glyph unicode="&#x3b8;" vert-adv-y="2457" d="M267 727q70 0 113 -44q44 -44 44 -114t-44 -114q-43 -43 -112 -43q-72 0 -115 43q-44 44 -44 114t44 114q43 44 114 44z" />
<glyph unicode="&#x3b9;" vert-adv-y="2457" d="M267 727q70 0 113 -44q44 -44 44 -114t-44 -114q-43 -43 -112 -43q-72 0 -115 43q-44 44 -44 114t44 114q43 44 114 44z" />
<glyph unicode="&#x3ba;" vert-adv-y="2457" d="M267 727q70 0 113 -44q44 -44 44 -114t-44 -114q-43 -43 -112 -43q-72 0 -115 43q-44 44 -44 114t44 114q43 44 114 44z" />
<glyph unicode="&#x3bb;" vert-adv-y="2457" d="M267 727q70 0 113 -44q44 -44 44 -114t-44 -114q-43 -43 -112 -43q-72 0 -115 43q-44 44 -44 114t44 114q43 44 114 44z" />
<glyph unicode="&#x3bc;" vert-adv-y="2457" d="M267 727q70 0 113 -44q44 -44 44 -114t-44 -114q-43 -43 -112 -43q-72 0 -115 43q-44 44 -44 114t44 114q43 44 114 44z" />
<glyph unicode="&#x3bd;" vert-adv-y="2457" d="M267 727q70 0 113 -44q44 -44 44 -114t-44 -114q-43 -43 -112 -43q-72 0 -115 43q-44 44 -44 114t44 114q43 44 114 44z" />
<glyph unicode="&#x3be;" vert-adv-y="2457" d="M267 727q70 0 113 -44q44 -44 44 -114t-44 -114q-43 -43 -112 -43q-72 0 -115 43q-44 44 -44 114t44 114q43 44 114 44z" />
<glyph unicode="&#x3bf;" vert-adv-y="2457" d="M267 727q70 0 113 -44q44 -44 44 -114t-44 -114q-43 -43 -112 -43q-72 0 -115 43q-44 44 -44 114t44 114q43 44 114 44z" />
<glyph unicode="&#x3c0;" vert-adv-y="2457" d="M267 727q70 0 113 -44q44 -44 44 -114t-44 -114q-43 -43 -112 -43q-72 0 -115 43q-44 44 -44 114t44 114q43 44 114 44z" />
<glyph unicode="&#x3c1;" vert-adv-y="2457" d="M267 727q70 0 113 -44q44 -44 44 -114t-44 -114q-43 -43 -112 -43q-72 0 -115 43q-44 44 -44 114t44 114q43 44 114 44z" />
<glyph unicode="&#x3c2;" vert-adv-y="2457" d="M267 727q70 0 113 -44q44 -44 44 -114t-44 -114q-43 -43 -112 -43q-72 0 -115 43q-44 44 -44 114t44 114q43 44 114 44z" />
<glyph unicode="&#x3c3;" vert-adv-y="2457" d="M267 727q70 0 113 -44q44 -44 44 -114t-44 -114q-43 -43 -112 -43q-72 0 -115 43q-44 44 -44 114t44 114q43 44 114 44z" />
<glyph unicode="&#x3c4;" vert-adv-y="2457" d="M267 727q70 0 113 -44q44 -44 44 -114t-44 -114q-43 -43 -112 -43q-72 0 -115 43q-44 44 -44 114t44 114q43 44 114 44z" />
<glyph unicode="&#x3c5;" vert-adv-y="2457" d="M267 727q70 0 113 -44q44 -44 44 -114t-44 -114q-43 -43 -112 -43q-72 0 -115 43q-44 44 -44 114t44 114q43 44 114 44z" />
<glyph unicode="&#x3c6;" vert-adv-y="2457" d="M267 727q70 0 113 -44q44 -44 44 -114t-44 -114q-43 -43 -112 -43q-72 0 -115 43q-44 44 -44 114t44 114q43 44 114 44z" />
<glyph unicode="&#x3c7;" vert-adv-y="2457" d="M267 727q70 0 113 -44q44 -44 44 -114t-44 -114q-43 -43 -112 -43q-72 0 -115 43q-44 44 -44 114t44 114q43 44 114 44z" />
<glyph unicode="&#x3c8;" vert-adv-y="2457" d="M267 727q70 0 113 -44q44 -44 44 -114t-44 -114q-43 -43 -112 -43q-72 0 -115 43q-44 44 -44 114t44 114q43 44 114 44z" />
<glyph unicode="&#x3c9;" vert-adv-y="2457" d="M267 727q70 0 113 -44q44 -44 44 -114t-44 -114q-43 -43 -112 -43q-72 0 -115 43q-44 44 -44 114t44 114q43 44 114 44z" />
<glyph unicode="&#x3ca;" vert-adv-y="2457" d="M267 727q70 0 113 -44q44 -44 44 -114t-44 -114q-43 -43 -112 -43q-72 0 -115 43q-44 44 -44 114t44 114q43 44 114 44z" />
<glyph unicode="&#x3cb;" vert-adv-y="2457" d="M267 727q70 0 113 -44q44 -44 44 -114t-44 -114q-43 -43 -112 -43q-72 0 -115 43q-44 44 -44 114t44 114q43 44 114 44z" />
<glyph unicode="&#x3cc;" vert-adv-y="2457" d="M267 727q70 0 113 -44q44 -44 44 -114t-44 -114q-43 -43 -112 -43q-72 0 -115 43q-44 44 -44 114t44 114q43 44 114 44z" />
<glyph unicode="&#x3cd;" vert-adv-y="2457" d="M267 727q70 0 113 -44q44 -44 44 -114t-44 -114q-43 -43 -112 -43q-72 0 -115 43q-44 44 -44 114t44 114q43 44 114 44z" />
<glyph unicode="&#x3ce;" vert-adv-y="2457" d="M267 727q70 0 113 -44q44 -44 44 -114t-44 -114q-43 -43 -112 -43q-72 0 -115 43q-44 44 -44 114t44 114q43 44 114 44z" />
<glyph unicode="&#x3d1;" vert-adv-y="2457" d="M267 727q70 0 113 -44q44 -44 44 -114t-44 -114q-43 -43 -112 -43q-72 0 -115 43q-44 44 -44 114t44 114q43 44 114 44z" />
<glyph unicode="&#x3d2;" vert-adv-y="2457" d="M267 727q70 0 113 -44q44 -44 44 -114t-44 -114q-43 -43 -112 -43q-72 0 -115 43q-44 44 -44 114t44 114q43 44 114 44z" />
<glyph unicode="&#x3d5;" vert-adv-y="2457" d="M267 727q70 0 113 -44q44 -44 44 -114t-44 -114q-43 -43 -112 -43q-72 0 -115 43q-44 44 -44 114t44 114q43 44 114 44z" />
<glyph unicode="&#x3d6;" vert-adv-y="2457" d="M267 727q70 0 113 -44q44 -44 44 -114t-44 -114q-43 -43 -112 -43q-72 0 -115 43q-44 44 -44 114t44 114q43 44 114 44z" />
<glyph unicode="&#x401;" vert-adv-y="2457" d="M267 727q70 0 113 -44q44 -44 44 -114t-44 -114q-43 -43 -112 -43q-72 0 -115 43q-44 44 -44 114t44 114q43 44 114 44z" />
<glyph unicode="&#x402;" vert-adv-y="2457" d="M267 727q70 0 113 -44q44 -44 44 -114t-44 -114q-43 -43 -112 -43q-72 0 -115 43q-44 44 -44 114t44 114q43 44 114 44z" />
<glyph unicode="&#x403;" vert-adv-y="2457" d="M267 727q70 0 113 -44q44 -44 44 -114t-44 -114q-43 -43 -112 -43q-72 0 -115 43q-44 44 -44 114t44 114q43 44 114 44z" />
<glyph unicode="&#x404;" vert-adv-y="2457" d="M267 727q70 0 113 -44q44 -44 44 -114t-44 -114q-43 -43 -112 -43q-72 0 -115 43q-44 44 -44 114t44 114q43 44 114 44z" />
<glyph unicode="&#x405;" vert-adv-y="2457" d="M267 727q70 0 113 -44q44 -44 44 -114t-44 -114q-43 -43 -112 -43q-72 0 -115 43q-44 44 -44 114t44 114q43 44 114 44z" />
<glyph unicode="&#x406;" vert-adv-y="2457" d="M267 727q70 0 113 -44q44 -44 44 -114t-44 -114q-43 -43 -112 -43q-72 0 -115 43q-44 44 -44 114t44 114q43 44 114 44z" />
<glyph unicode="&#x407;" vert-adv-y="2457" d="M267 727q70 0 113 -44q44 -44 44 -114t-44 -114q-43 -43 -112 -43q-72 0 -115 43q-44 44 -44 114t44 114q43 44 114 44z" />
<glyph unicode="&#x408;" vert-adv-y="2457" d="M267 727q70 0 113 -44q44 -44 44 -114t-44 -114q-43 -43 -112 -43q-72 0 -115 43q-44 44 -44 114t44 114q43 44 114 44z" />
<glyph unicode="&#x409;" vert-adv-y="2457" d="M267 727q70 0 113 -44q44 -44 44 -114t-44 -114q-43 -43 -112 -43q-72 0 -115 43q-44 44 -44 114t44 114q43 44 114 44z" />
<glyph unicode="&#x40a;" vert-adv-y="2457" d="M267 727q70 0 113 -44q44 -44 44 -114t-44 -114q-43 -43 -112 -43q-72 0 -115 43q-44 44 -44 114t44 114q43 44 114 44z" />
<glyph unicode="&#x40b;" vert-adv-y="2457" d="M267 727q70 0 113 -44q44 -44 44 -114t-44 -114q-43 -43 -112 -43q-72 0 -115 43q-44 44 -44 114t44 114q43 44 114 44z" />
<glyph unicode="&#x40c;" vert-adv-y="2457" d="M267 727q70 0 113 -44q44 -44 44 -114t-44 -114q-43 -43 -112 -43q-72 0 -115 43q-44 44 -44 114t44 114q43 44 114 44z" />
<glyph unicode="&#x40e;" vert-adv-y="2457" d="M267 727q70 0 113 -44q44 -44 44 -114t-44 -114q-43 -43 -112 -43q-72 0 -115 43q-44 44 -44 114t44 114q43 44 114 44z" />
<glyph unicode="&#x40f;" vert-adv-y="2457" d="M267 727q70 0 113 -44q44 -44 44 -114t-44 -114q-43 -43 -112 -43q-72 0 -115 43q-44 44 -44 114t44 114q43 44 114 44z" />
<glyph unicode="&#x410;" vert-adv-y="2457" d="M267 727q70 0 113 -44q44 -44 44 -114t-44 -114q-43 -43 -112 -43q-72 0 -115 43q-44 44 -44 114t44 114q43 44 114 44z" />
<glyph unicode="&#x411;" vert-adv-y="2457" d="M267 727q70 0 113 -44q44 -44 44 -114t-44 -114q-43 -43 -112 -43q-72 0 -115 43q-44 44 -44 114t44 114q43 44 114 44z" />
<glyph unicode="&#x412;" vert-adv-y="2457" d="M267 727q70 0 113 -44q44 -44 44 -114t-44 -114q-43 -43 -112 -43q-72 0 -115 43q-44 44 -44 114t44 114q43 44 114 44z" />
<glyph unicode="&#x413;" vert-adv-y="2457" d="M267 727q70 0 113 -44q44 -44 44 -114t-44 -114q-43 -43 -112 -43q-72 0 -115 43q-44 44 -44 114t44 114q43 44 114 44z" />
<glyph unicode="&#x414;" vert-adv-y="2457" d="M267 727q70 0 113 -44q44 -44 44 -114t-44 -114q-43 -43 -112 -43q-72 0 -115 43q-44 44 -44 114t44 114q43 44 114 44z" />
<glyph unicode="&#x415;" vert-adv-y="2457" d="M267 727q70 0 113 -44q44 -44 44 -114t-44 -114q-43 -43 -112 -43q-72 0 -115 43q-44 44 -44 114t44 114q43 44 114 44z" />
<glyph unicode="&#x416;" vert-adv-y="2457" d="M267 727q70 0 113 -44q44 -44 44 -114t-44 -114q-43 -43 -112 -43q-72 0 -115 43q-44 44 -44 114t44 114q43 44 114 44z" />
<glyph unicode="&#x417;" vert-adv-y="2457" d="M267 727q70 0 113 -44q44 -44 44 -114t-44 -114q-43 -43 -112 -43q-72 0 -115 43q-44 44 -44 114t44 114q43 44 114 44z" />
<glyph unicode="&#x418;" vert-adv-y="2457" d="M267 727q70 0 113 -44q44 -44 44 -114t-44 -114q-43 -43 -112 -43q-72 0 -115 43q-44 44 -44 114t44 114q43 44 114 44z" />
<glyph unicode="&#x419;" vert-adv-y="2457" d="M267 727q70 0 113 -44q44 -44 44 -114t-44 -114q-43 -43 -112 -43q-72 0 -115 43q-44 44 -44 114t44 114q43 44 114 44z" />
<glyph unicode="&#x41a;" vert-adv-y="2457" d="M267 727q70 0 113 -44q44 -44 44 -114t-44 -114q-43 -43 -112 -43q-72 0 -115 43q-44 44 -44 114t44 114q43 44 114 44z" />
<glyph unicode="&#x41b;" vert-adv-y="2457" d="M267 727q70 0 113 -44q44 -44 44 -114t-44 -114q-43 -43 -112 -43q-72 0 -115 43q-44 44 -44 114t44 114q43 44 114 44z" />
<glyph unicode="&#x41c;" vert-adv-y="2457" d="M267 727q70 0 113 -44q44 -44 44 -114t-44 -114q-43 -43 -112 -43q-72 0 -115 43q-44 44 -44 114t44 114q43 44 114 44z" />
<glyph unicode="&#x41d;" vert-adv-y="2457" d="M267 727q70 0 113 -44q44 -44 44 -114t-44 -114q-43 -43 -112 -43q-72 0 -115 43q-44 44 -44 114t44 114q43 44 114 44z" />
<glyph unicode="&#x41e;" vert-adv-y="2457" d="M267 727q70 0 113 -44q44 -44 44 -114t-44 -114q-43 -43 -112 -43q-72 0 -115 43q-44 44 -44 114t44 114q43 44 114 44z" />
<glyph unicode="&#x41f;" vert-adv-y="2457" d="M267 727q70 0 113 -44q44 -44 44 -114t-44 -114q-43 -43 -112 -43q-72 0 -115 43q-44 44 -44 114t44 114q43 44 114 44z" />
<glyph unicode="&#x420;" vert-adv-y="2457" d="M267 727q70 0 113 -44q44 -44 44 -114t-44 -114q-43 -43 -112 -43q-72 0 -115 43q-44 44 -44 114t44 114q43 44 114 44z" />
<glyph unicode="&#x421;" vert-adv-y="2457" d="M267 727q70 0 113 -44q44 -44 44 -114t-44 -114q-43 -43 -112 -43q-72 0 -115 43q-44 44 -44 114t44 114q43 44 114 44z" />
<glyph unicode="&#x422;" vert-adv-y="2457" d="M267 727q70 0 113 -44q44 -44 44 -114t-44 -114q-43 -43 -112 -43q-72 0 -115 43q-44 44 -44 114t44 114q43 44 114 44z" />
<glyph unicode="&#x423;" vert-adv-y="2457" d="M267 727q70 0 113 -44q44 -44 44 -114t-44 -114q-43 -43 -112 -43q-72 0 -115 43q-44 44 -44 114t44 114q43 44 114 44z" />
<glyph unicode="&#x424;" vert-adv-y="2457" d="M267 727q70 0 113 -44q44 -44 44 -114t-44 -114q-43 -43 -112 -43q-72 0 -115 43q-44 44 -44 114t44 114q43 44 114 44z" />
<glyph unicode="&#x425;" vert-adv-y="2457" d="M267 727q70 0 113 -44q44 -44 44 -114t-44 -114q-43 -43 -112 -43q-72 0 -115 43q-44 44 -44 114t44 114q43 44 114 44z" />
<glyph unicode="&#x426;" vert-adv-y="2457" d="M267 727q70 0 113 -44q44 -44 44 -114t-44 -114q-43 -43 -112 -43q-72 0 -115 43q-44 44 -44 114t44 114q43 44 114 44z" />
<glyph unicode="&#x427;" vert-adv-y="2457" d="M267 727q70 0 113 -44q44 -44 44 -114t-44 -114q-43 -43 -112 -43q-72 0 -115 43q-44 44 -44 114t44 114q43 44 114 44z" />
<glyph unicode="&#x428;" vert-adv-y="2457" d="M267 727q70 0 113 -44q44 -44 44 -114t-44 -114q-43 -43 -112 -43q-72 0 -115 43q-44 44 -44 114t44 114q43 44 114 44z" />
<glyph unicode="&#x429;" vert-adv-y="2457" d="M267 727q70 0 113 -44q44 -44 44 -114t-44 -114q-43 -43 -112 -43q-72 0 -115 43q-44 44 -44 114t44 114q43 44 114 44z" />
<glyph unicode="&#x42a;" vert-adv-y="2457" d="M267 727q70 0 113 -44q44 -44 44 -114t-44 -114q-43 -43 -112 -43q-72 0 -115 43q-44 44 -44 114t44 114q43 44 114 44z" />
<glyph unicode="&#x42b;" vert-adv-y="2457" d="M267 727q70 0 113 -44q44 -44 44 -114t-44 -114q-43 -43 -112 -43q-72 0 -115 43q-44 44 -44 114t44 114q43 44 114 44z" />
<glyph unicode="&#x42c;" vert-adv-y="2457" d="M267 727q70 0 113 -44q44 -44 44 -114t-44 -114q-43 -43 -112 -43q-72 0 -115 43q-44 44 -44 114t44 114q43 44 114 44z" />
<glyph unicode="&#x42d;" vert-adv-y="2457" d="M267 727q70 0 113 -44q44 -44 44 -114t-44 -114q-43 -43 -112 -43q-72 0 -115 43q-44 44 -44 114t44 114q43 44 114 44z" />
<glyph unicode="&#x42e;" vert-adv-y="2457" d="M267 727q70 0 113 -44q44 -44 44 -114t-44 -114q-43 -43 -112 -43q-72 0 -115 43q-44 44 -44 114t44 114q43 44 114 44z" />
<glyph unicode="&#x42f;" vert-adv-y="2457" d="M267 727q70 0 113 -44q44 -44 44 -114t-44 -114q-43 -43 -112 -43q-72 0 -115 43q-44 44 -44 114t44 114q43 44 114 44z" />
<glyph unicode="&#x430;" vert-adv-y="2457" d="M267 727q70 0 113 -44q44 -44 44 -114t-44 -114q-43 -43 -112 -43q-72 0 -115 43q-44 44 -44 114t44 114q43 44 114 44z" />
<glyph unicode="&#x431;" vert-adv-y="2457" d="M267 727q70 0 113 -44q44 -44 44 -114t-44 -114q-43 -43 -112 -43q-72 0 -115 43q-44 44 -44 114t44 114q43 44 114 44z" />
<glyph unicode="&#x432;" vert-adv-y="2457" d="M267 727q70 0 113 -44q44 -44 44 -114t-44 -114q-43 -43 -112 -43q-72 0 -115 43q-44 44 -44 114t44 114q43 44 114 44z" />
<glyph unicode="&#x433;" vert-adv-y="2457" d="M267 727q70 0 113 -44q44 -44 44 -114t-44 -114q-43 -43 -112 -43q-72 0 -115 43q-44 44 -44 114t44 114q43 44 114 44z" />
<glyph unicode="&#x434;" vert-adv-y="2457" d="M267 727q70 0 113 -44q44 -44 44 -114t-44 -114q-43 -43 -112 -43q-72 0 -115 43q-44 44 -44 114t44 114q43 44 114 44z" />
<glyph unicode="&#x435;" vert-adv-y="2457" d="M267 727q70 0 113 -44q44 -44 44 -114t-44 -114q-43 -43 -112 -43q-72 0 -115 43q-44 44 -44 114t44 114q43 44 114 44z" />
<glyph unicode="&#x436;" vert-adv-y="2457" d="M267 727q70 0 113 -44q44 -44 44 -114t-44 -114q-43 -43 -112 -43q-72 0 -115 43q-44 44 -44 114t44 114q43 44 114 44z" />
<glyph unicode="&#x437;" vert-adv-y="2457" d="M267 727q70 0 113 -44q44 -44 44 -114t-44 -114q-43 -43 -112 -43q-72 0 -115 43q-44 44 -44 114t44 114q43 44 114 44z" />
<glyph unicode="&#x438;" vert-adv-y="2457" d="M267 727q70 0 113 -44q44 -44 44 -114t-44 -114q-43 -43 -112 -43q-72 0 -115 43q-44 44 -44 114t44 114q43 44 114 44z" />
<glyph unicode="&#x439;" vert-adv-y="2457" d="M267 727q70 0 113 -44q44 -44 44 -114t-44 -114q-43 -43 -112 -43q-72 0 -115 43q-44 44 -44 114t44 114q43 44 114 44z" />
<glyph unicode="&#x43a;" vert-adv-y="2457" d="M267 727q70 0 113 -44q44 -44 44 -114t-44 -114q-43 -43 -112 -43q-72 0 -115 43q-44 44 -44 114t44 114q43 44 114 44z" />
<glyph unicode="&#x43b;" vert-adv-y="2457" d="M267 727q70 0 113 -44q44 -44 44 -114t-44 -114q-43 -43 -112 -43q-72 0 -115 43q-44 44 -44 114t44 114q43 44 114 44z" />
<glyph unicode="&#x43c;" vert-adv-y="2457" d="M267 727q70 0 113 -44q44 -44 44 -114t-44 -114q-43 -43 -112 -43q-72 0 -115 43q-44 44 -44 114t44 114q43 44 114 44z" />
<glyph unicode="&#x43d;" vert-adv-y="2457" d="M267 727q70 0 113 -44q44 -44 44 -114t-44 -114q-43 -43 -112 -43q-72 0 -115 43q-44 44 -44 114t44 114q43 44 114 44z" />
<glyph unicode="&#x43e;" vert-adv-y="2457" d="M267 727q70 0 113 -44q44 -44 44 -114t-44 -114q-43 -43 -112 -43q-72 0 -115 43q-44 44 -44 114t44 114q43 44 114 44z" />
<glyph unicode="&#x43f;" vert-adv-y="2457" d="M267 727q70 0 113 -44q44 -44 44 -114t-44 -114q-43 -43 -112 -43q-72 0 -115 43q-44 44 -44 114t44 114q43 44 114 44z" />
<glyph unicode="&#x440;" vert-adv-y="2457" d="M267 727q70 0 113 -44q44 -44 44 -114t-44 -114q-43 -43 -112 -43q-72 0 -115 43q-44 44 -44 114t44 114q43 44 114 44z" />
<glyph unicode="&#x441;" vert-adv-y="2457" d="M267 727q70 0 113 -44q44 -44 44 -114t-44 -114q-43 -43 -112 -43q-72 0 -115 43q-44 44 -44 114t44 114q43 44 114 44z" />
<glyph unicode="&#x442;" vert-adv-y="2457" d="M267 727q70 0 113 -44q44 -44 44 -114t-44 -114q-43 -43 -112 -43q-72 0 -115 43q-44 44 -44 114t44 114q43 44 114 44z" />
<glyph unicode="&#x443;" vert-adv-y="2457" d="M267 727q70 0 113 -44q44 -44 44 -114t-44 -114q-43 -43 -112 -43q-72 0 -115 43q-44 44 -44 114t44 114q43 44 114 44z" />
<glyph unicode="&#x444;" vert-adv-y="2457" d="M267 727q70 0 113 -44q44 -44 44 -114t-44 -114q-43 -43 -112 -43q-72 0 -115 43q-44 44 -44 114t44 114q43 44 114 44z" />
<glyph unicode="&#x445;" vert-adv-y="2457" d="M267 727q70 0 113 -44q44 -44 44 -114t-44 -114q-43 -43 -112 -43q-72 0 -115 43q-44 44 -44 114t44 114q43 44 114 44z" />
<glyph unicode="&#x446;" vert-adv-y="2457" d="M267 727q70 0 113 -44q44 -44 44 -114t-44 -114q-43 -43 -112 -43q-72 0 -115 43q-44 44 -44 114t44 114q43 44 114 44z" />
<glyph unicode="&#x447;" vert-adv-y="2457" d="M267 727q70 0 113 -44q44 -44 44 -114t-44 -114q-43 -43 -112 -43q-72 0 -115 43q-44 44 -44 114t44 114q43 44 114 44z" />
<glyph unicode="&#x448;" vert-adv-y="2457" d="M267 727q70 0 113 -44q44 -44 44 -114t-44 -114q-43 -43 -112 -43q-72 0 -115 43q-44 44 -44 114t44 114q43 44 114 44z" />
<glyph unicode="&#x449;" vert-adv-y="2457" d="M267 727q70 0 113 -44q44 -44 44 -114t-44 -114q-43 -43 -112 -43q-72 0 -115 43q-44 44 -44 114t44 114q43 44 114 44z" />
<glyph unicode="&#x44a;" vert-adv-y="2457" d="M267 727q70 0 113 -44q44 -44 44 -114t-44 -114q-43 -43 -112 -43q-72 0 -115 43q-44 44 -44 114t44 114q43 44 114 44z" />
<glyph unicode="&#x44b;" vert-adv-y="2457" d="M267 727q70 0 113 -44q44 -44 44 -114t-44 -114q-43 -43 -112 -43q-72 0 -115 43q-44 44 -44 114t44 114q43 44 114 44z" />
<glyph unicode="&#x44c;" vert-adv-y="2457" d="M267 727q70 0 113 -44q44 -44 44 -114t-44 -114q-43 -43 -112 -43q-72 0 -115 43q-44 44 -44 114t44 114q43 44 114 44z" />
<glyph unicode="&#x44d;" vert-adv-y="2457" d="M267 727q70 0 113 -44q44 -44 44 -114t-44 -114q-43 -43 -112 -43q-72 0 -115 43q-44 44 -44 114t44 114q43 44 114 44z" />
<glyph unicode="&#x44e;" vert-adv-y="2457" d="M267 727q70 0 113 -44q44 -44 44 -114t-44 -114q-43 -43 -112 -43q-72 0 -115 43q-44 44 -44 114t44 114q43 44 114 44z" />
<glyph unicode="&#x44f;" vert-adv-y="2457" d="M267 727q70 0 113 -44q44 -44 44 -114t-44 -114q-43 -43 -112 -43q-72 0 -115 43q-44 44 -44 114t44 114q43 44 114 44z" />
<glyph unicode="&#x451;" vert-adv-y="2457" d="M267 727q70 0 113 -44q44 -44 44 -114t-44 -114q-43 -43 -112 -43q-72 0 -115 43q-44 44 -44 114t44 114q43 44 114 44z" />
<glyph unicode="&#x452;" vert-adv-y="2457" d="M267 727q70 0 113 -44q44 -44 44 -114t-44 -114q-43 -43 -112 -43q-72 0 -115 43q-44 44 -44 114t44 114q43 44 114 44z" />
<glyph unicode="&#x453;" vert-adv-y="2457" d="M267 727q70 0 113 -44q44 -44 44 -114t-44 -114q-43 -43 -112 -43q-72 0 -115 43q-44 44 -44 114t44 114q43 44 114 44z" />
<glyph unicode="&#x454;" vert-adv-y="2457" d="M267 727q70 0 113 -44q44 -44 44 -114t-44 -114q-43 -43 -112 -43q-72 0 -115 43q-44 44 -44 114t44 114q43 44 114 44z" />
<glyph unicode="&#x455;" vert-adv-y="2457" d="M267 727q70 0 113 -44q44 -44 44 -114t-44 -114q-43 -43 -112 -43q-72 0 -115 43q-44 44 -44 114t44 114q43 44 114 44z" />
<glyph unicode="&#x456;" vert-adv-y="2457" d="M267 727q70 0 113 -44q44 -44 44 -114t-44 -114q-43 -43 -112 -43q-72 0 -115 43q-44 44 -44 114t44 114q43 44 114 44z" />
<glyph unicode="&#x457;" vert-adv-y="2457" d="M267 727q70 0 113 -44q44 -44 44 -114t-44 -114q-43 -43 -112 -43q-72 0 -115 43q-44 44 -44 114t44 114q43 44 114 44z" />
<glyph unicode="&#x458;" vert-adv-y="2457" d="M267 727q70 0 113 -44q44 -44 44 -114t-44 -114q-43 -43 -112 -43q-72 0 -115 43q-44 44 -44 114t44 114q43 44 114 44z" />
<glyph unicode="&#x459;" vert-adv-y="2457" d="M267 727q70 0 113 -44q44 -44 44 -114t-44 -114q-43 -43 -112 -43q-72 0 -115 43q-44 44 -44 114t44 114q43 44 114 44z" />
<glyph unicode="&#x45a;" vert-adv-y="2457" d="M267 727q70 0 113 -44q44 -44 44 -114t-44 -114q-43 -43 -112 -43q-72 0 -115 43q-44 44 -44 114t44 114q43 44 114 44z" />
<glyph unicode="&#x45b;" vert-adv-y="2457" d="M267 727q70 0 113 -44q44 -44 44 -114t-44 -114q-43 -43 -112 -43q-72 0 -115 43q-44 44 -44 114t44 114q43 44 114 44z" />
<glyph unicode="&#x45c;" vert-adv-y="2457" d="M267 727q70 0 113 -44q44 -44 44 -114t-44 -114q-43 -43 -112 -43q-72 0 -115 43q-44 44 -44 114t44 114q43 44 114 44z" />
<glyph unicode="&#x45e;" vert-adv-y="2457" d="M267 727q70 0 113 -44q44 -44 44 -114t-44 -114q-43 -43 -112 -43q-72 0 -115 43q-44 44 -44 114t44 114q43 44 114 44z" />
<glyph unicode="&#x45f;" vert-adv-y="2457" d="M267 727q70 0 113 -44q44 -44 44 -114t-44 -114q-43 -43 -112 -43q-72 0 -115 43q-44 44 -44 114t44 114q43 44 114 44z" />
<glyph unicode="&#x490;" vert-adv-y="2457" d="M267 727q70 0 113 -44q44 -44 44 -114t-44 -114q-43 -43 -112 -43q-72 0 -115 43q-44 44 -44 114t44 114q43 44 114 44z" />
<glyph unicode="&#x491;" vert-adv-y="2457" d="M267 727q70 0 113 -44q44 -44 44 -114t-44 -114q-43 -43 -112 -43q-72 0 -115 43q-44 44 -44 114t44 114q43 44 114 44z" />
<glyph unicode="&#x492;" vert-adv-y="2457" d="M267 727q70 0 113 -44q44 -44 44 -114t-44 -114q-43 -43 -112 -43q-72 0 -115 43q-44 44 -44 114t44 114q43 44 114 44z" />
<glyph unicode="&#x493;" vert-adv-y="2457" d="M267 727q70 0 113 -44q44 -44 44 -114t-44 -114q-43 -43 -112 -43q-72 0 -115 43q-44 44 -44 114t44 114q43 44 114 44z" />
<glyph unicode="&#x496;" vert-adv-y="2457" d="M267 727q70 0 113 -44q44 -44 44 -114t-44 -114q-43 -43 -112 -43q-72 0 -115 43q-44 44 -44 114t44 114q43 44 114 44z" />
<glyph unicode="&#x497;" vert-adv-y="2457" d="M267 727q70 0 113 -44q44 -44 44 -114t-44 -114q-43 -43 -112 -43q-72 0 -115 43q-44 44 -44 114t44 114q43 44 114 44z" />
<glyph unicode="&#x49a;" vert-adv-y="2457" d="M267 727q70 0 113 -44q44 -44 44 -114t-44 -114q-43 -43 -112 -43q-72 0 -115 43q-44 44 -44 114t44 114q43 44 114 44z" />
<glyph unicode="&#x49b;" vert-adv-y="2457" d="M267 727q70 0 113 -44q44 -44 44 -114t-44 -114q-43 -43 -112 -43q-72 0 -115 43q-44 44 -44 114t44 114q43 44 114 44z" />
<glyph unicode="&#x49c;" vert-adv-y="2457" d="M267 727q70 0 113 -44q44 -44 44 -114t-44 -114q-43 -43 -112 -43q-72 0 -115 43q-44 44 -44 114t44 114q43 44 114 44z" />
<glyph unicode="&#x49d;" vert-adv-y="2457" d="M267 727q70 0 113 -44q44 -44 44 -114t-44 -114q-43 -43 -112 -43q-72 0 -115 43q-44 44 -44 114t44 114q43 44 114 44z" />
<glyph unicode="&#x4a2;" vert-adv-y="2457" d="M267 727q70 0 113 -44q44 -44 44 -114t-44 -114q-43 -43 -112 -43q-72 0 -115 43q-44 44 -44 114t44 114q43 44 114 44z" />
<glyph unicode="&#x4a3;" vert-adv-y="2457" d="M267 727q70 0 113 -44q44 -44 44 -114t-44 -114q-43 -43 -112 -43q-72 0 -115 43q-44 44 -44 114t44 114q43 44 114 44z" />
<glyph unicode="&#x4ae;" vert-adv-y="2457" d="M267 727q70 0 113 -44q44 -44 44 -114t-44 -114q-43 -43 -112 -43q-72 0 -115 43q-44 44 -44 114t44 114q43 44 114 44z" />
<glyph unicode="&#x4af;" vert-adv-y="2457" d="M267 727q70 0 113 -44q44 -44 44 -114t-44 -114q-43 -43 -112 -43q-72 0 -115 43q-44 44 -44 114t44 114q43 44 114 44z" />
<glyph unicode="&#x4b0;" vert-adv-y="2457" d="M267 727q70 0 113 -44q44 -44 44 -114t-44 -114q-43 -43 -112 -43q-72 0 -115 43q-44 44 -44 114t44 114q43 44 114 44z" />
<glyph unicode="&#x4b1;" vert-adv-y="2457" d="M267 727q70 0 113 -44q44 -44 44 -114t-44 -114q-43 -43 -112 -43q-72 0 -115 43q-44 44 -44 114t44 114q43 44 114 44z" />
<glyph unicode="&#x4b2;" vert-adv-y="2457" d="M267 727q70 0 113 -44q44 -44 44 -114t-44 -114q-43 -43 -112 -43q-72 0 -115 43q-44 44 -44 114t44 114q43 44 114 44z" />
<glyph unicode="&#x4b3;" vert-adv-y="2457" d="M267 727q70 0 113 -44q44 -44 44 -114t-44 -114q-43 -43 -112 -43q-72 0 -115 43q-44 44 -44 114t44 114q43 44 114 44z" />
<glyph unicode="&#x4b8;" vert-adv-y="2457" d="M267 727q70 0 113 -44q44 -44 44 -114t-44 -114q-43 -43 -112 -43q-72 0 -115 43q-44 44 -44 114t44 114q43 44 114 44z" />
<glyph unicode="&#x4b9;" vert-adv-y="2457" d="M267 727q70 0 113 -44q44 -44 44 -114t-44 -114q-43 -43 -112 -43q-72 0 -115 43q-44 44 -44 114t44 114q43 44 114 44z" />
<glyph unicode="&#x4ba;" vert-adv-y="2457" d="M267 727q70 0 113 -44q44 -44 44 -114t-44 -114q-43 -43 -112 -43q-72 0 -115 43q-44 44 -44 114t44 114q43 44 114 44z" />
<glyph unicode="&#x4bb;" vert-adv-y="2457" d="M267 727q70 0 113 -44q44 -44 44 -114t-44 -114q-43 -43 -112 -43q-72 0 -115 43q-44 44 -44 114t44 114q43 44 114 44z" />
<glyph unicode="&#x4c0;" vert-adv-y="2457" d="M267 727q70 0 113 -44q44 -44 44 -114t-44 -114q-43 -43 -112 -43q-72 0 -115 43q-44 44 -44 114t44 114q43 44 114 44z" />
<glyph unicode="&#x4d8;" vert-adv-y="2457" d="M267 727q70 0 113 -44q44 -44 44 -114t-44 -114q-43 -43 -112 -43q-72 0 -115 43q-44 44 -44 114t44 114q43 44 114 44z" />
<glyph unicode="&#x4d9;" vert-adv-y="2457" d="M267 727q70 0 113 -44q44 -44 44 -114t-44 -114q-43 -43 -112 -43q-72 0 -115 43q-44 44 -44 114t44 114q43 44 114 44z" />
<glyph unicode="&#x4e8;" vert-adv-y="2457" d="M267 727q70 0 113 -44q44 -44 44 -114t-44 -114q-43 -43 -112 -43q-72 0 -115 43q-44 44 -44 114t44 114q43 44 114 44z" />
<glyph unicode="&#x4e9;" vert-adv-y="2457" d="M267 727q70 0 113 -44q44 -44 44 -114t-44 -114q-43 -43 -112 -43q-72 0 -115 43q-44 44 -44 114t44 114q43 44 114 44z" />
<glyph unicode="&#x2011;" horiz-adv-x="682" vert-adv-y="2457" d="M86 463v250h510v-250h-510z" />
<glyph unicode="&#x2012;" horiz-adv-x="1024" vert-adv-y="2457" d="M0 479v221h1024v-221h-1024z" />
<glyph unicode="&#x2013;" horiz-adv-x="1024" vert-adv-y="2457" d="M0 479v221h1024v-221h-1024z" />
<glyph unicode="&#x2014;" horiz-adv-x="2048" vert-adv-y="2457" d="M0 479v221h2048v-221h-2048z" />
<glyph unicode="&#x2015;" horiz-adv-x="2048" vert-adv-y="2457" d="M0 479v221h2048v-221h-2048z" />
<glyph unicode="&#x2018;" vert-adv-y="2457" d="M469 1536l-99 -532h-307l164 532h242z" />
<glyph unicode="&#x2019;" vert-adv-y="2457" d="M63 1004l98 532h308l-164 -532h-242z" />
<glyph unicode="&#x201a;" vert-adv-y="2457" d="M63 -225l98 532h308l-164 -532h-242z" />
<glyph unicode="&#x201c;" horiz-adv-x="1065" vert-adv-y="2457" d="M934 1536l-98 -532h-308l164 532h242zM537 1536l-99 -532h-307l164 532h242z" />
<glyph unicode="&#x201d;" horiz-adv-x="1065" vert-adv-y="2457" d="M131 1004l98 532h308l-164 -532h-242zM528 1004l99 532h307l-164 -532h-242z" />
<glyph unicode="&#x201e;" horiz-adv-x="1065" vert-adv-y="2457" d="M131 -225l98 532h308l-164 -532h-242zM528 -225l99 532h307l-164 -532h-242z" />
<glyph unicode="&#x2020;" horiz-adv-x="1063" vert-adv-y="2457" d="M399 0v841h-293v242h293v347h266v-347h291v-242h-291v-841h-266z" />
<glyph unicode="&#x2021;" horiz-adv-x="1063" vert-adv-y="2457" d="M401 0v291h-295v227h295v394h-295v227h295v291h258v-291h297v-227h-297v-394h297v-227h-297v-291h-258z" />
<glyph unicode="&#x2022;" horiz-adv-x="1229" vert-adv-y="2457" d="M1007 1108v-786h-786v786h786z" />
<glyph unicode="&#x2026;" horiz-adv-x="2048" vert-adv-y="2457" d="M195 0v307h295v-307h-295zM877 0v307h295v-307h-295zM1559 0v307h295v-307h-295z" />
<glyph unicode="&#x2030;" horiz-adv-x="1933" vert-adv-y="2457" d="M324 1455q256 0 256 -386q0 -393 -253 -393q-259 0 -259 392q0 387 256 387zM324 1291q-38 0 -57 -33q-23 -40 -23 -189q0 -142 18 -184q19 -45 60 -45q40 0 58 33q24 42 24 186q0 125 -11 169q-16 63 -69 63zM1610 754q256 0 256 -386q0 -393 -253 -393q-259 0 -259 392 q0 387 256 387zM1610 590q-38 0 -57 -33q-23 -40 -23 -187q0 -143 18 -186q19 -45 61 -45q39 0 58 33q23 42 23 186q0 126 -11 169q-16 63 -69 63zM1022 754q256 0 256 -386q0 -393 -253 -393q-259 0 -259 392q0 387 256 387zM1022 590q-38 0 -57 -33q-23 -41 -23 -185 q0 -145 18 -188q19 -45 61 -45q39 0 58 33q23 41 23 190q0 122 -11 165q-16 63 -69 63zM271 -68l645 1565h151l-645 -1565h-151z" />
<glyph unicode="&#x2039;" horiz-adv-x="645" vert-adv-y="2457" d="M74 532l203 424h256l-185 -424l185 -423h-256z" />
<glyph unicode="&#x203a;" horiz-adv-x="645" vert-adv-y="2457" d="M369 956l203 -424l-203 -423h-256l184 423l-184 424h256z" />
<glyph unicode="&#x203e;" horiz-adv-x="455" vert-adv-y="2457" d="M-74 1251v176h602v-176h-602z" />
<glyph unicode="&#x2044;" horiz-adv-x="342" vert-adv-y="2457" d="M-244 -68l645 1565h184l-645 -1565h-184z" />
<glyph unicode="&#x2070;" horiz-adv-x="692" vert-adv-y="2457" d="M338 1459q288 0 288 -443q0 -184 -44 -287q-68 -161 -244 -161q-182 0 -249 170q-39 101 -39 274q0 183 44 286q68 161 244 161zM338 1300q-81 0 -81 -288q0 -285 81 -285q80 0 80 285q0 288 -80 288z" />
<glyph unicode="&#x2074;" horiz-adv-x="692" vert-adv-y="2457" d="M35 746v187l288 512h225v-540h92v-159h-92v-168h-203v168h-310zM353 905v293l-159 -293h159z" />
<glyph unicode="&#x2075;" horiz-adv-x="692" vert-adv-y="2457" d="M97 973v472h482v-164h-294v-133q18 2 35 2q91 5 152 -22q144 -64 144 -259q0 -127 -82 -210q-90 -91 -251 -91q-92 0 -191 37l-14 5l11 173q112 -46 167 -46q64 0 102 39q38 36 38 92q0 74 -61 108q-41 23 -94 23q-41 0 -131 -22z" />
<glyph unicode="&#x2076;" horiz-adv-x="692" vert-adv-y="2457" d="M583 1420l-13 -169q-97 42 -153 42q-145 0 -161 -208q59 56 134 56q88 0 152 -64q38 -38 60 -96q23 -63 23 -125q0 -90 -43 -165q-71 -125 -233 -125q-164 0 -238 132q-60 106 -60 284q0 197 70 321q87 154 272 154q70 0 190 -37zM337 977q-74 0 -74 -134q0 -121 74 -121 q76 0 76 131q0 55 -20 91q-19 33 -56 33z" />
<glyph unicode="&#x2077;" horiz-adv-x="692" vert-adv-y="2457" d="M603 1445v-179l-250 -688h-231l268 698h-315v169h528z" />
<glyph unicode="&#x2078;" horiz-adv-x="692" vert-adv-y="2457" d="M186 1026q-47 23 -78 69q-40 61 -40 138q0 88 62 150q75 74 207 74q124 0 197 -71q67 -67 67 -156q0 -81 -64 -147q-26 -26 -57 -42q149 -67 149 -230q0 -107 -76 -174q-79 -71 -218 -71q-140 0 -219 80q-70 71 -70 169q0 85 48 146q36 45 92 65zM345 1104q61 42 61 108 q0 25 -9 46q-19 43 -65 43q-43 0 -60 -42q-9 -21 -9 -41q0 -47 35 -83q12 -14 28 -23q17 -9 19 -8zM328 953q-2 -1 -5 -4q-70 -45 -70 -129q0 -45 27 -72q25 -26 59 -26q30 0 54 24q29 28 29 74q0 61 -44 100q-11 10 -25 19q-24 15 -25 14z" />
<glyph unicode="&#x2079;" horiz-adv-x="692" vert-adv-y="2457" d="M93 604l12 170q100 -43 153 -43q145 0 162 208q-59 -55 -134 -55q-89 0 -153 64q-82 82 -82 221q0 92 42 165q73 125 233 125q163 0 239 -132q59 -104 59 -284q0 -199 -70 -322q-87 -154 -273 -154q-72 0 -188 37zM339 1303q-76 0 -76 -130q0 -125 74 -125q75 0 75 135 q0 120 -73 120z" />
<glyph unicode="&#x2080;" horiz-adv-x="692" vert-adv-y="2457" d="M338 881q288 0 288 -444q0 -448 -288 -448t-288 445q0 447 288 447zM338 722q-81 0 -81 -289q0 -285 81 -285q80 0 80 286q0 288 -80 288z" />
<glyph unicode="&#x2081;" horiz-adv-x="692" vert-adv-y="2457" d="M503 868v-868h-227v635l-117 -107l-100 139l260 201h184z" />
<glyph unicode="&#x2082;" horiz-adv-x="692" vert-adv-y="2457" d="M57 0v154l68 69q24 26 55 57q93 92 143 156q72 92 72 159q0 41 -28 70q-36 36 -95 36q-85 0 -184 -68l-17 195q184 49 271 49q123 0 202 -63q85 -68 85 -177q0 -117 -113 -266q-43 -56 -73 -84l-105 -102l-21 -21h318v-164h-578z" />
<glyph unicode="&#x2083;" horiz-adv-x="692" vert-adv-y="2457" d="M176 367v151q105 0 154 14q76 21 76 77q0 46 -41 75q-40 29 -100 29q-50 0 -147 -32q-17 -6 -34 -11l-11 168q157 39 277 39t196 -61q81 -63 81 -166q0 -133 -185 -195v-4q197 -32 197 -210q0 -126 -116 -191q-106 -58 -241 -58q-68 0 -158 18q-43 8 -71 19l10 172 q125 -45 181 -45q88 0 131 43q31 31 31 69q0 99 -165 99h-65z" />
<glyph unicode="&#x2084;" horiz-adv-x="692" vert-adv-y="2457" d="M35 168v187l288 513h225v-541h92v-159h-92v-168h-203v168h-310zM353 327v293l-159 -293h159z" />
<glyph unicode="&#x2085;" horiz-adv-x="692" vert-adv-y="2457" d="M97 396v472h482v-164h-294v-133q18 2 35 2q91 5 152 -22q144 -64 144 -259q0 -128 -82 -211q-89 -90 -251 -90q-93 0 -191 37l-14 5l11 173q112 -46 167 -46q64 0 102 38q38 37 38 93q0 74 -61 107q-42 24 -94 24q-40 0 -131 -22z" />
<glyph unicode="&#x2086;" horiz-adv-x="692" vert-adv-y="2457" d="M583 842l-13 -169q-97 42 -153 42q-145 0 -161 -208q59 56 134 56q88 0 152 -64q38 -39 60 -96q23 -63 23 -126q0 -89 -43 -164q-71 -125 -233 -125q-164 0 -238 132q-60 105 -60 284q0 197 70 321q87 154 272 154q70 0 190 -37zM337 399q-74 0 -74 -134q0 -121 74 -121 q76 0 76 131q0 55 -20 91q-19 33 -56 33z" />
<glyph unicode="&#x2087;" horiz-adv-x="692" vert-adv-y="2457" d="M603 868v-179l-250 -689h-231l268 699h-315v169h528z" />
<glyph unicode="&#x2088;" horiz-adv-x="692" vert-adv-y="2457" d="M186 448q-47 23 -78 69q-40 60 -40 138q0 88 62 150q75 74 207 74q124 0 197 -72q67 -66 67 -155q0 -81 -64 -147q-26 -26 -57 -43q149 -66 149 -229q0 -107 -76 -175q-79 -70 -218 -70q-140 0 -219 80q-70 71 -70 169q0 85 48 146q36 45 92 65zM345 526q61 42 61 108 q0 25 -9 46q-19 43 -65 43q-43 0 -60 -42q-9 -21 -9 -41q0 -47 35 -83q12 -14 28 -23q17 -10 19 -8zM328 375q-2 -2 -5 -4q-70 -45 -70 -129q0 -45 27 -72q25 -26 59 -26q30 0 54 24q29 28 29 74q0 61 -44 100q-11 10 -25 19q-24 15 -25 14z" />
<glyph unicode="&#x2089;" horiz-adv-x="692" vert-adv-y="2457" d="M93 26l12 170q101 -43 153 -43q145 0 162 209q-59 -56 -134 -56q-88 0 -153 64q-82 82 -82 221q0 92 42 165q73 125 233 125q163 0 239 -132q59 -104 59 -283q0 -200 -70 -323q-87 -154 -273 -154q-71 0 -188 37zM339 725q-76 0 -76 -130q0 -125 74 -125q75 0 75 135 q0 120 -73 120z" />
<glyph unicode="&#x20ac;" horiz-adv-x="1085" vert-adv-y="2457" d="M565 462q22 -44 52 -82q105 -131 275 -131q78 0 160 24v-280q-127 -18 -203 -18q-292 0 -474 180q-117 117 -174 307h-146l73 195h41q-2 29 -2 58q0 34 3 80h-115l73 194h75q46 164 163 282q182 184 461 184q167 0 316 -53l-91 -240q-97 27 -163 27q-226 0 -323 -200h420 l-73 -194h-398q-4 -38 -4 -72q0 -27 3 -66h347l-73 -195h-223z" />
<glyph unicode="&#x2116;" vert-adv-y="2457" d="M267 727q70 0 113 -44q44 -44 44 -114t-44 -114q-43 -43 -112 -43q-72 0 -115 43q-44 44 -44 114t44 114q43 44 114 44z" />
<glyph unicode="&#x2122;" horiz-adv-x="2048" vert-adv-y="2457" d="M954 578v852h295l202 -533l203 533h295v-852h-197v602h-4l-221 -602h-151l-221 602h-4v-602h-197zM338 578v688h-240v164h692v-164h-239v-688h-213z" />
<glyph unicode="&#x2126;" horiz-adv-x="1432" vert-adv-y="2457" d="M768 0v202q62 37 94 68q164 162 164 495q0 275 -120 398q-75 76 -192 76q-116 0 -191 -76q-120 -123 -120 -399q0 -256 100 -414q39 -61 86 -100q23 -19 72 -48v-202h-515v228h283q-131 94 -176 154q-120 158 -120 405q0 237 102 408q86 142 226 213q115 58 253 58 q233 0 390 -157q87 -87 132 -201q60 -151 60 -320q0 -284 -150 -443q-37 -39 -146 -117h283v-228h-515z" />
<glyph unicode="&#x2153;" horiz-adv-x="1593" vert-adv-y="2457" d="M303 -68l646 1565h184l-645 -1565h-185zM479 1446v-868h-227v635l-117 -107l-100 140l260 200h184zM1046 367v152q105 0 154 14q76 21 76 77q0 46 -41 75q-39 28 -100 28q-52 0 -147 -32l-34 -10l-10 167q153 39 277 39q120 0 195 -60q81 -64 81 -167q0 -132 -185 -195 v-4q197 -31 197 -209q0 -126 -116 -191q-104 -58 -241 -58q-69 0 -158 17q-43 9 -71 19l10 173q125 -45 181 -45q89 0 131 43q31 31 31 69q0 98 -164 98h-66z" />
<glyph unicode="&#x2154;" horiz-adv-x="1593" vert-adv-y="2457" d="M390 -68l646 1565h184l-645 -1565h-185zM1079 367v152q105 0 154 14q76 21 76 77q0 46 -41 75q-40 28 -100 28q-52 0 -147 -32l-34 -10l-10 167q153 39 276 39q121 0 196 -60q81 -64 81 -167q0 -132 -185 -195v-4q197 -31 197 -209q0 -126 -116 -191q-104 -58 -241 -58 q-69 0 -158 17q-43 9 -71 19l10 173q125 -45 181 -45q89 0 131 43q31 31 31 69q0 98 -164 98h-66zM49 577v154l68 69q24 26 55 57q94 93 142 156q73 93 73 159q0 41 -28 70q-36 36 -95 36q-84 0 -184 -68l-17 195q184 49 271 49q123 0 202 -63q85 -68 85 -176 q0 -117 -114 -267q-42 -56 -72 -84l-105 -103l-21 -20h318v-164h-578z" />
<glyph unicode="&#x2155;" horiz-adv-x="1593" vert-adv-y="2457" d="M992 391v467h476v-163h-290v-132q19 2 35 3q23 1 26 1q129 0 200 -79q66 -75 66 -201q0 -125 -81 -208q-88 -89 -247 -89q-78 0 -136 17q-18 6 -67 25l11 170q113 -45 164 -45q64 0 102 38q37 37 37 91q0 73 -60 107q-41 23 -93 23q-42 0 -129 -22zM315 -68l646 1565h184 l-645 -1565h-185zM479 1446v-868h-227v635l-117 -107l-100 140l260 200h184z" />
<glyph unicode="&#x2159;" horiz-adv-x="1593" vert-adv-y="2457" d="M1454 833l-13 -168l-14 6q-89 36 -137 36q-144 0 -160 -206q58 55 132 55q88 0 151 -64q82 -81 82 -219q0 -90 -42 -163q-71 -123 -231 -123q-161 0 -236 130q-59 105 -59 281q0 196 69 319q86 152 270 152q69 0 188 -36zM1211 393q-74 0 -74 -136q0 -116 73 -116 q75 0 75 129q0 123 -74 123zM333 -68l646 1565h184l-645 -1565h-185zM488 1446v-868h-227v635l-117 -107l-100 140l260 200h184z" />
<glyph unicode="&#x215b;" horiz-adv-x="1593" vert-adv-y="2457" d="M1059 442q-46 23 -77 69q-40 59 -40 136q0 88 61 148q75 74 205 74q123 0 195 -71q67 -65 67 -153q0 -82 -63 -146q-26 -27 -57 -42q46 -21 80 -55q68 -68 68 -172q0 -106 -76 -173q-78 -70 -215 -70q-140 0 -217 79q-70 70 -70 167q0 85 48 145q35 44 91 64zM1216 519 q3 2 7 5q54 40 54 103q0 23 -9 45q-19 43 -65 43q-41 0 -59 -42q-9 -21 -9 -41q0 -46 34 -82q13 -14 28 -22q18 -10 19 -9zM1200 370l-6 -4q-69 -45 -69 -127q0 -45 27 -72q25 -26 59 -26q29 0 53 24q29 28 29 73q0 60 -44 99q-11 10 -25 19q-23 15 -24 14zM488 1446v-868 h-227v635l-117 -107l-100 140l260 200h184zM339 -68l646 1565h184l-645 -1565h-185z" />
<glyph unicode="&#x215c;" horiz-adv-x="1593" vert-adv-y="2457" d="M1061 442q-46 23 -77 69q-40 60 -40 136q0 87 62 148q74 74 204 74q124 0 196 -71q67 -66 67 -153q0 -81 -64 -146q-26 -27 -57 -42q148 -66 148 -227q0 -106 -76 -173q-78 -70 -215 -70q-139 0 -217 79q-69 70 -69 167q0 85 48 145q34 44 90 64zM1218 519q3 2 8 5 q54 41 54 103q0 22 -10 45q-19 43 -64 43q-42 0 -60 -42q-9 -22 -9 -41q0 -46 35 -82q13 -14 28 -22q17 -10 18 -9zM1202 370q-3 -2 -5 -4q-69 -44 -69 -127q0 -46 26 -72q25 -26 59 -26q30 0 53 24q29 28 29 73q0 61 -44 99q-11 10 -25 19q-23 15 -24 14zM369 -68l645 1565 h184l-645 -1565h-184zM176 945v151q105 0 154 14q76 21 76 77q0 46 -41 75q-40 29 -100 29q-50 0 -147 -32q-17 -6 -34 -11l-11 168q157 39 277 39t196 -61q81 -63 81 -166q0 -133 -185 -195v-4q197 -32 197 -210q0 -126 -116 -191q-106 -58 -241 -58q-68 0 -158 18 q-43 8 -71 19l10 172q125 -45 181 -45q88 0 131 43q31 31 31 69q0 99 -165 99h-65z" />
<glyph unicode="&#x215d;" horiz-adv-x="1593" vert-adv-y="2457" d="M1062 442q-47 23 -77 69q-41 60 -41 136q0 87 62 148q74 74 205 74q123 0 195 -71q67 -66 67 -153q0 -81 -64 -146q-26 -27 -56 -42q147 -65 147 -227q0 -107 -75 -173q-79 -70 -216 -70q-139 0 -217 79q-69 70 -69 167q0 85 48 145q35 44 91 64zM1219 519q3 2 7 5 q54 40 54 103q0 22 -10 45q-18 43 -64 43q-42 0 -60 -42q-9 -22 -9 -41q0 -46 35 -82q13 -14 28 -22q17 -10 19 -9zM1202 370q-2 -2 -5 -4q-69 -44 -69 -127q0 -45 26 -72q26 -26 60 -26q29 0 53 24q28 28 28 73q0 61 -44 99q-11 10 -24 19q-23 15 -25 14zM378 -68l645 1565 h185l-645 -1565h-185zM127 976v468h477v-163h-291v-132q21 2 35 3h12q13 1 14 1q130 0 201 -79q66 -74 66 -201q0 -126 -82 -208q-88 -90 -248 -90q-95 0 -202 42l11 171q115 -46 164 -46q63 0 102 39q37 36 37 91q0 73 -60 107q-42 23 -93 23q-40 0 -143 -26z" />
<glyph unicode="&#x215e;" horiz-adv-x="1593" vert-adv-y="2457" d="M670 1444v-177l-248 -677h-229l266 687h-312v167h523zM1058 442q-46 23 -77 69q-40 60 -40 136q0 87 62 148q74 74 204 74q124 0 196 -71q66 -65 66 -153q0 -82 -63 -146q-26 -27 -57 -42q46 -21 80 -55q68 -68 68 -172q0 -106 -76 -173q-78 -70 -215 -70q-139 0 -217 79 q-69 70 -69 167q0 86 48 145q34 44 90 64zM1215 519q3 2 7 5q54 40 54 103q0 24 -9 45q-19 43 -64 43q-42 0 -60 -42q-9 -21 -9 -41q0 -46 35 -82q12 -14 28 -22q17 -10 18 -9zM1199 370q-3 -2 -5 -4q-69 -44 -69 -127q0 -46 26 -72q25 -26 59 -26q29 0 53 24q29 28 29 73 q0 61 -44 99q-11 10 -25 19q-23 15 -24 14zM330 -68l645 1565h184l-645 -1565h-184z" />
<glyph unicode="&#x2202;" horiz-adv-x="1073" vert-adv-y="2457" d="M187 1209l28 221q177 -26 273 -63q181 -70 295 -210q192 -233 192 -583q0 -321 -160 -484q-111 -113 -279 -113q-171 0 -292 122q-145 146 -145 369q0 214 132 345q108 108 261 108q112 0 210 -77q-39 93 -73 138q-88 116 -233 177q-71 30 -209 50zM535 739 q-68 0 -111 -43q-70 -71 -70 -247q0 -169 70 -241q41 -42 111 -42q182 0 182 286q0 287 -182 287z" />
<glyph unicode="&#x2206;" horiz-adv-x="1074" vert-adv-y="2457" d="M-49 0l444 1430h275l453 -1430h-1172zM294 238h481l-240 838z" />
<glyph unicode="&#x220f;" horiz-adv-x="1432" vert-adv-y="2457" d="M107 1612h1215v-238h-153v-1681h153v-238h-552v238h148v1681h-408v-1681h147v-238h-550v238h152v1681h-152v238z" />
<glyph unicode="&#x2211;" horiz-adv-x="1432" vert-adv-y="2457" d="M1247 1612v-524h-232l-19 286h-592l463 -803l-463 -878h611l11 284h238v-522h-1133v268l451 848l-451 771v270h1116z" />
<glyph unicode="&#x2212;" horiz-adv-x="1229" vert-adv-y="2457" d="M96 412v213h1036v-213h-1036z" />
<glyph unicode="&#x221a;" horiz-adv-x="1073" vert-adv-y="2457" d="M1243 1769v-223h-328l-308 -1546h-330l-105 592h-172v217h354l60 -350q12 -71 22 -204h17q30 343 105 713l163 801h522z" />
<glyph unicode="&#x221e;" horiz-adv-x="1432" vert-adv-y="2457" d="M715 906q79 104 151 141q64 33 136 33q124 0 207 -82q96 -96 96 -264q0 -170 -96 -266q-82 -81 -207 -81q-74 0 -136 32q-72 37 -151 139q-78 -102 -151 -139q-62 -32 -135 -32q-125 0 -207 81q-97 97 -97 266q0 168 97 264q83 82 206 82q72 0 136 -33q73 -37 151 -141z M593 732q-7 12 -16 29q-58 100 -123 100q-40 0 -67 -28q-37 -38 -37 -100t36 -100q27 -27 68 -27q38 0 65 24q17 16 46.5 57t27.5 45zM838 732q22 -37 29 -49q50 -77 110 -77q40 0 67 27q36 37 36 100t-37 100q-27 28 -67 28q-38 0 -67 -27q-24 -22 -42 -52q-30 -49 -29 -50 z" />
<glyph unicode="&#x222b;" horiz-adv-x="1073" vert-adv-y="2457" d="M163 -522l39 230q76 -23 109 -23q99 0 99 160v1235q0 237 19 311q24 92 93 152q80 69 217 69q58 0 169 -24l-39 -229q-80 26 -110 26q-64 0 -87 -71q-6 -19 -9 -39q-2 -20 -2 -185v-1056q0 -283 -18 -356q-23 -93 -94 -152q-81 -69 -211 -69q-73 0 -175 21z" />
<glyph unicode="&#x2248;" horiz-adv-x="1073" vert-adv-y="2457" d="M217 343l-135 61q41 110 68 154q77 129 205 129q76 0 197 -54q85 -37 116 -48q20 -7 47 -7q41 0 62 21q26 25 65 101l150 -52q-45 -110 -71 -150q-92 -137 -227 -137q-60 0 -187 55q-123 54 -160 54q-39 0 -60 -21q-26 -24 -70 -106zM217 781l-135 60q41 111 68 155 q77 129 205 129q75 0 197 -54q84 -38 116 -48q19 -7 47 -7q42 0 64.5 21.5t62.5 100.5l150 -52q-43 -106 -70 -148q-90 -139 -227 -139q-61 0 -188 55q-123 54 -158 54q-59 0 -95 -58q-6 -9 -22 -40q-1 -3 -15 -29z" />
<glyph unicode="&#x2260;" horiz-adv-x="1073" vert-adv-y="2457" d="M732 996h243v-169h-316l-73 -166h389v-170h-462l-113 -262l-142 67l84 195h-243v170h316l73 166h-389v169h462l113 262l142 -65z" />
<glyph unicode="&#x2264;" horiz-adv-x="1073" vert-adv-y="2457" d="M942 1430v-238l-571 -314l571 -311v-249l-813 451v210zM942 245v-245h-813v245h813z" />
<glyph unicode="&#x2265;" horiz-adv-x="1073" vert-adv-y="2457" d="M129 318v247l571 313l-571 312v240l813 -451v-210zM129 0v245h813v-245h-813z" />
<glyph unicode="&#x22c5;" vert-adv-y="2457" d="M267 727q70 0 113 -44q44 -44 44 -114t-44 -114q-43 -43 -112 -43q-72 0 -115 43q-44 44 -44 114t44 114q43 44 114 44z" />
<glyph unicode="&#x25ca;" horiz-adv-x="1073" vert-adv-y="2457" d="M537 1488l526 -771l-526 -773l-528 773zM537 1088l-240 -371l240 -371l240 371z" />
<glyph unicode="&#xe000;" horiz-adv-x="1065" vert-adv-y="2130" d="M0 1065h1065v-1065h-1065v1065z" />
<glyph unicode="&#xea3e;" vert-adv-y="2457" d="M267 727q70 0 113 -44q44 -44 44 -114t-44 -114q-43 -43 -112 -43q-72 0 -115 43q-44 44 -44 114t44 114q43 44 114 44z" />
<glyph unicode="&#xea3f;" vert-adv-y="2457" d="M20 1144l98 406h308l-164 -406h-242z" />
<glyph unicode="&#xea4f;" vert-adv-y="2457" d="M426 1550l-99 -406h-307l164 406h242z" />
<glyph unicode="&#xea66;" vert-adv-y="2457" d="M20 -500l98 406h308l-164 -406h-242z" />
<glyph unicode="&#xea67;" vert-adv-y="2457" d="M182 1030l98 406h308l-164 -406h-242z" />
<glyph unicode="&#xea69;" vert-adv-y="2457" d="M20 -500l98 406h308l-164 -406h-242z" />
<glyph unicode="&#xefed;" horiz-adv-x="455" vert-adv-y="2457" d="M107 1557v258h242v-258h-242z" />
<glyph unicode="&#xefee;" horiz-adv-x="455" vert-adv-y="2457" d="M76 1804q2 -42 19 -73q37 -64 131 -64q148 0 153 137h135q-4 -108 -42 -174q-75 -127 -244 -127q-170 0 -244 127q-39 66 -43 174h135z" />
<glyph unicode="&#xeff1;" horiz-adv-x="455" vert-adv-y="2457" d="M250 12h88l-55 -65q-82 -96 -82 -182q0 -109 111 -109q44 0 77 6l29 -90q-73 -27 -185 -27q-103 0 -155 57q-41 46 -41 114q0 129 164 257z" />
<glyph unicode="&#xeff2;" horiz-adv-x="455" vert-adv-y="2457" d="M190 14h111l-78 -129q29 10 68 10q81 0 129 -47q45 -45 45 -115q0 -96 -90 -148q-69 -40 -160 -40q-81 0 -163 23q-33 9 -52 20l39 94q2 -1 7 -3q64 -31 136 -31q107 0 107 80q0 35 -28 55q-26 18 -65 18t-71 -16l-45 37z" />
<glyph unicode="&#xeff3;" horiz-adv-x="455" vert-adv-y="2457" d="M227 1929q94 0 161 -67t67 -160t-67 -161q-66 -66 -161 -66q-94 0 -160 66q-67 67 -67 159q0 95 67 162q66 67 160 67zM227 1818q-48 0 -82 -34q-34 -35 -34 -81q0 -49 34 -83q34 -35 82 -35t82 35q35 35 35 82t-35 82q-33 34 -82 34z" />
<glyph unicode="&#xeff5;" horiz-adv-x="455" vert-adv-y="2457" d="M58 1534h-152q9 87 39 145q56 105 156 105q62 0 158 -46q60 -28 84 -28q42 0 55 74h151q-4 -76 -31 -137q-51 -113 -162 -113q-55 0 -157 45q-65 29 -87 29q-26 0 -41 -27q-12 -21 -13 -47z" />
<glyph unicode="&#xeff7;" horiz-adv-x="455" vert-adv-y="2457" d="M-78 1505l158 299h295l157 -299h-204l-101 176l-100 -176h-205z" />
<glyph unicode="&#xf6c9;" horiz-adv-x="455" vert-adv-y="2457" d="M68 1505l111 299h282l-205 -299h-188z" />
<glyph unicode="&#xf6ca;" horiz-adv-x="455" vert-adv-y="2457" d="M80 1505l-158 299h205l100 -176l101 176h204l-157 -299h-295z" />
<glyph unicode="&#xf6cb;" horiz-adv-x="455" vert-adv-y="2457" d="M-69 1557v258h242v-258h-242zM283 1557v258h242v-258h-242z" />
<glyph unicode="&#xf6ce;" horiz-adv-x="455" vert-adv-y="2457" d="M199 1505l-205 299h283l110 -299h-188z" />
<glyph unicode="&#xf6cf;" horiz-adv-x="455" vert-adv-y="2457" d="M-98 1505l111 299h282l-205 -299h-188zM254 1505l111 299h282l-204 -299h-189z" />
<glyph unicode="&#xf6d0;" horiz-adv-x="861" vert-adv-y="2457" d="M718 1750v-182h-575v182h575z" />
<glyph unicode="&#xf730;" horiz-adv-x="1024" vert-adv-y="2457" d="M517 1078q224 0 329 -151q93 -135 93 -412q0 -219 -66 -350q-100 -196 -362 -196q-270 0 -369 208q-60 127 -60 344q0 231 66 360q101 197 369 197zM511 845q-58 0 -89 -67q-33 -73 -33 -256q0 -149 25 -230q27 -90 97 -90q45 0 72 40q49 70 49 281q0 150 -25 232 q-27 90 -96 90z" />
<glyph unicode="&#xf731;" horiz-adv-x="865" vert-adv-y="2457" d="M18 717l432 330h251v-1047h-310v677l-221 -191z" />
<glyph unicode="&#xf732;" horiz-adv-x="957" vert-adv-y="2457" d="M84 0v249l81 59q2 2 15 11q13 11 51 38q117 84 183 143q128 114 128 193q0 51 -46 83q-47 32 -120 32q-59 0 -132 -25q-32 -11 -118 -46l-21 273q206 64 376 64q181 0 290 -84q107 -81 107 -202q0 -142 -158 -318q-82 -92 -243 -221h398v-249h-791z" />
<glyph unicode="&#xf733;" horiz-adv-x="942" vert-adv-y="2457" d="M246 601q146 0 216 41q26 15 46 53q12 24 12 50q0 35 -34 53q-50 26 -128 26q-114 0 -264 -69l-18 256q198 63 342 63q139 0 254 -59q85 -43 132 -124q35 -60 35 -131q0 -102 -70 -174q-50 -50 -170 -91q50 -15 79 -29q84 -40 132 -110q55 -79 55 -178q0 -108 -70 -212 q-115 -172 -564 -399l-135 169q161 117 253 195q172 145 172 269q0 63 -42 109q-46 50 -166 53q-23 1 -67 1v238z" />
<glyph unicode="&#xf734;" horiz-adv-x="1010" vert-adv-y="2457" d="M49 0v310l403 737h352v-814h164v-233h-164v-382h-291v382h-464zM525 233v478h-1l-261 -478h262z" />
<glyph unicode="&#xf735;" horiz-adv-x="942" vert-adv-y="2457" d="M106 356v691h711v-220h-428v-229q10 1 34 4q78 9 154 -2q155 -22 238 -141q69 -97 69 -242t-70 -249q-79 -118 -279 -246q-98 -62 -277 -154l-136 170q167 117 262 194q178 145 178 272q0 92 -97 141q-72 36 -160 36q-67 0 -199 -25z" />
<glyph unicode="&#xf736;" horiz-adv-x="1010" vert-adv-y="2457" d="M388 758q95 75 195 75q130 0 225 -94q58 -58 90 -143q34 -92 34 -188q0 -135 -64 -246q-105 -184 -361 -184q-429 0 -429 577q0 256 109 441q87 147 253 292q59 51 186 146l146 -150q-177 -172 -259 -277q-89 -112 -125 -249zM506 591q-99 0 -99 -202q0 -183 98 -183 q103 0 103 197q0 83 -25 135q-26 53 -77 53z" />
<glyph unicode="&#xf737;" horiz-adv-x="928" vert-adv-y="2457" d="M864 1047v-283l-371 -1139h-338l399 1172h-473v250h783z" />
<glyph unicode="&#xf738;" horiz-adv-x="1024" vert-adv-y="2457" d="M736 713q66 -25 120 -91q88 -106 88 -264q0 -169 -112 -272q-118 -109 -325 -109q-210 0 -327 123q-104 109 -104 260q0 130 70 223q55 72 151 105q-78 33 -129 114q-59 96 -59 215q0 137 92 233q111 117 308 117q186 0 293 -112q100 -104 100 -242q0 -124 -80 -227 q-40 -51 -86 -73zM540 782l8 8q67 67 74 169q11 181 -113 181q-72 0 -100 -78q-13 -34 -13 -71q0 -85 57 -150q22 -24 47 -40q37 -22 40 -19zM509 605q-126 -88 -126 -232q0 -77 40 -124q38 -45 89 -45q46 0 83 42q42 48 42 127q0 105 -58 172q-17 19 -42 39q-27 21 -28 21z " />
<glyph unicode="&#xf739;" horiz-adv-x="1010" vert-adv-y="2457" d="M623 264q-95 -75 -195 -75q-130 0 -225 94q-125 124 -125 345q0 147 64 259q107 184 362 184q429 0 429 -585q0 -280 -118 -472q-96 -155 -275 -299q-64 -52 -204 -148l-145 150q184 163 290 288q106 127 142 259zM506 843q-104 0 -104 -213q0 -199 102 -199q52 0 77 52 q22 45 22 178q0 182 -97 182z" />
<glyph horiz-adv-x="1085" vert-adv-y="1085" />
<glyph vert-adv-y="2457" />
<glyph horiz-adv-x="1593" vert-adv-y="2457" d="M1025 391v467h476v-163h-290v-132q19 2 35 3q23 1 26 1q130 0 200 -79q66 -75 66 -201q0 -125 -81 -208q-88 -89 -248 -89q-77 0 -135 17q-17 5 -67 25l11 170q113 -45 164 -45q64 0 102 38q37 37 37 91q0 73 -60 107q-41 23 -93 23q-42 0 -129 -22zM409 -68l645 1565 h184l-645 -1565h-184zM44 732v187l313 526h250v-561h86v-152h-86v-155h-221v155h-342zM394 884v340h-4l-182 -340h186z" />
<glyph horiz-adv-x="1593" vert-adv-y="2457" d="M1009 391v467h477v-163h-291v-132q19 2 35 3q23 1 26 1q130 0 200 -79q67 -75 67 -201q0 -125 -82 -208q-88 -89 -248 -89q-77 0 -135 17q-17 5 -67 25l10 170q114 -45 165 -45q64 0 102 38q37 36 37 91q0 73 -60 107q-41 23 -94 23q-41 0 -128 -22zM372 -68l645 1565 h185l-646 -1565h-184zM176 945v151q105 0 154 14q76 21 76 77q0 46 -41 75q-40 29 -100 29q-50 0 -147 -32q-17 -6 -34 -11l-11 168q157 39 277 39t196 -61q81 -63 81 -166q0 -133 -185 -195v-4q197 -32 197 -210q0 -126 -116 -191q-106 -58 -241 -58q-68 0 -158 18 q-43 8 -71 19l10 172q125 -45 181 -45q88 0 131 43q31 31 31 69q0 99 -165 99h-65z" />
<glyph horiz-adv-x="1593" vert-adv-y="2457" d="M1015 391v467h477v-163h-291v-132q20 2 35 3q23 1 26 1q130 0 201 -79q66 -75 66 -201t-81 -208q-89 -89 -249 -89q-77 0 -135 17q-17 5 -67 25l11 170q113 -45 164 -45q64 0 102 38q37 37 37 91q0 73 -60 107q-41 23 -93 23q-42 0 -129 -22zM399 -68l646 1565h184 l-645 -1565h-185zM46 577v154l68 69q24 26 55 57q94 93 142 156q73 93 73 159q0 41 -28 70q-36 36 -95 36q-84 0 -184 -68l-17 195q184 49 271 49q123 0 202 -63q85 -68 85 -176q0 -117 -114 -267q-42 -56 -72 -84l-105 -103l-21 -20h318v-164h-578z" />
<glyph horiz-adv-x="1593" vert-adv-y="2457" d="M309 -68l646 1565h184l-645 -1565h-185zM479 1446v-868h-227v635l-117 -107l-100 140l260 200h184zM1364 868v-868h-227v635l-117 -107l-100 139l260 201h184z" />
<glyph horiz-adv-x="1024" vert-adv-y="2457" d="M512 1455q253 0 368 -202q103 -179 103 -537q0 -305 -73 -478q-111 -263 -398 -263q-296 0 -405 279q-66 168 -66 459q0 307 73 479q111 263 398 263zM512 1221q-75 0 -113 -105q-43 -116 -43 -403q0 -237 32 -363q36 -141 124 -141q58 0 93 62q63 111 63 440 q0 239 -32 368q-35 142 -124 142z" />
<glyph horiz-adv-x="1010" vert-adv-y="2457" d="M108 33l18 248q153 -64 242 -64q178 0 250 163q38 87 49 257h-4q-110 -123 -246 -123q-143 0 -247 104q-63 63 -97 156q-37 100 -37 207q0 150 70 271q117 203 379 203q267 0 390 -215q99 -175 99 -474q0 -331 -117 -539q-142 -252 -449 -252q-120 0 -300 58zM506 1228 q-73 0 -110 -66q-36 -64 -36 -177q0 -102 35 -164q36 -65 109 -65q77 0 113 63q33 58 33 183q0 226 -144 226z" />
<glyph horiz-adv-x="1038" vert-adv-y="2457" d="M312 740q-107 37 -167 128q-66 99 -66 223q0 143 100 242q123 122 339 122q203 0 322 -117q56 -56 85 -131q24 -61 24 -119q0 -132 -103 -238q-54 -56 -134 -86v-4q100 -28 173 -103q111 -112 111 -282q0 -176 -123 -285q-130 -115 -357 -115q-231 0 -360 130 q-114 116 -114 275q0 139 78 238q39 48 93 79q32 19 99 39v4zM534 850q5 4 7 6q113 76 113 200q0 47 -17 86q-37 86 -127 86q-84 0 -120 -85q-16 -37 -16 -77q0 -88 64 -154q23 -25 52 -42q39 -23 44 -20zM503 637q-7 -4 -14 -9q-132 -83 -132 -238q0 -86 51 -137 q49 -51 114 -51q57 0 105 47q54 53 54 140q0 112 -81 184q-24 21 -58 42q-38 23 -39 22z" />
<glyph horiz-adv-x="928" vert-adv-y="2457" d="M894 1430v-283l-420 -1147h-352l457 1180h-545v250h860z" />
<glyph horiz-adv-x="1010" vert-adv-y="2457" d="M902 1397l-18 -248q-156 64 -243 64q-177 0 -249 -163q-38 -87 -49 -257h4q109 123 247 123q141 0 245 -104q63 -63 98 -156q37 -101 37 -207q0 -150 -70 -271q-116 -203 -380 -203q-266 0 -389 215q-99 175 -99 473q0 333 117 539q142 253 448 253q118 0 301 -58z M506 674q-77 0 -113 -63q-33 -57 -33 -184q0 -225 143 -225q73 0 110 66q37 64 37 176q0 102 -35 165q-36 65 -109 65z" />
<glyph horiz-adv-x="942" vert-adv-y="2457" d="M64 670v760h782v-242h-499v-266q11 1 38 3q46 5 84 5q216 0 331 -129q110 -123 110 -334q0 -207 -135 -344q-147 -148 -410 -148q-119 0 -213 25q-42 11 -119 41l16 254q175 -70 266 -70q118 0 189 71q70 69 70 170q0 136 -113 200q-77 43 -172 43q-68 0 -225 -39z" />
<glyph horiz-adv-x="1027" vert-adv-y="2457" d="M19 276v295l484 859h352v-921h155v-233h-155v-276h-307v276h-529zM560 509v585h-4l-316 -585h320z" />
<glyph horiz-adv-x="942" vert-adv-y="2457" d="M18 37l14 262q123 -44 161 -55q66 -19 123 -19q134 0 200 72q48 52 48 129q0 111 -78 156q-56 32 -177 32h-98v234q142 0 213 19q136 37 136 156q0 90 -69 140q-59 42 -144 42q-74 0 -223 -51q-28 -10 -57 -19l-16 254q242 66 411 66q173 0 289 -92q133 -106 133 -286 q0 -148 -117 -240q-60 -47 -167 -88v-4q79 -14 123 -36q177 -90 177 -312q0 -198 -160 -313q-64 -46 -151 -74q-111 -35 -227 -35q-93 0 -235 30q-60 13 -109 32z" />
<glyph horiz-adv-x="942" vert-adv-y="2457" d="M35 0v250l104 117q32 35 74 80q136 147 203 235q141 188 141 317q0 84 -53 136q-54 54 -138 54q-77 0 -183 -53q-51 -25 -101 -61l-22 298q134 40 188 52q127 30 224 30q188 0 306 -118q115 -114 115 -284q0 -196 -174 -442q-110 -156 -273 -312l-51 -49h512v-250h-872z " />
<glyph horiz-adv-x="860" vert-adv-y="2457" d="M23 1106l402 324h258v-1430h-324v1053l-184 -178z" />
<glyph horiz-adv-x="1065" vert-adv-y="2457" d="M121 717l432 330h251v-1047h-310v677l-221 -191z" />
<glyph horiz-adv-x="1065" vert-adv-y="2457" d="M139 0v249l81 59q2 2 15 11q13 11 51 38q117 84 183 143q128 114 128 193q0 51 -46 83q-47 32 -120 32q-59 0 -132 -25q-32 -11 -118 -46l-21 273q206 64 376 64q181 0 290 -84q107 -81 107 -202q0 -142 -158 -318q-82 -92 -243 -221h398v-249h-791z" />
<glyph horiz-adv-x="1065" vert-adv-y="2457" d="M324 601q146 0 216 41q26 15 46 53q12 24 12 50q0 35 -34 53q-50 26 -128 26q-114 0 -264 -69l-18 256q198 63 342 63q139 0 254 -59q85 -43 132 -124q35 -60 35 -131q0 -102 -70 -174q-50 -50 -170 -91q50 -15 79 -29q84 -40 132 -110q55 -79 55 -178q0 -108 -70 -212 q-115 -172 -564 -399l-135 169q161 117 253 195q172 145 172 269q0 63 -42 109q-46 50 -166 53q-23 1 -67 1v238z" />
<glyph horiz-adv-x="1065" vert-adv-y="2457" d="M103 0v310l403 737h352v-814h164v-233h-164v-382h-291v382h-464zM579 233v478h-1l-261 -478h262z" />
<glyph horiz-adv-x="1065" vert-adv-y="2457" d="M158 356v691h711v-220h-428v-229q10 1 34 4q78 9 154 -2q155 -22 238 -141q69 -97 69 -242t-70 -249q-79 -118 -279 -246q-98 -62 -277 -154l-136 170q167 117 262 194q178 145 178 272q0 92 -97 141q-72 36 -160 36q-67 0 -199 -25z" />
<glyph horiz-adv-x="1065" vert-adv-y="2457" d="M410 758q95 75 195 75q130 0 225 -94q58 -58 90 -143q34 -92 34 -188q0 -135 -64 -246q-105 -184 -361 -184q-429 0 -429 577q0 256 109 441q87 147 253 292q59 51 186 146l146 -150q-177 -172 -259 -277q-89 -112 -125 -249zM528 591q-99 0 -99 -202q0 -183 98 -183 q103 0 103 197q0 83 -25 135q-26 53 -77 53z" />
<glyph horiz-adv-x="1065" vert-adv-y="2457" d="M925 1047v-283l-371 -1139h-338l399 1172h-473v250h783z" />
<glyph horiz-adv-x="1065" vert-adv-y="2457" d="M758 713q66 -25 120 -91q88 -106 88 -264q0 -169 -112 -272q-118 -109 -325 -109q-210 0 -327 123q-104 109 -104 260q0 130 70 223q55 72 151 105q-78 33 -129 114q-59 96 -59 215q0 137 92 233q111 117 308 117q186 0 293 -112q100 -104 100 -242q0 -124 -80 -227 q-40 -51 -86 -73zM562 782l8 8q67 67 74 169q11 181 -113 181q-72 0 -100 -78q-13 -34 -13 -71q0 -85 57 -150q22 -24 47 -40q37 -22 40 -19zM531 605q-126 -88 -126 -232q0 -77 40 -124q38 -45 89 -45q46 0 83 42q42 48 42 127q0 105 -58 172q-17 19 -42 39q-27 21 -28 21z " />
<glyph horiz-adv-x="1065" vert-adv-y="2457" d="M650 264q-95 -75 -195 -75q-130 0 -225 94q-125 124 -125 345q0 147 64 259q107 184 362 184q429 0 429 -585q0 -280 -118 -472q-96 -155 -275 -299q-64 -52 -204 -148l-145 150q184 163 290 288q106 127 142 259zM533 843q-104 0 -104 -213q0 -199 102 -199q52 0 77 52 q22 45 22 178q0 182 -97 182z" />
<glyph horiz-adv-x="1593" vert-adv-y="2457" d="M1465 833l-12 -168l-14 6q-89 36 -137 36q-144 0 -161 -206q59 55 133 55q87 0 151 -64q82 -82 82 -219q0 -88 -43 -163q-70 -123 -230 -123q-162 0 -236 130q-59 103 -59 281q0 197 69 319q86 152 270 152q69 0 187 -36zM1222 393q-73 0 -73 -136q0 -116 73 -116 q75 0 75 129q0 123 -75 123zM369 -68l645 1565h185l-645 -1565h-185zM118 976v468h477v-163h-291v-132q21 2 35 3h12q13 1 14 1q130 0 201 -79q66 -74 66 -201q0 -126 -82 -208q-88 -90 -248 -90q-95 0 -202 42l11 171q115 -46 164 -46q63 0 102 39q37 36 37 91 q0 73 -60 107q-42 23 -93 23q-40 0 -143 -26z" />
<glyph horiz-adv-x="1065" vert-adv-y="2457" d="M539 1078q224 0 329 -151q93 -135 93 -412q0 -219 -66 -350q-100 -196 -362 -196q-270 0 -369 208q-60 127 -60 344q0 231 66 360q101 197 369 197zM533 845q-58 0 -89 -67q-33 -73 -33 -256q0 -149 25 -230q27 -90 97 -90q45 0 72 40q49 70 49 281q0 150 -25 232 q-27 90 -96 90z" />
</font>
</defs>
</svg>
