<?xml version="1.0" standalone="no"?>
<!DOCTYPE svg PUBLIC "-//W3C//DTD SVG 1.1//EN" "http://www.w3.org/Graphics/SVG/1.1/DTD/svg11.dtd" >
<svg>
<metadata>
Created by FontForge 20090914 at Tue May 23 20:56:33 2017
 By www-data
(URW)++,Copyright 2006 by (URW)++ Design &#38; Development
</metadata>
<defs>
<font id="HDI-GerlingSans-Regular" horiz-adv-x="569" vert-adv-y="2048" >
  <font-face 
    font-family="HDI-Gerling Sans"
    font-weight="400"
    font-stretch="normal"
    units-per-em="2048"
    panose-1="0 0 0 0 0 0 0 0 0 0"
    ascent="1638"
    descent="-410"
    x-height="1048"
    cap-height="644"
    bbox="-282 -536 2048 1940"
    underline-thickness="176"
    underline-position="-127"
    unicode-range="U+0020-U+FB04"
  />
<missing-glyph vert-adv-y="2457" 
d="M57 0v1430h455v-1430h-455zM455 57v1316h-341v-1316h341z" />
    <glyph glyph-name="ff" unicode="ff" horiz-adv-x="1448" vert-adv-y="2457" 
d="M733 1534l0.00195312 -162c-41.333 9.33301 -74.333 14 -99 14c-90 0 -146 -36 -168 -108c-12 -38 -18 -98.333 -18 -181v-52h499v48c0 125.333 11.667 216.666 35 273.999c46.667 114 134 175 262 183c61.333 3.33301 121.666 -2 180.999 -16v-162
c-38 8.66699 -71 13 -99 13c-89.333 0 -145 -35.667 -167 -107c-12 -37.333 -18 -97.666 -18 -180.999v-52h284v-153h-284v-892h-194v892h-499v-892h-194v892h-247v153h247v48c0 146 18.333 251 55 315c55.333 96 149.666 144 282.999 144c44 0 91 -6 141 -18z" />
    <glyph glyph-name="fi" unicode="fi" horiz-adv-x="1366" vert-adv-y="2457" 
d="M767 1535l-12 -163c-40 9.33301 -72 14 -96 14c-87.333 0 -142 -36 -164 -108c-11.333 -38 -17 -98.333 -17 -181v-52h281v-153h-279v-892h-194v892h-252v153h248v48c0 145.333 19 250.333 57 315c56.667 96 151.667 144 285 144c44 0 91.667 -5.66699 143 -17z
M1178 1514v-214h-213v214h213zM1172 1048v-1048h-194v1048h194z" />
    <glyph glyph-name="fl" unicode="fl" horiz-adv-x="1366" vert-adv-y="2457" 
d="M770 1534l-12.001 -162c-40 9.33301 -72 14 -96 14c-87.333 0 -142 -36 -164 -108c-11.333 -38.667 -17 -99 -17 -181v-52h281v-153h-279v-892h-194v892h-252v153h248v48c0 146 19 251 57 315c56.667 96 152.334 144 287.001 144c44.667 0 91.667 -6 141 -18zM1175 1544
v-1544h-194v1544h194z" />
    <glyph glyph-name="ffi" unicode="ffi" horiz-adv-x="2036" vert-adv-y="2457" 
d="M733 1534l-0.000976562 -162c-41.333 9.33301 -74.333 14 -99 14c-90 0 -146 -36 -168 -108c-12 -38 -18 -98.333 -18 -181v-52h495v48c0 145.333 19 250.333 57 315c56.667 96 151.334 144 284.001 144c44 0 91.667 -5.66699 143 -17l-12 -163
c-40 9.33301 -72 14 -96 14c-87.333 0 -141.666 -36 -162.999 -108c-11.333 -38.667 -17 -99 -17 -181v-52h280v-153h-278v-892h-194v892h-499v-892h-194v892h-247v153h247v48c0 146 18.333 251 55 315c55.333 96 149.666 144 282.999 144c44 0 91 -6 141 -18zM1838 1514
v-214h-213v214h213zM1832 1048v-1048h-194v1048h194z" />
    <glyph glyph-name="ffl" unicode="ffl" horiz-adv-x="2030" vert-adv-y="2457" 
d="M733 1534v-161.999c-41.333 9.33301 -74.333 14 -99 14c-90 0 -146 -36 -168 -108c-12 -38 -18 -98.333 -18 -181v-52h495v48c0 125.333 12 216.666 36 273.999c30 70.667 78.333 121.667 145 153c82.667 38 183.667 42.667 303 14l-12 -162
c-36.667 8.66699 -68.667 13 -96 13c-87.333 0 -141.666 -35.667 -162.999 -107c-11.333 -38 -17 -98.333 -17 -181v-52h280v-153h-278v-892h-194v892h-499v-892h-194v892h-247v153h247v48c0 146 18.333 251 55 315c55.333 96 149.666 144 282.999 144c44 0 91 -6 141 -18z
M1832 1544v-1544h-194v1544h194z" />
    <glyph glyph-name=".notdef" vert-adv-y="2457" 
d="M57 0v1430h455v-1430h-455zM455 57v1316h-341v-1316h341z" />
    <glyph glyph-name="space" unicode=" " vert-adv-y="2457" 
 />
    <glyph glyph-name="exclam" unicode="!" horiz-adv-x="797" vert-adv-y="2457" 
d="M518 1430l-26 -1034h-176l-34 1034h236zM518 220v-220h-223v220h223z" />
    <glyph glyph-name="quotedbl" unicode="&#x22;" horiz-adv-x="1139" vert-adv-y="2457" 
d="M491 971h-147l-33 573h213zM794 971h-147l-33 573h213z" />
    <glyph glyph-name="numbersign" unicode="#" horiz-adv-x="1139" vert-adv-y="2457" 
d="M667 433h-277l-69 -433h-160l69 433h-192l22 137h184l50 316h-184l22 137h191l64 407h161l-64 -401h277l64 401h160l-65 -407h188l-22 -137h-187l-50 -316h191l-21 -137h-192l-69 -433h-160zM689 570l50 316h-278l-50 -316h278z" />
    <glyph glyph-name="dollar" unicode="$" horiz-adv-x="1159" vert-adv-y="2457" 
d="M963 1384l-20.002 -194c-100 48 -209.333 76.333 -328 85v-437l63 -22c22.667 -7.33301 59.334 -23 110.001 -47c97.333 -45.333 165 -97.666 203 -156.999c37.333 -58 56 -123.667 56 -197c0 -118 -42 -216.333 -126 -295c-77.333 -72.667 -182.666 -116 -315.999 -130
v-180h-110v177c-70 2.66699 -132.667 9 -188 19c-32.667 6.66699 -93.667 22.334 -183 47.001l15 206c118 -56.667 236.667 -86.667 356 -90v500c-87.333 24 -167.333 61.333 -240 112c-58 39.333 -98.333 82.666 -121 129.999c-20.667 42.667 -31 91.667 -31 147
c0 137.333 57 241.666 171 312.999c62.667 39.333 139.667 63 231 71v179h110v-178c122 -2 238 -21.667 348 -59zM504.998 1266c-52 -9.33301 -93.333 -26.668 -124 -52.001c-46 -36 -69 -81 -69 -135c0 -60.667 29.333 -110.667 88 -150
c22.667 -15.333 57.667 -32.666 105 -51.999v389zM604.998 629.998v-457c58.667 8 106 26 142 54c60.667 46 91 102.667 91 170c0 102 -77.667 179.667 -233 233z" />
    <glyph glyph-name="percent" unicode="%" horiz-adv-x="2048" vert-adv-y="2457" 
d="M1508 718c127.333 0 219.333 -42.998 276 -128.998c40.667 -60.667 61 -141.334 61 -242.001c0 -96.667 -23 -177.334 -69 -242.001c-60 -85.333 -149.667 -128 -269 -128c-112 0 -198.667 38 -260 114c-52.667 64.667 -79 151 -79 259c0 102 24 184.333 72 247
c60.667 80.667 150 121 268 121zM1511 598.002c-67.333 0 -116.333 -28.667 -147 -86c-24 -44 -36 -100 -36 -168c0 -63.333 12 -117.333 36 -162c29.333 -55.333 77 -83 143 -83c67.333 0 115.333 28 144 84c22.667 44 34 98 34 162c0 67.333 -10.667 122 -32 164
c-30.667 59.333 -78 89 -142 89zM544 1453c128 0 219.666 -42.667 274.999 -128c41.333 -64 62 -145 62 -243c0 -93.333 -23.333 -174 -70 -242c-58.667 -85.333 -148 -128 -268 -128c-112 0 -199 38 -261 114c-52.667 64 -79 150.333 -79 259c0 101.333 24 184 72 248
c60.667 80 150.334 120 269.001 120zM544.999 1333c-67.333 0 -116.334 -28.333 -147.001 -85c-23.333 -44.667 -35 -101 -35 -169c0 -63.333 11.667 -117 35 -161c30 -56 78 -84 144 -84c66.667 0 114.334 28.333 143.001 85c22.667 44.667 34 98.667 34 162
c0 66 -10.667 120.333 -32 163c-30 59.333 -77.333 89 -142 89zM1545 1518l-909 -1607h-135l908 1607h136z" />
    <glyph glyph-name="ampersand" unicode="&#x26;" horiz-adv-x="1479" vert-adv-y="2457" 
d="M1324 776c-12 -210 -64.999 -373.331 -158.999 -489.998l242 -286h-252l-112 135c-37.333 -36 -71.333 -64 -102 -84c-83.333 -53.333 -180 -80 -290 -80c-139.333 0 -254 38.333 -344 115c-96 82 -144 186 -144 312s53 229.667 159 311c36 27.333 92.333 57 169 89
c-29.333 25.333 -55.333 55.333 -78 90c-55.333 83.333 -83 161.666 -83 234.999c0 93.333 34.667 170.333 104 231c67.333 59.333 156.333 89 267 89c114.667 0 206 -31.667 274 -95c58 -54.667 87 -124.667 87 -210c0 -100 -46.333 -189 -139 -267
c-50.667 -42 -105 -77.667 -163 -107l283 -341c27.333 49.333 48.666 103.666 63.999 162.999c12 44.667 20.333 108 25 190h192zM655.001 879.002c20.667 12 40.667 24.334 60 37.001c51.333 35.333 88.666 68 111.999 98c28.667 36 43 74.667 43 116
c0 50 -20 88.667 -60 116c-32 21.333 -68.667 32 -110 32c-52 0 -94 -16.333 -126 -49c-30 -30.667 -45 -67 -45 -109c0 -47.333 21.333 -101 64 -161c38.667 -54.667 59.334 -81.334 62.001 -80.001zM595.001 676.003c-52.667 -30 -91.667 -55.3311 -117 -75.998
c-65.333 -52.667 -98 -119.334 -98 -200.001c0 -64.667 22.333 -121.334 67 -170.001c54 -59.333 123 -89 207 -89c94.667 0 186 44.333 274 133z" />
    <glyph glyph-name="quotesingle" unicode="'" vert-adv-y="2457" 
d="M358 971h-147l-33 573h213z" />
    <glyph glyph-name="parenleft" unicode="(" horiz-adv-x="682" vert-adv-y="2457" 
d="M632 1544c-202 -368 -303 -695.998 -303 -983.998c0 -290 103.667 -622.333 311 -997h-184c-226 349.333 -339 681 -339 995c0 205.333 47.667 417.666 143 636.999c39.333 89.333 102.333 205.666 189 348.999h183z" />
    <glyph glyph-name="parenright" unicode=")" horiz-adv-x="682" vert-adv-y="2457" 
d="M63 -437c202 368 303.001 696 303.001 984c0 290 -103.667 622.333 -311 997h184c226 -349.333 339 -681.333 339 -996c0 -204.667 -47.667 -416.667 -143 -636c-38.667 -88.667 -101.334 -205 -188.001 -349h-184z" />
    <glyph glyph-name="asterisk" unicode="*" horiz-adv-x="1139" vert-adv-y="2457" 
d="M644 1544l-11 -306l290 107l48 -144l-295 -85l193 -242l-126 -90l-172 255l-169 -255l-122 88l185 244l-296 85l46 143l288 -106l-11 306h152z" />
    <glyph glyph-name="plus" unicode="+" horiz-adv-x="1229" vert-adv-y="2457" 
d="M536 651h-415v157h415v400h157v-400h414v-157h-414v-401h-157v401z" />
    <glyph glyph-name="comma" unicode="," vert-adv-y="2457" 
d="M400 230l-178 -506h-180l128 506h230z" />
    <glyph glyph-name="hyphen" unicode="-" horiz-adv-x="682" vert-adv-y="2457" 
d="M610 609v-160h-538v160h538z" />
    <glyph glyph-name="period" unicode="." vert-adv-y="2457" 
d="M400 230v-230h-230v230h230z" />
    <glyph glyph-name="slash" unicode="/" vert-adv-y="2457" 
d="M671 1544l-719 -1981h-171l724 1981h166z" />
    <glyph glyph-name="zero" unicode="0" horiz-adv-x="1159" vert-adv-y="2457" 
d="M586 1455c119.333 0 222 -43.335 308 -130.002c114 -115.333 171 -322.666 171 -621.999c0 -195.333 -27.667 -353.333 -83 -474c-36 -78.667 -91 -141.667 -165 -189c-70 -44.667 -149.667 -67 -239 -67c-126.667 0 -231.667 44.667 -315 134
c-113.333 120.667 -170 325.667 -170 615c0 192.667 25.333 346.334 76 461.001c36.667 84 89.667 150 159 198c72 49.333 158 74 258 74zM586 1288c-122 0 -204 -78.3311 -246 -234.998c-25.333 -96 -38 -208 -38 -336c0 -200.667 28.667 -352.334 86 -455.001
c45.333 -81.333 109.666 -122 192.999 -122c183.333 0 275 191.333 275 574c0 207.333 -29.667 359.666 -89 456.999c-47.333 78 -107.666 117 -180.999 117z" />
    <glyph glyph-name="one" unicode="1" horiz-adv-x="1159" vert-adv-y="2457" 
d="M766 1430v-1430h-203v870v74v88v86l1 67v23c-10 -13.333 -37 -40 -81 -80l-144 -124l-113 134l351 292h189z" />
    <glyph glyph-name="two" unicode="2" horiz-adv-x="1159" vert-adv-y="2457" 
d="M148 1363c66 26.667 116.666 45 151.999 55c72 19.333 148 29 228 29c148 0 266.333 -41.333 355 -124c76 -70 114 -159.333 114 -268c0 -110.667 -40.333 -221.667 -121 -333c-97.333 -134 -231 -277.667 -401 -431c-55.333 -50 -109 -93.667 -161 -131
c32 6 82.667 9 152 9h561v-169h-912v217c163.333 139.333 302.333 271 417 395c90.667 98.667 154.334 182 191.001 250c36 67.333 54 130.333 54 189c0 72 -30.333 129.667 -91 173c-52 37.333 -115.333 56 -190 56c-103.333 0 -212 -34.333 -326 -103z" />
    <glyph glyph-name="three" unicode="3" horiz-adv-x="1159" vert-adv-y="2457" 
d="M161 1387c116 41.333 233.001 62 351.001 62c144.667 0 256.667 -28 336 -84c99.333 -70.667 149 -168.334 149 -293.001c0 -107.333 -47 -193.666 -141 -258.999c-56.667 -39.333 -124.334 -62.333 -203.001 -69c78 -4 147.333 -26.333 208 -67
c101.333 -68 152 -166.667 152 -296c0 -82 -23.333 -155 -70 -219c-50 -68.667 -126.333 -118.667 -229 -150c-68.667 -21.333 -144 -32 -226 -32c-127.333 0 -250.666 19.667 -369.999 59l8 189c129.333 -54 246 -81 350 -81c84.667 0 156.667 20.667 216 62
c67.333 47.333 101 110.333 101 189c0 86.667 -38.333 153.667 -115 201c-76.667 46 -200 65.333 -370 58v173c24.667 -0.666992 42 -1 52 -1c97.333 0 180.666 11.333 249.999 34c118.667 38.667 178 107.334 178 206.001c0 65.333 -28.667 117.666 -86 156.999
c-54.667 37.333 -122 56 -202 56c-102 0 -210.333 -23.667 -325 -71z" />
    <glyph glyph-name="four" unicode="4" horiz-adv-x="1159" vert-adv-y="2457" 
d="M920 1430v-948h190v-169h-190v-313h-203v313h-669v169l579 948h293zM717 482l0.000976562 567c0 66 7 160 21 282l3 30c-24.667 -74.667 -57.334 -147 -98.001 -217l-257 -441c-79.333 -133.333 -124 -207 -134 -221h13h34h418z" />
    <glyph glyph-name="five" unicode="5" horiz-adv-x="1159" vert-adv-y="2457" 
d="M993 1422l-0.000976562 -169.001h-602l-5 -266c-1.33301 -41.333 -3.33301 -78 -6 -110c47.333 14.667 100.666 22 159.999 22c155.333 0 279 -44.667 371 -134c84 -82 126 -186 126 -312c0 -101.333 -28.667 -191 -86 -269c-97.333 -132 -254.666 -198 -471.999 -198
c-96.667 0 -196 16 -298 48l5 190c106.667 -47.333 204 -71 292 -71c104.667 0 188.334 28.333 251.001 85c58.667 52.667 88 120.334 88 203.001c0 93.333 -35.667 166.333 -107 219c-65.333 48 -148.333 72 -249 72c-84 0 -173.667 -16.333 -269 -49l9 739h792z" />
    <glyph glyph-name="six" unicode="6" horiz-adv-x="1159" vert-adv-y="2457" 
d="M989 1406l-25 -180.999c-88.667 40.667 -176 61 -262 61c-88.667 0 -167 -30 -235 -90c-52.667 -46.667 -90.667 -107 -114 -181c-27.333 -84 -41 -160.667 -41 -230c0 -7.33301 0.333008 -18.666 1 -33.999c16.667 29.333 37.667 53.666 63 72.999
c74 57.333 160.667 86 260 86c122.667 0 224.667 -43 306 -129c80.667 -85.333 121 -195 121 -329c0 -140.667 -45 -257 -135 -349c-84.667 -86 -193.667 -129 -327 -129c-106.667 0 -197.667 28.333 -273 85c-142 107.333 -213 310.666 -213 609.999
c0 219.333 35.667 392.333 107 519c98.667 176.667 256 265 472 265c98 0 196.333 -15.667 295 -47zM597 743.001c-81.333 0 -147.334 -30.334 -198.001 -91.001c-42.667 -52 -64 -117.333 -64 -196c0 -80.667 22 -151.667 66 -213c24 -33.333 55.667 -59.666 95 -78.999
c32.667 -15.333 66.667 -23 102 -23c76.667 0 140 30.667 190 92c44 54.667 66 124 66 208s-22.333 153.333 -67 208c-51.333 62.667 -114.666 94 -189.999 94z" />
    <glyph glyph-name="seven" unicode="7" horiz-adv-x="1159" vert-adv-y="2457" 
d="M1023 1420l-0.000976562 -169l-537 -1251h-226l427 973c48.667 111.333 93.334 205 134.001 281c-12 -0.666992 -33.333 -1 -64 -1l-56 -2h-591v169h913z" />
    <glyph glyph-name="eight" unicode="8" horiz-adv-x="1159" vert-adv-y="2457" 
d="M761 767c68 -22 124.999 -51.3311 170.999 -87.998c94 -76 141 -175.333 141 -298s-46.333 -222.334 -139 -299.001c-87.333 -72 -202.666 -108 -345.999 -108c-130 0 -240.667 30 -332 90c-114 74 -171 178.333 -171 313c0 119.333 49 217.666 147 294.999
c42 33.333 97.667 62.333 167 87c-58 12 -109.667 36.333 -155 73c-85.333 70 -128 158 -128 264c0 120.667 51.333 213.334 154 278.001c83.333 52.667 186 79 308 79c134.667 0 244.334 -34.333 329.001 -103c79.333 -64.667 119 -147 119 -247
c0 -92.667 -38.667 -173.334 -116 -242.001c-42.667 -38 -92.334 -69.333 -149.001 -94zM620.999 830.002c130.667 85.333 196 175.997 196 271.997c0 54.667 -22 99.334 -66 134.001c-50.667 40.667 -110.667 61 -180 61c-68 0 -127 -19.667 -177 -59
c-46 -36 -69 -81 -69 -135c0 -70 47.667 -135.333 143 -196c31.333 -19.333 65.666 -37.666 102.999 -54.999c32.667 -15.333 49.334 -22.666 50.001 -21.999zM544.999 674.999c-6 -2.66699 -12.334 -5.66797 -19.001 -9.00098c-147.333 -74 -221 -165.667 -221 -275
c0 -77.333 31.667 -140.666 95 -189.999c51.333 -40 116 -60 194 -60c74.667 0 136 18.667 184 56c58 46 87 103.333 87 172c0 90 -50.667 166.333 -152 229c-28 17.333 -61.667 34.333 -101 51c-43.333 18 -65.666 26.667 -66.999 26z" />
    <glyph glyph-name="nine" unicode="9" horiz-adv-x="1159" vert-adv-y="2457" 
d="M196 206c86.667 -42 173.001 -63 259.001 -63c152 0 262.667 76 332 228c32.667 72 53.667 173.333 63 304c-78.667 -102.667 -186.334 -154 -323.001 -154c-141.333 0 -253 52.333 -335 157c-63.333 81.333 -95 183 -95 305c0 140.667 44.667 255.667 134 345
c86 86 193.667 129 323 129c171.333 0 297 -65.333 377 -196c74 -121.333 111 -283.333 111 -486c0 -218.667 -32 -389.667 -96 -513c-99.333 -190.667 -263.333 -286 -492 -286c-86 0 -181 15.667 -285 47zM567.001 1290c-91.333 0 -162 -39.333 -212 -118
c-33.333 -52 -50 -111.667 -50 -179c0 -91.333 26 -166 78 -224c49.333 -54 110 -81 182 -81c87.333 0 156 36.333 206 109c34 50 51 109.667 51 179c0 92 -27.667 170 -83 234c-46.667 53.333 -104 80 -172 80z" />
    <glyph glyph-name="colon" unicode=":" vert-adv-y="2457" 
d="M400 1048v-229h-230v229h230zM400 230v-230h-230v230h230z" />
    <glyph glyph-name="semicolon" unicode=";" vert-adv-y="2457" 
d="M398 1048v-229h-229v229h229zM400 230l-178 -506h-181l128 506h231z" />
    <glyph glyph-name="less" unicode="&#x3c;" horiz-adv-x="1229" vert-adv-y="2457" 
d="M1079 1254v-192l-723 -338l723 -338v-191l-929 447v165z" />
    <glyph glyph-name="equal" unicode="=" horiz-adv-x="1229" vert-adv-y="2457" 
d="M121 501v157h986v-157h-986zM121 801v157h986v-157h-986z" />
    <glyph glyph-name="greater" unicode="&#x3e;" horiz-adv-x="1229" vert-adv-y="2457" 
d="M150 194v192l724 338l-724 338v191l929 -447v-165z" />
    <glyph glyph-name="question" unicode="?" horiz-adv-x="1024" vert-adv-y="2457" 
d="M152 1390c122 42 239 63 351 63c122.667 0 224.667 -32.333 306 -97c86.667 -69.333 130 -159.666 130 -270.999c0 -68.667 -18.667 -136.334 -56 -203.001c-25.333 -44 -73.333 -107 -144 -189c-59.333 -68 -95.666 -120.333 -108.999 -157
c-10.667 -30.667 -16.334 -76.334 -17.001 -137.001h-185c0 66.667 4.66699 120.334 14 161.001c10 47.333 34.333 96.333 73 147c10 13.333 44.667 54 104 122c71.333 82 107 159.333 107 232c0 64 -23 115.333 -69 154c-44 37.333 -104 56 -180 56
c-101.333 0 -204.333 -26 -309 -78zM632 223v-223h-219v223h219z" />
    <glyph glyph-name="at" unicode="@" horiz-adv-x="1638" vert-adv-y="2457" 
d="M1080 1058l136.997 -0.00195312l-85 -439c-9.33301 -47.333 -14 -81 -14 -101c0 -30.667 9.33301 -54.667 28 -72c11.333 -10 25 -15 41 -15c45.333 0 87.333 26 126 78c65.333 86 98 189.667 98 311c0 155.333 -54.333 281 -163 377
c-102.667 90.667 -232.334 136 -389.001 136c-172 0 -317.333 -58.667 -436 -176c-122.667 -121.333 -184 -271 -184 -449c0 -115.333 27.333 -221.666 82 -318.999c110 -194.667 290.667 -292 542 -292c160.667 0 307.334 30 440.001 90l35 -124
c-141.333 -60.667 -297.666 -91 -468.999 -91c-225.333 0 -407.333 68 -546 204c-69.333 68 -123.333 149 -162 243c-38 93.333 -57 190 -57 290c0 143.333 37.333 276 112 398c72 118.667 170.333 209 295 271c106.667 52.667 221.334 79 344.001 79
c185.333 0 341 -54.667 467 -164c70.667 -60.667 124.667 -135 162 -223c33.333 -78.667 50 -161.334 50 -248.001c0 -121.333 -30.333 -230.666 -91 -327.999c-73.333 -118 -161 -177 -263 -177c-52 0 -94.333 19.667 -127 59c-16.667 20 -27 45.333 -31 76
c-21.333 -31.333 -45 -57 -71 -77c-61.333 -46.667 -127 -70 -197 -70c-87.333 0 -160 33.333 -218 100c-55.333 64 -83 145.333 -83 244c0 120.667 39.333 225.334 118 314.001c70.667 80 156.334 120 257.001 120c110 0 186.333 -48.333 229 -145zM843.997 937.998
c-72.667 0 -132.332 -33.667 -178.999 -101c-38 -54 -57 -115.667 -57 -185c0 -57.333 13.667 -104.333 41 -141c34.667 -45.333 80.667 -68 138 -68c74 0 133 37 177 111c33.333 56.667 50 120 50 190c0 56.667 -14 102 -42 136c-30.667 38.667 -73.334 58 -128.001 58z
" />
    <glyph glyph-name="A" unicode="A" horiz-adv-x="1479" vert-adv-y="2457" 
d="M840 1430l621 -1430h-230l-151 362h-695l-148 -362h-220l609 1430h214zM1010 536l-166 399.999c-61.333 148 -100 254.333 -116 319c-18 -65.333 -57.667 -173.666 -119 -324.999l-159 -394h560z" />
    <glyph glyph-name="B" unicode="B" horiz-adv-x="1251" vert-adv-y="2457" 
d="M165 1430l337.998 -0.000976562c98.667 0 168.334 -2.66699 209.001 -8c121.333 -17.333 213.333 -64.666 276 -141.999c48.667 -60 73 -132 73 -216c0 -115.333 -43.333 -204 -130 -266c-42.667 -30.667 -101 -54 -175 -70c88 -12.667 156.667 -35 206 -67
c94 -62 141 -154.333 141 -277c0 -114.667 -43.333 -208.667 -130 -282c-44 -37.333 -92.333 -63 -145 -77c-63.333 -16.667 -148.666 -25 -255.999 -25h-407v1430zM367.998 1256l-0.000976562 -434.001h147c96.667 0 165.334 8 206.001 24c42.667 16 76 41.333 100 76
c23.333 34.667 35 73.334 35 116.001c0 59.333 -20.667 108 -62 146c-42.667 39.333 -105 62 -187 68c-40 2.66699 -84.333 4 -133 4h-106zM367.997 654.998v-481h158c110 0 189.667 11.333 239 34c85.333 40 128 105 128 195c0 64.667 -23 119.667 -69 165
c-47.333 46.667 -116 74 -206 82c-36 3.33301 -83.333 5 -142 5h-108z" />
    <glyph glyph-name="C" unicode="C" horiz-adv-x="1251" vert-adv-y="2457" 
d="M1179 1377l-18.001 -194.002c-98 56 -197 84 -297 84c-110.667 0 -211 -27 -301 -81c-97.333 -58 -166 -140.667 -206 -248c-24 -63.333 -36 -133.333 -36 -210c0 -177.333 61.667 -318.666 185 -423.999c102.667 -87.333 225 -131 367 -131c94 0 196 21 306 63l14 -198
c-97.333 -32 -202.333 -48 -315 -48c-210 0 -379.667 50 -509 150c-99.333 76.667 -170.666 172.334 -213.999 287.001c-35.333 93.333 -53 192 -53 296c0 190 57 349 171 477c73.333 82.667 166.333 145 279 187c94 35.333 194.667 53 302 53c124 0 232.333 -21 325 -63z
" />
    <glyph glyph-name="D" unicode="D" horiz-adv-x="1479" vert-adv-y="2457" 
d="M169 1430l295.002 -0.00195312c169.333 0 296.333 -11.333 381 -34c104.667 -28 197.667 -78.333 279 -151c157.333 -139.333 236 -317.666 236 -534.999c0 -219.333 -80 -396.666 -240 -531.999c-102.667 -86.667 -228.334 -141 -377.001 -163
c-66.667 -10 -149.334 -15 -248.001 -15h-326v1430zM372.002 1256l-0.000976562 -1082h106c96 0 171.667 4.33301 227 13c123.333 18.667 223.333 70 300 154c90.667 98.667 136 223.667 136 375c0 144 -46.667 267 -140 369c-85.333 94 -193.666 148 -324.999 162
c-56 6 -121 9 -195 9h-109z" />
    <glyph glyph-name="E" unicode="E" horiz-adv-x="1139" vert-adv-y="2457" 
d="M990 1430v-174h-592v-423h550v-174h-550v-485h610v-174h-813v1430h795z" />
    <glyph glyph-name="F" unicode="F" horiz-adv-x="1024" vert-adv-y="2457" 
d="M929 1430v-174h-556v-428h535v-174h-535v-654h-203v1430h759z" />
    <glyph glyph-name="G" unicode="G" horiz-adv-x="1479" vert-adv-y="2457" 
d="M1277 1371l-12.998 -196.998c-111.333 62 -233 93 -365 93c-180.667 0 -325.334 -57 -434.001 -171c-93.333 -97.333 -140 -221.333 -140 -372c0 -162 47.667 -292.667 143 -392c52.667 -54.667 120.667 -97.334 204 -128.001c76 -27.333 154.667 -41 236 -41
c59.333 0 123.666 10.333 192.999 31v414h-306v174h509v-726c-133.333 -44 -270 -66 -410 -66c-239.333 0 -428.333 63 -567 189c-147.333 134 -221 316.667 -221 548c0 221.333 73 395.666 219 522.999c146 126.667 333 190 561 190c142 0 272.333 -23 391 -69z" />
    <glyph glyph-name="H" unicode="H" horiz-adv-x="1479" vert-adv-y="2457" 
d="M1289 1430v-1430h-203v657h-693v-657h-203v1430h203v-599h693v599h203z" />
    <glyph glyph-name="I" unicode="I" vert-adv-y="2457" 
d="M386 1430v-1430h-203v1430h203z" />
    <glyph glyph-name="J" unicode="J" horiz-adv-x="797" vert-adv-y="2457" 
d="M610 1430v-972.001c0 -104 -3.33301 -173.667 -10 -209c-14 -76 -50.667 -138.333 -110 -187c-66 -54.667 -154.667 -82 -266 -82c-43.333 0 -103.333 8.66699 -180 26v178c50 -20.667 100 -31 150 -31c97.333 0 161.333 42 192 126c14 36.667 21 113.334 21 230.001v921
h203z" />
    <glyph glyph-name="K" unicode="K" horiz-adv-x="1366" vert-adv-y="2457" 
d="M395 1430v-477.999c0 -77.333 -1.66699 -134.333 -5 -171c48 54 88 97.333 120 130l499 519h275l-676 -678l733 -752h-297l-520 556c-28 29.333 -71.667 79.666 -131 150.999c1.33301 -52.667 2 -100.667 2 -144v-563h-203v1430h203z" />
    <glyph glyph-name="L" unicode="L" horiz-adv-x="1024" vert-adv-y="2457" 
d="M385 1430v-1256h605v-174h-808v1430h203z" />
    <glyph glyph-name="M" unicode="M" horiz-adv-x="1933" vert-adv-y="2457" 
d="M1752 1430l0.000976562 -1430h-203v816c0 49.333 1 134 3 254l1 132l3 103v30c-7.33301 -20 -23.333 -69.333 -48 -148c-10 -32.667 -41.333 -121 -94 -265l-84 -228l-268 -694h-198l-270 694l-46 118l-57 153c-55.333 150.667 -86.333 237 -93 259
c-16.667 53.333 -28.667 90.333 -36 111c-0.666992 -11.333 -1 -21.333 -1 -30c0 -4 2.66699 -33.333 8 -88c2 -22 3.66699 -58 5 -108c1.33301 -51.333 3 -106.333 5 -165c2.66699 -67.333 4 -114.666 4 -141.999v-802h-203v1430h335l283 -718l46 -118
c63.333 -162.667 104.666 -283 123.999 -361c22 85.333 78.667 246.333 170 483l273 714h341z" />
    <glyph glyph-name="N" unicode="N" horiz-adv-x="1479" vert-adv-y="2457" 
d="M1312 1430v-1430h-264l-452 776c-77.333 132.667 -133 233.667 -167 303c-32 65.333 -57 128.333 -75 189c11.333 -144.667 17 -324.667 17 -540v-728h-203v1430h278l489 -842c92 -158.667 157.333 -295.667 196 -411c-9.33301 86 -15.333 196.667 -18 332
c-2.66699 125.333 -4 202.666 -4 231.999v689h203z" />
    <glyph glyph-name="O" unicode="O" horiz-adv-x="1593" vert-adv-y="2457" 
d="M806 1457c212.667 0 379 -67.998 499 -203.998c122 -136.667 183 -316.334 183 -539.001c0 -214.667 -57 -390.334 -171 -527.001c-119.333 -142.667 -291.333 -214 -516 -214c-215.333 0 -383.333 66.667 -504 200c-65.333 71.333 -115 161.333 -149 270
c-28 88.667 -42 178.667 -42 270c0 141.333 29.333 272.333 88 393c114 234 318 351 612 351zM805 1295c-161.333 0 -284.332 -60.668 -368.999 -182.001c-74 -106 -111 -238.333 -111 -397c0 -154 36.667 -285 110 -393c45.333 -66.667 106.333 -117 183 -151
c56 -24.667 116 -37 180 -37c105.333 0 197.666 32 276.999 96c74.667 61.333 128.667 145.333 162 252c21.333 68 32 143.333 32 226c0 156.667 -35.667 288.334 -107 395.001c-84.667 127.333 -203.667 191 -357 191z" />
    <glyph glyph-name="P" unicode="P" horiz-adv-x="1139" vert-adv-y="2457" 
d="M173 1430l283.001 -0.000976562c90 0 161.667 -2.33301 215 -7c98.667 -9.33301 180.667 -37.666 246 -84.999c107.333 -78.667 161 -190 161 -334c0 -106 -31 -197 -93 -273c-68.667 -84 -171.334 -134 -308.001 -150c-50 -6 -112 -9 -186 -9h-115v-572h-203v1430z
M376.001 1256v-510.001h111c119.333 0 203.666 14 252.999 42c79.333 44.667 119 116.334 119 215.001c0 70.667 -24 128 -72 172c-47.333 44 -114.666 69.333 -201.999 76c-46 3.33301 -87 5 -123 5h-86z" />
    <glyph glyph-name="Q" unicode="Q" horiz-adv-x="1593" vert-adv-y="2457" 
d="M1110 32l343 -308h-267l-274 254c-42.667 -3.33301 -79 -5 -109 -5c-222 0 -394.667 71 -518 213c-119.333 137.333 -179 313.666 -179 528.999c0 132.667 25 254.667 75 366c67.333 151.333 172 257.333 314 318c89.333 38.667 190.333 58 303 58
c231.333 0 407.333 -76.333 528 -229c108 -136 162 -309 162 -519c0 -197.333 -51.333 -363.666 -154 -498.999c-56 -74 -130.667 -133.333 -224 -178zM804 1295c-149.333 0 -266.332 -53.668 -350.999 -161.001c-85.333 -107.333 -128 -244.666 -128 -411.999
c0 -154 36 -285.333 108 -394c48 -72 112.333 -125.333 193 -160c53.333 -22.667 110.333 -34 171 -34c110 0 206 34.667 288 104c70.667 60 122 143.667 154 251c20 68 30 141.667 30 221c0 154.667 -34.667 285 -104 391c-45.333 69.333 -103 120.333 -173 153
c-58.667 27.333 -121.334 41 -188.001 41z" />
    <glyph glyph-name="R" unicode="R" horiz-adv-x="1251" vert-adv-y="2457" 
d="M172 1430l344.002 0.00195312c141.333 0 249 -12.333 323 -37c78 -26 138.333 -73.333 181 -142c36.667 -59.333 55 -125 55 -197c0 -110 -39.333 -197.333 -118 -262c-44 -36 -105.667 -61 -185 -75c44 -20.667 76.667 -42.334 98 -65.001
c26 -28.667 52.667 -72.334 80 -131.001l241 -521h-234l-185 428c-32.667 75.333 -63.334 128 -92.001 158c-24 24.667 -56.667 40 -98 46c-22.667 3.33301 -52.334 5 -89.001 5h-118v-637h-203v1430zM375.002 1256l-0.000976562 -442.999h127c102 0 176.333 8.33301 223 25
c47.333 17.333 83 44.333 107 81c22 34.667 33 73.667 33 117c0 55.333 -17 102.333 -51 141c-35.333 39.333 -90.666 63.666 -165.999 72.999c-35.333 4 -77 6 -125 6h-148z" />
    <glyph glyph-name="S" unicode="S" horiz-adv-x="1024" vert-adv-y="2457" 
d="M857 1406l-25.001 -180c-103.333 38.667 -192.333 58 -267 58c-78.667 0 -142.334 -19 -191.001 -57c-44.667 -34.667 -67 -81.334 -67 -140.001c0 -66.667 33 -123 99 -169c32.667 -23.333 76.667 -48.666 132 -75.999l77 -39c98 -48 167.333 -91.333 208 -130
c74 -69.333 111 -159.333 111 -270c0 -150 -60 -265.333 -180 -346c-82.667 -56 -185 -84 -307 -84c-119.333 0 -229 18.667 -329 56l21 193c106 -50.667 200 -76 282 -76c78 0 144.333 18.333 199 55c63.333 42.667 95 105 95 187c0 70.667 -30 129.334 -90 176.001
c-34 26.667 -77.667 52 -131 76l-80 35c-95.333 42.667 -166.666 87 -213.999 133c-70 67.333 -105 153.666 -105 258.999c0 122.667 43.333 218.667 130 288c86.667 68 196.334 102 329.001 102c103.333 0 204.333 -17 303 -51z" />
    <glyph glyph-name="T" unicode="T" horiz-adv-x="1139" vert-adv-y="2457" 
d="M1124 1430v-174h-448v-1256h-203v1256h-457v174h1108z" />
    <glyph glyph-name="U" unicode="U" horiz-adv-x="1479" vert-adv-y="2457" 
d="M1292 1430v-805.999c0 -91.333 -4 -163.666 -12 -216.999c-23.333 -148 -89 -260.333 -197 -337c-90 -64.667 -203.667 -97 -341 -97c-138.667 0 -253.667 33 -345 99c-84.667 61.333 -142.667 141.666 -174 240.999c-24.667 77.333 -37 190.333 -37 339v778h203v-749
c0 -92.667 3 -162.334 9 -209.001c14.667 -116 56 -200.667 124 -254c62 -48 137 -72 225 -72c156 0 259.667 72 311 216c15.333 44.667 25 100 29 166c1.33301 24 2 72 2 144v758h203z" />
    <glyph glyph-name="V" unicode="V" horiz-adv-x="1366" vert-adv-y="2457" 
d="M1352 1430l-542.001 -1430h-248l-547 1430h224l351 -942c42.667 -114.667 76 -221.334 100 -320.001c22.667 98.667 55.334 205.334 98.001 320.001l349 942h215z" />
    <glyph glyph-name="W" unicode="W" horiz-adv-x="2048" vert-adv-y="2457" 
d="M2037 1430l-428.998 -1430h-259l-250 939c-28.667 110 -54.334 219 -77.001 327c-27.333 -136 -51.333 -245 -72 -327l-236 -939h-264l-439 1430h222l248 -836c45.333 -153.333 79 -284.666 101 -393.999c15.333 96 45 229.333 89 400l206 830h293l220 -836l17 -64
l81 -330c21.333 122.667 52.666 254 93.999 394l246 836h209z" />
    <glyph glyph-name="X" unicode="X" horiz-adv-x="1366" vert-adv-y="2457" 
d="M1296 1430l-481 -679l535 -751h-258l-426 612l-406 -612h-245l527 751l-487 679h248l380 -540l376 540h237z" />
    <glyph glyph-name="Y" unicode="Y" horiz-adv-x="1366" vert-adv-y="2457" 
d="M1347 1430l-558 -823.001v-607h-203v601l-567 829h253l354 -536c30.667 -45.333 51.667 -80.666 63 -105.999c12.667 28 32 61.333 58 100l356 542h244z" />
    <glyph glyph-name="Z" unicode="Z" horiz-adv-x="1139" vert-adv-y="2457" 
d="M1044 1430v-188.001l-613 -881c-44.667 -64 -73 -104 -85 -120c-21.333 -27.333 -38.333 -51.666 -51 -72.999c43.333 4 95.666 6 156.999 6h607v-174h-998v174l580 841c84 122 144.667 204 182 246c-13.333 -0.666992 -23.333 -1 -30 -1
c-47.333 -2.66699 -103.666 -4 -168.999 -4h-537v174h957z" />
    <glyph glyph-name="bracketleft" unicode="[" horiz-adv-x="682" vert-adv-y="2457" 
d="M582 1544v-139h-215v-1705h215v-137h-399v1981h399z" />
    <glyph glyph-name="backslash" unicode="\" vert-adv-y="2457" 
d="M-92 1544h166l724 -1981h-171z" />
    <glyph glyph-name="bracketright" unicode="]" horiz-adv-x="682" vert-adv-y="2457" 
d="M100 -437v139h215v1705h-215v137h399v-1981h-399z" />
    <glyph glyph-name="asciicircum" unicode="^" horiz-adv-x="1229" vert-adv-y="2457" 
d="M324 763h-205l369 672h253l369 -672h-207l-290 519z" />
    <glyph glyph-name="underscore" unicode="_" horiz-adv-x="1024" vert-adv-y="2457" 
d="M-24 -127h1072v-176h-1072v176z" />
    <glyph glyph-name="grave" unicode="`" vert-adv-y="2457" 
d="M14 1518h215l175 -293h-137z" />
    <glyph glyph-name="a" unicode="a" horiz-adv-x="1139" vert-adv-y="2457" 
d="M210 971c110 64 226.998 96 350.998 96c124.667 0 223 -30 295 -90c48.667 -40 81.334 -89.667 98.001 -149c16.667 -58 25 -148 25 -270l-1 -201c0 -140 3.66699 -259 11 -357h-178c-0.666992 22 -1 49.333 -1 82c0 40 0.333008 73 1 99c-78 -130 -195 -195 -351 -195
c-106 0 -191.667 25.667 -257 77c-72 58 -108 137.333 -108 238c0 130.667 67 226 201 286c86.667 38.667 203 58 349 58c38.667 0 87.334 -1.66699 146.001 -5c-1.33301 71.333 -15.333 127.333 -42 168c-41.333 62 -115.333 93 -222 93c-104.667 0 -207 -33.667 -307 -101
zM793.998 495c-5.33301 1.33301 -10.666 2 -15.999 2c-26.667 3.33301 -56.334 5 -89.001 5c-258.667 0 -388 -66 -388 -198c0 -58 25.333 -102 76 -132c35.333 -21.333 77.333 -32 126 -32c74.667 0 138.334 21.667 191.001 65c53.333 44 84.666 102.333 93.999 175
c3.33301 25.333 5.33301 53 6 83v32z" />
    <glyph glyph-name="b" unicode="b" horiz-adv-x="1251" vert-adv-y="2457" 
d="M353 1544l0.000976562 -554.999c0 -18.667 -1.66699 -59.334 -5 -122.001c20 50.667 57.333 93.667 112 129c71.333 47.333 154 71 248 71c98 0 184.667 -27.333 260 -82c127.333 -92 191 -242.333 191 -451c0 -136 -28.667 -251.667 -86 -347
c-39.333 -65.333 -91.333 -115.333 -156 -150c-62.667 -34 -133.334 -51 -212.001 -51c-102.667 0 -190.334 27 -263.001 81c-41.333 31.333 -73.666 69 -96.999 113v-180h-186v1544h194zM671.001 901.001c-96.667 0 -175.333 -40 -236 -120c-52 -68 -78 -154.333 -78 -259
c0 -96.667 25.667 -180.334 77 -251.001c57.333 -79.333 133 -119 227 -119c100 0 178 47 234 141c38.667 66 58 143.667 58 233c0 100.667 -21 183.334 -63 248.001c-54.667 84.667 -127.667 127 -219 127z" />
    <glyph glyph-name="c" unicode="c" horiz-adv-x="909" vert-adv-y="2457" 
d="M845 1019l-12 -172c-56 32 -119.667 48 -191 48c-108.667 0 -196.667 -37.333 -264 -112c-60 -66 -90 -150 -90 -252c0 -113.333 33 -205 99 -275c64 -68.667 147.333 -103 250 -103c74.667 0 147.667 21.667 219 65l16 -177c-74 -36 -160 -54 -258 -54
c-154.667 0 -280.667 46.667 -378 140c-102.667 98.667 -154 230.667 -154 396c0 148 43 270 129 366c53.333 59.333 120 104.333 200 135c64 24.667 129.333 37 196 37c84 0 163.333 -14 238 -42z" />
    <glyph glyph-name="d" unicode="d" horiz-adv-x="1251" vert-adv-y="2457" 
d="M1082 1544l-0.000976562 -1055c0 -152 5 -315 15 -489h-189v176c-81.333 -126.667 -201.666 -190 -360.999 -190c-157.333 0 -277.333 58.667 -360 176c-66 94 -99 213.333 -99 358c0 148.667 36 272.667 108 372c85.333 116.667 202 175 350 175
c150 0 266 -60.667 348 -182c-0.666992 17.333 -1.66699 40 -3 68c-2 36.667 -3 61.667 -3 75v516h194zM596.999 901c-102 0 -182 -45.665 -240 -136.998c-42 -66 -63 -147.333 -63 -244c0 -90.667 19 -167.334 57 -230.001c56 -92 134.667 -138 236 -138
c98.667 0 176.667 41.667 234 125c47.333 69.333 71 151.666 71 246.999c0 96.667 -23.333 178.667 -70 246c-60 87.333 -135 131 -225 131z" />
    <glyph glyph-name="e" unicode="e" horiz-adv-x="1139" vert-adv-y="2457" 
d="M289 473c8.66699 -74.667 31.334 -139.332 68.001 -193.999c64.667 -94.667 159 -142 283 -142c110 0 218.667 32.667 326 98v-186c-113.333 -52 -225.333 -78 -336 -78c-172.667 0 -308.334 57 -407.001 171c-86 99.333 -129 230 -129 392
c0 155.333 41 281.666 123 378.999c92.667 109.333 216.334 164 371.001 164c147.333 0 260.666 -51 339.999 -153c58 -74.667 94.333 -171 109 -289c4.66699 -42 7 -96 7 -162h-755zM291 626.002h558.001c-9.33301 80 -27 140 -53 180
c-50.667 77.333 -122.334 116 -215.001 116c-106 0 -187 -49.333 -243 -148c-23.333 -40.667 -39 -90 -47 -148z" />
    <glyph glyph-name="f" unicode="f" horiz-adv-x="797" vert-adv-y="2457" 
d="M753 1534l0.000976562 -162c-41.333 9.33301 -74.333 14 -99 14c-90 0 -146 -36 -168 -108c-12 -38 -18 -98.333 -18 -181v-52h285v-153h-285v-892h-194v892h-247v153h247v48c0 146 18.333 251 55 315c55.333 96 149.666 144 282.999 144c44 0 91 -6 141 -18z" />
    <glyph glyph-name="g" unicode="g" horiz-adv-x="1251" vert-adv-y="2457" 
d="M1091 1051v-869.001c0 -170.667 -11.667 -291.667 -35 -363c-32 -99.333 -100.667 -173.333 -206 -222c-70 -32 -160.333 -48 -271 -48c-132.667 0 -265.334 23.667 -398.001 71l20 189c127.333 -62.667 251.333 -94 372 -94c148 0 247 52.333 297 157
c22.667 48 34.334 119.333 35.001 214c0.666992 34 1.66699 63 3 87c-78 -116 -194.667 -174 -350 -174c-146.667 0 -263.334 53.667 -350.001 161c-73.333 91.333 -110 211.333 -110 360c0 138.667 32.333 257.334 97 356.001c46 70 107.667 122 185 156
c54 23.333 112.333 35 175 35c108.667 0 202.334 -34 281.001 -102c30 -26 54 -58.667 72 -98c0.666992 11.333 1 20 1 26l-1 29v33v96h183zM603 900.999c-105.333 0 -186.668 -49 -244.001 -147c-36.667 -62.667 -55 -140 -55 -232c0 -96 22.667 -176.333 68 -241
c54 -77.333 127.333 -116 220 -116c96 0 172.667 38 230 114c52 67.333 78 151.333 78 252c0 89.333 -21.667 166.333 -65 231c-61.333 92.667 -138.666 139 -231.999 139z" />
    <glyph glyph-name="h" unicode="h" horiz-adv-x="1251" vert-adv-y="2457" 
d="M353 1544l-0.00195312 -501c0 -75.333 -2 -130 -6 -164c72.667 125.333 189.334 188 350.001 188c103.333 0 188.333 -27.333 255 -82c70.667 -58 114 -149.667 130 -275c5.33301 -40.667 8 -94 8 -160v-550h-194v454c0 136.667 -6.33301 227.667 -19 273
c-31.333 116 -105 174 -221 174c-84 0 -154.333 -31.333 -211 -94c-43.333 -48 -70.666 -107 -81.999 -177c-6.66699 -42 -10 -113.667 -10 -215v-415h-194v1544h194z" />
    <glyph glyph-name="i" unicode="i" vert-adv-y="2457" 
d="M388 1514v-214h-213v214h213zM382 1048v-1048h-194v1048h194z" />
    <glyph glyph-name="j" unicode="j" vert-adv-y="2457" 
d="M395 1514v-214h-213v214h213zM386 1051v-1029c0 -81.333 -0.666992 -134.666 -2 -159.999c-6 -87.333 -28.667 -156.333 -68 -207c-52.667 -67.333 -130 -101 -232 -101c-28 0 -66 3.33301 -114 10v161c23.333 -2.66699 40.666 -4 51.999 -4c45.333 0 83 12.667 113 38
c34.667 29.333 53.334 76.333 56.001 141c0.666992 17.333 1 58 1 122v1029h194z" />
    <glyph glyph-name="k" unicode="k" horiz-adv-x="1139" vert-adv-y="2457" 
d="M359 1544l0.000976562 -738.999l-3 -62v-49c-1.33301 -40.667 -2.33301 -68.334 -3 -83.001c24 28.667 53.667 61 89 97l341 340h262l-489 -463l555 -585h-275l-355 386c-20 22 -44.667 52.333 -74 91c-19.333 24.667 -37.333 45.667 -54 63
c1.33301 -16 2.66602 -47.667 3.99902 -95l2 -63v-382h-194v1544h194z" />
    <glyph glyph-name="l" unicode="l" vert-adv-y="2457" 
d="M381 1544v-1544h-194v1544h194z" />
    <glyph glyph-name="m" unicode="m" horiz-adv-x="1821" vert-adv-y="2457" 
d="M321 1048l11.001 -169.999c22 47.333 57.667 88.333 107 123c62 44 136.667 66 224 66c158.667 0 261.334 -70.333 308.001 -211c28.667 56.667 63.667 101 105 133c68 52 148.667 78 242 78c91.333 0 167.333 -26.333 228 -79c68 -59.333 107 -151.666 117 -276.999
c3.33301 -42.667 5 -96 5 -160v-551h-194v513c0 122.667 -5.33301 203.667 -16 243c-26.667 96.667 -87.334 145 -182.001 145c-80.667 0 -146.667 -36.667 -198 -110c-36 -51.333 -57.333 -115.333 -64 -192c-2.66699 -28.667 -4 -80.334 -4 -155.001v-444h-194v539
c0 109.333 -5.33301 182.666 -16 219.999c-28 94.667 -86 142 -174 142c-78 0 -143.667 -33.667 -197 -101c-38.667 -48 -63.334 -108.333 -74.001 -181c-4 -27.333 -6 -79.333 -6 -156v-463h-194v591c0 160.667 -4.33301 313 -13 457h179z" />
    <glyph glyph-name="n" unicode="n" horiz-adv-x="1251" vert-adv-y="2457" 
d="M330 1048l9.00195 -165.999c30.667 46 66.667 83 108 111c73.333 49.333 157.666 74 252.999 74c107.333 0 195 -30.333 263 -91c72.667 -64.667 113.667 -168.667 123 -312c3.33301 -43.333 5 -102 5 -176v-488h-194v471c0 128.667 -6 214.667 -18 258
c-14.667 56 -41.334 98.667 -80.001 128c-39.333 29.333 -87 44 -143 44c-82 0 -151 -30.667 -207 -92c-53.333 -58.667 -83.333 -137.334 -90 -236.001c-2 -38 -3 -101 -3 -189v-384h-194v518l-1 97l-1 139l-4 135c-2.66699 79.333 -5 132.333 -7 159h181z" />
    <glyph glyph-name="o" unicode="o" horiz-adv-x="1251" vert-adv-y="2457" 
d="M623 1075c110 0 209.667 -27.668 299 -83.001c88 -54.667 152.667 -132 194 -232c31.333 -74 47 -156 47 -246c0 -93.333 -20.333 -180.666 -61 -261.999c-50 -98.667 -124.333 -172.667 -223 -222c-78 -39.333 -163.333 -59 -256 -59c-138 0 -255.667 43 -353 129
c-120.667 105.333 -181 245.333 -181 420c0 106 23.667 203.333 71 292c47.333 88 117.333 156 210 204c76.667 39.333 161 59 253 59zM626 920.999c-101.333 0 -184.001 -41.999 -248.001 -125.999c-55.333 -73.333 -83 -164.333 -83 -273
c0 -93.333 20.667 -174.333 62 -243c28 -46.667 64.333 -83.334 109 -110.001c48.667 -29.333 102.334 -44 161.001 -44c106.667 0 191 44.333 253 133c51.333 74 77 159.333 77 256c0 114 -29 208.667 -87 284c-62.667 82 -144 123 -244 123z" />
    <glyph glyph-name="p" unicode="p" horiz-adv-x="1251" vert-adv-y="2457" 
d="M332 1048l12 -184c27.333 44.667 58 80.667 92 108c78 63.333 169 95 273 95s195.333 -31 274 -93c72 -57.333 122.667 -137.666 152 -240.999c17.333 -60 26 -125 26 -195c0 -140.667 -32.667 -262.334 -98 -365.001c-80 -124.667 -199.333 -187 -358 -187
c-109.333 0 -199.333 28.667 -270 86c-32 26 -62.333 65.333 -91 118c8 -70.667 12 -137.667 12 -201v-426h-194v1026c0 26.667 -1 91.667 -3 195c-2 92 -5.33301 180 -10 264h183zM672 901c-109.333 0 -194 -48.6689 -254 -146.002
c-41.333 -67.333 -62 -144.666 -62 -231.999c0 -103.333 28 -190 84 -260c59.333 -74 134 -111 224 -111c88 0 159.333 38.333 214 115c51.333 72.667 77 158.667 77 258c0 98.667 -21.333 182.334 -64 251.001c-51.333 83.333 -124.333 125 -219 125z" />
    <glyph glyph-name="q" unicode="q" horiz-adv-x="1251" vert-adv-y="2457" 
d="M1092 1048v-1485h-194v455c0 70.667 3.66699 125.334 11 164.001c-78.667 -130.667 -199 -196 -361 -196c-130.667 0 -236 42 -316 126c-94.667 99.333 -142 234.666 -142 405.999c0 142.667 31.667 261.334 95 356.001c48.667 72.667 112.667 125.667 192 159
c54 22.667 112.667 34 176 34c108.667 0 202 -34 280 -102c31.333 -27.333 58 -65.666 80 -114.999c-4 23.333 -6 58 -6 104c0 7.33301 -1.33301 34.666 -4 81.999c0 0.666992 0.333008 4.66699 1 12h188zM601 900.999c-102.667 0 -183.333 -45.999 -242 -137.999
c-42 -66 -63 -146.333 -63 -241c0 -98 23 -181 69 -249c29.333 -44 68.333 -77 117 -99c34 -14.667 70.333 -22 109 -22c96 0 172 39.333 228 118c50.667 71.333 76 156 76 254c0 93.333 -22 173.666 -66 240.999c-58.667 90.667 -134.667 136 -228 136z" />
    <glyph glyph-name="r" unicode="r" horiz-adv-x="797" vert-adv-y="2457" 
d="M149 1048l179 0.000976562l10 -186c62.667 133.333 162.667 200 300 200c33.333 0 68.333 -4.66699 105 -14v-177c-33.333 11.333 -64.333 17 -93 17c-94 0 -168.333 -39.333 -223 -118c-36 -51.333 -57.667 -109 -65 -173c-4.66699 -36.667 -7 -98.667 -7 -186v-411
h-194v639c0 9.33301 -4 145.666 -12 408.999z" />
    <glyph glyph-name="s" unicode="s" horiz-adv-x="797" vert-adv-y="2457" 
d="M679 1023l-14.999 -162.998c-70.667 35.333 -141.667 53 -213 53c-54 0 -97.667 -13 -131 -39c-30 -22.667 -45 -53.334 -45 -92.001c0 -40.667 19.333 -74.334 58 -101.001c28.667 -20 57.667 -37 87 -51l81 -38c78.667 -37.333 133.667 -73 165 -107
c46 -50.667 69 -112.334 69 -185.001c0 -101.333 -39.333 -182 -118 -242c-68.667 -51.333 -156.334 -77 -263.001 -77c-94.667 0 -185.334 20.333 -272.001 61v173c92.667 -45.333 174.667 -68 246 -68c59.333 0 109 13.667 149 41c34.667 24 52 56 52 96
c0 40.667 -17 73.667 -51 99c-15.333 10.667 -44.333 26.334 -87 47.001l-81 42c-77.333 39.333 -131.666 73.666 -162.999 102.999c-52 48.667 -78 111.334 -78 188.001c0 87.333 30.333 158.333 91 213c66.667 60.667 157.667 91 273 91c77.333 0 159.333 -14.667 246 -44
z" />
    <glyph glyph-name="t" unicode="t" horiz-adv-x="797" vert-adv-y="2457" 
d="M446 1351v-306h279v-153h-279v-412c0 -99.333 3.66699 -168 11 -206c16 -80.667 69.667 -121 161 -121c41.333 0 83.666 10.333 126.999 31v-167c-62 -20 -121.667 -30 -179 -30c-133.333 0 -224.666 46 -273.999 138c-26.667 50.667 -40 149.667 -40 297v470h-242v153
h242v240z" />
    <glyph glyph-name="u" unicode="u" horiz-adv-x="1251" vert-adv-y="2457" 
d="M1084 1048l-0.000976562 -661c0 -100.667 4.66699 -229.667 14 -387h-179l-9 163c-85.333 -118 -203.666 -177 -354.999 -177c-104.667 0 -190 28.333 -256 85c-66 56 -105.667 133 -119 231c-8 61.333 -12 125 -12 191v555h194v-487c0 -138 9.33301 -231 28 -279
c36 -94.667 104.333 -142 205 -142c72 0 134.333 24.667 187 74c54.667 52 88.667 122.333 102 211c4 26.667 6 81 6 163v460h194z" />
    <glyph glyph-name="v" unicode="v" horiz-adv-x="1024" vert-adv-y="2457" 
d="M1004 1048l-376.001 -1048h-224l-385 1048h211l213 -604l40 -120c20.667 -62.667 33.334 -110 38.001 -142c5.33301 36.667 16.333 79.334 33 128.001l13 40l245 698h192z" />
    <glyph glyph-name="w" unicode="w" horiz-adv-x="1706" vert-adv-y="2457" 
d="M1690 1048l-335.999 -1048h-223l-181 537c-40 120 -72.333 235 -97 345c-18 -89.333 -49.333 -202.666 -94 -339.999l-174 -542h-222l-346 1048h212l173 -563c39.333 -129.333 65.666 -232 78.999 -308c23.333 94.667 43 167.334 59 218.001l206 653h227l191 -576
c30.667 -92 57.667 -190.333 81 -295c12.667 80.667 37.667 181.334 75 302.001l176 569h194z" />
    <glyph glyph-name="x" unicode="x" horiz-adv-x="1024" vert-adv-y="2457" 
d="M970 1048l-333 -498.001l371 -550h-240l-195 302c-32 48.667 -54.333 91 -67 127c-10.667 -29.333 -32.667 -70.333 -66 -123l-196 -306h-228l375 550l-348 498h240l170 -260c33.333 -51.333 56.333 -94.666 69 -129.999c10 28.667 34 73 72 133l162 257h214z" />
    <glyph glyph-name="y" unicode="y" horiz-adv-x="1024" vert-adv-y="2457" 
d="M995 1048l-375.001 -1038c-57.333 -160 -106.666 -267.333 -147.999 -322c-39.333 -51.333 -83 -86.666 -131 -105.999c-43.333 -17.333 -92.666 -26 -147.999 -26c-35.333 0 -75 5.33301 -119 16l11 158c32.667 -13.333 63.334 -20 92.001 -20
c60 0 106.333 19.333 139 58c41.333 49.333 73.666 112.333 96.999 189l-403 1091h210l233 -663c32 -92 50.667 -163.667 56 -215c7.33301 42 22.666 97.667 45.999 167l247 711h193z" />
    <glyph glyph-name="z" unicode="z" horiz-adv-x="1024" vert-adv-y="2457" 
d="M915 1048v-165.003l-507 -615c-22 -27.333 -41 -49.666 -57 -66.999c-21.333 -23.333 -38.333 -42.666 -51 -57.999c23.333 6.66699 78 10 164 10h475v-153h-852v159l496 609c12 14.667 51 58.334 117 131.001c-39.333 -2.66699 -89 -4 -149 -4h-440v153h804z" />
    <glyph glyph-name="braceleft" unicode="{" horiz-adv-x="682" vert-adv-y="2457" 
d="M299 554c36 -22 61.667 -43.6699 77 -65.0029c31.333 -44.667 47 -109.667 47 -195v-413c0 -61.333 6.33301 -102.333 19 -123s29 -34.334 49 -41.001c32 -10.667 77 -15.667 135 -15v-139c-16 0 -47.667 0.333008 -95 1c-107.333 0 -186 31 -236 93
c-37.333 46.667 -56 119.667 -56 219v408c0 70 -10.667 119 -32 147c-20.667 26 -50 43.667 -88 53v139c40 10.667 69.667 30 89 58c20.667 30 31 76.333 31 139v425c0 136 44.333 225 133 267c38 18 87.667 28.333 149 31h70c6 0 17.667 0.333008 35 1v-139
c-71.333 0 -121.333 -7.66699 -150 -23c-24.667 -13.333 -40 -34.666 -46 -63.999c-4.66699 -21.333 -7 -50.666 -7 -87.999v-422c0 -77.333 -12.333 -136.666 -37 -177.999c-16 -25.333 -45 -50.666 -87 -75.999z" />
    <glyph glyph-name="bar" unicode="|" horiz-adv-x="455" vert-adv-y="2457" 
d="M131 1430h193v-1787h-193v1787z" />
    <glyph glyph-name="braceright" unicode="}" horiz-adv-x="682" vert-adv-y="2457" 
d="M386 554c-36 21.333 -61.666 42.667 -76.999 64c-31.333 44.667 -47 109.667 -47 195v413c0 61.333 -6.33301 102.333 -19 123s-29 34.334 -49 41.001c-32 10.667 -77 15.667 -135 15v139c16.667 0 48 -0.333008 94 -1c108.667 0 187.667 -31 237 -93
c37.333 -46.667 56 -119.667 56 -219v-408c0 -70 10.667 -119 32 -147c20 -26 49.333 -43.667 88 -53v-139c-40 -10.667 -69.667 -30 -89 -58c-20.667 -29.333 -31 -75.666 -31 -138.999v-425c0 -136 -44.333 -225 -133 -267c-38 -18 -87.667 -28.333 -149 -31h-70
c-6.66699 -0.666992 -18.334 -1 -35.001 -1v139c71.333 0 121.333 7.66699 150 23c24.667 13.333 40 34.666 46 63.999c4.66699 22 7 51.333 7 88v422c0 77.333 12.333 136.666 37 177.999c16 26 45 51.667 87 77z" />
    <glyph glyph-name="asciitilde" unicode="~" horiz-adv-x="1229" vert-adv-y="2457" 
d="M208 1235l-111.001 72.002c32 66.667 58 114 78 142c58.667 80 133.667 120 225 120c52.667 0 131 -22.667 235 -68c70.667 -30.667 116 -48.667 136 -54c23.333 -6 45 -9 65 -9c48 0 88 16 120 48c18 19.333 38.667 48.333 62 87l114 -66
c-43.333 -88.667 -86.666 -150.334 -129.999 -185.001c-57.333 -46.667 -121 -70 -191 -70c-23.333 0 -57.333 7 -102 21c-38.667 12.667 -105.667 39 -201 79c-47.333 20.667 -88.333 31 -123 31c-46 0 -85 -18.667 -117 -56c-18.667 -20.667 -38.667 -51.334 -60 -92.001z
" />
    <glyph glyph-name="uni00A0" unicode="&#xa0;" vert-adv-y="2457" 
 />
    <glyph glyph-name="exclamdown" unicode="&#xa1;" horiz-adv-x="797" vert-adv-y="2457" 
d="M513 -382h-235l34 1032h175zM510 828h-222v220h222v-220z" />
    <glyph glyph-name="cent" unicode="&#xa2;" horiz-adv-x="1159" vert-adv-y="2457" 
d="M963 1221l-12.001 -172.001c-49.333 26 -105.666 41.333 -168.999 46v-737c67.333 6 131 26.667 191 62l16 -177c-63.333 -28.667 -132.333 -46 -207 -52v-170h-110v170c-96 10 -179 37.667 -249 83c-76.667 49.333 -134 116 -172 200
c-34.667 74.667 -52 158.667 -52 252c0 208.667 81 361.334 243 458.001c69.333 41.333 146 67 230 77v164h110v-164c74.667 -8.66699 135 -22 181 -40zM671.999 1086c-52.667 -14 -96.999 -35.001 -132.999 -63.001c-87.333 -68 -131 -164.667 -131 -290
c0 -111.333 32.667 -202.333 98 -273c41.333 -45.333 96.666 -76.666 165.999 -93.999v720z" />
    <glyph glyph-name="sterling" unicode="&#xa3;" horiz-adv-x="1159" vert-adv-y="2457" 
d="M1057 1401l-17.999 -179c-81.333 34.667 -152 52 -212 52c-75.333 0 -139 -20.667 -191 -62c-55.333 -44.667 -89 -103 -101 -175c-8 -52 -12 -99.667 -12 -143l1 -47v-38h331v-113h-327v-527h506v-169h-899v169h190v527h-171v113h169v49
c0 99.333 4.33301 172.333 13 219c22 120.667 78.333 212.667 169 276c83.333 58.667 183.666 88 300.999 88c87.333 0 171 -13.333 251 -40z" />
    <glyph glyph-name="currency" unicode="&#xa4;" horiz-adv-x="1139" vert-adv-y="2457" 
d="M64 223l167 167.999c-54.667 74.667 -82 155.334 -82 242.001c0 81.333 27.667 161 83 239l-171 168l93 93l169 -168c80 54.667 162.333 82 247 82s165.667 -27 243 -81l169 166l92 -92l-168 -166c56 -80 84 -161 84 -243s-27.333 -162 -82 -240l169 -167l-91 -92
l-169 167c-77.333 -55.333 -159 -83 -245 -83c-82 0 -164.667 27.667 -248 83l-168 -167zM573 898.999c-76.667 0 -141.335 -26 -194.002 -78c-52 -52 -78 -115.333 -78 -190c0 -74 26.333 -137 79 -189c52 -52 115 -78 189 -78c74.667 0 138.334 26.333 191.001 79
c52 51.333 78 114.333 78 189c0 75.333 -26 138.333 -78 189c-53.333 52 -115.666 78 -186.999 78z" />
    <glyph glyph-name="yen" unicode="&#xa5;" horiz-adv-x="1159" vert-adv-y="2457" 
d="M866 929l214 0.000976562v-113h-277l-98 -174h354v-113h-373v-529h-203v529h-382v113h359l-99 174h-281v113h217l-283 501h253l273 -537c20.667 -40 36 -75.333 46 -106c12 37.333 25.333 70.666 40 99.999l276 543h244z" />
    <glyph glyph-name="brokenbar" unicode="&#xa6;" horiz-adv-x="455" vert-adv-y="2457" 
d="M131 1430h193v-723h-193v723zM131 329h193v-686h-193v686z" />
    <glyph glyph-name="section" unicode="&#xa7;" horiz-adv-x="1139" vert-adv-y="2457" 
d="M938 1519l-20.002 -178.997c-104 40 -206.333 60 -307 60c-82 0 -150.667 -16.333 -206 -49c-62.667 -36.667 -94 -88.334 -94 -155.001c0 -64 34 -118 102 -162c29.333 -18.667 80.666 -43.667 153.999 -75l151 -64c99.333 -41.333 169.333 -80.333 210 -117
c69.333 -62 104 -141 104 -237c0 -82 -28 -154 -84 -216c-28.667 -32.667 -71.667 -63.667 -129 -93c58 -29.333 99.667 -60 125 -92c41.333 -54 62 -118.667 62 -194c0 -84 -27 -159.667 -81 -227c-92.667 -116.667 -246.667 -175 -462 -175
c-124 0 -240.333 18.667 -349 56l18 189c118 -51.333 232.333 -77 343 -77c83.333 0 154.333 14 213 42c38.667 18 68.334 45 89.001 81c16.667 28.667 25 60.667 25 96c0 75.333 -37.667 134.333 -113 177c-32 18 -77.333 39 -136 63l-126 50
c-98 39.333 -168.667 78.666 -212 117.999c-71.333 66 -107 148.333 -107 247c0 76 22 145 66 207c20 27.333 41.333 48.333 64 63c18 11.333 45 23.666 81 36.999c-62.667 34.667 -106.667 69 -132 103c-42 56 -63 120.333 -63 193c0 113.333 48 205 144 275
c90.667 66 204.334 99 341.001 99c116.667 0 226.334 -14.667 329.001 -44zM389.998 849.003c-82 -71.333 -123 -145.334 -123 -222.001c0 -75.333 39.333 -136.666 118 -183.999c44 -26.667 99.667 -53 167 -79l196 -77c36.667 32 62.667 60.333 78 85
c24.667 41.333 37 84.333 37 129c0 76 -38.667 137.667 -116 185c-30 18 -79 41.667 -147 71z" />
    <glyph glyph-name="dieresis" unicode="&#xa8;" vert-adv-y="2457" 
d="M184 1467v-207h-187v207h187zM572 1467v-207h-187v207h187z" />
    <glyph glyph-name="copyright" unicode="&#xa9;" horiz-adv-x="1638" vert-adv-y="2457" 
d="M1076 1091l-11.998 -126.999c-63.333 34 -125.333 51 -186 51c-103.333 0 -184.666 -32 -243.999 -96c-49.333 -53.333 -74 -119 -74 -197c0 -95.333 36.333 -172 109 -230c59.333 -47.333 130.666 -71 213.999 -71c59.333 0 123.333 12.667 192 38l9 -129
c-61.333 -19.333 -127 -29 -197 -29c-128.667 0 -232.334 28.333 -311.001 85c-109.333 80 -164 191 -164 333c0 109.333 35.333 200.666 106 273.999c87.333 90.667 205.666 136 354.999 136c76 0 143.667 -12.667 203 -38zM830.002 1457
c132.667 0 257.999 -36.333 375.999 -109c118.667 -73.333 209 -172 271 -296c54 -106 81 -218.333 81 -337c0 -139.333 -36 -268.333 -108 -387c-72.667 -118.667 -170.334 -209.667 -293.001 -273c-106 -54.667 -218.333 -82 -337 -82c-138 0 -266 36 -384 108
c-119.333 72.667 -210.666 171.334 -273.999 296.001c-54.667 107.333 -82 219.666 -82 336.999c0 140.667 36.333 271 109 391c71.333 117.333 170.333 208 297 272c104.667 53.333 219.334 80 344.001 80zM828.001 1352c-176 0 -325.333 -61.667 -448 -185
c-58.667 -59.333 -104 -128.333 -136 -207s-48 -160.667 -48 -246c0 -118.667 31 -229.334 93 -332.001c61.333 -102 144.333 -180.333 249 -235c89.333 -46 183.333 -69 282 -69c116.667 0 225.334 31.667 326.001 95c99.333 62.667 175.666 147.334 228.999 254.001
c44.667 90 67 186 67 288c0 119.333 -30.333 230.333 -91 333c-59.333 100.667 -142 178.667 -248 234c-88 46.667 -179.667 70 -275 70z" />
    <glyph glyph-name="ordfeminine" unicode="&#xaa;" horiz-adv-x="739" vert-adv-y="2457" 
d="M151 1397c71.333 40 147.999 60 229.999 60c131.333 0 215 -44 251 -132c14 -35.333 21 -93 21 -173v-37v-74v-34c0 -73.333 2.33301 -139 7 -197h-129c-1.33301 31.333 -2 50 -2 56c0 7.33301 0.333008 17.333 1 30c-52 -62.667 -123 -94 -213 -94
c-68.667 0 -124 15.667 -166 47c-48 36 -72 85 -72 147c0 81.333 44 140.333 132 177c56 23.333 129.333 35 220 35c18.667 0 47.334 -1 86.001 -3c-2 91.333 -54.333 137 -157 137c-66 0 -133 -22 -201 -66zM518.999 1104c-2.66699 0 -6 0.332031 -10 0.999023
c-7.33301 0.666992 -23.333 1 -48 1c-156.667 0 -235 -35.667 -235 -107c0 -31.333 14.667 -55.333 44 -72c20.667 -11.333 45.667 -17 75 -17c44.667 0 83 12 115 36c31.333 24.667 50 57.334 56 98.001c2 16 3 36 3 60zM660.999 699.999v-100h-561v100h561z" />
    <glyph glyph-name="guillemotleft" unicode="&#xab;" horiz-adv-x="1139" vert-adv-y="2457" 
d="M991 945l-266 -416l271 -425h-183l-295 425l287 416h186zM574 945l-266 -416l271 -425h-183l-295 425l288 416h185z" />
    <glyph glyph-name="logicalnot" unicode="&#xac;" horiz-adv-x="1229" vert-adv-y="2457" 
d="M886 0v392h-736v180h929v-572h-193z" />
    <glyph glyph-name="uni00AD" unicode="&#xad;" horiz-adv-x="682" vert-adv-y="2457" 
d="M610 609v-160h-538v160h538z" />
    <glyph glyph-name="registered" unicode="&#xae;" horiz-adv-x="1638" vert-adv-y="2457" 
d="M546 1124h215c86 0 151.333 -7 196 -21c48.667 -15.333 86.334 -43 113.001 -83c23.333 -34.667 35 -73.334 35 -116.001c0 -57.333 -20.667 -104.666 -62 -141.999c-24.667 -22.667 -58 -39 -100 -49c33.333 -19.333 62 -53.333 86 -102l151 -305h-160l-113 245
c-19.333 41.333 -37 70 -53 86c-18.667 17.333 -54.334 26 -107.001 26h-62v-357h-139v818zM685 1009v-229.999h68c58.667 0 102 4.33301 130 13c52.667 17.333 79 51.666 79 102.999c0 50 -25.667 83.667 -77 101c-25.333 8.66699 -65.333 13 -120 13h-80zM830 1457
c132.667 0 257.999 -36.333 375.999 -109c118.667 -73.333 209 -172 271 -296c54 -106 81 -218.333 81 -337c0 -139.333 -36 -268.333 -108 -387c-72.667 -118.667 -170.334 -209.667 -293.001 -273c-106 -54.667 -218.333 -82 -337 -82c-138 0 -266 36 -384 108
c-119.333 72.667 -210.666 171.334 -273.999 296.001c-54.667 107.333 -82 219.666 -82 336.999c0 140.667 36.333 271 109 391c71.333 117.333 170.333 208 297 272c104.667 53.333 219.334 80 344.001 80zM827.999 1352c-176 0 -325.333 -61.667 -448 -185
c-58.667 -59.333 -104 -128.333 -136 -207s-48 -160.667 -48 -246c0 -118.667 31 -229.334 93 -332.001c61.333 -102 144.333 -180.333 249 -235c89.333 -46 183.333 -69 282 -69c116.667 0 225.334 31.667 326.001 95c99.333 62.667 175.666 147.334 228.999 254.001
c44.667 90 67 186 67 288c0 119.333 -30.333 230.333 -91 333c-59.333 100.667 -142 178.667 -248 234c-88 46.667 -179.667 70 -275 70z" />
    <glyph glyph-name="macron" unicode="&#xaf;" vert-adv-y="2457" 
d="M589 1420v-123h-609v123h609z" />
    <glyph glyph-name="degree" unicode="&#xb0;" horiz-adv-x="819" vert-adv-y="2457" 
d="M409 1563c86 0 159.667 -29.667 221 -89c60.667 -59.333 91 -131.333 91 -216c0 -84 -30 -155.667 -90 -215c-61.333 -60.667 -135 -91 -221 -91s-159.667 30.333 -221 91c-60.667 59.333 -91 132.333 -91 219c0 82.667 30.333 153 91 211c62.667 60 136 90 220 90z
M409 1445c-52 0 -96.667 -18.333 -134 -55c-36.667 -36 -55 -79.333 -55 -130c0 -54 18.333 -98.667 55 -134c37.333 -37.333 82.333 -56 135 -56c52 0 97 18.667 135 56c36.667 36 55 80 55 132c0 52.667 -18.667 96.667 -56 132c-38 36.667 -83 55 -135 55z" />
    <glyph glyph-name="plusminus" unicode="&#xb1;" horiz-adv-x="1229" vert-adv-y="2457" 
d="M536 779h-415v157h415v401h157v-401h414v-157h-414v-400h-157v400zM121 122v157h986v-157h-986z" />
    <glyph glyph-name="twosuperior" unicode="&#xb2;" horiz-adv-x="739" vert-adv-y="2457" 
d="M107 1384c46.667 19.333 80.333 31.999 101 37.999c42 12 86.333 18 133 18c89.333 0 160.666 -25.333 213.999 -76c46.667 -45.333 70 -101.666 70 -168.999c0 -84.667 -44.667 -179 -134 -283c-63.333 -74 -132.666 -143.667 -207.999 -209h24h335v-134h-552v151
c94 82 173.667 159 239 231c88.667 98.667 133 178.667 133 240c0 34 -14.667 61.667 -44 83c-25.333 19.333 -57 29 -95 29c-56.667 0 -123 -23 -199 -69z" />
    <glyph glyph-name="threesuperior" unicode="&#xb3;" horiz-adv-x="739" vert-adv-y="2457" 
d="M118 1399c72 27.333 144.334 41 217.001 41c86 0 152.667 -17.333 200 -52c61.333 -44.667 92 -105.667 92 -183c0 -84 -42.333 -146.667 -127 -188c38 -19.333 66 -39 84 -59c35.333 -40.667 53 -91 53 -151c0 -81.333 -31.667 -144 -95 -188
c-58 -40.667 -131.667 -61 -221 -61c-74 0 -149.667 13 -227 39l8 151c82 -36 152.667 -54 212 -54c44.667 0 81.667 10.333 111 31c32.667 23.333 49 54.333 49 93c0 86.667 -71.333 130 -214 130c-7.33301 0 -27 -0.666992 -59 -2v139c20.667 -0.666992 36 -1 46 -1
c54 0 99.333 6.33301 136 19c58 19.333 87 53 87 101c0 32 -13.667 57.667 -41 77c-26.667 19.333 -60.334 29 -101.001 29c-58.667 0 -125 -18 -199 -54z" />
    <glyph glyph-name="acute" unicode="&#xb4;" vert-adv-y="2457" 
d="M555 1518l-253 -293h-137l176 293h214z" />
    <glyph glyph-name="mu" unicode="&#xb5;" horiz-adv-x="1251" vert-adv-y="2457" 
d="M176 -363l-0.000976562 1392h193v-571c0 -82 7 -141.667 21 -179c22 -60 61 -103.667 117 -131c36.667 -18 75.334 -27 116.001 -27c78 0 141.333 31 190 93c27.333 34.667 46 73.334 56 116.001c8.66699 33.333 13 81.333 13 144v555h193v-1029h-193v164
c-25.333 -54.667 -52.333 -95 -81 -121c-49.333 -45.333 -110.333 -68 -183 -68c-68.667 0 -127.667 20.333 -177 61c-23.333 18.667 -47.333 48 -72 88v-487h-193z" />
    <glyph glyph-name="paragraph" unicode="&#xb6;" horiz-adv-x="1229" vert-adv-y="2457" 
d="M484 -437l0.00195312 1074c-12.667 -0.666992 -22.334 -1 -29.001 -1c-97.333 0 -179.333 29.667 -246 89c-81.333 71.333 -122 172 -122 302c0 90 21 168.333 63 235c46 73.333 114.333 121.666 205 144.999c57.333 15.333 120.666 23 189.999 23h568v-150h-108v-1717
h-166v1717h-189v-1717h-166z" />
    <glyph glyph-name="periodcentered" unicode="&#xb7;" vert-adv-y="2457" 
d="M400 644v-229h-230v229h230z" />
    <glyph glyph-name="cedilla" unicode="&#xb8;" vert-adv-y="2457" 
d="M333 1l-70.001 -115.001c36 6.66699 62.333 10 79 10c43.333 0 79.333 -11 108 -33c36 -28.667 54 -66.667 54 -114c0 -40.667 -17.667 -78 -53 -112c-44.667 -43.333 -107 -65 -187 -65c-68.667 0 -134.667 14.333 -198 43l37 72c44.667 -18.667 91 -28 139 -28
c44.667 0 77 12.333 97 37c10 12.667 15 26.334 15 41.001c0 19.333 -7 36 -21 50c-21.333 20 -47 30 -77 30c-13.333 0 -38.666 -5.33301 -75.999 -16l-34 35l102 165h85z" />
    <glyph glyph-name="onesuperior" unicode="&#xb9;" horiz-adv-x="739" vert-adv-y="2457" 
d="M492 1430v-861h-153v519c0 45.333 0.333008 94 1 146l-108 -96l-88 107l217 185h131z" />
    <glyph glyph-name="ordmasculine" unicode="&#xba;" horiz-adv-x="813" vert-adv-y="2457" 
d="M405 1457c106 0 192.001 -33.667 258.001 -101c60 -61.333 90 -141 90 -239c0 -94 -32 -171.667 -96 -233c-64.667 -63.333 -148.667 -95 -252 -95c-89.333 0 -165.333 25.667 -228 77c-78 64.667 -117 149.667 -117 255c0 95.333 29.667 173.333 89 234
c67.333 68 152.666 102 255.999 102zM407.001 1349c-61.333 0 -111 -23.667 -149 -71c-34 -41.333 -51 -93.333 -51 -156c0 -54 12.667 -100 38 -138c38 -58 92 -87 162 -87c64 0 115 25 153 75c30.667 40 46 88.667 46 146c0 66.667 -17.333 120.667 -52 162
c-38.667 46 -87.667 69 -147 69zM732.001 700v-100h-650v100h650z" />
    <glyph glyph-name="guillemotright" unicode="&#xbb;" horiz-adv-x="1139" vert-adv-y="2457" 
d="M151 945h186l287 -416l-295 -425h-183l271 425zM568 945h185l288 -416l-295 -425h-183l271 425z" />
    <glyph glyph-name="onequarter" unicode="&#xbc;" horiz-adv-x="1708" vert-adv-y="2457" 
d="M457 1430v-861h-153v519c0 45.333 0.333008 94 1 146l-108 -96l-88 107l217 185h131zM1304 1498l-783 -1567h-124l781 1567h126zM1503 861v-547h107v-134h-107v-180h-153v180h-378v120l336 561h195zM1350 314l5 309.001c0.666992 17.333 1.66699 40.666 3 69.999
c-49.333 -92.667 -102.333 -186 -159 -280c-30.667 -51.333 -50 -84.333 -58 -99h209z" />
    <glyph glyph-name="onehalf" unicode="&#xbd;" horiz-adv-x="1708" vert-adv-y="2457" 
d="M460 1430v-861h-153v519c0 45.333 0.333008 94 1 146l-108 -96l-88 107l217 185h131zM1260 1498l-783 -1567h-124l781 1567h126zM1087 815c44.667 18.667 78.334 30.999 101.001 36.999c42 12 86.333 18 133 18c89.333 0 160.666 -25.333 213.999 -76
c46.667 -45.333 70 -101.666 70 -168.999s-24 -135 -72 -203c-64.667 -91.333 -154.667 -187.333 -270 -288h24h335v-134h-552v151c95.333 82.667 175 159.667 239 231c88.667 98 133 177.667 133 239c0 34.667 -14.667 62.667 -44 84c-26 18.667 -58 28 -96 28
c-57.333 0 -123 -23 -197 -69z" />
    <glyph glyph-name="threequarters" unicode="&#xbe;" horiz-adv-x="1708" vert-adv-y="2457" 
d="M162 1399c72 27.333 144.334 41 217.001 41c86 0 152.667 -17.333 200 -52c61.333 -44.667 92 -105.667 92 -183c0 -84 -42.333 -146.667 -127 -188c38 -19.333 66 -39 84 -59c35.333 -40.667 53 -91 53 -151c0 -81.333 -31.667 -144 -95 -188
c-58 -40.667 -131.667 -61 -221 -61c-74 0 -149.667 13 -227 39l8 151c82 -36 152.667 -54 212 -54c44.667 0 81.667 10.333 111 31c32.667 23.333 49 54.333 49 93c0 86.667 -71.333 130 -214 130c-7.33301 0 -27 -0.666992 -59 -2v139c20.667 -0.666992 36 -1 46 -1
c54 0 99.333 6.33301 136 19c58 19.333 87 53 87 101c0 32 -13.667 57.667 -41 77c-26.667 19.333 -60.334 29 -101.001 29c-58.667 0 -125 -18 -199 -54zM1326 1498l-783 -1567h-124l781 1567h126zM1515 861v-547h107v-134h-107v-180h-153v180h-377v120l335 561h195z
M1362 314l5 309.001c0.666992 7.33301 1.66699 30.666 3 69.999c-18 -34.667 -71 -128 -159 -280l-55 -95l-2 -4h208z" />
    <glyph glyph-name="questiondown" unicode="&#xbf;" horiz-adv-x="1024" vert-adv-y="2457" 
d="M875 -342c-120.667 -41.333 -236.668 -62 -348.001 -62c-125.333 0 -228.333 32.333 -309 97c-86.667 69.333 -130 159.333 -130 270c0 68.667 18.667 136.334 56 203.001c24.667 43.333 72.667 106.333 144 189c58.667 67.333 95 119.666 109 156.999
c10.667 31.333 16.334 77 17.001 137h185c0 -82 -7 -145 -21 -189c-14 -41.333 -39.333 -85.333 -76 -132l-94 -109c-71.333 -82 -107 -159.333 -107 -232c0 -64 23 -115.333 69 -154c43.333 -36.667 104 -55 182 -55c100 0 202.333 26 307 78zM394.999 824v224h219v-224
h-219z" />
    <glyph glyph-name="Agrave" unicode="&#xc0;" horiz-adv-x="1479" vert-adv-y="2457" 
d="M840 1430l621 -1430h-230l-151 362h-695l-148 -362h-220l609 1430h214zM1010 536l-166 399.999c-61.333 148 -100 254.333 -116 319c-18 -65.333 -57.667 -173.666 -119 -324.999l-159 -394h560zM664 1850l187 -279h-148l-276 279h237z" />
    <glyph glyph-name="Aacute" unicode="&#xc1;" horiz-adv-x="1479" vert-adv-y="2457" 
d="M840 1430l621 -1430h-230l-151 362h-695l-148 -362h-220l609 1430h214zM1010 536l-166 399.999c-61.333 148 -100 254.333 -116 319c-18 -65.333 -57.667 -173.666 -119 -324.999l-159 -394h560zM807 1850h237l-276 -279h-148z" />
    <glyph glyph-name="Acircumflex" unicode="&#xc2;" horiz-adv-x="1479" vert-adv-y="2457" 
d="M840 1430l621 -1430h-230l-151 362h-695l-148 -362h-220l609 1430h214zM1010 536l-166 399.999c-61.333 148 -100 254.333 -116 319c-18 -65.333 -57.667 -173.666 -119 -324.999l-159 -394h560zM634 1850h196l235 -279h-179l-154 177l-154 -177h-179z" />
    <glyph glyph-name="Atilde" unicode="&#xc3;" horiz-adv-x="1479" vert-adv-y="2457" 
d="M840 1430l621 -1430h-230l-151 362h-695l-148 -362h-220l609 1430h214zM1010 536l-166 399.999c-61.333 148 -100 254.333 -116 319c-18 -65.333 -57.667 -173.666 -119 -324.999l-159 -394h560zM1100 1823c-2 -9.33301 -3.33398 -16.333 -4.00098 -21
c-8 -40.667 -14.5 -67.667 -19.5 -81s-14.167 -29.333 -27.5 -48c-38.667 -53.333 -89 -80 -151 -80c-29.333 0 -63 6.33301 -101 19c-13.333 4.66699 -47 18.334 -101 41.001c-52 21.333 -90 32 -114 32c-25.333 0 -48 -15.667 -68 -47
c-9.33301 -14.667 -16.333 -31.334 -21 -50.001h-101c12.667 68 31.334 118 56.001 150c38.667 51.333 91 77 157 77c47.333 0 116.333 -20.333 207 -61c38.667 -16.667 67 -25 85 -25c52 0 86 31.333 102 94h101z" />
    <glyph glyph-name="Adieresis" unicode="&#xc4;" horiz-adv-x="1479" vert-adv-y="2457" 
d="M844 1404l621 -1430h-230l-151 362h-695l-148 -362h-220l609 1430h214zM1014 510l-166 399.999c-61.333 148 -100 254.333 -116 319c-18 -65.333 -57.667 -173.666 -119 -324.999l-159 -394h560zM1042 1807v-207h-194v207h194zM624 1807v-207h-194v207h194z" />
    <glyph glyph-name="Aring" unicode="&#xc5;" horiz-adv-x="1479" vert-adv-y="2457" 
d="M840 1430l621 -1430h-230l-151 362h-695l-148 -362h-220l609 1430h214zM1010 536l-166 399.999c-61.333 148 -100 254.333 -116 319c-18 -65.333 -57.667 -173.666 -119 -324.999l-159 -394h560zM736 1940c60.667 0 112.334 -23.668 155.001 -71.001
c36.667 -39.333 55 -86.666 55 -141.999c0 -64 -23.333 -116.667 -70 -158c-40.667 -36.667 -88.334 -55 -143.001 -55c-64 0 -117 23.333 -159 70c-36.667 40.667 -55 89 -55 145c0 61.333 23.667 113.333 71 156c40 36.667 88.667 55 146 55zM734 1831
c-32 0 -58.001 -11.332 -78.001 -33.999c-18 -20 -27 -42.667 -27 -68c0 -31.333 11.333 -57.333 34 -78c19.333 -18 42.333 -27 69 -27c30.667 0 56 11.333 76 34c17.333 19.333 26 42.666 26 69.999c0 31.333 -11 57 -33 77c-19.333 17.333 -41.666 26 -66.999 26z" />
    <glyph glyph-name="AE" unicode="&#xc6;" horiz-adv-x="1933" vert-adv-y="2457" 
d="M1769 1430v-174h-576l32 -431h509v-174h-496l33 -477h523v-174h-712l-27 366h-603l-216 -366h-230l862 1430h901zM994 1282l-444 -742h492z" />
    <glyph glyph-name="Ccedilla" unicode="&#xc7;" horiz-adv-x="1251" vert-adv-y="2457" 
d="M826 -9l-64.998 -105.999c32.667 6 58 9 76 9c43.333 0 80 -11.667 110 -35c36.667 -28.667 55 -66.334 55 -113.001c0 -45.333 -17.667 -85 -53 -119c-44 -43.333 -108.667 -65 -194 -65c-69.333 0 -135.333 14.333 -198 43l37 76c44.667 -18.667 90.667 -28 138 -28
c39.333 0 68.666 9 87.999 27c16.667 15.333 25 33.333 25 54c0 18.667 -7.33301 35.667 -22 51c-18.667 20 -44.334 30 -77.001 30c-15.333 0 -40.666 -5 -75.999 -15l-33 35l100 163c-81.333 11.333 -149.333 27.666 -204 48.999s-108.334 52.333 -161.001 93
c-96.667 75.333 -168 171 -214 287c-35.333 89.333 -53 188 -53 296c0 190 57 349 171 477c73.333 82.667 166.333 145 279 187c94 35.333 194.667 53 302 53c124 0 232.333 -21 325 -63l-18 -194c-98 56 -197 84 -297 84c-110.667 0 -211 -27 -301 -81
c-97.333 -58 -166 -140.667 -206 -248c-24 -63.333 -36 -133.333 -36 -210c0 -177.333 61.667 -318.666 185 -423.999c102.667 -87.333 225 -131 367 -131c94 0 196 21 306 63l14 -198c-97.333 -32 -200 -48 -308 -48c-13.333 0 -34 0.333008 -62 1z" />
    <glyph glyph-name="Egrave" unicode="&#xc8;" horiz-adv-x="1139" vert-adv-y="2457" 
d="M983 1430v-174h-592v-423h550v-174h-550v-485h610v-174h-813v1430h795zM522 1850l187 -279h-148l-276 279h237z" />
    <glyph glyph-name="Eacute" unicode="&#xc9;" horiz-adv-x="1139" vert-adv-y="2457" 
d="M983 1430v-174h-592v-423h550v-174h-550v-485h610v-174h-813v1430h795zM651 1850h237l-276 -279h-148z" />
    <glyph glyph-name="Ecircumflex" unicode="&#xca;" horiz-adv-x="1139" vert-adv-y="2457" 
d="M983 1430v-174h-592v-423h550v-174h-550v-485h610v-174h-813v1430h795zM488 1850h196l235 -279h-179l-154 177l-154 -177h-179z" />
    <glyph glyph-name="Edieresis" unicode="&#xcb;" horiz-adv-x="1139" vert-adv-y="2457" 
d="M983 1430v-174h-592v-423h550v-174h-550v-485h610v-174h-813v1430h795zM892 1807v-207h-194v207h194zM474 1807v-207h-194v207h194z" />
    <glyph glyph-name="Igrave" unicode="&#xcc;" vert-adv-y="2457" 
d="M386 1430v-1430h-203v1430h203zM224 1850l173 -279h-148l-255 279h230z" />
    <glyph glyph-name="Iacute" unicode="&#xcd;" vert-adv-y="2457" 
d="M386 1430v-1430h-203v1430h203zM346 1850h230l-255 -279h-148z" />
    <glyph glyph-name="Icircumflex" unicode="&#xce;" vert-adv-y="2457" 
d="M386 1430v-1430h-203v1430h203zM186 1850h197l199 -279h-172l-126 184l-125 -184h-172z" />
    <glyph glyph-name="Idieresis" unicode="&#xcf;" vert-adv-y="2457" 
d="M386 1430v-1430h-203v1430h203zM526 1807v-207h-184v207h184zM228 1807v-207h-184v207h184z" />
    <glyph glyph-name="Eth" unicode="&#xd0;" horiz-adv-x="1479" vert-adv-y="2457" 
d="M185 1430l294 0.000976562c169.333 0 296 -11.333 380 -34c104.667 -28.667 197.667 -79.334 279 -152.001c92.667 -82.667 159 -182.667 199 -300c26 -74.667 39 -152.667 39 -234c0 -163.333 -49 -307.333 -147 -432c-109.333 -138.667 -257.333 -225 -444 -259
c-71.333 -12.667 -163 -19 -275 -19h-325v657h-143v172h143v601zM387 1254l0.000976562 -425.002h371v-172h-371v-481h106c96 0 172 4.33301 228 13c123.333 18 223.666 69 300.999 153c50 54.667 87 121.334 111 200.001c17.333 56.667 26 114.334 26 173.001
c0 144 -47 267.333 -141 370c-84.667 92 -193.667 145.333 -327 160c-54.667 6 -119.667 9 -195 9h-109z" />
    <glyph glyph-name="Ntilde" unicode="&#xd1;" horiz-adv-x="1479" vert-adv-y="2457" 
d="M1312 1430v-1430h-264l-452 776c-77.333 132.667 -133 233.667 -167 303c-32 65.333 -57 128.333 -75 189c11.333 -144.667 17 -324.667 17 -540v-728h-203v1430h278l489 -842c92 -158.667 157.333 -295.667 196 -411c-9.33301 86 -15.333 196.667 -18 332
c-2.66699 125.333 -4 202.666 -4 231.999v689h203zM1115 1823c-2 -9.33301 -3.33398 -16.333 -4.00098 -21c-8 -40.667 -14.5 -67.667 -19.5 -81s-14.167 -29.333 -27.5 -48c-38.667 -53.333 -89 -80 -151 -80c-29.333 0 -63 6.33301 -101 19
c-13.333 4.66699 -47 18.334 -101 41.001c-52 21.333 -90 32 -114 32c-25.333 0 -48 -15.667 -68 -47c-9.33301 -14.667 -16.333 -31.334 -21 -50.001h-101c12.667 68 31.334 118 56.001 150c38.667 51.333 91 77 157 77c47.333 0 116.333 -20.333 207 -61
c38.667 -16.667 67 -25 85 -25c52 0 86 31.333 102 94h101z" />
    <glyph glyph-name="Ograve" unicode="&#xd2;" horiz-adv-x="1593" vert-adv-y="2457" 
d="M806 1457c212.667 0 379 -67.998 499 -203.998c122 -136.667 183 -316.334 183 -539.001c0 -214.667 -57 -390.334 -171 -527.001c-119.333 -142.667 -291.333 -214 -516 -214c-215.333 0 -383.333 66.667 -504 200c-65.333 71.333 -115 161.333 -149 270
c-28 88.667 -42 178.667 -42 270c0 141.333 29.333 272.333 88 393c114 234 318 351 612 351zM805 1295c-161.333 0 -284.332 -60.668 -368.999 -182.001c-74 -106 -111 -238.333 -111 -397c0 -154 36.667 -285 110 -393c45.333 -66.667 106.333 -117 183 -151
c56 -24.667 116 -37 180 -37c105.333 0 197.666 32 276.999 96c74.667 61.333 128.667 145.333 162 252c21.333 68 32 143.333 32 226c0 156.667 -35.667 288.334 -107 395.001c-84.667 127.333 -203.667 191 -357 191zM744.001 1850l187 -279h-148l-276 279h237z" />
    <glyph glyph-name="Oacute" unicode="&#xd3;" horiz-adv-x="1593" vert-adv-y="2457" 
d="M806 1457c212.667 0 379 -67.998 499 -203.998c122 -136.667 183 -316.334 183 -539.001c0 -214.667 -57 -390.334 -171 -527.001c-119.333 -142.667 -291.333 -214 -516 -214c-215.333 0 -383.333 66.667 -504 200c-65.333 71.333 -115 161.333 -149 270
c-28 88.667 -42 178.667 -42 270c0 141.333 29.333 272.333 88 393c114 234 318 351 612 351zM805 1295c-161.333 0 -284.332 -60.668 -368.999 -182.001c-74 -106 -111 -238.333 -111 -397c0 -154 36.667 -285 110 -393c45.333 -66.667 106.333 -117 183 -151
c56 -24.667 116 -37 180 -37c105.333 0 197.666 32 276.999 96c74.667 61.333 128.667 145.333 162 252c21.333 68 32 143.333 32 226c0 156.667 -35.667 288.334 -107 395.001c-84.667 127.333 -203.667 191 -357 191zM865.001 1850h237l-276 -279h-148z" />
    <glyph glyph-name="Ocircumflex" unicode="&#xd4;" horiz-adv-x="1593" vert-adv-y="2457" 
d="M806 1457c212.667 0 379 -67.998 499 -203.998c122 -136.667 183 -316.334 183 -539.001c0 -214.667 -57 -390.334 -171 -527.001c-119.333 -142.667 -291.333 -214 -516 -214c-215.333 0 -383.333 66.667 -504 200c-65.333 71.333 -115 161.333 -149 270
c-28 88.667 -42 178.667 -42 270c0 141.333 29.333 272.333 88 393c114 234 318 351 612 351zM805 1295c-161.333 0 -284.332 -60.668 -368.999 -182.001c-74 -106 -111 -238.333 -111 -397c0 -154 36.667 -285 110 -393c45.333 -66.667 106.333 -117 183 -151
c56 -24.667 116 -37 180 -37c105.333 0 197.666 32 276.999 96c74.667 61.333 128.667 145.333 162 252c21.333 68 32 143.333 32 226c0 156.667 -35.667 288.334 -107 395.001c-84.667 127.333 -203.667 191 -357 191zM706.001 1850h196l235 -279h-179l-154 177l-154 -177
h-179z" />
    <glyph glyph-name="Otilde" unicode="&#xd5;" horiz-adv-x="1593" vert-adv-y="2457" 
d="M806 1457c212.667 0 379 -67.998 499 -203.998c122 -136.667 183 -316.334 183 -539.001c0 -214.667 -57 -390.334 -171 -527.001c-119.333 -142.667 -291.333 -214 -516 -214c-215.333 0 -383.333 66.667 -504 200c-65.333 71.333 -115 161.333 -149 270
c-28 88.667 -42 178.667 -42 270c0 141.333 29.333 272.333 88 393c114 234 318 351 612 351zM805 1295c-161.333 0 -284.332 -60.668 -368.999 -182.001c-74 -106 -111 -238.333 -111 -397c0 -154 36.667 -285 110 -393c45.333 -66.667 106.333 -117 183 -151
c56 -24.667 116 -37 180 -37c105.333 0 197.666 32 276.999 96c74.667 61.333 128.667 145.333 162 252c21.333 68 32 143.333 32 226c0 156.667 -35.667 288.334 -107 395.001c-84.667 127.333 -203.667 191 -357 191zM1165 1823
c-2 -9.33301 -3.33398 -16.333 -4.00098 -21c-8 -40.667 -14.5 -67.667 -19.5 -81s-14.167 -29.333 -27.5 -48c-38.667 -53.333 -89 -80 -151 -80c-29.333 0 -63 6.33301 -101 19c-13.333 4.66699 -47 18.334 -101 41.001c-52 21.333 -90 32 -114 32
c-25.333 0 -48 -15.667 -68 -47c-9.33301 -14.667 -16.333 -31.334 -21 -50.001h-101c12.667 68 31.334 118 56.001 150c38.667 51.333 91 77 157 77c47.333 0 116.333 -20.333 207 -61c38.667 -16.667 67 -25 85 -25c52 0 86 31.333 102 94h101z" />
    <glyph glyph-name="Odieresis" unicode="&#xd6;" horiz-adv-x="1593" vert-adv-y="2457" 
d="M806 1457c212.667 0 379 -67.998 499 -203.998c122 -136.667 183 -316.334 183 -539.001c0 -214.667 -57 -390.334 -171 -527.001c-119.333 -142.667 -291.333 -214 -516 -214c-215.333 0 -383.333 66.667 -504 200c-65.333 71.333 -115 161.333 -149 270
c-28 88.667 -42 178.667 -42 270c0 141.333 29.333 272.333 88 393c114 234 318 351 612 351zM805 1295c-161.333 0 -284.332 -60.668 -368.999 -182.001c-74 -106 -111 -238.333 -111 -397c0 -154 36.667 -285 110 -393c45.333 -66.667 106.333 -117 183 -151
c56 -24.667 116 -37 180 -37c105.333 0 197.666 32 276.999 96c74.667 61.333 128.667 145.333 162 252c21.333 68 32 143.333 32 226c0 156.667 -35.667 288.334 -107 395.001c-84.667 127.333 -203.667 191 -357 191zM1112 1807v-207h-194v207h194zM694.001 1807v-207
h-194v207h194z" />
    <glyph glyph-name="multiply" unicode="&#xd7;" horiz-adv-x="1229" vert-adv-y="2457" 
d="M503 729l-313 314l111 111l313 -314l314 314l111 -111l-313 -314l313 -313l-111 -111l-314 313l-313 -313l-111 111z" />
    <glyph glyph-name="Oslash" unicode="&#xd8;" horiz-adv-x="1593" vert-adv-y="2457" 
d="M1233 1322l134.001 152.001l110 -88l-145 -165c104 -142.667 156 -311.334 156 -506.001c0 -215.333 -57 -391.333 -171 -528c-58.667 -69.333 -129.667 -121.666 -213 -156.999c-92.667 -38 -192.334 -57 -299.001 -57c-182 0 -330.667 47 -446 141l-132 -150l-109 89
l143 163c-36.667 49.333 -65 99 -85 149c-46.667 113.333 -70 230.666 -70 351.999c0 138 29.667 267.667 89 389c114 234 313.667 351 599 351c174 0 320.333 -45 439 -135zM1099 1179c-24 24.667 -50.333 44.668 -79 60.001c-71.333 37.333 -147.666 56 -228.999 56
c-93.333 0 -177.333 -26.333 -252 -79c-84.667 -59.333 -145.334 -148.666 -182.001 -267.999c-21.333 -70.667 -32 -146.334 -32 -227.001c0 -136.667 26.667 -252.334 80 -347.001zM1189 1068l-696.999 -812c91.333 -80.667 193.666 -121 306.999 -121
c104.667 0 196.667 32 276 96c74.667 61.333 128.667 145.333 162 252c21.333 68 32 142.667 32 224c0 126 -26.667 246.333 -80 361z" />
    <glyph glyph-name="Ugrave" unicode="&#xd9;" horiz-adv-x="1479" vert-adv-y="2457" 
d="M1292 1430v-805.999c0 -91.333 -4 -163.666 -12 -216.999c-23.333 -148 -89 -260.333 -197 -337c-90 -64.667 -203.667 -97 -341 -97c-138.667 0 -253.667 33 -345 99c-84.667 61.333 -142.667 141.666 -174 240.999c-24.667 77.333 -37 190.333 -37 339v778h203v-749
c0 -92.667 3 -162.334 9 -209.001c14.667 -116 56 -200.667 124 -254c62 -48 137 -72 225 -72c156 0 259.667 72 311 216c15.333 44.667 25 100 29 166c1.33301 24 2 72 2 144v758h203zM678 1850l187 -279h-148l-276 279h237z" />
    <glyph glyph-name="Uacute" unicode="&#xda;" horiz-adv-x="1479" vert-adv-y="2457" 
d="M1292 1430v-805.999c0 -91.333 -4 -163.666 -12 -216.999c-23.333 -148 -89 -260.333 -197 -337c-90 -64.667 -203.667 -97 -341 -97c-138.667 0 -253.667 33 -345 99c-84.667 61.333 -142.667 141.666 -174 240.999c-24.667 77.333 -37 190.333 -37 339v778h203v-749
c0 -92.667 3 -162.334 9 -209.001c14.667 -116 56 -200.667 124 -254c62 -48 137 -72 225 -72c156 0 259.667 72 311 216c15.333 44.667 25 100 29 166c1.33301 24 2 72 2 144v758h203zM800 1850h237l-276 -279h-148z" />
    <glyph glyph-name="Ucircumflex" unicode="&#xdb;" horiz-adv-x="1479" vert-adv-y="2457" 
d="M1292 1430v-805.999c0 -91.333 -4 -163.666 -12 -216.999c-23.333 -148 -89 -260.333 -197 -337c-90 -64.667 -203.667 -97 -341 -97c-138.667 0 -253.667 33 -345 99c-84.667 61.333 -142.667 141.666 -174 240.999c-24.667 77.333 -37 190.333 -37 339v778h203v-749
c0 -92.667 3 -162.334 9 -209.001c14.667 -116 56 -200.667 124 -254c62 -48 137 -72 225 -72c156 0 259.667 72 311 216c15.333 44.667 25 100 29 166c1.33301 24 2 72 2 144v758h203zM641 1850h196l235 -279h-179l-154 177l-154 -177h-179z" />
    <glyph glyph-name="Udieresis" unicode="&#xdc;" horiz-adv-x="1479" vert-adv-y="2457" 
d="M1292 1430v-805.999c0 -91.333 -4 -163.666 -12 -216.999c-23.333 -148 -89 -260.333 -197 -337c-90 -64.667 -203.667 -97 -341 -97c-138.667 0 -253.667 33 -345 99c-84.667 61.333 -142.667 141.666 -174 240.999c-24.667 77.333 -37 190.333 -37 339v778h203v-749
c0 -92.667 3 -162.334 9 -209.001c14.667 -116 56 -200.667 124 -254c62 -48 137 -72 225 -72c156 0 259.667 72 311 216c15.333 44.667 25 100 29 166c1.33301 24 2 72 2 144v758h203zM1045 1807v-207h-194v207h194zM627 1807v-207h-194v207h194z" />
    <glyph glyph-name="Yacute" unicode="&#xdd;" horiz-adv-x="1366" vert-adv-y="2457" 
d="M1347 1430l-558 -823.001v-607h-203v601l-567 829h253l354 -536c30.667 -45.333 51.667 -80.666 63 -105.999c12.667 28 32 61.333 58 100l356 542h244zM751 1850h237l-276 -279h-148z" />
    <glyph glyph-name="Thorn" unicode="&#xde;" horiz-adv-x="1139" vert-adv-y="2457" 
d="M183 1430l206.001 0.000976562v-201h80c90 0 161.667 -2.33301 215 -7c99.333 -9.33301 181.333 -37.333 246 -84c107.333 -78.667 161 -190.334 161 -335.001c0 -106 -31 -196.667 -93 -272c-68.667 -84 -171.334 -134 -308.001 -150c-52 -6 -114 -9 -186 -9h-115v-372
h-206v1430zM389.001 1056v-510.001h111c120 0 204.667 14 254 42c45.333 24.667 78.666 61.334 99.999 110.001c14 32.667 21 67.667 21 105c0 70 -24 127 -72 171s-116 69.333 -204 76c-45.333 4 -86.666 6 -123.999 6h-86z" />
    <glyph glyph-name="germandbls" unicode="&#xdf;" horiz-adv-x="1251" vert-adv-y="2457" 
d="M159 1l0.000976562 849c0 128 2.33301 215.333 7 262c14.667 142 61.667 250.333 141 325c85.333 80 196.666 120 333.999 120c134.667 0 242.667 -41.667 324 -125c73.333 -74.667 110 -170 110 -286c0 -94 -31 -173.667 -93 -239c-38.667 -40.667 -89 -71 -151 -91
c68.667 -2.66699 131.667 -28.667 189 -78c86 -73.333 129 -177.333 129 -312c0 -126.667 -41 -232 -123 -316c-80.667 -82.667 -196 -124 -346 -124c-48 0 -108 5 -180 15v171c58.667 -21.333 111 -32 157 -32c87.333 0 156.333 26.667 207 80
c52.667 54.667 79 125.334 79 212.001c0 90 -28.667 162.333 -86 217c-58 55.333 -146 83 -264 83h-39v157h34c64 0 118.667 12 164 36c38.667 20 69 52 91 96c17.333 35.333 26 77.666 26 126.999c0 68 -17.667 124.333 -53 169c-45.333 56.667 -106.333 85 -183 85
c-69.333 0 -129 -24 -179 -72c-50 -49.333 -81 -125 -93 -227c-5.33301 -48.667 -8 -127.667 -8 -237v-865h-194z" />
    <glyph glyph-name="agrave" unicode="&#xe0;" horiz-adv-x="1139" vert-adv-y="2457" 
d="M210 971c110 64 226.998 96 350.998 96c124.667 0 223 -30 295 -90c48.667 -40 81.334 -89.667 98.001 -149c16.667 -58 25 -148 25 -270l-1 -201c0 -140 3.66699 -259 11 -357h-178c-0.666992 22 -1 49.333 -1 82c0 40 0.333008 73 1 99c-78 -130 -195 -195 -351 -195
c-106 0 -191.667 25.667 -257 77c-72 58 -108 137.333 -108 238c0 130.667 67 226 201 286c86.667 38.667 203 58 349 58c38.667 0 87.334 -1.66699 146.001 -5c-1.33301 71.333 -15.333 127.333 -42 168c-41.333 62 -115.333 93 -222 93c-104.667 0 -207 -33.667 -307 -101
zM793.998 495c-5.33301 1.33301 -10.666 2 -15.999 2c-26.667 3.33301 -56.334 5 -89.001 5c-258.667 0 -388 -66 -388 -198c0 -58 25.333 -102 76 -132c35.333 -21.333 77.333 -32 126 -32c74.667 0 138.334 21.667 191.001 65c53.333 44 84.666 102.333 93.999 175
c3.33301 25.333 5.33301 53 6 83v32zM305.998 1518h215l175 -293h-137z" />
    <glyph glyph-name="aacute" unicode="&#xe1;" horiz-adv-x="1139" vert-adv-y="2457" 
d="M210 971c110 64 226.998 96 350.998 96c124.667 0 223 -30 295 -90c48.667 -40 81.334 -89.667 98.001 -149c16.667 -58 25 -148 25 -270l-1 -201c0 -140 3.66699 -259 11 -357h-178c-0.666992 22 -1 49.333 -1 82c0 40 0.333008 73 1 99c-78 -130 -195 -195 -351 -195
c-106 0 -191.667 25.667 -257 77c-72 58 -108 137.333 -108 238c0 130.667 67 226 201 286c86.667 38.667 203 58 349 58c38.667 0 87.334 -1.66699 146.001 -5c-1.33301 71.333 -15.333 127.333 -42 168c-41.333 62 -115.333 93 -222 93c-104.667 0 -207 -33.667 -307 -101
zM793.998 495c-5.33301 1.33301 -10.666 2 -15.999 2c-26.667 3.33301 -56.334 5 -89.001 5c-258.667 0 -388 -66 -388 -198c0 -58 25.333 -102 76 -132c35.333 -21.333 77.333 -32 126 -32c74.667 0 138.334 21.667 191.001 65c53.333 44 84.666 102.333 93.999 175
c3.33301 25.333 5.33301 53 6 83v32zM852.998 1518l-253 -293h-137l176 293h214z" />
    <glyph glyph-name="acircumflex" unicode="&#xe2;" horiz-adv-x="1139" vert-adv-y="2457" 
d="M210 971c110 64 226.998 96 350.998 96c124.667 0 223 -30 295 -90c48.667 -40 81.334 -89.667 98.001 -149c16.667 -58 25 -148 25 -270l-1 -201c0 -140 3.66699 -259 11 -357h-178c-0.666992 22 -1 49.333 -1 82c0 40 0.333008 73 1 99c-78 -130 -195 -195 -351 -195
c-106 0 -191.667 25.667 -257 77c-72 58 -108 137.333 -108 238c0 130.667 67 226 201 286c86.667 38.667 203 58 349 58c38.667 0 87.334 -1.66699 146.001 -5c-1.33301 71.333 -15.333 127.333 -42 168c-41.333 62 -115.333 93 -222 93c-104.667 0 -207 -33.667 -307 -101
zM793.998 495c-5.33301 1.33301 -10.666 2 -15.999 2c-26.667 3.33301 -56.334 5 -89.001 5c-258.667 0 -388 -66 -388 -198c0 -58 25.333 -102 76 -132c35.333 -21.333 77.333 -32 126 -32c74.667 0 138.334 21.667 191.001 65c53.333 44 84.666 102.333 93.999 175
c3.33301 25.333 5.33301 53 6 83v32zM893.998 1225h-164l-153 197l-152 -197h-164l221 293h191z" />
    <glyph glyph-name="atilde" unicode="&#xe3;" horiz-adv-x="1139" vert-adv-y="2457" 
d="M210 971c110 64 226.998 96 350.998 96c124.667 0 223 -30 295 -90c48.667 -40 81.334 -89.667 98.001 -149c16.667 -58 25 -148 25 -270l-1 -201c0 -140 3.66699 -259 11 -357h-178c-0.666992 22 -1 49.333 -1 82c0 40 0.333008 73 1 99c-78 -130 -195 -195 -351 -195
c-106 0 -191.667 25.667 -257 77c-72 58 -108 137.333 -108 238c0 130.667 67 226 201 286c86.667 38.667 203 58 349 58c38.667 0 87.334 -1.66699 146.001 -5c-1.33301 71.333 -15.333 127.333 -42 168c-41.333 62 -115.333 93 -222 93c-104.667 0 -207 -33.667 -307 -101
zM793.998 495c-5.33301 1.33301 -10.666 2 -15.999 2c-26.667 3.33301 -56.334 5 -89.001 5c-258.667 0 -388 -66 -388 -198c0 -58 25.333 -102 76 -132c35.333 -21.333 77.333 -32 126 -32c74.667 0 138.334 21.667 191.001 65c53.333 44 84.666 102.333 93.999 175
c3.33301 25.333 5.33301 53 6 83v32zM900.998 1474c-8 -54.667 -24 -101 -48 -139c-33.333 -52 -78.333 -78 -135 -78c-31.333 0 -106.666 25.333 -225.999 76c-14 6 -28.333 9 -43 9c-43.333 0 -70 -29.333 -80 -88h-101c7.33301 50 20.666 91 39.999 123
c37.333 61.333 90 92 158 92c25.333 0 54.666 -6.33301 87.999 -19c8.66699 -3.33301 39.334 -16.333 92.001 -39c35.333 -14.667 60 -22 74 -22c22.667 0 42 9.66699 58 29c10.667 14 18 32.667 22 56h101z" />
    <glyph glyph-name="adieresis" unicode="&#xe4;" horiz-adv-x="1139" vert-adv-y="2457" 
d="M210 971c110 64 226.998 96 350.998 96c124.667 0 223 -30 295 -90c48.667 -40 81.334 -89.667 98.001 -149c16.667 -58 25 -148 25 -270l-1 -201c0 -140 3.66699 -259 11 -357h-178c-0.666992 22 -1 49.333 -1 82c0 40 0.333008 73 1 99c-78 -130 -195 -195 -351 -195
c-106 0 -191.667 25.667 -257 77c-72 58 -108 137.333 -108 238c0 130.667 67 226 201 286c86.667 38.667 203 58 349 58c38.667 0 87.334 -1.66699 146.001 -5c-1.33301 71.333 -15.333 127.333 -42 168c-41.333 62 -115.333 93 -222 93c-104.667 0 -207 -33.667 -307 -101
zM793.998 495c-5.33301 1.33301 -10.666 2 -15.999 2c-26.667 3.33301 -56.334 5 -89.001 5c-258.667 0 -388 -66 -388 -198c0 -58 25.333 -102 76 -132c35.333 -21.333 77.333 -32 126 -32c74.667 0 138.334 21.667 191.001 65c53.333 44 84.666 102.333 93.999 175
c3.33301 25.333 5.33301 53 6 83v32zM483.998 1467v-207h-187v207h187zM871.998 1467v-207h-187v207h187z" />
    <glyph glyph-name="aring" unicode="&#xe5;" horiz-adv-x="1139" vert-adv-y="2457" 
d="M210 971c110 64 226.998 96 350.998 96c124.667 0 223 -30 295 -90c48.667 -40 81.334 -89.667 98.001 -149c16.667 -58 25 -148 25 -270l-1 -201c0 -140 3.66699 -259 11 -357h-178c-0.666992 22 -1 49.333 -1 82c0 40 0.333008 73 1 99c-78 -130 -195 -195 -351 -195
c-106 0 -191.667 25.667 -257 77c-72 58 -108 137.333 -108 238c0 130.667 67 226 201 286c86.667 38.667 203 58 349 58c38.667 0 87.334 -1.66699 146.001 -5c-1.33301 71.333 -15.333 127.333 -42 168c-41.333 62 -115.333 93 -222 93c-104.667 0 -207 -33.667 -307 -101
zM793.998 495c-5.33301 1.33301 -10.666 2 -15.999 2c-26.667 3.33301 -56.334 5 -89.001 5c-258.667 0 -388 -66 -388 -198c0 -58 25.333 -102 76 -132c35.333 -21.333 77.333 -32 126 -32c74.667 0 138.334 21.667 191.001 65c53.333 44 84.666 102.333 93.999 175
c3.33301 25.333 5.33301 53 6 83v32zM586.998 1587c58.667 0 109.333 -23.001 152 -69.001c35.333 -39.333 53 -85.666 53 -138.999c0 -62 -23 -113.667 -69 -155c-39.333 -35.333 -85.666 -53 -138.999 -53c-62 0 -113.667 23 -155 69c-35.333 39.333 -53 86 -53 140
c0 60 23 111 69 153c39.333 36 86.666 54 141.999 54zM585.997 1481c-31.333 0 -57.333 -11.333 -78 -34c-17.333 -18.667 -26 -41 -26 -67c0 -31.333 11 -57 33 -77c19.333 -17.333 42.333 -26 69 -26c30.667 0 56 11 76 33c17.333 19.333 26 42.333 26 69
c0 30 -11.333 55.333 -34 76c-19.333 17.333 -41.333 26 -66 26z" />
    <glyph glyph-name="ae" unicode="&#xe6;" horiz-adv-x="1821" vert-adv-y="2457" 
d="M1740 482l-741.999 0.000976562c4.66699 -81.333 25.667 -149 63 -203c31.333 -44.667 73.666 -79 126.999 -103c52.667 -23.333 109 -35 169 -35c88 0 180.333 29 277 87v-189c-90.667 -35.333 -193.667 -53 -309 -53c-132 0 -240.333 28.333 -325 85
c-46 31.333 -79.333 63.666 -100 96.999c-8.66699 14 -15.667 34 -21 60c-12 -54.667 -42.667 -103 -92 -145c-77.333 -64.667 -180.666 -97 -309.999 -97c-104 0 -189.667 22 -257 66c-90.667 60 -136 144.667 -136 254c0 124 62.333 217.333 187 280
c86 43.333 218.333 65 397 65l105 -2h38c-2.66699 65.333 -16.334 115.333 -41.001 150c-26 36.667 -65.667 64.334 -119 83.001c-42 14.667 -87 22 -135 22c-107.333 0 -210 -33.333 -308 -100v177c114 59.333 230 89 348 89c112.667 0 205.334 -28 278.001 -84
c37.333 -28 63.333 -60 78 -96c22 46 58 84.333 108 115c70 43.333 154 65 252 65c123.333 0 226.666 -37.333 309.999 -112c74 -66.667 122 -161.334 144 -284.001c8 -45.333 12.667 -109.333 14 -192zM1526 635.001c-5.33301 69.333 -20.667 125.667 -46 169
c-48 82 -118.333 123 -211 123c-56.667 0 -108 -17.333 -154 -52c-68 -51.333 -107.333 -131.333 -118 -240h529zM811 496.002l-42.001 0.000976562l-83 1c-117.333 0 -203 -10 -257 -30c-92.667 -34 -139 -88.333 -139 -163c0 -54.667 23.333 -97.334 70 -128.001
c36 -23.333 80 -35 132 -35c122.667 0 214.334 57.333 275.001 172c29.333 56 44 117 44 183z" />
    <glyph glyph-name="ccedilla" unicode="&#xe7;" horiz-adv-x="909" vert-adv-y="2457" 
d="M582 -12l-62 -102.001c36 6.66699 62 10 78 10c44 0 80 -11 108 -33c36.667 -28.667 55 -66.667 55 -114c0 -40.667 -17.667 -78 -53 -112c-45.333 -43.333 -107.666 -65 -186.999 -65c-68 0 -134 14.333 -198 43l37 72c44.667 -18.667 91 -28 139 -28
c44.667 0 76.667 12.333 96 37c10.667 12.667 16 26.334 16 41.001c0 19.333 -7.33301 36 -22 50c-20.667 20 -46 30 -76 30c-14 0 -39.667 -5.33301 -77 -16l-33 35l98 161c-78 12 -149 41 -213 87c-137.333 98 -206 244.333 -206 439c0 148 43 270 129 366
c53.333 59.333 120 104.333 200 135c64 24.667 129.333 37 196 37c84 0 163.333 -14 238 -42l-12 -172c-56 32 -119.667 48 -191 48c-108.667 0 -196.667 -37.333 -264 -112c-60 -66 -90 -150 -90 -252c0 -113.333 33 -205 99 -275c64 -68.667 147.333 -103 250 -103
c74.667 0 147.667 21.667 219 65l16 -177c-74 -36 -158 -54 -252 -54c-8.66699 0 -21.334 0.333008 -38.001 1z" />
    <glyph glyph-name="egrave" unicode="&#xe8;" horiz-adv-x="1139" vert-adv-y="2457" 
d="M289 473c8.66699 -74.667 31.334 -139.332 68.001 -193.999c64.667 -94.667 159 -142 283 -142c110 0 218.667 32.667 326 98v-186c-113.333 -52 -225.333 -78 -336 -78c-172.667 0 -308.334 57 -407.001 171c-86 99.333 -129 230 -129 392
c0 155.333 41 281.666 123 378.999c92.667 109.333 216.334 164 371.001 164c147.333 0 260.666 -51 339.999 -153c58 -74.667 94.333 -171 109 -289c4.66699 -42 7 -96 7 -162h-755zM291 626.002h558.001c-9.33301 80 -27 140 -53 180
c-50.667 77.333 -122.334 116 -215.001 116c-106 0 -187 -49.333 -243 -148c-23.333 -40.667 -39 -90 -47 -148zM320.001 1518h215l175 -293h-137z" />
    <glyph glyph-name="eacute" unicode="&#xe9;" horiz-adv-x="1139" vert-adv-y="2457" 
d="M289 473c8.66699 -74.667 31.334 -139.332 68.001 -193.999c64.667 -94.667 159 -142 283 -142c110 0 218.667 32.667 326 98v-186c-113.333 -52 -225.333 -78 -336 -78c-172.667 0 -308.334 57 -407.001 171c-86 99.333 -129 230 -129 392
c0 155.333 41 281.666 123 378.999c92.667 109.333 216.334 164 371.001 164c147.333 0 260.666 -51 339.999 -153c58 -74.667 94.333 -171 109 -289c4.66699 -42 7 -96 7 -162h-755zM291 626.002h558.001c-9.33301 80 -27 140 -53 180
c-50.667 77.333 -122.334 116 -215.001 116c-106 0 -187 -49.333 -243 -148c-23.333 -40.667 -39 -90 -47 -148zM875.001 1518l-253 -293h-137l176 293h214z" />
    <glyph glyph-name="ecircumflex" unicode="&#xea;" horiz-adv-x="1139" vert-adv-y="2457" 
d="M289 473c8.66699 -74.667 31.334 -139.332 68.001 -193.999c64.667 -94.667 159 -142 283 -142c110 0 218.667 32.667 326 98v-186c-113.333 -52 -225.333 -78 -336 -78c-172.667 0 -308.334 57 -407.001 171c-86 99.333 -129 230 -129 392
c0 155.333 41 281.666 123 378.999c92.667 109.333 216.334 164 371.001 164c147.333 0 260.666 -51 339.999 -153c58 -74.667 94.333 -171 109 -289c4.66699 -42 7 -96 7 -162h-755zM291 626.002h558.001c-9.33301 80 -27 140 -53 180
c-50.667 77.333 -122.334 116 -215.001 116c-106 0 -187 -49.333 -243 -148c-23.333 -40.667 -39 -90 -47 -148zM914.001 1225h-164l-153 197l-152 -197h-164l221 293h191z" />
    <glyph glyph-name="edieresis" unicode="&#xeb;" horiz-adv-x="1139" vert-adv-y="2457" 
d="M289 473c8.66699 -74.667 31.334 -139.332 68.001 -193.999c64.667 -94.667 159 -142 283 -142c110 0 218.667 32.667 326 98v-186c-113.333 -52 -225.333 -78 -336 -78c-172.667 0 -308.334 57 -407.001 171c-86 99.333 -129 230 -129 392
c0 155.333 41 281.666 123 378.999c92.667 109.333 216.334 164 371.001 164c147.333 0 260.666 -51 339.999 -153c58 -74.667 94.333 -171 109 -289c4.66699 -42 7 -96 7 -162h-755zM291 626.002h558.001c-9.33301 80 -27 140 -53 180
c-50.667 77.333 -122.334 116 -215.001 116c-106 0 -187 -49.333 -243 -148c-23.333 -40.667 -39 -90 -47 -148zM497.001 1467v-207h-187v207h187zM885.001 1467v-207h-187v207h187z" />
    <glyph glyph-name="igrave" unicode="&#xec;" vert-adv-y="2457" 
d="M382 1048v-1048h-194v1048h194zM18 1518h208l161 -293h-137z" />
    <glyph glyph-name="iacute" unicode="&#xed;" vert-adv-y="2457" 
d="M381 1048v-1048h-194v1048h194zM551 1518l-232 -293h-137l161 293h208z" />
    <glyph glyph-name="icircumflex" unicode="&#xee;" vert-adv-y="2457" 
d="M382 1048v-1048h-194v1048h194zM566 1225h-157l-124 204l-124 -204h-157l185 293h191z" />
    <glyph glyph-name="idieresis" unicode="&#xef;" vert-adv-y="2457" 
d="M382 1048v-1048h-194v1048h194zM232 1467v-207h-177v207h177zM515 1467v-207h-177v207h177z" />
    <glyph glyph-name="eth" unicode="&#xf0;" horiz-adv-x="1251" vert-adv-y="2457" 
d="M309 1439l38 117.998c108.667 -6 226 -36.333 352 -91l232 150l79 -95l-201 -130c97.333 -80.667 178.666 -188 243.999 -322c73.333 -152 110 -319.333 110 -502c0 -138.667 -19 -244 -57 -316c-52 -98.667 -127 -172.667 -225 -222c-76 -38.667 -160.667 -58 -254 -58
c-140 0 -258.667 42.667 -356 128c-62 54.667 -109 122.334 -141 203.001c-27.333 68.667 -41 141 -41 217c0 104 24.667 201.667 74 293c48.667 91.333 118 160 208 206c70.667 36 148 54 232 54c80.667 0 145.667 -13.667 195 -41c20.667 -11.333 49.667 -33 87 -65
c-13.333 57.333 -28.333 101.333 -45 132c-49.333 92 -105.666 161 -168.999 207l-233 -150l-66 98l181 118c-45.333 18.667 -86 32.334 -122 41.001c-14 3.33301 -54.667 12.333 -122 27zM626 917.998c-103.333 0 -184.668 -40.667 -244.001 -122
c-56 -76 -84 -168 -84 -276c0 -95.333 20 -175.666 60 -240.999c27.333 -44.667 64 -80.667 110 -108c50.667 -30.667 104.334 -46 161.001 -46c72 0 137.333 23.667 196 71c88.667 71.333 133 175.666 133 312.999c0 120 -27.667 217.333 -83 292c-58 78 -141 117 -249 117
z" />
    <glyph glyph-name="ntilde" unicode="&#xf1;" horiz-adv-x="1251" vert-adv-y="2457" 
d="M343 1048l9.00195 -165.999c30.667 46 66.667 83 108 111c73.333 49.333 157.666 74 252.999 74c107.333 0 195 -30.333 263 -91c72.667 -64.667 113.667 -168.667 123 -312c3.33301 -43.333 5 -102 5 -176v-488h-194v471c0 128.667 -6 214.667 -18 258
c-14.667 56 -41.334 98.667 -80.001 128c-39.333 29.333 -87 44 -143 44c-82 0 -151 -30.667 -207 -92c-53.333 -58.667 -83.333 -137.334 -90 -236.001c-2 -38 -3 -101 -3 -189v-384h-194v518l-1 97l-1 139l-4 135c-2.66699 79.333 -5 132.333 -7 159h181zM928.002 1474
c-8 -54.667 -24 -101 -48 -139c-33.333 -52 -78.333 -78 -135 -78c-31.333 0 -106.666 25.333 -225.999 76c-14 6 -28.333 9 -43 9c-43.333 0 -70 -29.333 -80 -88h-101c7.33301 50 20.666 91 39.999 123c37.333 61.333 90 92 158 92c25.333 0 54.666 -6.33301 87.999 -19
c8.66699 -3.33301 39.334 -16.333 92.001 -39c35.333 -14.667 60 -22 74 -22c22.667 0 42 9.66699 58 29c10.667 14 18 32.667 22 56h101z" />
    <glyph glyph-name="ograve" unicode="&#xf2;" horiz-adv-x="1251" vert-adv-y="2457" 
d="M623 1075c110 0 209.667 -27.668 299 -83.001c88 -54.667 152.667 -132 194 -232c31.333 -74 47 -156 47 -246c0 -93.333 -20.333 -180.666 -61 -261.999c-50 -98.667 -124.333 -172.667 -223 -222c-78 -39.333 -163.333 -59 -256 -59c-138 0 -255.667 43 -353 129
c-120.667 105.333 -181 245.333 -181 420c0 106 23.667 203.333 71 292c47.333 88 117.333 156 210 204c76.667 39.333 161 59 253 59zM626 920.999c-101.333 0 -184.001 -41.999 -248.001 -125.999c-55.333 -73.333 -83 -164.333 -83 -273
c0 -93.333 20.667 -174.333 62 -243c28 -46.667 64.333 -83.334 109 -110.001c48.667 -29.333 102.334 -44 161.001 -44c106.667 0 191 44.333 253 133c51.333 74 77 159.333 77 256c0 114 -29 208.667 -87 284c-62.667 82 -144 123 -244 123zM355.999 1518h215l175 -293
h-137z" />
    <glyph glyph-name="oacute" unicode="&#xf3;" horiz-adv-x="1251" vert-adv-y="2457" 
d="M623 1075c110 0 209.667 -27.668 299 -83.001c88 -54.667 152.667 -132 194 -232c31.333 -74 47 -156 47 -246c0 -93.333 -20.333 -180.666 -61 -261.999c-50 -98.667 -124.333 -172.667 -223 -222c-78 -39.333 -163.333 -59 -256 -59c-138 0 -255.667 43 -353 129
c-120.667 105.333 -181 245.333 -181 420c0 106 23.667 203.333 71 292c47.333 88 117.333 156 210 204c76.667 39.333 161 59 253 59zM626 920.999c-101.333 0 -184.001 -41.999 -248.001 -125.999c-55.333 -73.333 -83 -164.333 -83 -273
c0 -93.333 20.667 -174.333 62 -243c28 -46.667 64.333 -83.334 109 -110.001c48.667 -29.333 102.334 -44 161.001 -44c106.667 0 191 44.333 253 133c51.333 74 77 159.333 77 256c0 114 -29 208.667 -87 284c-62.667 82 -144 123 -244 123zM902.999 1518l-253 -293h-137
l176 293h214z" />
    <glyph glyph-name="ocircumflex" unicode="&#xf4;" horiz-adv-x="1251" vert-adv-y="2457" 
d="M623 1075c110 0 209.667 -27.668 299 -83.001c88 -54.667 152.667 -132 194 -232c31.333 -74 47 -156 47 -246c0 -93.333 -20.333 -180.666 -61 -261.999c-50 -98.667 -124.333 -172.667 -223 -222c-78 -39.333 -163.333 -59 -256 -59c-138 0 -255.667 43 -353 129
c-120.667 105.333 -181 245.333 -181 420c0 106 23.667 203.333 71 292c47.333 88 117.333 156 210 204c76.667 39.333 161 59 253 59zM626 920.999c-101.333 0 -184.001 -41.999 -248.001 -125.999c-55.333 -73.333 -83 -164.333 -83 -273
c0 -93.333 20.667 -174.333 62 -243c28 -46.667 64.333 -83.334 109 -110.001c48.667 -29.333 102.334 -44 161.001 -44c106.667 0 191 44.333 253 133c51.333 74 77 159.333 77 256c0 114 -29 208.667 -87 284c-62.667 82 -144 123 -244 123zM948.999 1225h-164l-153 197
l-152 -197h-164l221 293h191z" />
    <glyph glyph-name="otilde" unicode="&#xf5;" horiz-adv-x="1251" vert-adv-y="2457" 
d="M623 1075c110 0 209.667 -27.668 299 -83.001c88 -54.667 152.667 -132 194 -232c31.333 -74 47 -156 47 -246c0 -93.333 -20.333 -180.666 -61 -261.999c-50 -98.667 -124.333 -172.667 -223 -222c-78 -39.333 -163.333 -59 -256 -59c-138 0 -255.667 43 -353 129
c-120.667 105.333 -181 245.333 -181 420c0 106 23.667 203.333 71 292c47.333 88 117.333 156 210 204c76.667 39.333 161 59 253 59zM626 920.999c-101.333 0 -184.001 -41.999 -248.001 -125.999c-55.333 -73.333 -83 -164.333 -83 -273
c0 -93.333 20.667 -174.333 62 -243c28 -46.667 64.333 -83.334 109 -110.001c48.667 -29.333 102.334 -44 161.001 -44c106.667 0 191 44.333 253 133c51.333 74 77 159.333 77 256c0 114 -29 208.667 -87 284c-62.667 82 -144 123 -244 123zM956.999 1474
c-8 -54.667 -24 -101 -48 -139c-33.333 -52 -78.333 -78 -135 -78c-31.333 0 -106.666 25.333 -225.999 76c-14 6 -28.333 9 -43 9c-43.333 0 -70 -29.333 -80 -88h-101c7.33301 50 20.666 91 39.999 123c37.333 61.333 90 92 158 92c25.333 0 54.666 -6.33301 87.999 -19
c8.66699 -3.33301 39.334 -16.333 92.001 -39c35.333 -14.667 60 -22 74 -22c22.667 0 42 9.66699 58 29c10.667 14 18 32.667 22 56h101z" />
    <glyph glyph-name="odieresis" unicode="&#xf6;" horiz-adv-x="1251" vert-adv-y="2457" 
d="M623 1075c110 0 209.667 -27.668 299 -83.001c88 -54.667 152.667 -132 194 -232c31.333 -74 47 -156 47 -246c0 -93.333 -20.333 -180.666 -61 -261.999c-50 -98.667 -124.333 -172.667 -223 -222c-78 -39.333 -163.333 -59 -256 -59c-138 0 -255.667 43 -353 129
c-120.667 105.333 -181 245.333 -181 420c0 106 23.667 203.333 71 292c47.333 88 117.333 156 210 204c76.667 39.333 161 59 253 59zM626 920.999c-101.333 0 -184.001 -41.999 -248.001 -125.999c-55.333 -73.333 -83 -164.333 -83 -273
c0 -93.333 20.667 -174.333 62 -243c28 -46.667 64.333 -83.334 109 -110.001c48.667 -29.333 102.334 -44 161.001 -44c106.667 0 191 44.333 253 133c51.333 74 77 159.333 77 256c0 114 -29 208.667 -87 284c-62.667 82 -144 123 -244 123zM532.999 1467v-207h-187v207
h187zM920.999 1467v-207h-187v207h187z" />
    <glyph glyph-name="divide" unicode="&#xf7;" horiz-adv-x="1229" vert-adv-y="2457" 
d="M121 651v157h986v-157h-986zM512 1155h204v-204h-204v204zM512 508h204v-204h-204v204z" />
    <glyph glyph-name="oslash" unicode="&#xf8;" horiz-adv-x="1251" vert-adv-y="2457" 
d="M1061 1109l99 -84.999l-121 -134c82.667 -101.333 124 -225.333 124 -372c0 -158 -49.667 -288 -149 -390c-101.333 -104.667 -232 -157 -392 -157c-112 0 -217.667 33.333 -317 100l-115 -131l-98 89l118 132c-80.667 100.667 -121 221 -121 361
c0 154 46 282.333 138 385c50 55.333 111.333 97.666 184 126.999c66 27.333 136.333 41 211 41c120 0 227 -32.333 321 -97zM431 201.001c16 -16 27.667 -26.667 35 -32c40.667 -29.333 94.667 -44 162 -44c106.667 0 190.667 44.333 252 133c52 75.333 78 163 78 263
c0 84 -18 160 -54 228zM817 851.001c-44 46.667 -107.666 70 -190.999 70c-102.667 0 -185.334 -42 -248.001 -126c-55.333 -74.667 -83 -166 -83 -274c0 -71.333 16.333 -145 49 -221z" />
    <glyph glyph-name="ugrave" unicode="&#xf9;" horiz-adv-x="1251" vert-adv-y="2457" 
d="M1071 1048l-0.000976562 -661c0 -100.667 4.66699 -229.667 14 -387h-179l-9 163c-85.333 -118 -203.666 -177 -354.999 -177c-104.667 0 -190 28.333 -256 85c-66 56 -105.667 133 -119 231c-8 61.333 -12 125 -12 191v555h194v-487c0 -138 9.33301 -231 28 -279
c36 -94.667 104.333 -142 205 -142c72 0 134.333 24.667 187 74c54.667 52 88.667 122.333 102 211c4 26.667 6 81 6 163v460h194zM340.999 1518h215l175 -293h-137z" />
    <glyph glyph-name="uacute" unicode="&#xfa;" horiz-adv-x="1251" vert-adv-y="2457" 
d="M1071 1048l-0.000976562 -661c0 -100.667 4.66699 -229.667 14 -387h-179l-9 163c-85.333 -118 -203.666 -177 -354.999 -177c-104.667 0 -190 28.333 -256 85c-66 56 -105.667 133 -119 231c-8 61.333 -12 125 -12 191v555h194v-487c0 -138 9.33301 -231 28 -279
c36 -94.667 104.333 -142 205 -142c72 0 134.333 24.667 187 74c54.667 52 88.667 122.333 102 211c4 26.667 6 81 6 163v460h194zM887.999 1518l-253 -293h-137l176 293h214z" />
    <glyph glyph-name="ucircumflex" unicode="&#xfb;" horiz-adv-x="1251" vert-adv-y="2457" 
d="M1071 1048l-0.000976562 -661c0 -100.667 4.66699 -229.667 14 -387h-179l-9 163c-85.333 -118 -203.666 -177 -354.999 -177c-104.667 0 -190 28.333 -256 85c-66 56 -105.667 133 -119 231c-8 61.333 -12 125 -12 191v555h194v-487c0 -138 9.33301 -231 28 -279
c36 -94.667 104.333 -142 205 -142c72 0 134.333 24.667 187 74c54.667 52 88.667 122.333 102 211c4 26.667 6 81 6 163v460h194zM928.999 1225h-164l-153 197l-152 -197h-164l221 293h191z" />
    <glyph glyph-name="udieresis" unicode="&#xfc;" horiz-adv-x="1251" vert-adv-y="2457" 
d="M1071 1048l-0.000976562 -661c0 -100.667 4.66699 -229.667 14 -387h-179l-9 163c-85.333 -118 -203.666 -177 -354.999 -177c-104.667 0 -190 28.333 -256 85c-66 56 -105.667 133 -119 231c-8 61.333 -12 125 -12 191v555h194v-487c0 -138 9.33301 -231 28 -279
c36 -94.667 104.333 -142 205 -142c72 0 134.333 24.667 187 74c54.667 52 88.667 122.333 102 211c4 26.667 6 81 6 163v460h194zM512.999 1467v-207h-187v207h187zM900.999 1467v-207h-187v207h187z" />
    <glyph glyph-name="yacute" unicode="&#xfd;" horiz-adv-x="1024" vert-adv-y="2457" 
d="M1005 1048l-375.001 -1038c-57.333 -160 -106.666 -267.333 -147.999 -322c-39.333 -51.333 -83 -86.666 -131 -105.999c-43.333 -17.333 -92.666 -26 -147.999 -26c-35.333 0 -75 5.33301 -119 16l11 158c32.667 -13.333 63.334 -20 92.001 -20
c60 0 106.333 19.333 139 58c41.333 49.333 73.666 112.333 96.999 189l-403 1091h210l233 -663c32 -92 50.667 -163.667 56 -215c7.33301 42 22.666 97.667 45.999 167l247 711h193zM781.999 1518l-253 -293h-137l176 293h214z" />
    <glyph glyph-name="thorn" unicode="&#xfe;" horiz-adv-x="1251" vert-adv-y="2457" 
d="M358 1544v-496.001c0 -64 -4 -125.333 -12 -184c87.333 135.333 209.333 203 366 203c104 0 195 -31 273 -93c72 -57.333 122.667 -137.666 152 -240.999c17.333 -60 26 -125 26 -195c0 -140.667 -32.667 -262.334 -98 -365.001
c-79.333 -124.667 -198.666 -187 -357.999 -187c-108.667 0 -198.334 28.667 -269.001 86c-32.667 26 -63 65.333 -91 118l3 -35c5.33301 -47.333 8 -102.666 8 -165.999v-428h-193v1983h193zM674 899.999c-109.333 0 -194.001 -48.667 -254.001 -146
c-41.333 -68 -62 -145.667 -62 -233c0 -104 28 -190.667 84 -260c60.667 -74 135.334 -111 224.001 -111c88 0 159.333 38.667 214 116c51.333 72.667 77 158.667 77 258c0 98.667 -21 182 -63 250c-52 84 -125.333 126 -220 126z" />
    <glyph glyph-name="ydieresis" unicode="&#xff;" horiz-adv-x="1024" vert-adv-y="2457" 
d="M1005 1048l-375.001 -1038c-57.333 -160 -106.666 -267.333 -147.999 -322c-39.333 -51.333 -83 -86.666 -131 -105.999c-43.333 -17.333 -92.666 -26 -147.999 -26c-35.333 0 -75 5.33301 -119 16l11 158c32.667 -13.333 63.334 -20 92.001 -20
c60 0 106.333 19.333 139 58c41.333 49.333 73.666 112.333 96.999 189l-403 1091h210l233 -663c32 -92 50.667 -163.667 56 -215c7.33301 42 22.666 97.667 45.999 167l247 711h193zM415.999 1467v-207h-187v207h187zM803.999 1467v-207h-187v207h187z" />
    <glyph glyph-name="Amacron" unicode="&#x100;" horiz-adv-x="1479" vert-adv-y="2457" 
d="M840 1430l621 -1430h-230l-151 362h-695l-148 -362h-220l609 1430h214zM1010 536l-166 399.999c-61.333 148 -100 254.333 -116 319c-18 -65.333 -57.667 -173.666 -119 -324.999l-159 -394h560zM1066 1763v-127h-666v127h666z" />
    <glyph glyph-name="amacron" unicode="&#x101;" horiz-adv-x="1139" vert-adv-y="2457" 
d="M210 971c110 64 226.998 96 350.998 96c124.667 0 223 -30 295 -90c48.667 -40 81.334 -89.667 98.001 -149c16.667 -58 25 -148 25 -270l-1 -201c0 -140 3.66699 -259 11 -357h-178c-0.666992 22 -1 49.333 -1 82c0 40 0.333008 73 1 99c-78 -130 -195 -195 -351 -195
c-106 0 -191.667 25.667 -257 77c-72 58 -108 137.333 -108 238c0 130.667 67 226 201 286c86.667 38.667 203 58 349 58c38.667 0 87.334 -1.66699 146.001 -5c-1.33301 71.333 -15.333 127.333 -42 168c-41.333 62 -115.333 93 -222 93c-104.667 0 -207 -33.667 -307 -101
zM793.998 495c-5.33301 1.33301 -10.666 2 -15.999 2c-26.667 3.33301 -56.334 5 -89.001 5c-258.667 0 -388 -66 -388 -198c0 -58 25.333 -102 76 -132c35.333 -21.333 77.333 -32 126 -32c74.667 0 138.334 21.667 191.001 65c53.333 44 84.666 102.333 93.999 175
c3.33301 25.333 5.33301 53 6 83v32zM887.998 1420v-123h-609v123h609z" />
    <glyph glyph-name="Abreve" unicode="&#x102;" horiz-adv-x="1479" vert-adv-y="2457" 
d="M840 1430l621 -1430h-230l-151 362h-695l-148 -362h-220l609 1430h214zM1010 536l-166 399.999c-61.333 148 -100 254.333 -116 319c-18 -65.333 -57.667 -173.666 -119 -324.999l-159 -394h560zM1039 1850c-2 -69.333 -23.334 -130.333 -64.001 -183
c-52.667 -66.667 -131 -100 -235 -100c-112.667 0 -195.667 39.333 -249 118c-32 47.333 -49.333 102.333 -52 165h124c2.66699 -38.667 18 -72.667 46 -102c31.333 -33.333 75.333 -50 132 -50c58.667 0 104.334 19.333 137.001 58c20 24.667 32.667 56 38 94h123z" />
    <glyph glyph-name="abreve" unicode="&#x103;" horiz-adv-x="1139" vert-adv-y="2457" 
d="M210 971c110 64 226.998 96 350.998 96c124.667 0 223 -30 295 -90c48.667 -40 81.334 -89.667 98.001 -149c16.667 -58 25 -148 25 -270l-1 -201c0 -140 3.66699 -259 11 -357h-178c-0.666992 22 -1 49.333 -1 82c0 40 0.333008 73 1 99c-78 -130 -195 -195 -351 -195
c-106 0 -191.667 25.667 -257 77c-72 58 -108 137.333 -108 238c0 130.667 67 226 201 286c86.667 38.667 203 58 349 58c38.667 0 87.334 -1.66699 146.001 -5c-1.33301 71.333 -15.333 127.333 -42 168c-41.333 62 -115.333 93 -222 93c-104.667 0 -207 -33.667 -307 -101
zM793.998 495c-5.33301 1.33301 -10.666 2 -15.999 2c-26.667 3.33301 -56.334 5 -89.001 5c-258.667 0 -388 -66 -388 -198c0 -58 25.333 -102 76 -132c35.333 -21.333 77.333 -32 126 -32c74.667 0 138.334 21.667 191.001 65c53.333 44 84.666 102.333 93.999 175
c3.33301 25.333 5.33301 53 6 83v32zM868.998 1518c-2.66699 -62 -18 -116.001 -46 -162.001c-23.333 -38.667 -55.333 -69 -96 -91c-45.333 -24 -95.666 -36 -150.999 -36c-74.667 0 -137.667 20.667 -189 62c-65.333 53.333 -99.333 129 -102 227h112
c5.33301 -38.667 18 -69.667 38 -93c37.333 -44.667 84.666 -67 141.999 -67c68.667 0 120.667 28.667 156 86c12 18.667 20 43.334 24 74.001h112z" />
    <glyph glyph-name="Aogonek" unicode="&#x104;" horiz-adv-x="1479" vert-adv-y="2457" 
d="M1454 0c-88.667 -66.667 -133.002 -128.666 -133.002 -185.999c0 -32 12.667 -57 38 -75c19.333 -13.333 40.333 -20 63 -20c19.333 0 42.333 4 69 12v-94c-36 -18 -73.333 -27 -112 -27c-36.667 0 -71 7.33301 -103 22c-29.333 13.333 -53.666 34 -72.999 62
c-20.667 29.333 -31 60.666 -31 93.999c0 56 34.667 112.667 104 170c14.667 12 37.334 26 68.001 42h-113l-151 362h-695l-148 -362h-220l609 1430h214l621 -1430h-7zM1009 536.001l-165 399.999c-61.333 148 -100 254.333 -116 319
c-18 -65.333 -57.667 -173.666 -119 -324.999l-159 -394h559z" />
    <glyph glyph-name="aogonek" unicode="&#x105;" horiz-adv-x="1139" vert-adv-y="2457" 
d="M979 0c-89.333 -67.333 -134.003 -127.998 -134.003 -181.998c0 -28.667 13 -52.334 39 -71.001c16 -12.667 35 -19 57 -19c20.667 0 44.334 3.66699 71.001 11v-89c-34 -17.333 -74.667 -26 -122 -26c-54 0 -99.667 17.333 -137 52c-35.333 33.333 -53 72 -53 116
c0 77.333 56.333 146.666 169 207.999h-58c-0.666992 18.667 -1 30.667 -1 36v46c0 48.667 0.333008 81.667 1 99c-78 -130 -195.333 -195 -352 -195c-106 0 -191.333 25.667 -256 77c-72 58 -108 137.333 -108 238c0 130.667 66.667 226 200 286
c87.333 38.667 204 58 350 58c38.667 0 87.334 -1.66699 146.001 -5c-1.33301 71.333 -15.333 127.333 -42 168c-41.333 62 -115.333 93 -222 93c-105.333 0 -207.666 -33.667 -306.999 -101l-11 171c110 64 227 96 351 96c163.333 0 280.333 -50 351 -150
c42.667 -60 65 -151.333 67 -274v-141v-145c0 -142.667 3.33301 -261.667 10 -357h-9zM793.997 495.002c-5.33301 1.33301 -10.999 2 -16.999 2c-26.667 3.33301 -56.334 5 -89.001 5c-258 0 -387 -66 -387 -198c0 -58 25.333 -102 76 -132
c34.667 -21.333 76.334 -32 125.001 -32c75.333 0 139.333 21.667 192 65c53.333 44 84.666 102.333 93.999 175c3.33301 25.333 5 53 5 83z" />
    <glyph glyph-name="Cacute" unicode="&#x106;" horiz-adv-x="1251" vert-adv-y="2457" 
d="M1179 1377l-18.001 -194.002c-98 56 -197 84 -297 84c-110.667 0 -211 -27 -301 -81c-97.333 -58 -166 -140.667 -206 -248c-24 -63.333 -36 -133.333 -36 -210c0 -177.333 61.667 -318.666 185 -423.999c102.667 -87.333 225 -131 367 -131c94 0 196 21 306 63l14 -198
c-97.333 -32 -202.333 -48 -315 -48c-210 0 -379.667 50 -509 150c-99.333 76.667 -170.666 172.334 -213.999 287.001c-35.333 93.333 -53 192 -53 296c0 190 57 349 171 477c73.333 82.667 166.333 145 279 187c94 35.333 194.667 53 302 53c124 0 232.333 -21 325 -63z
M883.999 1850h237l-276 -279h-148z" />
    <glyph glyph-name="cacute" unicode="&#x107;" horiz-adv-x="909" vert-adv-y="2457" 
d="M845 1019l-12 -172c-56 32 -119.667 48 -191 48c-108.667 0 -196.667 -37.333 -264 -112c-60 -66 -90 -150 -90 -252c0 -113.333 33 -205 99 -275c64 -68.667 147.333 -103 250 -103c74.667 0 147.667 21.667 219 65l16 -177c-74 -36 -160 -54 -258 -54
c-154.667 0 -280.667 46.667 -378 140c-102.667 98.667 -154 230.667 -154 396c0 148 43 270 129 366c53.333 59.333 120 104.333 200 135c64 24.667 129.333 37 196 37c84 0 163.333 -14 238 -42zM870 1518l-253 -293h-137l176 293h214z" />
    <glyph glyph-name="Ccaron" unicode="&#x10c;" horiz-adv-x="1251" vert-adv-y="2457" 
d="M1179 1377l-18.001 -194.002c-98 56 -197 84 -297 84c-110.667 0 -211 -27 -301 -81c-97.333 -58 -166 -140.667 -206 -248c-24 -63.333 -36 -133.333 -36 -210c0 -177.333 61.667 -318.666 185 -423.999c102.667 -87.333 225 -131 367 -131c94 0 196 21 306 63l14 -198
c-97.333 -32 -202.333 -48 -315 -48c-210 0 -379.667 50 -509 150c-99.333 76.667 -170.666 172.334 -213.999 287.001c-35.333 93.333 -53 192 -53 296c0 190 57 349 171 477c73.333 82.667 166.333 145 279 187c94 35.333 194.667 53 302 53c124 0 232.333 -21 325 -63z
M719.999 1571l-235 279h179l154 -177l154 177h179l-235 -279h-196z" />
    <glyph glyph-name="ccaron" unicode="&#x10d;" horiz-adv-x="909" vert-adv-y="2457" 
d="M845 1019l-12 -172c-56 32 -119.667 48 -191 48c-108.667 0 -196.667 -37.333 -264 -112c-60 -66 -90 -150 -90 -252c0 -113.333 33 -205 99 -275c64 -68.667 147.333 -103 250 -103c74.667 0 147.667 21.667 219 65l16 -177c-74 -36 -160 -54 -258 -54
c-154.667 0 -280.667 46.667 -378 140c-102.667 98.667 -154 230.667 -154 396c0 148 43 270 129 366c53.333 59.333 120 104.333 200 135c64 24.667 129.333 37 196 37c84 0 163.333 -14 238 -42zM914 1518l-221 -293h-191l-221 293h164l152 -197l153 197h164z" />
    <glyph glyph-name="Dcaron" unicode="&#x10e;" horiz-adv-x="1479" vert-adv-y="2457" 
d="M169 1430l295.002 -0.00195312c169.333 0 296.333 -11.333 381 -34c104.667 -28 197.667 -78.333 279 -151c157.333 -139.333 236 -317.666 236 -534.999c0 -219.333 -80 -396.666 -240 -531.999c-102.667 -86.667 -228.334 -141 -377.001 -163
c-66.667 -10 -149.334 -15 -248.001 -15h-326v1430zM372.002 1256l-0.000976562 -1082h106c96 0 171.667 4.33301 227 13c123.333 18.667 223.333 70 300 154c90.667 98.667 136 223.667 136 375c0 144 -46.667 267 -140 369c-85.333 94 -193.666 148 -324.999 162
c-56 6 -121 9 -195 9h-109zM556.001 1571l-235 279h179l154 -177l154 177h179l-235 -279h-196z" />
    <glyph glyph-name="dcaron" unicode="&#x10f;" horiz-adv-x="1318" vert-adv-y="2457" 
d="M1082 1544l-0.000976562 -1055c0 -152 5 -315 15 -489h-189v176c-81.333 -126.667 -201.666 -190 -360.999 -190c-157.333 0 -277.333 58.667 -360 176c-66 94 -99 213.333 -99 358c0 148.667 36 272.667 108 372c85.333 116.667 202 175 350 175
c150 0 266 -60.667 348 -182c-0.666992 17.333 -1.66699 40 -3 68c-2 36.667 -3 61.667 -3 75v516h194zM596.999 901c-102 0 -182 -45.665 -240 -136.998c-42 -66 -63 -147.333 -63 -244c0 -90.667 19 -167.334 57 -230.001c56 -92 134.667 -138 236 -138
c98.667 0 176.667 41.667 234 125c47.333 69.333 71 151.666 71 246.999c0 96.667 -23.333 178.667 -70 246c-60 87.333 -135 131 -225 131zM1423 1544l-129 -329h-130l86 329h173z" />
    <glyph glyph-name="Dcroat" unicode="&#x110;" horiz-adv-x="1479" vert-adv-y="2457" 
d="M185 1430l294 0.000976562c169.333 0 296 -11.333 380 -34c104.667 -28.667 197.667 -79.334 279 -152.001c92.667 -82.667 159 -182.667 199 -300c26 -74.667 39 -152.667 39 -234c0 -163.333 -49 -307.333 -147 -432c-109.333 -138.667 -257.333 -225 -444 -259
c-71.333 -12.667 -163 -19 -275 -19h-325v657h-143v172h143v601zM387 1254l0.000976562 -425.002h371v-172h-371v-481h106c96 0 172 4.33301 228 13c123.333 18 223.666 69 300.999 153c50 54.667 87 121.334 111 200.001c17.333 56.667 26 114.334 26 173.001
c0 144 -47 267.333 -141 370c-84.667 92 -193.667 145.333 -327 160c-54.667 6 -119.667 9 -195 9h-109z" />
    <glyph glyph-name="dcroat" unicode="&#x111;" horiz-adv-x="1243" vert-adv-y="2457" 
d="M884 1544h194v-176h143v-150h-143v-729c0 -152 5 -315 15 -489h-189v176c-80.667 -126.667 -201 -190 -361 -190c-158.667 0 -278.667 58.667 -360 176c-66.667 96 -100 215.333 -100 358c0 146.667 36.333 270.667 109 372c84 116.667 200.333 175 349 175
c150.667 0 267 -60.667 349 -182c-0.666992 17.333 -1.66699 40 -3 68c-2 36.667 -3 61.667 -3 75v190h-315v150h315v176zM592 901c-102 0 -182.001 -45.668 -240.001 -137.001c-42 -67.333 -63 -148.666 -63 -243.999c0 -89.333 19.333 -166 58 -230
c54.667 -92 133.334 -138 236.001 -138c98 0 176 41.667 234 125c47.333 68.667 71 151 71 247c0 96.667 -23.333 178.667 -70 246c-60 87.333 -135.333 131 -226 131z" />
    <glyph glyph-name="Emacron" unicode="&#x112;" horiz-adv-x="1139" vert-adv-y="2457" 
d="M990 1430v-174h-592v-423h550v-174h-550v-485h610v-174h-813v1430h795zM925 1763v-127h-666v127h666z" />
    <glyph glyph-name="emacron" unicode="&#x113;" horiz-adv-x="1139" vert-adv-y="2457" 
d="M289 473c8.66699 -74.667 31.334 -139.332 68.001 -193.999c64.667 -94.667 159 -142 283 -142c110 0 218.667 32.667 326 98v-186c-113.333 -52 -225.333 -78 -336 -78c-172.667 0 -308.334 57 -407.001 171c-86 99.333 -129 230 -129 392
c0 155.333 41 281.666 123 378.999c92.667 109.333 216.334 164 371.001 164c147.333 0 260.666 -51 339.999 -153c58 -74.667 94.333 -171 109 -289c4.66699 -42 7 -96 7 -162h-755zM291 626.002h558.001c-9.33301 80 -27 140 -53 180
c-50.667 77.333 -122.334 116 -215.001 116c-106 0 -187 -49.333 -243 -148c-23.333 -40.667 -39 -90 -47 -148zM902.001 1420v-123h-609v123h609z" />
    <glyph glyph-name="Edotaccent" unicode="&#x116;" horiz-adv-x="1139" vert-adv-y="2457" 
d="M990 1430v-174h-592v-423h550v-174h-550v-485h610v-174h-813v1430h795zM692 1807v-207h-194v207h194z" />
    <glyph glyph-name="edotaccent" unicode="&#x117;" horiz-adv-x="1139" vert-adv-y="2457" 
d="M289 473c8.66699 -74.667 31.334 -139.332 68.001 -193.999c64.667 -94.667 159 -142 283 -142c110 0 218.667 32.667 326 98v-186c-113.333 -52 -225.333 -78 -336 -78c-172.667 0 -308.334 57 -407.001 171c-86 99.333 -129 230 -129 392
c0 155.333 41 281.666 123 378.999c92.667 109.333 216.334 164 371.001 164c147.333 0 260.666 -51 339.999 -153c58 -74.667 94.333 -171 109 -289c4.66699 -42 7 -96 7 -162h-755zM291 626.002h558.001c-9.33301 80 -27 140 -53 180
c-50.667 77.333 -122.334 116 -215.001 116c-106 0 -187 -49.333 -243 -148c-23.333 -40.667 -39 -90 -47 -148zM691.001 1467v-207h-187v207h187z" />
    <glyph glyph-name="Eogonek" unicode="&#x118;" horiz-adv-x="1139" vert-adv-y="2457" 
d="M995 0c-2.66699 -2 -10.667 -8.33105 -24 -18.998c-73.333 -54.667 -110 -110.334 -110 -167.001c0 -31.333 13 -56.333 39 -75c19.333 -13.333 40 -20 62 -20c19.333 0 42.666 4 69.999 12v-94c-36.667 -18 -74.334 -27 -113.001 -27c-36 0 -70.333 7.33301 -103 22
c-29.333 13.333 -53.666 34 -72.999 62c-20 29.333 -30 60.666 -30 93.999c0 56 34.333 112.667 103 170c14.667 12.667 37.334 26.667 68.001 42h-689v1430h795v-174h-592v-423h550v-174h-550v-485h610v-174h-13z" />
    <glyph glyph-name="eogonek" unicode="&#x119;" horiz-adv-x="1139" vert-adv-y="2457" 
d="M860 7c-98 -64.667 -147 -127.664 -147 -188.997c0 -28.667 13 -52.334 39 -71.001c16.667 -12.667 35.667 -19 57 -19c20.667 0 44.334 3.66699 71.001 11v-89c-34 -17.333 -74.667 -26 -122 -26c-54 0 -99.667 17.333 -137 52c-35.333 33.333 -53 72 -53 116
c0 65.333 41.667 126 125 182c-24.667 -2 -45.334 -3 -62.001 -3c-172.667 0 -308.667 57 -408 171c-86 99.333 -129 230 -129 392c0 155.333 41 281.666 123 378.999c92.667 109.333 216.334 164 371.001 164c147.333 0 260.666 -51 339.999 -153
c58 -74.667 94.333 -171 109 -289c4.66699 -42 7 -96 7 -162h-755c8.66699 -74.667 31.667 -139.334 69 -194.001c64 -94.667 158 -142 282 -142c110 0 218.667 32.667 326 98v-186c-42 -18.667 -77.333 -32.667 -106 -42zM292 626.003h558c-10 80 -28 140 -54 180
c-50 77.333 -121.667 116 -215 116c-105.333 0 -186 -49.333 -242 -148c-24 -40.667 -39.667 -90 -47 -148z" />
    <glyph glyph-name="Ecaron" unicode="&#x11a;" horiz-adv-x="1139" vert-adv-y="2457" 
d="M990 1430v-174h-592v-423h550v-174h-550v-485h610v-174h-813v1430h795zM504 1571l-235 279h179l154 -177l154 177h179l-235 -279h-196z" />
    <glyph glyph-name="ecaron" unicode="&#x11b;" horiz-adv-x="1139" vert-adv-y="2457" 
d="M289 473c8.66699 -74.667 31.334 -139.332 68.001 -193.999c64.667 -94.667 159 -142 283 -142c110 0 218.667 32.667 326 98v-186c-113.333 -52 -225.333 -78 -336 -78c-172.667 0 -308.334 57 -407.001 171c-86 99.333 -129 230 -129 392
c0 155.333 41 281.666 123 378.999c92.667 109.333 216.334 164 371.001 164c147.333 0 260.666 -51 339.999 -153c58 -74.667 94.333 -171 109 -289c4.66699 -42 7 -96 7 -162h-755zM291 626.002h558.001c-9.33301 80 -27 140 -53 180
c-50.667 77.333 -122.334 116 -215.001 116c-106 0 -187 -49.333 -243 -148c-23.333 -40.667 -39 -90 -47 -148zM914.001 1518l-221 -293h-191l-221 293h164l152 -197l153 197h164z" />
    <glyph glyph-name="Gbreve" unicode="&#x11e;" horiz-adv-x="1479" vert-adv-y="2457" 
d="M1277 1371l-12.998 -196.998c-111.333 62 -233 93 -365 93c-180.667 0 -325.334 -57 -434.001 -171c-93.333 -97.333 -140 -221.333 -140 -372c0 -162 47.667 -292.667 143 -392c52.667 -54.667 120.667 -97.334 204 -128.001c76 -27.333 154.667 -41 236 -41
c59.333 0 123.666 10.333 192.999 31v414h-306v174h509v-726c-133.333 -44 -270 -66 -410 -66c-239.333 0 -428.333 63 -567 189c-147.333 134 -221 316.667 -221 548c0 221.333 73 395.666 219 522.999c146 126.667 333 190 561 190c142 0 272.333 -23 391 -69zM1157 1850
c-2 -69.333 -23.334 -130.333 -64.001 -183c-52.667 -66.667 -131 -100 -235 -100c-112.667 0 -195.667 39.333 -249 118c-32 47.333 -49.333 102.333 -52 165h124c2.66699 -38.667 18 -72.667 46 -102c31.333 -33.333 75.333 -50 132 -50
c58.667 0 104.334 19.333 137.001 58c20 24.667 32.667 56 38 94h123z" />
    <glyph glyph-name="gbreve" unicode="&#x11f;" horiz-adv-x="1251" vert-adv-y="2457" 
d="M1091 1051v-869.001c0 -170.667 -11.667 -291.667 -35 -363c-32 -99.333 -100.667 -173.333 -206 -222c-70 -32 -160.333 -48 -271 -48c-132.667 0 -265.334 23.667 -398.001 71l20 189c127.333 -62.667 251.333 -94 372 -94c148 0 247 52.333 297 157
c22.667 48 34.334 119.333 35.001 214c0.666992 34 1.66699 63 3 87c-78 -116 -194.667 -174 -350 -174c-146.667 0 -263.334 53.667 -350.001 161c-73.333 91.333 -110 211.333 -110 360c0 138.667 32.333 257.334 97 356.001c46 70 107.667 122 185 156
c54 23.333 112.333 35 175 35c108.667 0 202.334 -34 281.001 -102c30 -26 54 -58.667 72 -98c0.666992 11.333 1 20 1 26l-1 29v33v96h183zM603 900.999c-105.333 0 -186.668 -49 -244.001 -147c-36.667 -62.667 -55 -140 -55 -232c0 -96 22.667 -176.333 68 -241
c54 -77.333 127.333 -116 220 -116c96 0 172.667 38 230 114c52 67.333 78 151.333 78 252c0 89.333 -21.667 166.333 -65 231c-61.333 92.667 -138.666 139 -231.999 139zM923.998 1518c-2.66699 -62 -18 -116.001 -46 -162.001c-23.333 -38.667 -55.333 -69 -96 -91
c-45.333 -24 -95.666 -36 -150.999 -36c-74.667 0 -137.667 20.667 -189 62c-65.333 53.333 -99.333 129 -102 227h112c5.33301 -38.667 18 -69.667 38 -93c37.333 -44.667 84.666 -67 141.999 -67c68.667 0 120.667 28.667 156 86c12 18.667 20 43.334 24 74.001h112z" />
    <glyph glyph-name="Gcommaaccent" unicode="&#x122;" horiz-adv-x="1479" vert-adv-y="2457" 
d="M1277 1371l-12.998 -196.998c-111.333 62 -233 93 -365 93c-180.667 0 -325.334 -57 -434.001 -171c-93.333 -97.333 -140 -221.333 -140 -372c0 -162 47.667 -292.667 143 -392c52.667 -54.667 120.667 -97.334 204 -128.001c76 -27.333 154.667 -41 236 -41
c59.333 0 123.666 10.333 192.999 31v414h-306v174h509v-726c-133.333 -44 -270 -66 -410 -66c-239.333 0 -428.333 63 -567 189c-147.333 134 -221 316.667 -221 548c0 221.333 73 395.666 219 522.999c146 126.667 333 190 561 190c142 0 272.333 -23 391 -69z
M968.002 -99.998l-129 -300h-137l86 300h180z" />
    <glyph glyph-name="gcommaaccent" unicode="&#x123;" horiz-adv-x="1251" vert-adv-y="2457" 
d="M1091 1051v-869.001c0 -170.667 -11.667 -291.667 -35 -363c-32 -99.333 -100.667 -173.333 -206 -222c-70 -32 -160.333 -48 -271 -48c-132.667 0 -265.334 23.667 -398.001 71l20 189c127.333 -62.667 251.333 -94 372 -94c148 0 247 52.333 297 157
c22.667 48 34.334 119.333 35.001 214c0.666992 34 1.66699 63 3 87c-78 -116 -194.667 -174 -350 -174c-146.667 0 -263.334 53.667 -350.001 161c-73.333 91.333 -110 211.333 -110 360c0 138.667 32.333 257.334 97 356.001c46 70 107.667 122 185 156
c54 23.333 112.333 35 175 35c108.667 0 202.334 -34 281.001 -102c30 -26 54 -58.667 72 -98c0.666992 11.333 1 20 1 26l-1 29v33v96h183zM603 900.999c-105.333 0 -186.668 -49 -244.001 -147c-36.667 -62.667 -55 -140 -55 -232c0 -96 22.667 -176.333 68 -241
c54 -77.333 127.333 -116 220 -116c96 0 172.667 38 230 114c52 67.333 78 151.333 78 252c0 89.333 -21.667 166.333 -65 231c-61.333 92.667 -138.666 139 -231.999 139zM508.998 1224l129 307h130l-86 -307h-173z" />
    <glyph glyph-name="Imacron" unicode="&#x12a;" vert-adv-y="2457" 
d="M386 1430v-1430h-203v1430h203zM535 1763v-127h-495v127h495z" />
    <glyph glyph-name="imacron" unicode="&#x12b;" vert-adv-y="2457" 
d="M382 1048v-1048h-194v1048h194zM517 1420v-123h-466v123h466z" />
    <glyph glyph-name="Iogonek" unicode="&#x12e;" vert-adv-y="2457" 
d="M378 0c-89.333 -66.667 -133.999 -128.667 -133.999 -186c0 -31.333 13 -56.333 39 -75c19.333 -13.333 40 -20 62 -20c19.333 0 42.666 4 69.999 12v-94c-36.667 -18 -74.334 -27 -113.001 -27c-36 0 -70.333 7.33301 -103 22c-28.667 13.333 -53 34 -73 62
c-20.667 30 -31 61.333 -31 94c0 55.333 34.667 112 104 170c14.667 12 37.334 26 68.001 42h-84v1430h203v-1430h-8z" />
    <glyph glyph-name="iogonek" unicode="&#x12f;" vert-adv-y="2457" 
d="M378 0l-25 -18.999c-72.667 -55.333 -109 -109.666 -109 -162.999c0 -28.667 12.667 -52.334 38 -71.001c16.667 -12.667 36 -19 58 -19c20 0 43.667 3.66699 71 11v-89c-34.667 -17.333 -75.667 -26 -123 -26c-54 0 -99.333 17.333 -136 52
c-35.333 33.333 -53 72 -53 116c0 77.333 56.333 146.666 169 207.999h-81v1048h194v-1048h-3zM387 1514v-214h-213v214h213z" />
    <glyph glyph-name="Idotaccent" unicode="&#x130;" vert-adv-y="2457" 
d="M386 1430v-1430h-203v1430h203zM381 1807v-207h-194v207h194z" />
    <glyph glyph-name="dotlessi" unicode="&#x131;" vert-adv-y="2457" 
d="M381 1048v-1048h-194v1048h194z" />
    <glyph glyph-name="ij" unicode="&#x133;" horiz-adv-x="1016" vert-adv-y="2457" 
d="M349 1514v-214h-213v214h213zM343 1048v-1048h-194v1048h194zM870 1514v-214h-213v214h213zM861 1051v-1029l1 -77c0 -116 -16.667 -202.333 -50 -259c-52 -88 -136.333 -132 -253 -132c-28 0 -66 3.33301 -114 10v161c23.333 -2.66699 40.666 -4 51.999 -4
c45.333 0 83 12.667 113 38c34.667 29.333 53.334 76.333 56.001 141c0.666992 18.667 1 59.334 1 122.001v1029h194z" />
    <glyph glyph-name="Kcommaaccent" unicode="&#x136;" horiz-adv-x="1366" vert-adv-y="2457" 
d="M395 1430v-477.999c0 -77.333 -1.66699 -134.333 -5 -171c48 54 88 97.333 120 130l499 519h275l-676 -678l733 -752h-297l-520 556c-28 29.333 -71.667 79.666 -131 150.999c1.33301 -52.667 2 -100.667 2 -144v-563h-203v1430h203zM789 -99.999l-129 -300h-137l86 300
h180z" />
    <glyph glyph-name="kcommaaccent" unicode="&#x137;" horiz-adv-x="1139" vert-adv-y="2457" 
d="M359 1544l0.000976562 -738.999l-3 -62v-49c-1.33301 -40.667 -2.33301 -68.334 -3 -83.001c24 28.667 53.667 61 89 97l341 340h262l-489 -463l555 -585h-275l-355 386c-20 22 -44.667 52.333 -74 91c-19.333 24.667 -37.333 45.667 -54 63
c1.33301 -16 2.66602 -47.667 3.99902 -95l2 -63v-382h-194v1544h194zM673.001 -92.999l-129 -300h-130l86 300h173z" />
    <glyph glyph-name="Lacute" unicode="&#x139;" horiz-adv-x="1024" vert-adv-y="2457" 
d="M385 1430v-1256h605v-174h-808v1430h203zM376 1850h237l-276 -279h-148z" />
    <glyph glyph-name="lacute" unicode="&#x13a;" vert-adv-y="2457" 
d="M382 1544v-1544h-194v1544h194zM386 1923h236l-276 -279h-147z" />
    <glyph glyph-name="Lcommaaccent" unicode="&#x13b;" horiz-adv-x="1024" vert-adv-y="2457" 
d="M385 1430v-1256h605v-174h-808v1430h203zM697 -100l-129 -300h-137l86 300h180z" />
    <glyph glyph-name="lcommaaccent" unicode="&#x13c;" vert-adv-y="2457" 
d="M381 1544v-1544h-194v1544h194zM370 -93l-129 -300h-130l86 300h173z" />
    <glyph glyph-name="Lcaron" unicode="&#x13d;" horiz-adv-x="1024" vert-adv-y="2457" 
d="M385 1430v-1256h605v-174h-808v1430h203zM854 1430l-129 -329h-137l86 329h180z" />
    <glyph glyph-name="lcaron" unicode="&#x13e;" horiz-adv-x="617" vert-adv-y="2457" 
d="M381 1544v-1544h-194v1544h194zM723 1544l-129 -329h-130l86 329h173z" />
    <glyph glyph-name="Lslash" unicode="&#x141;" horiz-adv-x="1024" vert-adv-y="2457" 
d="M385 837l327 213v-189l-327 -213v-474h605v-174h-808v560l-143 -94v189l143 93v682h203v-593z" />
    <glyph glyph-name="lslash" unicode="&#x142;" vert-adv-y="2457" 
d="M382 939l143 93v-183l-143 -93v-756h-194v677l-143 -92v183l143 92v684h194v-605z" />
    <glyph glyph-name="Nacute" unicode="&#x143;" horiz-adv-x="1479" vert-adv-y="2457" 
d="M1312 1430v-1430h-264l-452 776c-77.333 132.667 -133 233.667 -167 303c-32 65.333 -57 128.333 -75 189c11.333 -144.667 17 -324.667 17 -540v-728h-203v1430h278l489 -842c92 -158.667 157.333 -295.667 196 -411c-9.33301 86 -15.333 196.667 -18 332
c-2.66699 125.333 -4 202.666 -4 231.999v689h203zM809 1850h237l-276 -279h-148z" />
    <glyph glyph-name="nacute" unicode="&#x144;" horiz-adv-x="1251" vert-adv-y="2457" 
d="M330 1048l9.00195 -165.999c30.667 46 66.667 83 108 111c73.333 49.333 157.666 74 252.999 74c107.333 0 195 -30.333 263 -91c72.667 -64.667 113.667 -168.667 123 -312c3.33301 -43.333 5 -102 5 -176v-488h-194v471c0 128.667 -6 214.667 -18 258
c-14.667 56 -41.334 98.667 -80.001 128c-39.333 29.333 -87 44 -143 44c-82 0 -151 -30.667 -207 -92c-53.333 -58.667 -83.333 -137.334 -90 -236.001c-2 -38 -3 -101 -3 -189v-384h-194v518l-1 97l-1 139l-4 135c-2.66699 79.333 -5 132.333 -7 159h181zM880.002 1518
l-253 -293h-137l176 293h214z" />
    <glyph glyph-name="Ncommaaccent" unicode="&#x145;" horiz-adv-x="1479" vert-adv-y="2457" 
d="M1312 1430v-1430h-264l-452 776c-77.333 132.667 -133 233.667 -167 303c-32 65.333 -57 128.333 -75 189c11.333 -144.667 17 -324.667 17 -540v-728h-203v1430h278l489 -842c92 -158.667 157.333 -295.667 196 -411c-9.33301 86 -15.333 196.667 -18 332
c-2.66699 125.333 -4 202.666 -4 231.999v689h203zM838 -99.999l-129 -300h-137l86 300h180z" />
    <glyph glyph-name="ncommaaccent" unicode="&#x146;" horiz-adv-x="1251" vert-adv-y="2457" 
d="M330 1048l9.00195 -165.999c30.667 46 66.667 83 108 111c73.333 49.333 157.666 74 252.999 74c107.333 0 195 -30.333 263 -91c72.667 -64.667 113.667 -168.667 123 -312c3.33301 -43.333 5 -102 5 -176v-488h-194v471c0 128.667 -6 214.667 -18 258
c-14.667 56 -41.334 98.667 -80.001 128c-39.333 29.333 -87 44 -143 44c-82 0 -151 -30.667 -207 -92c-53.333 -58.667 -83.333 -137.334 -90 -236.001c-2 -38 -3 -101 -3 -189v-384h-194v518l-1 97l-1 139l-4 135c-2.66699 79.333 -5 132.333 -7 159h181zM734.002 -92.999
l-129 -300h-130l86 300h173z" />
    <glyph glyph-name="Ncaron" unicode="&#x147;" horiz-adv-x="1479" vert-adv-y="2457" 
d="M1312 1430v-1430h-264l-452 776c-77.333 132.667 -133 233.667 -167 303c-32 65.333 -57 128.333 -75 189c11.333 -144.667 17 -324.667 17 -540v-728h-203v1430h278l489 -842c92 -158.667 157.333 -295.667 196 -411c-9.33301 86 -15.333 196.667 -18 332
c-2.66699 125.333 -4 202.666 -4 231.999v689h203zM642 1571l-235 279h179l154 -177l154 177h179l-235 -279h-196z" />
    <glyph glyph-name="ncaron" unicode="&#x148;" horiz-adv-x="1251" vert-adv-y="2457" 
d="M330 1048l9.00195 -165.999c30.667 46 66.667 83 108 111c73.333 49.333 157.666 74 252.999 74c107.333 0 195 -30.333 263 -91c72.667 -64.667 113.667 -168.667 123 -312c3.33301 -43.333 5 -102 5 -176v-488h-194v471c0 128.667 -6 214.667 -18 258
c-14.667 56 -41.334 98.667 -80.001 128c-39.333 29.333 -87 44 -143 44c-82 0 -151 -30.667 -207 -92c-53.333 -58.667 -83.333 -137.334 -90 -236.001c-2 -38 -3 -101 -3 -189v-384h-194v518l-1 97l-1 139l-4 135c-2.66699 79.333 -5 132.333 -7 159h181zM917.002 1518
l-221 -293h-191l-221 293h164l152 -197l153 197h164z" />
    <glyph glyph-name="Omacron" unicode="&#x14c;" horiz-adv-x="1593" vert-adv-y="2457" 
d="M806 1457c212.667 0 379 -67.998 499 -203.998c122 -136.667 183 -316.334 183 -539.001c0 -214.667 -57 -390.334 -171 -527.001c-119.333 -142.667 -291.333 -214 -516 -214c-215.333 0 -383.333 66.667 -504 200c-65.333 71.333 -115 161.333 -149 270
c-28 88.667 -42 178.667 -42 270c0 141.333 29.333 272.333 88 393c114 234 318 351 612 351zM805 1295c-161.333 0 -284.332 -60.668 -368.999 -182.001c-74 -106 -111 -238.333 -111 -397c0 -154 36.667 -285 110 -393c45.333 -66.667 106.333 -117 183 -151
c56 -24.667 116 -37 180 -37c105.333 0 197.666 32 276.999 96c74.667 61.333 128.667 145.333 162 252c21.333 68 32 143.333 32 226c0 156.667 -35.667 288.334 -107 395.001c-84.667 127.333 -203.667 191 -357 191zM1130 1763v-127h-666v127h666z" />
    <glyph glyph-name="omacron" unicode="&#x14d;" horiz-adv-x="1251" vert-adv-y="2457" 
d="M623 1075c110 0 209.667 -27.668 299 -83.001c88 -54.667 152.667 -132 194 -232c31.333 -74 47 -156 47 -246c0 -93.333 -20.333 -180.666 -61 -261.999c-50 -98.667 -124.333 -172.667 -223 -222c-78 -39.333 -163.333 -59 -256 -59c-138 0 -255.667 43 -353 129
c-120.667 105.333 -181 245.333 -181 420c0 106 23.667 203.333 71 292c47.333 88 117.333 156 210 204c76.667 39.333 161 59 253 59zM626 920.999c-101.333 0 -184.001 -41.999 -248.001 -125.999c-55.333 -73.333 -83 -164.333 -83 -273
c0 -93.333 20.667 -174.333 62 -243c28 -46.667 64.333 -83.334 109 -110.001c48.667 -29.333 102.334 -44 161.001 -44c106.667 0 191 44.333 253 133c51.333 74 77 159.333 77 256c0 114 -29 208.667 -87 284c-62.667 82 -144 123 -244 123zM929.999 1420v-123h-609v123
h609z" />
    <glyph glyph-name="Ohungarumlaut" unicode="&#x150;" horiz-adv-x="1593" vert-adv-y="2457" 
d="M806 1457c212.667 0 379 -67.998 499 -203.998c122 -136.667 183 -316.334 183 -539.001c0 -214.667 -57 -390.334 -171 -527.001c-119.333 -142.667 -291.333 -214 -516 -214c-215.333 0 -383.333 66.667 -504 200c-65.333 71.333 -115 161.333 -149 270
c-28 88.667 -42 178.667 -42 270c0 141.333 29.333 272.333 88 393c114 234 318 351 612 351zM805 1295c-161.333 0 -284.332 -60.668 -368.999 -182.001c-74 -106 -111 -238.333 -111 -397c0 -154 36.667 -285 110 -393c45.333 -66.667 106.333 -117 183 -151
c56 -24.667 116 -37 180 -37c105.333 0 197.666 32 276.999 96c74.667 61.333 128.667 145.333 162 252c21.333 68 32 143.333 32 226c0 156.667 -35.667 288.334 -107 395.001c-84.667 127.333 -203.667 191 -357 191zM695.001 1850h222l-248 -279h-126zM1047 1850h223
l-248 -279h-126z" />
    <glyph glyph-name="ohungarumlaut" unicode="&#x151;" horiz-adv-x="1251" vert-adv-y="2457" 
d="M623 1075c110 0 209.667 -27.668 299 -83.001c88 -54.667 152.667 -132 194 -232c31.333 -74 47 -156 47 -246c0 -93.333 -20.333 -180.666 -61 -261.999c-50 -98.667 -124.333 -172.667 -223 -222c-78 -39.333 -163.333 -59 -256 -59c-138 0 -255.667 43 -353 129
c-120.667 105.333 -181 245.333 -181 420c0 106 23.667 203.333 71 292c47.333 88 117.333 156 210 204c76.667 39.333 161 59 253 59zM626 920.999c-101.333 0 -184.001 -41.999 -248.001 -125.999c-55.333 -73.333 -83 -164.333 -83 -273
c0 -93.333 20.667 -174.333 62 -243c28 -46.667 64.333 -83.334 109 -110.001c48.667 -29.333 102.334 -44 161.001 -44c106.667 0 191 44.333 253 133c51.333 74 77 159.333 77 256c0 114 -29 208.667 -87 284c-62.667 82 -144 123 -244 123zM726.999 1518l-232 -293h-123
l154 293h201zM1059 1518l-232 -293h-123l154 293h201z" />
    <glyph glyph-name="OE" unicode="&#x152;" horiz-adv-x="1933" vert-adv-y="2457" 
d="M1793 1430v-174h-574v-427h533v-174h-533v-481h593v-174h-688l-128 4c-93.333 0 -152.666 0.666992 -177.999 2c-202 12.667 -366 76.667 -492 192c-70.667 64 -125.334 142.667 -164.001 236c-38 91.333 -57 188.666 -57 291.999c0 166.667 47.667 311.667 143 435
c97.333 126 229.333 205.667 396 239c94.667 18.667 219.667 28.334 375 29.001c22 0 85 0.333008 189 1h113h472zM1016 1256l-44.001 -0.00195312c-84 0 -147.667 -2.66699 -191 -8c-178 -23.333 -305 -97.666 -381 -222.999c-50.667 -83.333 -76 -182.666 -76 -297.999
c0 -190 66.333 -335.667 199 -437c95.333 -73.333 221 -111 377 -113c56.667 -0.666992 95.334 -1.66699 116.001 -3v1082z" />
    <glyph glyph-name="oe" unicode="&#x153;" horiz-adv-x="1933" vert-adv-y="2457" 
d="M1852 480l-738.002 -0.000976562c8 -98 37.667 -176 89 -234c64 -72.667 151.667 -109 263 -109c100.667 0 195 32 283 96v-191c-92.667 -47.333 -201 -71 -325 -71c-113.333 0 -208.666 24.667 -285.999 74c-63.333 40.667 -105 93.334 -125 158.001
c-16 -48 -47.333 -91.667 -94 -131c-81.333 -67.333 -184.333 -101 -309 -101c-154 0 -279.667 51.333 -377 154c-50 52.667 -88.333 117 -115 193c-24 68 -36 139.333 -36 214c0 148 44 273 132 375c98 114 226.333 171 385 171c142.667 0 257 -41 343 -123
c32.667 -30.667 56.334 -67 71.001 -109c20.667 59.333 52.667 106.666 96 141.999c73.333 60 166.333 90 279 90c126 0 229.333 -38 310 -114c74 -68.667 121 -161.667 141 -279c8 -49.333 12.333 -117.666 13 -204.999zM1638 632.999c-2 74 -18.666 134.667 -49.999 182
c-48 72.667 -115.333 109 -202 109c-96.667 0 -171.667 -46.667 -225 -140c-24.667 -44 -39.334 -94.333 -44.001 -151h521zM608.999 923.999c-105.333 0 -188.001 -45.333 -248.001 -136c-48.667 -72.667 -73 -161 -73 -265s26 -193 78 -267c62 -87.333 142 -131 240 -131
c100.667 0 181.334 43.667 242.001 131c52 75.333 78 164.333 78 267s-23 188 -69 256c-66 96.667 -148.667 145 -248 145z" />
    <glyph glyph-name="Racute" unicode="&#x154;" horiz-adv-x="1251" vert-adv-y="2457" 
d="M172 1430l344.002 0.00195312c141.333 0 249 -12.333 323 -37c78 -26 138.333 -73.333 181 -142c36.667 -59.333 55 -125 55 -197c0 -110 -39.333 -197.333 -118 -262c-44 -36 -105.667 -61 -185 -75c44 -20.667 76.667 -42.334 98 -65.001
c26 -28.667 52.667 -72.334 80 -131.001l241 -521h-234l-185 428c-32.667 75.333 -63.334 128 -92.001 158c-24 24.667 -56.667 40 -98 46c-22.667 3.33301 -52.334 5 -89.001 5h-118v-637h-203v1430zM375.002 1256l-0.000976562 -442.999h127c102 0 176.333 8.33301 223 25
c47.333 17.333 83 44.333 107 81c22 34.667 33 73.667 33 117c0 55.333 -17 102.333 -51 141c-35.333 39.333 -90.666 63.666 -165.999 72.999c-35.333 4 -77 6 -125 6h-148zM633.001 1850h237l-276 -279h-148z" />
    <glyph glyph-name="racute" unicode="&#x155;" horiz-adv-x="797" vert-adv-y="2457" 
d="M149 1048l179 0.000976562l10 -186c62.667 133.333 162.667 200 300 200c33.333 0 68.333 -4.66699 105 -14v-177c-33.333 11.333 -64.333 17 -93 17c-94 0 -168.333 -39.333 -223 -118c-36 -51.333 -57.667 -109 -65 -173c-4.66699 -36.667 -7 -98.667 -7 -186v-411
h-194v639c0 9.33301 -4 145.666 -12 408.999zM707 1518l-253 -293h-137l176 293h214z" />
    <glyph glyph-name="Rcommaaccent" unicode="&#x156;" horiz-adv-x="1251" vert-adv-y="2457" 
d="M172 1430l344.002 0.00195312c141.333 0 249 -12.333 323 -37c78 -26 138.333 -73.333 181 -142c36.667 -59.333 55 -125 55 -197c0 -110 -39.333 -197.333 -118 -262c-44 -36 -105.667 -61 -185 -75c44 -20.667 76.667 -42.334 98 -65.001
c26 -28.667 52.667 -72.334 80 -131.001l241 -521h-234l-185 428c-32.667 75.333 -63.334 128 -92.001 158c-24 24.667 -56.667 40 -98 46c-22.667 3.33301 -52.334 5 -89.001 5h-118v-637h-203v1430zM375.002 1256l-0.000976562 -442.999h127c102 0 176.333 8.33301 223 25
c47.333 17.333 83 44.333 107 81c22 34.667 33 73.667 33 117c0 55.333 -17 102.333 -51 141c-35.333 39.333 -90.666 63.666 -165.999 72.999c-35.333 4 -77 6 -125 6h-148zM755.001 -99.9971l-129 -300h-137l86 300h180z" />
    <glyph glyph-name="rcommaaccent" unicode="&#x157;" horiz-adv-x="797" vert-adv-y="2457" 
d="M149 1048l179 0.000976562l10 -186c62.667 133.333 162.667 200 300 200c33.333 0 68.333 -4.66699 105 -14v-177c-33.333 11.333 -64.333 17 -93 17c-94 0 -168.333 -39.333 -223 -118c-36 -51.333 -57.667 -109 -65 -173c-4.66699 -36.667 -7 -98.667 -7 -186v-411
h-194v639c0 9.33301 -4 145.666 -12 408.999zM354 -92.999l-129 -300h-130l86 300h173z" />
    <glyph glyph-name="Rcaron" unicode="&#x158;" horiz-adv-x="1251" vert-adv-y="2457" 
d="M172 1430l344.002 0.00195312c141.333 0 249 -12.333 323 -37c78 -26 138.333 -73.333 181 -142c36.667 -59.333 55 -125 55 -197c0 -110 -39.333 -197.333 -118 -262c-44 -36 -105.667 -61 -185 -75c44 -20.667 76.667 -42.334 98 -65.001
c26 -28.667 52.667 -72.334 80 -131.001l241 -521h-234l-185 428c-32.667 75.333 -63.334 128 -92.001 158c-24 24.667 -56.667 40 -98 46c-22.667 3.33301 -52.334 5 -89.001 5h-118v-637h-203v1430zM375.002 1256l-0.000976562 -442.999h127c102 0 176.333 8.33301 223 25
c47.333 17.333 83 44.333 107 81c22 34.667 33 73.667 33 117c0 55.333 -17 102.333 -51 141c-35.333 39.333 -90.666 63.666 -165.999 72.999c-35.333 4 -77 6 -125 6h-148zM463.001 1571l-235 279h179l154 -177l154 177h179l-235 -279h-196z" />
    <glyph glyph-name="rcaron" unicode="&#x159;" horiz-adv-x="797" vert-adv-y="2457" 
d="M150 1048l179 0.000976562l10 -186c62.667 133.333 162.667 200 300 200c33.333 0 68.333 -4.66699 105 -14v-177c-33.333 11.333 -64.333 17 -93 17c-94 0 -168.333 -39.333 -223 -118c-36 -51.333 -57.667 -109 -65 -173c-4.66699 -36.667 -7 -98.667 -7 -186v-411
h-194v639c0 9.33301 -4 145.666 -12 408.999zM750 1518l-221 -293h-191l-221 293h164l152 -197l153 197h164z" />
    <glyph glyph-name="Sacute" unicode="&#x15a;" horiz-adv-x="1024" vert-adv-y="2457" 
d="M857 1406l-25.001 -180c-103.333 38.667 -192.333 58 -267 58c-78.667 0 -142.334 -19 -191.001 -57c-44.667 -34.667 -67 -81.334 -67 -140.001c0 -66.667 33 -123 99 -169c32.667 -23.333 76.667 -48.666 132 -75.999l77 -39c98 -48 167.333 -91.333 208 -130
c74 -69.333 111 -159.333 111 -270c0 -150 -60 -265.333 -180 -346c-82.667 -56 -185 -84 -307 -84c-119.333 0 -229 18.667 -329 56l21 193c106 -50.667 200 -76 282 -76c78 0 144.333 18.333 199 55c63.333 42.667 95 105 95 187c0 70.667 -30 129.334 -90 176.001
c-34 26.667 -77.667 52 -131 76l-80 35c-95.333 42.667 -166.666 87 -213.999 133c-70 67.333 -105 153.666 -105 258.999c0 122.667 43.333 218.667 130 288c86.667 68 196.334 102 329.001 102c103.333 0 204.333 -17 303 -51zM582.999 1850h237l-276 -279h-148z" />
    <glyph glyph-name="sacute" unicode="&#x15b;" horiz-adv-x="797" vert-adv-y="2457" 
d="M679 1023l-14.999 -162.998c-70.667 35.333 -141.667 53 -213 53c-54 0 -97.667 -13 -131 -39c-30 -22.667 -45 -53.334 -45 -92.001c0 -40.667 19.333 -74.334 58 -101.001c28.667 -20 57.667 -37 87 -51l81 -38c78.667 -37.333 133.667 -73 165 -107
c46 -50.667 69 -112.334 69 -185.001c0 -101.333 -39.333 -182 -118 -242c-68.667 -51.333 -156.334 -77 -263.001 -77c-94.667 0 -185.334 20.333 -272.001 61v173c92.667 -45.333 174.667 -68 246 -68c59.333 0 109 13.667 149 41c34.667 24 52 56 52 96
c0 40.667 -17 73.667 -51 99c-15.333 10.667 -44.333 26.334 -87 47.001l-81 42c-77.333 39.333 -131.666 73.666 -162.999 102.999c-52 48.667 -78 111.334 -78 188.001c0 87.333 30.333 158.333 91 213c66.667 60.667 157.667 91 273 91c77.333 0 159.333 -14.667 246 -44
zM672.001 1518l-253 -293h-137l176 293h214z" />
    <glyph glyph-name="Scedilla" unicode="&#x15e;" horiz-adv-x="1024" vert-adv-y="2457" 
d="M485 -26l-55.001 -88.9971c36.667 6.66699 62 10 76 10c42 0 79 -12 111 -36c36 -27.333 54 -64.666 54 -111.999c0 -46 -17.333 -86 -52 -120c-44 -43.333 -108.667 -65 -194 -65c-70 0 -136.333 14.333 -199 43l37 76c45.333 -18.667 91.333 -28 138 -28
c40 0 69.667 9 89 27c16 15.333 24 33.666 24 54.999c0 19.333 -7 36.333 -21 51c-19.333 19.333 -45.333 29 -78 29c-15.333 0 -40.333 -5 -75 -15l-34 35l86 140c-101.333 6 -192.666 24.333 -273.999 55l21 192c106 -50.667 200 -76 282 -76
c77.333 0 143.666 18.333 198.999 55c63.333 42.667 95 105 95 187c0 70.667 -30 129.667 -90 177c-33.333 26 -77 51 -131 75l-80 36c-95.333 42 -166.666 86 -213.999 132c-70 67.333 -105 153.666 -105 258.999c0 123.333 43.333 219.333 130 288
c86.667 68 196.334 102 329.001 102c103.333 0 204.333 -17 303 -51l-25 -180c-102 38.667 -191 58 -267 58c-78.667 0 -142.334 -19 -191.001 -57c-44.667 -34.667 -67 -81.334 -67 -140.001c0 -66.667 33 -123 99 -169c32.667 -22.667 76.667 -48 132 -76l77 -38
c98 -48.667 167.333 -92.334 208 -131.001c74 -69.333 111 -159.333 111 -270c0 -118.667 -38.667 -216.667 -116 -294c-84.667 -84.667 -195.667 -129.667 -333 -135z" />
    <glyph glyph-name="scedilla" unicode="&#x15f;" horiz-adv-x="797" vert-adv-y="2457" 
d="M419 -15l-60.002 -98c34.667 6 60.667 9 78 9c44 0 80 -11 108 -33c36 -28 54 -66 54 -114c0 -41.333 -17.333 -78.666 -52 -111.999c-45.333 -43.333 -107.666 -65 -186.999 -65c-68.667 0 -135 14.333 -199 43l37 72c44.667 -18.667 91 -28 139 -28
c44.667 0 77 12.333 97 37c10 12 15 25.667 15 41c0 20 -7 36.667 -21 50c-20.667 20 -46.334 30 -77.001 30c-13.333 0 -38.666 -5.33301 -75.999 -16l-33 36l89 145c-84 1.33301 -167 21.333 -249 60v173c93.333 -45.333 175.333 -68 246 -68c59.333 0 109 13.667 149 41
c34.667 24 52 56 52 96c0 40.667 -17 73.667 -51 99c-15.333 10.667 -44.333 26.334 -87 47.001l-81 42c-77.333 39.333 -131.666 73.666 -162.999 102.999c-52 48.667 -78 111.334 -78 188.001c0 87.333 30.333 158.333 91 213c66.667 60.667 157.667 91 273 91
c77.333 0 159.333 -14.667 246 -44l-15 -163c-70.667 35.333 -141.667 53 -213 53c-54 0 -97.667 -12.667 -131 -38c-30 -23.333 -45 -54.333 -45 -93c0 -40.667 19.333 -74.334 58 -101.001c28.667 -20 57.667 -37 87 -51l81 -38c78.667 -37.333 133.667 -73 165 -107
c46 -50.667 69 -112.334 69 -185.001c0 -78.667 -25.333 -146 -76 -202c-57.333 -64 -137.333 -101.667 -240 -113z" />
    <glyph glyph-name="Scaron" unicode="&#x160;" horiz-adv-x="1024" vert-adv-y="2457" 
d="M857 1406l-25.001 -180c-103.333 38.667 -192.333 58 -267 58c-78.667 0 -142.334 -19 -191.001 -57c-44.667 -34.667 -67 -81.334 -67 -140.001c0 -66.667 33 -123 99 -169c32.667 -23.333 76.667 -48.666 132 -75.999l77 -39c98 -48 167.333 -91.333 208 -130
c74 -69.333 111 -159.333 111 -270c0 -150 -60 -265.333 -180 -346c-82.667 -56 -185 -84 -307 -84c-119.333 0 -229 18.667 -329 56l21 193c106 -50.667 200 -76 282 -76c78 0 144.333 18.333 199 55c63.333 42.667 95 105 95 187c0 70.667 -30 129.334 -90 176.001
c-34 26.667 -77.667 52 -131 76l-80 35c-95.333 42.667 -166.666 87 -213.999 133c-70 67.333 -105 153.666 -105 258.999c0 122.667 43.333 218.667 130 288c86.667 68 196.334 102 329.001 102c103.333 0 204.333 -17 303 -51zM423.999 1571l-235 279h179l154 -177
l154 177h179l-235 -279h-196z" />
    <glyph glyph-name="scaron" unicode="&#x161;" horiz-adv-x="797" vert-adv-y="2457" 
d="M679 1023l-14.999 -162.998c-70.667 35.333 -141.667 53 -213 53c-54 0 -97.667 -13 -131 -39c-30 -22.667 -45 -53.334 -45 -92.001c0 -40.667 19.333 -74.334 58 -101.001c28.667 -20 57.667 -37 87 -51l81 -38c78.667 -37.333 133.667 -73 165 -107
c46 -50.667 69 -112.334 69 -185.001c0 -101.333 -39.333 -182 -118 -242c-68.667 -51.333 -156.334 -77 -263.001 -77c-94.667 0 -185.334 20.333 -272.001 61v173c92.667 -45.333 174.667 -68 246 -68c59.333 0 109 13.667 149 41c34.667 24 52 56 52 96
c0 40.667 -17 73.667 -51 99c-15.333 10.667 -44.333 26.334 -87 47.001l-81 42c-77.333 39.333 -131.666 73.666 -162.999 102.999c-52 48.667 -78 111.334 -78 188.001c0 87.333 30.333 158.333 91 213c66.667 60.667 157.667 91 273 91c77.333 0 159.333 -14.667 246 -44
zM719.001 1518l-221 -293h-191l-221 293h164l152 -197l153 197h164z" />
    <glyph glyph-name="Tcommaaccent" unicode="&#x162;" horiz-adv-x="1139" vert-adv-y="2457" 
d="M1124 1430v-174h-448v-1256h-203v1256h-457v174h1108zM671 -100l-129 -300h-137l86 300h180z" />
    <glyph glyph-name="tcommaaccent" unicode="&#x163;" horiz-adv-x="797" vert-adv-y="2457" 
d="M446 1351v-306h279v-153h-279v-412c0 -99.333 3.66699 -168 11 -206c16 -80.667 69.667 -121 161 -121c41.333 0 83.666 10.333 126.999 31v-167c-62 -20 -121.667 -30 -179 -30c-133.333 0 -224.666 46 -273.999 138c-26.667 50.667 -40 149.667 -40 297v470h-242v153
h242v240zM507 -93l-129 -300h-130l86 300h173z" />
    <glyph glyph-name="Tcaron" unicode="&#x164;" horiz-adv-x="1139" vert-adv-y="2457" 
d="M1124 1430v-174h-448v-1256h-203v1256h-457v174h1108zM472 1571l-235 279h179l154 -177l154 177h179l-235 -279h-196z" />
    <glyph glyph-name="tcaron" unicode="&#x165;" horiz-adv-x="797" vert-adv-y="2457" 
d="M446 1351v-306h279v-153h-279v-412c0 -99.333 3.66699 -168 11 -206c16 -80.667 69.667 -121 161 -121c41.333 0 83.666 10.333 126.999 31v-167c-62 -20 -121.667 -30 -179 -30c-133.333 0 -224.666 46 -273.999 138c-26.667 50.667 -40 149.667 -40 297v470h-242v153
h242v240zM804 1544l-129 -329h-130l86 329h173z" />
    <glyph glyph-name="Umacron" unicode="&#x16a;" horiz-adv-x="1479" vert-adv-y="2457" 
d="M1292 1430v-805.999c0 -91.333 -4 -163.666 -12 -216.999c-23.333 -148 -89 -260.333 -197 -337c-90 -64.667 -203.667 -97 -341 -97c-138.667 0 -253.667 33 -345 99c-84.667 61.333 -142.667 141.666 -174 240.999c-24.667 77.333 -37 190.333 -37 339v778h203v-749
c0 -92.667 3 -162.334 9 -209.001c14.667 -116 56 -200.667 124 -254c62 -48 137 -72 225 -72c156 0 259.667 72 311 216c15.333 44.667 25 100 29 166c1.33301 24 2 72 2 144v758h203zM1072 1763v-127h-666v127h666z" />
    <glyph glyph-name="umacron" unicode="&#x16b;" horiz-adv-x="1251" vert-adv-y="2457" 
d="M1084 1048l-0.000976562 -661c0 -100.667 4.66699 -229.667 14 -387h-179l-9 163c-85.333 -118 -203.666 -177 -354.999 -177c-104.667 0 -190 28.333 -256 85c-66 56 -105.667 133 -119 231c-8 61.333 -12 125 -12 191v555h194v-487c0 -138 9.33301 -231 28 -279
c36 -94.667 104.333 -142 205 -142c72 0 134.333 24.667 187 74c54.667 52 88.667 122.333 102 211c4 26.667 6 81 6 163v460h194zM933.999 1420v-123h-609v123h609z" />
    <glyph glyph-name="Uring" unicode="&#x16e;" horiz-adv-x="1479" vert-adv-y="2457" 
d="M1292 1430v-805.999c0 -91.333 -4 -163.666 -12 -216.999c-23.333 -148 -89 -260.333 -197 -337c-90 -64.667 -203.667 -97 -341 -97c-138.667 0 -253.667 33 -345 99c-84.667 61.333 -142.667 141.666 -174 240.999c-24.667 77.333 -37 190.333 -37 339v778h203v-749
c0 -92.667 3 -162.334 9 -209.001c14.667 -116 56 -200.667 124 -254c62 -48 137 -72 225 -72c156 0 259.667 72 311 216c15.333 44.667 25 100 29 166c1.33301 24 2 72 2 144v758h203zM743 1940c60.667 0 112.334 -23.668 155.001 -71.001
c36.667 -39.333 55 -86.666 55 -141.999c0 -64 -23.333 -116.667 -70 -158c-40.667 -36.667 -88.334 -55 -143.001 -55c-64 0 -117 23.333 -159 70c-36.667 40.667 -55 89 -55 145c0 61.333 23.667 113.333 71 156c40 36.667 88.667 55 146 55zM741 1831
c-32 0 -58.001 -11.332 -78.001 -33.999c-18 -20 -27 -42.667 -27 -68c0 -31.333 11.333 -57.333 34 -78c19.333 -18 42.333 -27 69 -27c30.667 0 56 11.333 76 34c17.333 19.333 26 42.666 26 69.999c0 31.333 -11 57 -33 77c-19.333 17.333 -41.666 26 -66.999 26z" />
    <glyph glyph-name="uring" unicode="&#x16f;" horiz-adv-x="1251" vert-adv-y="2457" 
d="M1084 1048l-0.000976562 -661c0 -100.667 4.66699 -229.667 14 -387h-179l-9 163c-85.333 -118 -203.666 -177 -354.999 -177c-104.667 0 -190 28.333 -256 85c-66 56 -105.667 133 -119 231c-8 61.333 -12 125 -12 191v555h194v-487c0 -138 9.33301 -231 28 -279
c36 -94.667 104.333 -142 205 -142c72 0 134.333 24.667 187 74c54.667 52 88.667 122.333 102 211c4 26.667 6 81 6 163v460h194zM626.999 1587c58.667 0 109 -23 151 -69c36 -40 54 -86.333 54 -139c0 -61.333 -23 -113 -69 -155
c-39.333 -35.333 -85.666 -53 -138.999 -53c-62 0 -113.667 23 -155 69c-35.333 39.333 -53 86 -53 140c0 60 23 111 69 153c39.333 36 86.666 54 141.999 54zM624.999 1481c-30.667 0 -56.334 -11.332 -77.001 -33.999c-17.333 -18.667 -26 -41 -26 -67
c0 -32 11 -57.667 33 -77c19.333 -17.333 42.333 -26 69 -26c30.667 0 56 11 76 33c17.333 20 26 43 26 69c0 29.333 -11.333 54.666 -34 75.999c-19.333 17.333 -41.666 26 -66.999 26z" />
    <glyph glyph-name="Uhungarumlaut" unicode="&#x170;" horiz-adv-x="1479" vert-adv-y="2457" 
d="M1292 1430v-805.999c0 -91.333 -4 -163.666 -12 -216.999c-23.333 -148 -89 -260.333 -197 -337c-90 -64.667 -203.667 -97 -341 -97c-138.667 0 -253.667 33 -345 99c-84.667 61.333 -142.667 141.666 -174 240.999c-24.667 77.333 -37 190.333 -37 339v778h203v-749
c0 -92.667 3 -162.334 9 -209.001c14.667 -116 56 -200.667 124 -254c62 -48 137 -72 225 -72c156 0 259.667 72 311 216c15.333 44.667 25 100 29 166c1.33301 24 2 72 2 144v758h203zM624 1850h222l-248 -279h-126zM976 1850h223l-248 -279h-126z" />
    <glyph glyph-name="uhungarumlaut" unicode="&#x171;" horiz-adv-x="1251" vert-adv-y="2457" 
d="M1084 1048l-0.000976562 -661c0 -100.667 4.66699 -229.667 14 -387h-179l-9 163c-85.333 -118 -203.666 -177 -354.999 -177c-104.667 0 -190 28.333 -256 85c-66 56 -105.667 133 -119 231c-8 61.333 -12 125 -12 191v555h194v-487c0 -138 9.33301 -231 28 -279
c36 -94.667 104.333 -142 205 -142c72 0 134.333 24.667 187 74c54.667 52 88.667 122.333 102 211c4 26.667 6 81 6 163v460h194zM733.999 1518l-232 -293h-123l154 293h201zM1066 1518l-232 -293h-123l154 293h201z" />
    <glyph glyph-name="Uogonek" unicode="&#x172;" horiz-adv-x="1479" vert-adv-y="2457" 
d="M1052 49l-67.002 -61.999c-50.667 -45.333 -81.667 -78.333 -93 -99c-12.667 -22.667 -19 -46 -19 -70c0 -34.667 12.667 -61 38 -79c19.333 -13.333 40.333 -20 63 -20c19.333 0 42.333 4 69 12v-94c-36 -18 -73.333 -27 -112 -27c-36.667 0 -71 7.33301 -103 22
c-29.333 13.333 -53.666 34 -72.999 62c-20.667 29.333 -31 61 -31 95c0 56 34.667 112.333 104 169c10.667 8.66699 22.667 17 36 25c-42 -6.66699 -83.667 -10 -125 -10c-136 0 -250 33 -342 99c-84.667 61.333 -142.667 141.666 -174 240.999
c-24.667 77.333 -37 190.333 -37 339v778h203v-749c0 -92.667 3 -162.334 9 -209.001c14.667 -116 56.334 -200.667 125.001 -254c61.333 -48 136.333 -72 225 -72c156 0 259.333 72 310 216c15.333 44.667 25 100 29 166c1.33301 24 2 72 2 144v758h203v-806
c0 -91.333 -4 -163.666 -12 -216.999c-25.333 -162.667 -101.333 -282 -228 -358z" />
    <glyph glyph-name="uogonek" unicode="&#x173;" horiz-adv-x="1251" vert-adv-y="2457" 
d="M1090 0c-89.333 -66.667 -134.002 -127.331 -134.002 -181.998c0 -28.667 12.667 -52.334 38 -71.001c16.667 -12.667 35.667 -19 57 -19c20.667 0 44.334 3.66699 71.001 11v-89c-34 -17.333 -74.667 -26 -122 -26c-54 0 -99.333 17.333 -136 52
c-35.333 33.333 -53 72 -53 116c0 77.333 56 146.666 168 207.999h-60l-9 163c-85.333 -118 -203.666 -177 -354.999 -177c-104.667 0 -190 28.333 -256 85c-66 56 -105.667 133 -119 231c-8 61.333 -12 125 -12 191v555h194v-487c0 -138 9.33301 -231 28 -279
c36 -94.667 104.333 -142 205 -142c72 0 134.333 24.667 187 74c54.667 52 88.667 122.333 102 211c4 26.667 6 81 6 163v460h194v-661c0 -100.667 4.66699 -229.667 14 -387h-8z" />
    <glyph glyph-name="Ydieresis" unicode="&#x178;" horiz-adv-x="1366" vert-adv-y="2457" 
d="M1347 1430l-558 -823.001v-607h-203v601l-567 829h253l354 -536c30.667 -45.333 51.667 -80.666 63 -105.999c12.667 28 32 61.333 58 100l356 542h244zM995 1807v-207h-194v207h194zM577 1807v-207h-194v207h194z" />
    <glyph glyph-name="Zacute" unicode="&#x179;" horiz-adv-x="1139" vert-adv-y="2457" 
d="M1044 1430v-188.001l-613 -881c-44.667 -64 -73 -104 -85 -120c-21.333 -27.333 -38.333 -51.666 -51 -72.999c43.333 4 95.666 6 156.999 6h607v-174h-998v174l580 841c84 122 144.667 204 182 246c-13.333 -0.666992 -23.333 -1 -30 -1
c-47.333 -2.66699 -103.666 -4 -168.999 -4h-537v174h957zM635 1850h237l-276 -279h-148z" />
    <glyph glyph-name="zacute" unicode="&#x17a;" horiz-adv-x="1024" vert-adv-y="2457" 
d="M915 1048v-165.003l-507 -615c-22 -27.333 -41 -49.666 -57 -66.999c-21.333 -23.333 -38.333 -42.666 -51 -57.999c23.333 6.66699 78 10 164 10h475v-153h-852v159l496 609c12 14.667 51 58.334 117 131.001c-39.333 -2.66699 -89 -4 -149 -4h-440v153h804zM783 1518
l-253 -293h-137l176 293h214z" />
    <glyph glyph-name="Zdotaccent" unicode="&#x17b;" horiz-adv-x="1139" vert-adv-y="2457" 
d="M1044 1430v-188.001l-613 -881c-44.667 -64 -73 -104 -85 -120c-21.333 -27.333 -38.333 -51.666 -51 -72.999c43.333 4 95.666 6 156.999 6h607v-174h-998v174l580 841c84 122 144.667 204 182 246c-13.333 -0.666992 -23.333 -1 -30 -1
c-47.333 -2.66699 -103.666 -4 -168.999 -4h-537v174h957zM666 1807v-207h-194v207h194z" />
    <glyph glyph-name="zdotaccent" unicode="&#x17c;" horiz-adv-x="1024" vert-adv-y="2457" 
d="M915 1048v-165.003l-507 -615c-22 -27.333 -41 -49.666 -57 -66.999c-21.333 -23.333 -38.333 -42.666 -51 -57.999c23.333 6.66699 78 10 164 10h475v-153h-852v159l496 609c12 14.667 51 58.334 117 131.001c-39.333 -2.66699 -89 -4 -149 -4h-440v153h804zM606 1467
v-207h-187v207h187z" />
    <glyph glyph-name="Zcaron" unicode="&#x17d;" horiz-adv-x="1139" vert-adv-y="2457" 
d="M1044 1430v-188.001l-613 -881c-44.667 -64 -73 -104 -85 -120c-21.333 -27.333 -38.333 -51.666 -51 -72.999c43.333 4 95.666 6 156.999 6h607v-174h-998v174l580 841c84 122 144.667 204 182 246c-13.333 -0.666992 -23.333 -1 -30 -1
c-47.333 -2.66699 -103.666 -4 -168.999 -4h-537v174h957zM469 1571l-235 279h179l154 -177l154 177h179l-235 -279h-196z" />
    <glyph glyph-name="zcaron" unicode="&#x17e;" horiz-adv-x="1024" vert-adv-y="2457" 
d="M908 1048v-165.003l-507 -615c-22 -27.333 -41 -49.666 -57 -66.999c-21.333 -23.333 -38.333 -42.666 -51 -57.999c23.333 6.66699 78 10 164 10h475v-153h-852v159l496 609c12 14.667 51 58.334 117 131.001c-39.333 -2.66699 -89 -4 -149 -4h-440v153h804zM822 1518
l-221 -293h-191l-221 293h164l152 -197l153 197h164z" />
    <glyph glyph-name="florin" unicode="&#x192;" horiz-adv-x="1159" vert-adv-y="2457" 
d="M1070 1579l-30.001 -161.999c-36 8.66699 -68 13 -96 13c-71.333 0 -122 -31.333 -152 -94c-11.333 -23.333 -24.666 -73.333 -39.999 -150l-29 -147h258l-27 -143h-259l-126 -681c-24 -130 -46 -222.667 -66 -278c-34.667 -96.667 -89.667 -160.334 -165 -191.001
c-43.333 -17.333 -98 -26 -164 -26c-35.333 0 -68 3.33301 -98 10l31 161c24 -3.33301 44 -5 60 -5c58 0 99 18.333 123 55c17.333 26 33.333 68.667 48 128c8 33.333 19 87.333 33 162l126 665h-230l26 143h230l31 162c23.333 125.333 53 213.333 89 264
c62.667 88 152.667 132 270 132c52 0 104.333 -6 157 -18z" />
    <glyph glyph-name="uni01D3" unicode="&#x1d3;" horiz-adv-x="1475" vert-adv-y="2457" 
d="M1290 1430v-805.999c0 -91.333 -4 -163.666 -12 -216.999c-23.333 -148 -89 -260.333 -197 -337c-90 -64.667 -203.667 -97 -341 -97c-138.667 0 -253.667 33 -345 99c-84.667 61.333 -142.667 141.666 -174 240.999c-24.667 77.333 -37 190.333 -37 339v778h203v-749
c0 -92.667 3 -162.334 9 -209.001c14.667 -116 56 -200.667 124 -254c62 -48 137 -72 225 -72c156 0 259.667 72 311 216c15.333 44.667 25 100 29 166c1.33301 24 2 72 2 144v758h203zM639 1571l-235 279h179l154 -177l154 177h179l-235 -279h-196z" />
    <glyph glyph-name="Scommaaccent" unicode="&#x218;" horiz-adv-x="1016" vert-adv-y="2457" 
d="M853 1406l-25.001 -180c-103.333 38.667 -192.333 58 -267 58c-78.667 0 -142.334 -19 -191.001 -57c-44.667 -34.667 -67 -81.334 -67 -140.001c0 -66.667 33 -123 99 -169c32.667 -23.333 76.667 -48.666 132 -75.999l77 -39c98 -48 167.333 -91.333 208 -130
c74 -69.333 111 -159.333 111 -270c0 -150 -60 -265.333 -180 -346c-82.667 -56 -185 -84 -307 -84c-119.333 0 -229 18.667 -329 56l21 193c106 -50.667 200 -76 282 -76c78 0 144.333 18.333 199 55c63.333 42.667 95 105 95 187c0 70.667 -30 129.334 -90 176.001
c-34 26.667 -77.667 52 -131 76l-80 35c-95.333 42.667 -166.666 87 -213.999 133c-70 67.333 -105 153.666 -105 258.999c0 122.667 43.333 218.667 130 288c86.667 68 196.334 102 329.001 102c103.333 0 204.333 -17 303 -51zM578.999 -100l-129 -300h-137l86 300h180z
" />
    <glyph glyph-name="scommaaccent" unicode="&#x219;" horiz-adv-x="810" vert-adv-y="2457" 
d="M686 1023l-14.999 -162.998c-70.667 35.333 -141.667 53 -213 53c-54 0 -97.667 -13 -131 -39c-30 -22.667 -45 -53.334 -45 -92.001c0 -40.667 19.333 -74.334 58 -101.001c28.667 -20 57.667 -37 87 -51l81 -38c78.667 -37.333 133.667 -73 165 -107
c46 -50.667 69 -112.334 69 -185.001c0 -101.333 -39.333 -182 -118 -242c-68.667 -51.333 -156.334 -77 -263.001 -77c-94.667 0 -185.334 20.333 -272.001 61v173c92.667 -45.333 174.667 -68 246 -68c59.333 0 109 13.667 149 41c34.667 24 52 56 52 96
c0 40.667 -17 73.667 -51 99c-15.333 10.667 -44.333 26.334 -87 47.001l-81 42c-77.333 39.333 -131.666 73.666 -162.999 102.999c-52 48.667 -78 111.334 -78 188.001c0 87.333 30.333 158.333 91 213c66.667 60.667 157.667 91 273 91c77.333 0 159.333 -14.667 246 -44
zM467.001 -92.998l-129 -300h-130l86 300h173z" />
    <glyph glyph-name="circumflex" unicode="&#x2c6;" vert-adv-y="2457" 
d="M601 1225h-164l-153 197l-152 -197h-164l221 293h191z" />
    <glyph glyph-name="caron" unicode="&#x2c7;" vert-adv-y="2457" 
d="M601 1518l-221 -293h-191l-221 293h164l152 -197l153 197h164z" />
    <glyph glyph-name="uni02C9" unicode="&#x2c9;" vert-adv-y="2457" 
d="M589 1420v-123h-609v123h609z" />
    <glyph glyph-name="breve" unicode="&#x2d8;" vert-adv-y="2457" 
d="M577 1518c-2.66699 -62 -18 -116.001 -46 -162.001c-23.333 -38.667 -55.333 -69 -96 -91c-45.333 -24 -95.666 -36 -150.999 -36c-74.667 0 -137.667 20.667 -189 62c-65.333 53.333 -99.333 129 -102 227h112c5.33301 -38.667 18 -69.667 38 -93
c37.333 -44.667 84.666 -67 141.999 -67c68.667 0 120.667 28.667 156 86c12 18.667 20 43.334 24 74.001h112z" />
    <glyph glyph-name="dotaccent" unicode="&#x2d9;" vert-adv-y="2457" 
d="M378 1467v-207h-187v207h187z" />
    <glyph glyph-name="ring" unicode="&#x2da;" vert-adv-y="2457" 
d="M288 1587c58.667 0 109.333 -23.001 152 -69.001c35.333 -39.333 53 -85.666 53 -138.999c0 -62 -23 -113.667 -69 -155c-39.333 -35.333 -85.666 -53 -138.999 -53c-62 0 -113.667 23 -155 69c-35.333 39.333 -53 86 -53 140c0 60 23 111 69 153
c39.333 36 86.666 54 141.999 54zM286.999 1481c-31.333 0 -57.333 -11.333 -78 -34c-17.333 -18.667 -26 -41 -26 -67c0 -31.333 11 -57 33 -77c19.333 -17.333 42.333 -26 69 -26c30.667 0 56 11 76 33c17.333 19.333 26 42.333 26 69c0 30 -11.333 55.333 -34 76
c-19.333 17.333 -41.333 26 -66 26z" />
    <glyph glyph-name="ogonek" unicode="&#x2db;" vert-adv-y="2457" 
d="M568 0l109.999 0.000976562c-89.333 -66 -134 -126.667 -134 -182c0 -28.667 13 -52.334 39 -71.001c16.667 -12.667 35.667 -19 57 -19c20.667 0 44.334 3.66699 71.001 11v-89c-34 -17.333 -74.667 -26 -122 -26c-54 0 -99.667 17.333 -137 52
c-35.333 33.333 -53 72 -53 116c0 76 56.333 145.333 169 208z" />
    <glyph glyph-name="tilde" unicode="&#x2dc;" vert-adv-y="2457" 
d="M601 1474c-8 -54.667 -24 -101 -48 -139c-33.333 -52 -78.333 -78 -135 -78c-31.333 0 -106.666 25.333 -225.999 76c-14 6 -28.333 9 -43 9c-43.333 0 -70 -29.333 -80 -88h-101c7.33301 50 20.666 91 39.999 123c37.333 61.333 90 92 158 92
c25.333 0 54.666 -6.33301 87.999 -19c8.66699 -3.33301 39.334 -16.333 92.001 -39c35.333 -14.667 60 -22 74 -22c22.667 0 42 9.66699 58 29c10.667 14 18 32.667 22 56h101z" />
    <glyph glyph-name="hungarumlaut" unicode="&#x2dd;" vert-adv-y="2457" 
d="M386 1518l-232 -293h-123l154 293h201zM718 1518l-232 -293h-123l154 293h201z" />
    <glyph glyph-name="tonos" unicode="&#x384;" vert-adv-y="2457" 
d="M400 644v-229h-230v229h230z" />
    <glyph glyph-name="dieresistonos" unicode="&#x385;" vert-adv-y="2457" 
d="M400 644v-229h-230v229h230z" />
    <glyph glyph-name="Alphatonos" unicode="&#x386;" vert-adv-y="2457" 
d="M400 644v-229h-230v229h230z" />
    <glyph glyph-name="anoteleia" unicode="&#x387;" vert-adv-y="2457" 
d="M400 644v-229h-230v229h230z" />
    <glyph glyph-name="Epsilontonos" unicode="&#x388;" vert-adv-y="2457" 
d="M400 644v-229h-230v229h230z" />
    <glyph glyph-name="Etatonos" unicode="&#x389;" vert-adv-y="2457" 
d="M400 644v-229h-230v229h230z" />
    <glyph glyph-name="Iotatonos" unicode="&#x38a;" vert-adv-y="2457" 
d="M400 644v-229h-230v229h230z" />
    <glyph glyph-name="Omicrontonos" unicode="&#x38c;" vert-adv-y="2457" 
d="M400 644v-229h-230v229h230z" />
    <glyph glyph-name="Upsilontonos" unicode="&#x38e;" vert-adv-y="2457" 
d="M400 644v-229h-230v229h230z" />
    <glyph glyph-name="Omegatonos" unicode="&#x38f;" vert-adv-y="2457" 
d="M400 644v-229h-230v229h230z" />
    <glyph glyph-name="iotadieresistonos" unicode="&#x390;" vert-adv-y="2457" 
d="M400 644v-229h-230v229h230z" />
    <glyph glyph-name="Alpha" unicode="&#x391;" vert-adv-y="2457" 
d="M400 644v-229h-230v229h230z" />
    <glyph glyph-name="Beta" unicode="&#x392;" vert-adv-y="2457" 
d="M400 644v-229h-230v229h230z" />
    <glyph glyph-name="Gamma" unicode="&#x393;" vert-adv-y="2457" 
d="M400 644v-229h-230v229h230z" />
    <glyph glyph-name="uni0394" unicode="&#x394;" vert-adv-y="2457" 
d="M400 644v-229h-230v229h230z" />
    <glyph glyph-name="Epsilon" unicode="&#x395;" vert-adv-y="2457" 
d="M400 644v-229h-230v229h230z" />
    <glyph glyph-name="Zeta" unicode="&#x396;" vert-adv-y="2457" 
d="M400 644v-229h-230v229h230z" />
    <glyph glyph-name="Eta" unicode="&#x397;" vert-adv-y="2457" 
d="M400 644v-229h-230v229h230z" />
    <glyph glyph-name="Theta" unicode="&#x398;" vert-adv-y="2457" 
d="M400 644v-229h-230v229h230z" />
    <glyph glyph-name="Iota" unicode="&#x399;" vert-adv-y="2457" 
d="M400 644v-229h-230v229h230z" />
    <glyph glyph-name="Kappa" unicode="&#x39a;" vert-adv-y="2457" 
d="M400 644v-229h-230v229h230z" />
    <glyph glyph-name="Lambda" unicode="&#x39b;" vert-adv-y="2457" 
d="M400 644v-229h-230v229h230z" />
    <glyph glyph-name="Mu" unicode="&#x39c;" vert-adv-y="2457" 
d="M400 644v-229h-230v229h230z" />
    <glyph glyph-name="Nu" unicode="&#x39d;" vert-adv-y="2457" 
d="M400 644v-229h-230v229h230z" />
    <glyph glyph-name="Xi" unicode="&#x39e;" vert-adv-y="2457" 
d="M400 644v-229h-230v229h230z" />
    <glyph glyph-name="Omicron" unicode="&#x39f;" vert-adv-y="2457" 
d="M400 644v-229h-230v229h230z" />
    <glyph glyph-name="Pi" unicode="&#x3a0;" vert-adv-y="2457" 
d="M400 644v-229h-230v229h230z" />
    <glyph glyph-name="Rho" unicode="&#x3a1;" vert-adv-y="2457" 
d="M400 644v-229h-230v229h230z" />
    <glyph glyph-name="Sigma" unicode="&#x3a3;" vert-adv-y="2457" 
d="M400 644v-229h-230v229h230z" />
    <glyph glyph-name="Tau" unicode="&#x3a4;" vert-adv-y="2457" 
d="M400 644v-229h-230v229h230z" />
    <glyph glyph-name="Upsilon" unicode="&#x3a5;" vert-adv-y="2457" 
d="M400 644v-229h-230v229h230z" />
    <glyph glyph-name="Phi" unicode="&#x3a6;" vert-adv-y="2457" 
d="M400 644v-229h-230v229h230z" />
    <glyph glyph-name="Chi" unicode="&#x3a7;" vert-adv-y="2457" 
d="M400 644v-229h-230v229h230z" />
    <glyph glyph-name="Psi" unicode="&#x3a8;" vert-adv-y="2457" 
d="M400 644v-229h-230v229h230z" />
    <glyph glyph-name="uni03A9" unicode="&#x3a9;" vert-adv-y="2457" 
d="M400 644v-229h-230v229h230z" />
    <glyph glyph-name="Iotadieresis" unicode="&#x3aa;" vert-adv-y="2457" 
d="M400 644v-229h-230v229h230z" />
    <glyph glyph-name="Upsilondieresis" unicode="&#x3ab;" vert-adv-y="2457" 
d="M400 644v-229h-230v229h230z" />
    <glyph glyph-name="alphatonos" unicode="&#x3ac;" vert-adv-y="2457" 
d="M400 644v-229h-230v229h230z" />
    <glyph glyph-name="epsilontonos" unicode="&#x3ad;" vert-adv-y="2457" 
d="M400 644v-229h-230v229h230z" />
    <glyph glyph-name="etatonos" unicode="&#x3ae;" vert-adv-y="2457" 
d="M400 644v-229h-230v229h230z" />
    <glyph glyph-name="iotatonos" unicode="&#x3af;" vert-adv-y="2457" 
d="M400 644v-229h-230v229h230z" />
    <glyph glyph-name="upsilondieresistonos" unicode="&#x3b0;" vert-adv-y="2457" 
d="M400 644v-229h-230v229h230z" />
    <glyph glyph-name="alpha" unicode="&#x3b1;" vert-adv-y="2457" 
d="M400 644v-229h-230v229h230z" />
    <glyph glyph-name="beta" unicode="&#x3b2;" vert-adv-y="2457" 
d="M400 644v-229h-230v229h230z" />
    <glyph glyph-name="gamma" unicode="&#x3b3;" vert-adv-y="2457" 
d="M400 644v-229h-230v229h230z" />
    <glyph glyph-name="delta" unicode="&#x3b4;" vert-adv-y="2457" 
d="M400 644v-229h-230v229h230z" />
    <glyph glyph-name="epsilon" unicode="&#x3b5;" vert-adv-y="2457" 
d="M400 644v-229h-230v229h230z" />
    <glyph glyph-name="zeta" unicode="&#x3b6;" vert-adv-y="2457" 
d="M400 644v-229h-230v229h230z" />
    <glyph glyph-name="eta" unicode="&#x3b7;" vert-adv-y="2457" 
d="M400 644v-229h-230v229h230z" />
    <glyph glyph-name="theta" unicode="&#x3b8;" vert-adv-y="2457" 
d="M400 644v-229h-230v229h230z" />
    <glyph glyph-name="iota" unicode="&#x3b9;" vert-adv-y="2457" 
d="M400 644v-229h-230v229h230z" />
    <glyph glyph-name="kappa" unicode="&#x3ba;" vert-adv-y="2457" 
d="M400 644v-229h-230v229h230z" />
    <glyph glyph-name="lambda" unicode="&#x3bb;" vert-adv-y="2457" 
d="M400 644v-229h-230v229h230z" />
    <glyph glyph-name="uni03BC" unicode="&#x3bc;" vert-adv-y="2457" 
d="M400 644v-229h-230v229h230z" />
    <glyph glyph-name="nu" unicode="&#x3bd;" vert-adv-y="2457" 
d="M400 644v-229h-230v229h230z" />
    <glyph glyph-name="xi" unicode="&#x3be;" vert-adv-y="2457" 
d="M400 644v-229h-230v229h230z" />
    <glyph glyph-name="omicron" unicode="&#x3bf;" vert-adv-y="2457" 
d="M400 644v-229h-230v229h230z" />
    <glyph glyph-name="pi" unicode="&#x3c0;" vert-adv-y="2457" 
d="M400 644v-229h-230v229h230z" />
    <glyph glyph-name="rho" unicode="&#x3c1;" vert-adv-y="2457" 
d="M400 644v-229h-230v229h230z" />
    <glyph glyph-name="uni03C2" unicode="&#x3c2;" vert-adv-y="2457" 
d="M400 644v-229h-230v229h230z" />
    <glyph glyph-name="sigma" unicode="&#x3c3;" vert-adv-y="2457" 
d="M400 644v-229h-230v229h230z" />
    <glyph glyph-name="tau" unicode="&#x3c4;" vert-adv-y="2457" 
d="M400 644v-229h-230v229h230z" />
    <glyph glyph-name="upsilon" unicode="&#x3c5;" vert-adv-y="2457" 
d="M400 644v-229h-230v229h230z" />
    <glyph glyph-name="phi" unicode="&#x3c6;" vert-adv-y="2457" 
d="M400 644v-229h-230v229h230z" />
    <glyph glyph-name="chi" unicode="&#x3c7;" vert-adv-y="2457" 
d="M400 644v-229h-230v229h230z" />
    <glyph glyph-name="psi" unicode="&#x3c8;" vert-adv-y="2457" 
d="M400 644v-229h-230v229h230z" />
    <glyph glyph-name="omega" unicode="&#x3c9;" vert-adv-y="2457" 
d="M400 644v-229h-230v229h230z" />
    <glyph glyph-name="iotadieresis" unicode="&#x3ca;" vert-adv-y="2457" 
d="M400 644v-229h-230v229h230z" />
    <glyph glyph-name="upsilondieresis" unicode="&#x3cb;" vert-adv-y="2457" 
d="M400 644v-229h-230v229h230z" />
    <glyph glyph-name="omicrontonos" unicode="&#x3cc;" vert-adv-y="2457" 
d="M400 644v-229h-230v229h230z" />
    <glyph glyph-name="upsilontonos" unicode="&#x3cd;" vert-adv-y="2457" 
d="M400 644v-229h-230v229h230z" />
    <glyph glyph-name="omegatonos" unicode="&#x3ce;" vert-adv-y="2457" 
d="M400 644v-229h-230v229h230z" />
    <glyph glyph-name="theta1" unicode="&#x3d1;" vert-adv-y="2457" 
d="M400 644v-229h-230v229h230z" />
    <glyph glyph-name="Upsilon1" unicode="&#x3d2;" vert-adv-y="2457" 
d="M400 644v-229h-230v229h230z" />
    <glyph glyph-name="phi1" unicode="&#x3d5;" vert-adv-y="2457" 
d="M400 644v-229h-230v229h230z" />
    <glyph glyph-name="omega1" unicode="&#x3d6;" vert-adv-y="2457" 
d="M400 644v-229h-230v229h230z" />
    <glyph glyph-name="afii10023" unicode="&#x401;" vert-adv-y="2457" 
d="M400 644v-229h-230v229h230z" />
    <glyph glyph-name="afii10051" unicode="&#x402;" vert-adv-y="2457" 
d="M400 644v-229h-230v229h230z" />
    <glyph glyph-name="afii10052" unicode="&#x403;" vert-adv-y="2457" 
d="M400 644v-229h-230v229h230z" />
    <glyph glyph-name="afii10053" unicode="&#x404;" vert-adv-y="2457" 
d="M400 644v-229h-230v229h230z" />
    <glyph glyph-name="afii10054" unicode="&#x405;" vert-adv-y="2457" 
d="M400 644v-229h-230v229h230z" />
    <glyph glyph-name="afii10055" unicode="&#x406;" vert-adv-y="2457" 
d="M400 644v-229h-230v229h230z" />
    <glyph glyph-name="afii10056" unicode="&#x407;" vert-adv-y="2457" 
d="M400 644v-229h-230v229h230z" />
    <glyph glyph-name="afii10057" unicode="&#x408;" vert-adv-y="2457" 
d="M400 644v-229h-230v229h230z" />
    <glyph glyph-name="afii10058" unicode="&#x409;" vert-adv-y="2457" 
d="M400 644v-229h-230v229h230z" />
    <glyph glyph-name="afii10059" unicode="&#x40a;" vert-adv-y="2457" 
d="M400 644v-229h-230v229h230z" />
    <glyph glyph-name="afii10060" unicode="&#x40b;" vert-adv-y="2457" 
d="M400 644v-229h-230v229h230z" />
    <glyph glyph-name="afii10061" unicode="&#x40c;" vert-adv-y="2457" 
d="M400 644v-229h-230v229h230z" />
    <glyph glyph-name="afii10062" unicode="&#x40e;" vert-adv-y="2457" 
d="M400 644v-229h-230v229h230z" />
    <glyph glyph-name="afii10145" unicode="&#x40f;" vert-adv-y="2457" 
d="M400 644v-229h-230v229h230z" />
    <glyph glyph-name="afii10017" unicode="&#x410;" vert-adv-y="2457" 
d="M400 644v-229h-230v229h230z" />
    <glyph glyph-name="afii10018" unicode="&#x411;" vert-adv-y="2457" 
d="M400 644v-229h-230v229h230z" />
    <glyph glyph-name="afii10019" unicode="&#x412;" vert-adv-y="2457" 
d="M400 644v-229h-230v229h230z" />
    <glyph glyph-name="afii10020" unicode="&#x413;" vert-adv-y="2457" 
d="M400 644v-229h-230v229h230z" />
    <glyph glyph-name="afii10021" unicode="&#x414;" vert-adv-y="2457" 
d="M400 644v-229h-230v229h230z" />
    <glyph glyph-name="afii10022" unicode="&#x415;" vert-adv-y="2457" 
d="M400 644v-229h-230v229h230z" />
    <glyph glyph-name="afii10024" unicode="&#x416;" vert-adv-y="2457" 
d="M400 644v-229h-230v229h230z" />
    <glyph glyph-name="afii10025" unicode="&#x417;" vert-adv-y="2457" 
d="M400 644v-229h-230v229h230z" />
    <glyph glyph-name="afii10026" unicode="&#x418;" vert-adv-y="2457" 
d="M400 644v-229h-230v229h230z" />
    <glyph glyph-name="afii10027" unicode="&#x419;" vert-adv-y="2457" 
d="M400 644v-229h-230v229h230z" />
    <glyph glyph-name="afii10028" unicode="&#x41a;" vert-adv-y="2457" 
d="M400 644v-229h-230v229h230z" />
    <glyph glyph-name="afii10029" unicode="&#x41b;" vert-adv-y="2457" 
d="M400 644v-229h-230v229h230z" />
    <glyph glyph-name="afii10030" unicode="&#x41c;" vert-adv-y="2457" 
d="M400 644v-229h-230v229h230z" />
    <glyph glyph-name="afii10031" unicode="&#x41d;" vert-adv-y="2457" 
d="M400 644v-229h-230v229h230z" />
    <glyph glyph-name="afii10032" unicode="&#x41e;" vert-adv-y="2457" 
d="M400 644v-229h-230v229h230z" />
    <glyph glyph-name="afii10033" unicode="&#x41f;" vert-adv-y="2457" 
d="M400 644v-229h-230v229h230z" />
    <glyph glyph-name="afii10034" unicode="&#x420;" vert-adv-y="2457" 
d="M400 644v-229h-230v229h230z" />
    <glyph glyph-name="afii10035" unicode="&#x421;" vert-adv-y="2457" 
d="M400 644v-229h-230v229h230z" />
    <glyph glyph-name="afii10036" unicode="&#x422;" vert-adv-y="2457" 
d="M400 644v-229h-230v229h230z" />
    <glyph glyph-name="afii10037" unicode="&#x423;" vert-adv-y="2457" 
d="M400 644v-229h-230v229h230z" />
    <glyph glyph-name="afii10038" unicode="&#x424;" vert-adv-y="2457" 
d="M400 644v-229h-230v229h230z" />
    <glyph glyph-name="afii10039" unicode="&#x425;" vert-adv-y="2457" 
d="M400 644v-229h-230v229h230z" />
    <glyph glyph-name="afii10040" unicode="&#x426;" vert-adv-y="2457" 
d="M400 644v-229h-230v229h230z" />
    <glyph glyph-name="afii10041" unicode="&#x427;" vert-adv-y="2457" 
d="M400 644v-229h-230v229h230z" />
    <glyph glyph-name="afii10042" unicode="&#x428;" vert-adv-y="2457" 
d="M400 644v-229h-230v229h230z" />
    <glyph glyph-name="afii10043" unicode="&#x429;" vert-adv-y="2457" 
d="M400 644v-229h-230v229h230z" />
    <glyph glyph-name="afii10044" unicode="&#x42a;" vert-adv-y="2457" 
d="M400 644v-229h-230v229h230z" />
    <glyph glyph-name="afii10045" unicode="&#x42b;" vert-adv-y="2457" 
d="M400 644v-229h-230v229h230z" />
    <glyph glyph-name="afii10046" unicode="&#x42c;" vert-adv-y="2457" 
d="M400 644v-229h-230v229h230z" />
    <glyph glyph-name="afii10047" unicode="&#x42d;" vert-adv-y="2457" 
d="M400 644v-229h-230v229h230z" />
    <glyph glyph-name="afii10048" unicode="&#x42e;" vert-adv-y="2457" 
d="M400 644v-229h-230v229h230z" />
    <glyph glyph-name="afii10049" unicode="&#x42f;" vert-adv-y="2457" 
d="M400 644v-229h-230v229h230z" />
    <glyph glyph-name="afii10065" unicode="&#x430;" vert-adv-y="2457" 
d="M400 644v-229h-230v229h230z" />
    <glyph glyph-name="afii10066" unicode="&#x431;" vert-adv-y="2457" 
d="M400 644v-229h-230v229h230z" />
    <glyph glyph-name="afii10067" unicode="&#x432;" vert-adv-y="2457" 
d="M400 644v-229h-230v229h230z" />
    <glyph glyph-name="afii10068" unicode="&#x433;" vert-adv-y="2457" 
d="M400 644v-229h-230v229h230z" />
    <glyph glyph-name="afii10069" unicode="&#x434;" vert-adv-y="2457" 
d="M400 644v-229h-230v229h230z" />
    <glyph glyph-name="afii10070" unicode="&#x435;" vert-adv-y="2457" 
d="M400 644v-229h-230v229h230z" />
    <glyph glyph-name="afii10072" unicode="&#x436;" vert-adv-y="2457" 
d="M400 644v-229h-230v229h230z" />
    <glyph glyph-name="afii10073" unicode="&#x437;" vert-adv-y="2457" 
d="M400 644v-229h-230v229h230z" />
    <glyph glyph-name="afii10074" unicode="&#x438;" vert-adv-y="2457" 
d="M400 644v-229h-230v229h230z" />
    <glyph glyph-name="afii10075" unicode="&#x439;" vert-adv-y="2457" 
d="M400 644v-229h-230v229h230z" />
    <glyph glyph-name="afii10076" unicode="&#x43a;" vert-adv-y="2457" 
d="M400 644v-229h-230v229h230z" />
    <glyph glyph-name="afii10077" unicode="&#x43b;" vert-adv-y="2457" 
d="M400 644v-229h-230v229h230z" />
    <glyph glyph-name="afii10078" unicode="&#x43c;" vert-adv-y="2457" 
d="M400 644v-229h-230v229h230z" />
    <glyph glyph-name="afii10079" unicode="&#x43d;" vert-adv-y="2457" 
d="M400 644v-229h-230v229h230z" />
    <glyph glyph-name="afii10080" unicode="&#x43e;" vert-adv-y="2457" 
d="M400 644v-229h-230v229h230z" />
    <glyph glyph-name="afii10081" unicode="&#x43f;" vert-adv-y="2457" 
d="M400 644v-229h-230v229h230z" />
    <glyph glyph-name="afii10082" unicode="&#x440;" vert-adv-y="2457" 
d="M400 644v-229h-230v229h230z" />
    <glyph glyph-name="afii10083" unicode="&#x441;" vert-adv-y="2457" 
d="M400 644v-229h-230v229h230z" />
    <glyph glyph-name="afii10084" unicode="&#x442;" vert-adv-y="2457" 
d="M400 644v-229h-230v229h230z" />
    <glyph glyph-name="afii10085" unicode="&#x443;" vert-adv-y="2457" 
d="M400 644v-229h-230v229h230z" />
    <glyph glyph-name="afii10086" unicode="&#x444;" vert-adv-y="2457" 
d="M400 644v-229h-230v229h230z" />
    <glyph glyph-name="afii10087" unicode="&#x445;" vert-adv-y="2457" 
d="M400 644v-229h-230v229h230z" />
    <glyph glyph-name="afii10088" unicode="&#x446;" vert-adv-y="2457" 
d="M400 644v-229h-230v229h230z" />
    <glyph glyph-name="afii10089" unicode="&#x447;" vert-adv-y="2457" 
d="M400 644v-229h-230v229h230z" />
    <glyph glyph-name="afii10090" unicode="&#x448;" vert-adv-y="2457" 
d="M400 644v-229h-230v229h230z" />
    <glyph glyph-name="afii10091" unicode="&#x449;" vert-adv-y="2457" 
d="M400 644v-229h-230v229h230z" />
    <glyph glyph-name="afii10092" unicode="&#x44a;" vert-adv-y="2457" 
d="M400 644v-229h-230v229h230z" />
    <glyph glyph-name="afii10093" unicode="&#x44b;" vert-adv-y="2457" 
d="M400 644v-229h-230v229h230z" />
    <glyph glyph-name="afii10094" unicode="&#x44c;" vert-adv-y="2457" 
d="M400 644v-229h-230v229h230z" />
    <glyph glyph-name="afii10095" unicode="&#x44d;" vert-adv-y="2457" 
d="M400 644v-229h-230v229h230z" />
    <glyph glyph-name="afii10096" unicode="&#x44e;" vert-adv-y="2457" 
d="M400 644v-229h-230v229h230z" />
    <glyph glyph-name="afii10097" unicode="&#x44f;" vert-adv-y="2457" 
d="M400 644v-229h-230v229h230z" />
    <glyph glyph-name="afii10071" unicode="&#x451;" vert-adv-y="2457" 
d="M400 644v-229h-230v229h230z" />
    <glyph glyph-name="afii10099" unicode="&#x452;" vert-adv-y="2457" 
d="M400 644v-229h-230v229h230z" />
    <glyph glyph-name="afii10100" unicode="&#x453;" vert-adv-y="2457" 
d="M400 644v-229h-230v229h230z" />
    <glyph glyph-name="afii10101" unicode="&#x454;" vert-adv-y="2457" 
d="M400 644v-229h-230v229h230z" />
    <glyph glyph-name="afii10102" unicode="&#x455;" vert-adv-y="2457" 
d="M400 644v-229h-230v229h230z" />
    <glyph glyph-name="afii10103" unicode="&#x456;" vert-adv-y="2457" 
d="M400 644v-229h-230v229h230z" />
    <glyph glyph-name="afii10104" unicode="&#x457;" vert-adv-y="2457" 
d="M400 644v-229h-230v229h230z" />
    <glyph glyph-name="afii10105" unicode="&#x458;" vert-adv-y="2457" 
d="M400 644v-229h-230v229h230z" />
    <glyph glyph-name="afii10106" unicode="&#x459;" vert-adv-y="2457" 
d="M400 644v-229h-230v229h230z" />
    <glyph glyph-name="afii10107" unicode="&#x45a;" vert-adv-y="2457" 
d="M400 644v-229h-230v229h230z" />
    <glyph glyph-name="afii10108" unicode="&#x45b;" vert-adv-y="2457" 
d="M400 644v-229h-230v229h230z" />
    <glyph glyph-name="afii10109" unicode="&#x45c;" vert-adv-y="2457" 
d="M400 644v-229h-230v229h230z" />
    <glyph glyph-name="afii10110" unicode="&#x45e;" vert-adv-y="2457" 
d="M400 644v-229h-230v229h230z" />
    <glyph glyph-name="afii10193" unicode="&#x45f;" vert-adv-y="2457" 
d="M400 644v-229h-230v229h230z" />
    <glyph glyph-name="afii10050" unicode="&#x490;" vert-adv-y="2457" 
d="M400 644v-229h-230v229h230z" />
    <glyph glyph-name="afii10098" unicode="&#x491;" vert-adv-y="2457" 
d="M400 644v-229h-230v229h230z" />
    <glyph glyph-name="uni0492" unicode="&#x492;" vert-adv-y="2457" 
d="M400 644v-229h-230v229h230z" />
    <glyph glyph-name="uni0493" unicode="&#x493;" vert-adv-y="2457" 
d="M400 644v-229h-230v229h230z" />
    <glyph glyph-name="uni0496" unicode="&#x496;" vert-adv-y="2457" 
d="M400 644v-229h-230v229h230z" />
    <glyph glyph-name="uni0497" unicode="&#x497;" vert-adv-y="2457" 
d="M400 644v-229h-230v229h230z" />
    <glyph glyph-name="uni049A" unicode="&#x49a;" vert-adv-y="2457" 
d="M400 644v-229h-230v229h230z" />
    <glyph glyph-name="uni049B" unicode="&#x49b;" vert-adv-y="2457" 
d="M400 644v-229h-230v229h230z" />
    <glyph glyph-name="uni049C" unicode="&#x49c;" vert-adv-y="2457" 
d="M400 644v-229h-230v229h230z" />
    <glyph glyph-name="uni049D" unicode="&#x49d;" vert-adv-y="2457" 
d="M400 644v-229h-230v229h230z" />
    <glyph glyph-name="uni04A2" unicode="&#x4a2;" vert-adv-y="2457" 
d="M400 644v-229h-230v229h230z" />
    <glyph glyph-name="uni04A3" unicode="&#x4a3;" vert-adv-y="2457" 
d="M400 644v-229h-230v229h230z" />
    <glyph glyph-name="uni04AE" unicode="&#x4ae;" vert-adv-y="2457" 
d="M400 644v-229h-230v229h230z" />
    <glyph glyph-name="uni04AF" unicode="&#x4af;" vert-adv-y="2457" 
d="M400 644v-229h-230v229h230z" />
    <glyph glyph-name="uni04B0" unicode="&#x4b0;" vert-adv-y="2457" 
d="M400 644v-229h-230v229h230z" />
    <glyph glyph-name="uni04B1" unicode="&#x4b1;" vert-adv-y="2457" 
d="M400 644v-229h-230v229h230z" />
    <glyph glyph-name="uni04B2" unicode="&#x4b2;" vert-adv-y="2457" 
d="M400 644v-229h-230v229h230z" />
    <glyph glyph-name="uni04B3" unicode="&#x4b3;" vert-adv-y="2457" 
d="M400 644v-229h-230v229h230z" />
    <glyph glyph-name="uni04B8" unicode="&#x4b8;" vert-adv-y="2457" 
d="M400 644v-229h-230v229h230z" />
    <glyph glyph-name="uni04B9" unicode="&#x4b9;" vert-adv-y="2457" 
d="M400 644v-229h-230v229h230z" />
    <glyph glyph-name="uni04BA" unicode="&#x4ba;" vert-adv-y="2457" 
d="M400 644v-229h-230v229h230z" />
    <glyph glyph-name="uni04BB" unicode="&#x4bb;" vert-adv-y="2457" 
d="M400 644v-229h-230v229h230z" />
    <glyph glyph-name="uni04C0" unicode="&#x4c0;" vert-adv-y="2457" 
d="M400 644v-229h-230v229h230z" />
    <glyph glyph-name="uni04D8" unicode="&#x4d8;" vert-adv-y="2457" 
d="M400 644v-229h-230v229h230z" />
    <glyph glyph-name="afii10846" unicode="&#x4d9;" vert-adv-y="2457" 
d="M400 644v-229h-230v229h230z" />
    <glyph glyph-name="uni04E8" unicode="&#x4e8;" vert-adv-y="2457" 
d="M400 644v-229h-230v229h230z" />
    <glyph glyph-name="uni04E9" unicode="&#x4e9;" vert-adv-y="2457" 
d="M400 644v-229h-230v229h230z" />
    <glyph glyph-name="uni2011" unicode="&#x2011;" horiz-adv-x="682" vert-adv-y="2457" 
d="M610 609v-160h-538v160h538z" />
    <glyph glyph-name="figuredash" unicode="&#x2012;" horiz-adv-x="1024" vert-adv-y="2457" 
d="M1024 609v-160h-1024v160h1024z" />
    <glyph glyph-name="endash" unicode="&#x2013;" horiz-adv-x="1024" vert-adv-y="2457" 
d="M1024 609v-160h-1024v160h1024z" />
    <glyph glyph-name="emdash" unicode="&#x2014;" horiz-adv-x="2048" vert-adv-y="2457" 
d="M2048 609v-160h-2048v160h2048z" />
    <glyph glyph-name="afii00208" unicode="&#x2015;" horiz-adv-x="2048" vert-adv-y="2457" 
d="M2048 609v-160h-2048v160h2048z" />
    <glyph glyph-name="quoteleft" unicode="&#x2018;" vert-adv-y="2457" 
d="M120 1039l178 505h180l-128 -505h-230z" />
    <glyph glyph-name="quoteright" unicode="&#x2019;" vert-adv-y="2457" 
d="M450 1544l-178 -505h-180l128 505h230z" />
    <glyph glyph-name="quotesinglbase" unicode="&#x201a;" vert-adv-y="2457" 
d="M450 230l-178 -504h-180l128 504h230z" />
    <glyph glyph-name="quotedblleft" unicode="&#x201c;" horiz-adv-x="1139" vert-adv-y="2457" 
d="M600 1039l178 505h180l-128 -505h-230zM210 1039l178 505h180l-128 -505h-230z" />
    <glyph glyph-name="quotedblright" unicode="&#x201d;" horiz-adv-x="1139" vert-adv-y="2457" 
d="M539 1544l-178 -505h-180l128 505h230zM929 1544l-179 -505h-179l127 505h231z" />
    <glyph glyph-name="quotedblbase" unicode="&#x201e;" horiz-adv-x="1139" vert-adv-y="2457" 
d="M568 230l-178 -506h-180l128 506h230zM958 230l-179 -506h-179l127 506h231z" />
    <glyph glyph-name="dagger" unicode="&#x2020;" horiz-adv-x="1139" vert-adv-y="2457" 
d="M652 1544v-418h395v-151h-390v-1412h-167v1412h-399v151h392v418h169z" />
    <glyph glyph-name="daggerdbl" unicode="&#x2021;" horiz-adv-x="1139" vert-adv-y="2457" 
d="M652 1544v-418h395v-151h-390v-801h390v-151h-395v-460h-169v460h-392v151h399v801h-399v151h392v418h169z" />
    <glyph glyph-name="bullet" unicode="&#x2022;" horiz-adv-x="945" vert-adv-y="2457" 
d="M775 1012v-605h-605v605h605z" />
    <glyph glyph-name="ellipsis" unicode="&#x2026;" horiz-adv-x="2048" vert-adv-y="2457" 
d="M538 230v-230h-230v230h230zM1138 230v-230h-230v230h230zM1739 230v-230h-230v230h230z" />
    <glyph glyph-name="perthousand" unicode="&#x2030;" horiz-adv-x="2048" vert-adv-y="2457" 
d="M1022 718c116 0 198.666 -43 247.999 -129c36.667 -63.333 55 -144.333 55 -243c0 -94 -20.667 -174.333 -62 -241c-53.333 -85.333 -133.666 -128 -240.999 -128c-102 0 -180.667 38 -236 114c-47.333 64.667 -71 151 -71 259c0 100.667 21.667 183 65 247
c54 80.667 134.667 121 242 121zM1024 598c-38.667 0 -72.667 -14 -102 -42c-42 -42 -63 -112.667 -63 -212c0 -62 10.667 -116 32 -162c26.667 -55.333 70 -83 130 -83c60.667 0 103.667 28 129 84c20.667 45.333 31 99.333 31 162c0 66 -9.66699 120.667 -29 164
c-27.333 59.333 -70 89 -128 89zM333.999 1453c117.333 0 200.667 -42.667 250 -128c36.667 -64.667 55 -146 55 -244c0 -92.667 -21 -173 -63 -241c-52 -85.333 -132 -128 -240 -128c-102 0 -180.667 38 -236 114c-47.333 64.667 -71 151 -71 259
c0 101.333 21.667 184 65 248c54 80 134 120 240 120zM336 1333c-60.667 0 -104.333 -28.333 -131 -85c-21.333 -45.333 -32 -102 -32 -170c0 -62.667 10.667 -116 32 -160c26.667 -56 69.667 -84 129 -84c60.667 0 103.667 28.333 129 85c20.667 46.667 31 100.667 31 162
c0 64 -10 118.333 -30 163c-26 59.333 -68.667 89 -128 89zM1207 1518l-910 -1607h-134l908 1607h136zM1695 718c116 0 198.666 -42.999 247.999 -128.999c36.667 -62.667 55 -143.667 55 -243c0 -94.667 -20.667 -175 -62 -241
c-53.333 -85.333 -133.666 -128 -240.999 -128c-102 0 -180.667 38 -236 114c-47.333 65.333 -71 151.666 -71 258.999c0 100 21.667 182.333 65 247c54 80.667 134.667 121 242 121zM1697 598.001c-38.667 0 -72.333 -14 -101 -42c-42.667 -42 -64 -112.667 -64 -212
c0 -61.333 11 -115.333 33 -162c26 -55.333 69 -83 129 -83c60.667 0 103.667 28 129 84c20.667 44.667 31 99 31 163c0 66 -9.66699 120.333 -29 163c-27.333 59.333 -70 89 -128 89z" />
    <glyph glyph-name="guilsinglleft" unicode="&#x2039;" vert-adv-y="2457" 
d="M507 945l-266 -416l271 -425h-183l-295 425l288 416h185z" />
    <glyph glyph-name="guilsinglright" unicode="&#x203a;" vert-adv-y="2457" 
d="M62 945h186l287 -416l-295 -425h-183l271 425z" />
    <glyph glyph-name="uni203E" unicode="&#x203e;" vert-adv-y="2457" 
d="M-251 1870h1072v-174h-1072v174z" />
    <glyph glyph-name="fraction" unicode="&#x2044;" horiz-adv-x="342" vert-adv-y="2457" 
d="M625 1498l-783 -1567h-124l781 1567h126z" />
    <glyph glyph-name="zerosuperior" unicode="&#x2070;" horiz-adv-x="739" vert-adv-y="2457" 
d="M374 1444c72.667 0 134.668 -26.666 186.001 -79.999c68 -69.333 102 -193 102 -371c0 -113.333 -16.333 -207 -49 -281c-21.333 -48 -54.333 -86.667 -99 -116c-42.667 -28 -91 -42 -145 -42c-76.667 0 -140.334 27.667 -191.001 83
c-67.333 73.333 -101 195.666 -101 366.999c0 114 14.667 205 44 273c48 111.333 132.333 167 253 167zM372.001 1308c-92.667 0 -139 -101.667 -139 -305c0 -112 15 -195.667 45 -251c22 -41.333 53 -62 93 -62c90 0 135 103.667 135 311c0 112 -15.333 194.667 -46 248
c-22.667 39.333 -52 59 -88 59z" />
    <glyph glyph-name="foursuperior" unicode="&#x2074;" horiz-adv-x="739" vert-adv-y="2457" 
d="M583 1430v-547h108v-134h-108v-180h-153v180h-377v120l335 561h195zM430 883l5 309.001c0.666992 17.333 1.66699 41 3 71c-44.667 -84.667 -97.667 -178.334 -159 -281.001c-29.333 -49.333 -48.333 -82.333 -57 -99h208z" />
    <glyph glyph-name="fivesuperior" unicode="&#x2075;" horiz-adv-x="739" vert-adv-y="2457" 
d="M621 1427l0.000976562 -136.002h-339l-3 -135c0 -9.33301 -0.333008 -21.666 -1 -36.999c25.333 4 48.666 6 69.999 6c92.667 0 166.667 -27.333 222 -82c51.333 -52 77 -116.333 77 -193c0 -61.333 -17.667 -116.666 -53 -165.999
c-59.333 -81.333 -153.333 -122 -282 -122c-60 0 -122 10.667 -186 32l3 154c72 -36.667 133.333 -55 184 -55c52.667 0 95 15 127 45c29.333 27.333 44 62 44 104c0 46.667 -17.667 83.667 -53 111c-32.667 25.333 -75.667 38 -129 38c-48.667 0 -105.667 -12.333 -171 -37
l6 473h484z" />
    <glyph glyph-name="sixsuperior" unicode="&#x2076;" horiz-adv-x="739" vert-adv-y="2457" 
d="M624 1411l-20.001 -146.002c-60 30 -114 45 -162 45c-70 0 -123 -32 -159 -96c-18.667 -33.333 -32 -79.666 -40 -138.999c46.667 37.333 100.334 56 161.001 56c74.667 0 136.667 -26.333 186 -79c48.667 -53.333 73 -121 73 -203c0 -86 -27.333 -157.333 -82 -214
c-51.333 -53.333 -117.333 -80 -198 -80c-104.667 0 -181.334 42.333 -230.001 127c-41.333 72.667 -62 169.667 -62 291c0 128.667 21 231.334 63 308.001c58.667 108 152.667 162 282 162c58.667 0 121.334 -10.667 188.001 -32zM381.999 997.998
c-40 0 -71.665 -14.999 -94.998 -44.999c-21.333 -28 -32 -62.333 -32 -103c0 -42.667 11 -80.334 33 -113.001c23.333 -34.667 55 -52 95 -52c37.333 0 67.666 15.667 90.999 47c22 29.333 33 65.666 33 108.999c0 44.667 -11 81.334 -33 110.001
c-24.667 31.333 -55.334 47 -92.001 47z" />
    <glyph glyph-name="sevensuperior" unicode="&#x2077;" horiz-adv-x="739" vert-adv-y="2457" 
d="M639 1425v-122l-308 -734h-169l251 586c10.667 24.667 28 62.667 52 114l9 20c-20 -0.666992 -31.667 -1 -35 -1h-352v137h552z" />
    <glyph glyph-name="eightsuperior" unicode="&#x2078;" horiz-adv-x="739" vert-adv-y="2457" 
d="M517 1032c98.667 -48.667 148.001 -123.333 148.001 -224c0 -76.667 -28.333 -139 -85 -187c-52.667 -44 -121.667 -66 -207 -66c-76.667 0 -142.334 18.333 -197.001 55c-69.333 46.667 -104 111.667 -104 195c0 94.667 47 167.334 141 218.001
c-82.667 47.333 -124 112.666 -124 195.999c0 76 31.667 134.333 95 175c50 32.667 111.333 49 184 49c80.667 0 146.667 -21.333 198 -64c49.333 -40.667 74 -92.667 74 -156c0 -77.333 -41 -141 -123 -191zM391.001 1087c2 2 4.33301 3.99902 7 5.99902
c19.333 12.667 36 27.667 50 45c24 29.333 36 57.666 36 84.999c0 24.667 -10.333 45.334 -31 62.001c-25.333 20.667 -54.666 31 -87.999 31s-62.333 -10 -87 -30c-21.333 -17.333 -32 -38.333 -32 -63c0 -33.333 24 -65.666 72 -96.999c15.333 -10 33.666 -20 54.999 -30
c11.333 -6 17.333 -9 18 -9zM350.001 956l-9.99902 -6.00195c-72 -37.333 -108 -82.666 -108 -135.999c0 -38.667 15.333 -70 46 -94c26 -20.667 58.333 -31 97 -31c37.333 0 68 9.33301 92 28c27.333 22 41 50 41 84c0 44.667 -25 83.334 -75 116.001
c-15.333 9.33301 -33.333 18.333 -54 27c-18.667 8 -28.334 12 -29.001 12z" />
    <glyph glyph-name="ninesuperior" unicode="&#x2079;" horiz-adv-x="739" vert-adv-y="2457" 
d="M135 736c60 -31.333 113.332 -46.999 159.999 -46.999c110.667 0 177 78 199 234c-44.667 -35.333 -97 -53 -157 -53c-86 0 -154 32.667 -204 98c-38.667 50 -58 112.333 -58 187c0 85.333 27 155.666 81 210.999c52.667 53.333 118 80 196 80
c102.667 0 178.667 -40.667 228 -122c43.333 -72 65 -168.333 65 -289c0 -129.333 -18.667 -231 -56 -305c-59.333 -116.667 -156.666 -175 -291.999 -175c-52 0 -113 11 -183 33zM357.999 1315c-44 0 -78.333 -20.332 -103 -60.999c-16 -26 -24 -57.333 -24 -94
c0 -48.667 12.667 -87.334 38 -116.001c24 -27.333 53.667 -41 89 -41c42 0 75.333 18.333 100 55c16 24.667 24 55.667 24 93c0 49.333 -13.667 90 -41 122c-23.333 28 -51 42 -83 42z" />
    <glyph glyph-name="zeroinferior" unicode="&#x2080;" horiz-adv-x="739" vert-adv-y="2457" 
d="M374 875c72 0 134 -26.666 186 -79.999c68 -69.333 102 -193 102 -371c0 -114 -16.333 -207.667 -49 -281c-21.333 -48.667 -54.333 -87.667 -99 -117c-42.667 -28 -91 -42 -145 -42c-76 0 -139.667 27.667 -191 83c-67.333 73.333 -101 195.666 -101 366.999
c0 114 14.667 205.333 44 274c48 111.333 132.333 167 253 167zM372 739.001c-92.667 0 -139 -102 -139 -306c0 -111.333 15 -195 45 -251c22 -41.333 53 -62 93 -62c90 0 135 103.667 135 311c0 112 -15.333 195 -46 249c-22.667 39.333 -52 59 -88 59z" />
    <glyph glyph-name="oneinferior" unicode="&#x2081;" horiz-adv-x="739" vert-adv-y="2457" 
d="M492 861v-861h-153v519c0 45.333 0.333008 94 1 146l-108 -96l-88 107l217 185h131z" />
    <glyph glyph-name="twoinferior" unicode="&#x2082;" horiz-adv-x="739" vert-adv-y="2457" 
d="M107 815c44.667 18.667 78.334 30.998 101.001 36.998c42 12 86.333 18 133 18c89.333 0 160.666 -25.333 213.999 -76c46.667 -45.333 70 -101.666 70 -168.999c0 -45.333 -10.333 -89.666 -31 -132.999s-55 -93 -103 -149c-62.667 -73.333 -132 -143 -208 -209h24h335
v-134h-552v151c95.333 82.667 175 159.667 239 231c88.667 98 133 177.667 133 239c0 34.667 -14.667 62.667 -44 84c-26 18.667 -58 28 -96 28c-57.333 0 -123.333 -23 -198 -69z" />
    <glyph glyph-name="threeinferior" unicode="&#x2083;" horiz-adv-x="739" vert-adv-y="2457" 
d="M112 830c75.333 27.333 147.667 40.999 217 40.999c85.333 0 152 -17.333 200 -52c61.333 -44.667 92 -106 92 -184c0 -83.333 -42.333 -145.666 -127 -186.999c38.667 -20 66.667 -40 84 -60c35.333 -40 53 -90 53 -150c0 -81.333 -31.667 -144 -95 -188
c-58.667 -40.667 -132 -61 -220 -61c-75.333 0 -151.333 13 -228 39l8 150c82 -35.333 152.667 -53 212 -53c45.333 0 82.333 10.333 111 31c32.667 23.333 49 54.333 49 93c0 85.333 -72 128.333 -216 129h-18c-9.33301 0 -22.333 -0.333008 -39 -1v139
c20.667 -0.666992 36 -1 46 -1c54 0 99.333 6 136 18c58 20 87 53.667 87 101c0 31.333 -13.667 57 -41 77c-26 18.667 -60 28 -102 28c-58 0 -124 -17.333 -198 -52z" />
    <glyph glyph-name="fourinferior" unicode="&#x2084;" horiz-adv-x="739" vert-adv-y="2457" 
d="M583 861v-547h108v-134h-108v-180h-153v180h-377v120l335 561h195zM430 314l5 309.001c0.666992 17.333 1.66699 40.666 3 69.999c-48 -90.667 -101 -184 -159 -280c-30 -50 -49 -83 -57 -99h208z" />
    <glyph glyph-name="fiveinferior" unicode="&#x2085;" horiz-adv-x="739" vert-adv-y="2457" 
d="M621 858v-136.004h-339l-3 -135c0 -9.33301 -0.333008 -21.666 -1 -36.999c25.333 4 48.666 6 69.999 6c92.667 0 166.667 -27.667 222 -83c51.333 -51.333 77 -115.666 77 -192.999c0 -61.333 -17.667 -116.666 -53 -165.999c-59.333 -82 -152.666 -123 -279.999 -123
c-61.333 0 -124 11.333 -188 34l3 153c72 -36 133.333 -54 184 -54c52.667 0 95 15 127 45c29.333 26.667 44 61.334 44 104.001c0 47.333 -17.667 84.333 -53 111c-33.333 25.333 -76.333 38 -129 38c-48.667 0 -105.667 -12.333 -171 -37l6 473h484z" />
    <glyph glyph-name="sixinferior" unicode="&#x2086;" horiz-adv-x="739" vert-adv-y="2457" 
d="M624 841l-19.999 -146c-59.333 30 -113.333 45 -162 45c-112 0 -178.333 -78 -199 -234c47.333 37.333 101 56 161 56c74.667 0 136.667 -26.667 186 -80c48.667 -52.667 73 -120 73 -202c0 -86 -27.333 -157.333 -82 -214c-50.667 -53.333 -116.667 -80 -198 -80
c-104.667 0 -181.334 42.333 -230.001 127c-41.333 72 -62 168.667 -62 290c0 129.333 21 232.333 63 309c58.667 107.333 152.667 161 282 161c60 0 122.667 -10.667 188 -32zM382.001 429c-39.333 0 -70.999 -15.333 -94.999 -46c-21.333 -26.667 -32 -61 -32 -103
s11 -79.667 33 -113c23.333 -34 55 -51 95 -51c38 0 68.333 15.333 91 46c22 30 33 66.667 33 110c0 44 -11 80.667 -33 110c-24.667 31.333 -55.334 47 -92.001 47z" />
    <glyph glyph-name="seveninferior" unicode="&#x2087;" horiz-adv-x="739" vert-adv-y="2457" 
d="M639 856v-122l-308 -734h-169l251 586c16 37.333 36.333 82 61 134c-20 -0.666992 -31.667 -1 -35 -1h-352v137h552z" />
    <glyph glyph-name="eightinferior" unicode="&#x2088;" horiz-adv-x="739" vert-adv-y="2457" 
d="M517 463c98.667 -48.667 148.001 -123.666 148.001 -224.999c0 -76.667 -28.333 -138.667 -85 -186c-52 -44 -121 -66 -207 -66c-77.333 0 -143 18 -197 54c-69.333 47.333 -104 112.666 -104 195.999c0 94 47 166.667 141 218c-82.667 47.333 -124 112.333 -124 195
c0 75.333 31.667 134 95 176c49.333 32 110.666 48 183.999 48c81.333 0 147.333 -21 198 -63c49.333 -41.333 74 -93.333 74 -156c0 -77.333 -41 -141 -123 -191zM391.001 518.001c2 1.33301 4.33301 3 7 5c18.667 12.667 35.334 27.667 50.001 45c24 29.333 36 58 36 86
c0 24 -10.333 44.667 -31 62c-24 20 -53.333 30 -88 30c-34 0 -63 -9.66699 -87 -29c-21.333 -18 -32 -39.333 -32 -64c0 -33.333 24 -65.333 72 -96c15.333 -10 33.666 -20.333 54.999 -31c11.333 -5.33301 17.333 -8 18 -8zM350.001 386.001
c-3.33301 -1.33301 -6.66504 -2.99902 -9.99805 -4.99902c-72 -38 -108 -83.667 -108 -137c0 -38 15.333 -69.333 46 -94c25.333 -20 57.666 -30 96.999 -30c38 0 68.667 9.33301 92 28c27.333 22 41 50 41 84c0 44.667 -25 83 -75 115
c-14.667 9.33301 -32.667 18.666 -54 27.999c-18.667 8 -28.334 11.667 -29.001 11z" />
    <glyph glyph-name="nineinferior" unicode="&#x2089;" horiz-adv-x="739" vert-adv-y="2457" 
d="M135 166c59.333 -30.667 113 -46 161 -46c110 0 176 77.667 198 233c-45.333 -35.333 -97.666 -53 -156.999 -53c-86 0 -154 32.667 -204 98c-38.667 50 -58 112.333 -58 187c0 86 27 156.667 81 212c52 52.667 117 79 195 79c103.333 0 179.666 -40.333 228.999 -121
c43.333 -72.667 65 -169.334 65 -290.001c0 -129.333 -18.667 -230.666 -56 -303.999c-59.333 -116.667 -156.333 -175 -291 -175c-54 0 -115.333 11 -184 33zM358 745c-44 0 -78.334 -19.999 -103.001 -59.999c-16 -26 -24 -57.333 -24 -94
c0 -48.667 12.667 -87.334 38 -116.001c24.667 -28 54.334 -42 89.001 -42c42 0 75.333 18.333 100 55c16 25.333 24 56.333 24 93c0 49.333 -13.333 90.333 -40 123c-23.333 27.333 -51.333 41 -84 41z" />
    <glyph glyph-name="Euro" unicode="&#x20ac;" horiz-adv-x="1159" vert-adv-y="2457" 
d="M397 909l552 0.000976562l-58 -132h-514c-0.666992 -16.667 -1 -33.334 -1 -50.001c0 -26 1.33301 -54 4 -84h447l-50 -132h-370c16 -54.667 40.333 -104.667 73 -150c50 -71.333 114.333 -125 193 -161c62.667 -29.333 126.667 -44 192 -44c58 0 125.333 18 202 54v-202
c-64 -23.333 -132 -35 -204 -35c-136.667 0 -254.667 28 -354 84c-162.667 91.333 -268.667 242.666 -318 453.999h-180l55 132h105c-1.33301 23.333 -2 49 -2 77c0 21.333 0.333008 40.333 1 57h-151l55 132h111c18.667 86.667 47.667 162.334 87 227.001
c60.667 102 144 180.667 250 236c102 54 209 81 321 81c120 0 220.333 -29 301 -87l-67 -161c-37.333 25.333 -66 42 -86 50c-38 16 -82.667 24 -134 24c-96.667 0 -184.667 -26.667 -264 -80c-94.667 -64 -160 -160.667 -196 -290z" />
    <glyph glyph-name="afii61352" unicode="&#x2116;" vert-adv-y="2457" 
d="M400 644v-229h-230v229h230z" />
    <glyph glyph-name="trademark" unicode="&#x2122;" horiz-adv-x="2028" vert-adv-y="2457" 
d="M798 1432v-115h-269v-702h-139v702h-274v115h682zM1860 1432l0.000976562 -817.002h-139v466c0 26 0.333008 73.333 1 142c0.666992 50.667 1.33398 82.334 2.00098 95.001c-13.333 -39.333 -36 -99.666 -68 -180.999c-25.333 -66 -42 -108.667 -50 -128l-163 -394h-130
l-165 394l-27 66l-34 86l-58 148c6 -105.333 9 -184 9 -236v-458h-139v817h215l173 -406l27 -66c31.333 -74 53.666 -132.333 66.999 -175c21.333 61.333 52.666 142.333 93.999 243l166 404h219z" />
    <glyph glyph-name="uni2126" unicode="&#x2126;" horiz-adv-x="1430" vert-adv-y="2457" 
d="M61 0l-0.000976562 174h356c-98 58.667 -174 123.667 -228 195c-85.333 112.667 -128 250.334 -128 413.001c0 204 70.667 373 212 507c122.667 116.667 270 175 442 175s319.333 -58.333 442 -175c140.667 -134 211 -303 211 -507c0 -172.667 -48 -316.667 -144 -432
c-53.333 -64.667 -123.666 -123.334 -210.999 -176.001h355v-174h-564v156c94 53.333 166.333 110 217 170c100 120 150 264.333 150 433c0 152 -47.333 280.333 -142 385c-88 97.333 -192 146 -312 146c-112.667 0 -212 -40.667 -298 -122
c-106.667 -101.333 -160 -238.333 -160 -411c0 -264 122.667 -464.333 368 -601v-156h-566z" />
    <glyph glyph-name="onethird" unicode="&#x2153;" horiz-adv-x="1708" vert-adv-y="2457" 
d="M448 1430v-861h-153v519c0 45.333 0.333008 94 1 146l-108 -96l-88 107l217 185h131zM1286 1498l-783 -1567h-124l781 1567h126zM1099 830c76 27.333 148.669 41 218.002 41c85.333 0 152 -17.333 200 -52c61.333 -44.667 92 -106 92 -184
c0 -83.333 -42.667 -145.666 -128 -186.999c39.333 -20 67.666 -40 84.999 -60c35.333 -40 53 -89.667 53 -149c0 -82 -31.667 -145 -95 -189c-58.667 -40.667 -132 -61 -220 -61c-75.333 0 -151.333 13 -228 39l8 150c82 -35.333 152.667 -53 212 -53
c45.333 0 82.333 10.333 111 31c32.667 23.333 49 54.333 49 93c0 59.333 -34.333 98.666 -103 117.999c-26.667 7.33301 -64.334 11 -113.001 11h-18c-9.33301 0 -22.333 -0.333008 -39 -1v139c20.667 -0.666992 36 -1 46 -1c54 0 99.333 6 136 18c58 20 87 54 87 102
c0 30.667 -13.667 56 -41 76c-26 18.667 -60 28 -102 28c-58.667 0 -124.667 -17.333 -198 -52z" />
    <glyph glyph-name="twothirds" unicode="&#x2154;" horiz-adv-x="1708" vert-adv-y="2457" 
d="M103 1384c46.667 19.333 80.333 31.999 101 37.999c42 12 86.333 18 133 18c89.333 0 160.666 -25.333 213.999 -76c46.667 -45.333 70 -101.666 70 -168.999c0 -84.667 -44.667 -179 -134 -283c-63.333 -74 -132.666 -143.667 -207.999 -209h24h335v-134h-552v151
c94 82 173.667 159 239 231c88.667 98.667 133 178.667 133 240c0 34 -14.667 61.667 -44 83c-25.333 19.333 -57 29 -95 29c-56.667 0 -123 -23 -199 -69zM1332 1498l-784 -1567h-123l780 1567h127zM1115 829.999c75.333 27.333 147.667 40.999 217 40.999
c85.333 0 152 -17.333 200 -52c61.333 -44.667 92 -106 92 -184c0 -83.333 -42.333 -145.666 -127 -186.999c38.667 -20 66.667 -40 84 -60c35.333 -40 53 -90 53 -150c0 -81.333 -31.667 -144 -95 -188c-58 -40.667 -131.333 -61 -220 -61c-74.667 0 -150.667 13 -228 39
l8 150c82 -35.333 152.667 -53 212 -53c45.333 0 82.333 10.333 111 31c32.667 23.333 49 54.333 49 93c0 85.333 -72 128.333 -216 129h-18c-9.33301 0 -22.333 -0.333008 -39 -1v139c20.667 -0.666992 36 -1 46 -1c54 0 99.333 6 136 18c58 20 87 53.667 87 101
c0 31.333 -13.667 57 -41 77c-26 18.667 -60 28 -102 28c-58 0 -124 -17.333 -198 -52z" />
    <glyph glyph-name="oneeighth" unicode="&#x215b;" horiz-adv-x="1708" vert-adv-y="2457" 
d="M451 1430v-861h-153v519c0 45.333 0.333008 94 1 146l-108 -96l-88 107l217 185h131zM1253 1498l-783 -1567h-124l780 1567h127zM1471 463c98.667 -49.333 148 -123.998 148 -223.998c0 -76.667 -28.333 -139 -85 -187c-52 -44 -121 -66 -207 -66
c-77.333 0 -142.666 18 -195.999 54c-70 47.333 -105 112.666 -105 195.999c0 96 47 168.667 141 218c-82.667 47.333 -124 112.333 -124 195c0 75.333 31.667 134 95 176c49.333 32 110.666 48 183.999 48c81.333 0 147.333 -21 198 -63c49.333 -41.333 74 -93.333 74 -156
c0 -76.667 -41 -140.334 -123 -191.001zM1344 518.002c2.66699 1.33301 5.33398 2.99902 8.00098 4.99902c57.333 40.667 86 84.334 86 131.001c0 24 -10.333 44.667 -31 62c-24 20 -53.333 30 -88 30c-34 0 -63 -9.66699 -87 -29c-21.333 -18 -32 -39 -32 -63
c0 -34 24 -66.333 72 -97c15.333 -10 33.666 -20.333 54.999 -31zM1304 386.001c-3.33301 -1.33301 -6.66406 -2.99902 -9.99707 -4.99902c-0.666992 0 -2.33398 -1 -5.00098 -3c-68.667 -36 -103 -80.667 -103 -134c0 -38 15.333 -69.333 46 -94
c25.333 -20 57.666 -30 96.999 -30c38 0 68.667 9.33301 92 28c27.333 22 41 49.667 41 83c0 45.333 -25 84 -75 116c-14.667 9.33301 -32.667 18.666 -54 27.999c-18.667 8 -28.334 11.667 -29.001 11z" />
    <glyph glyph-name="threeeighths" unicode="&#x215c;" horiz-adv-x="1708" vert-adv-y="2457" 
d="M120 1399c72 27.333 144.334 41 217.001 41c86 0 152.667 -17.333 200 -52c61.333 -44.667 92 -105.667 92 -183c0 -84 -42.333 -146.667 -127 -188c38 -19.333 66 -39 84 -59c35.333 -40.667 53 -91 53 -151c0 -81.333 -31.667 -144 -95 -188
c-58 -40.667 -131.667 -61 -221 -61c-74 0 -149.667 13 -227 39l8 151c82 -36 152.667 -54 212 -54c44.667 0 81.667 10.333 111 31c32.667 23.333 49 54.333 49 93c0 86.667 -71.333 130 -214 130c-7.33301 0 -27 -0.666992 -59 -2v139c20.667 -0.666992 36 -1 46 -1
c54 0 99.333 6.33301 136 19c58 19.333 87 53 87 101c0 32 -13.667 57.667 -41 77c-26.667 19.333 -60.334 29 -101.001 29c-58.667 0 -125 -18 -199 -54zM1308 1498l-784 -1567h-123l780 1567h127zM1478 463c98.667 -48.667 148 -123.665 148 -224.998
c0 -76 -28.333 -138 -85 -186c-52.667 -44 -121.667 -66 -207 -66c-77.333 0 -143 18 -197 54c-69.333 47.333 -104 112.666 -104 195.999c0 96 47 168.667 141 218c-82.667 47.333 -124 112.333 -124 195c0 75.333 31.667 134 95 176c48.667 32 109.667 48 183 48
c82 0 148 -21 198 -63c49.333 -41.333 74 -93.333 74 -156c0 -76.667 -40.667 -140.334 -122 -191.001zM1351 518.002c2.66699 1.33301 5 2.99805 7 4.99805c57.333 40 86 83.667 86 131c0 24.667 -10 45.334 -30 62.001c-24 20 -53.333 30 -88 30
c-34 0 -63 -9.66699 -87 -29c-21.333 -17.333 -32 -38.666 -32 -63.999c0 -33.333 23.667 -65.333 71 -96c16 -10 34.333 -20.333 55 -31zM1311 386c-3.33301 -1.33301 -6.99609 -2.99902 -10.9961 -4.99902l-5 -3c-68 -35.333 -102 -80 -102 -134
c0 -38.667 15.333 -70 46 -94c25.333 -20 57.666 -30 96.999 -30c37.333 0 67.666 9.33301 90.999 28c28 22 42 49.667 42 83c0 45.333 -25.333 84 -76 116c-14.667 9.33301 -32.334 18.666 -53.001 27.999c-18.667 8 -28.334 11.667 -29.001 11z" />
    <glyph glyph-name="fiveeighths" unicode="&#x215d;" horiz-adv-x="1708" vert-adv-y="2457" 
d="M629 1427l0.000976562 -136.002h-339l-3 -135c0 -9.33301 -0.333008 -21.666 -1 -36.999c25.333 4 48.666 6 69.999 6c92.667 0 166.667 -27.333 222 -82c51.333 -52 77 -116.333 77 -193c0 -61.333 -17.667 -116.666 -53 -165.999
c-59.333 -81.333 -153.333 -122 -282 -122c-60 0 -122 10.667 -186 32l3 154c72 -36.667 133.333 -55 184 -55c52.667 0 95 15 127 45c29.333 27.333 44 62 44 104c0 46.667 -17.667 83.667 -53 111c-32.667 25.333 -75.667 38 -129 38c-48.667 0 -105.667 -12.333 -171 -37
l6 473h484zM1296 1498l-784 -1567h-123l780 1567h127zM1466 462.998c98.667 -48.667 148 -123.334 148 -224.001c0 -76.667 -28.333 -139 -85 -187c-52.667 -44 -121.667 -66 -207 -66c-77.333 0 -143 18 -197 54c-69.333 46.667 -104 112 -104 196
c0 94.667 47 167.334 141 218.001c-82.667 47.333 -124 112.333 -124 195c0 76 31.667 134.667 95 176c48.667 32 109.667 48 183 48c81.333 0 147.333 -21 198 -63c49.333 -41.333 74 -93.333 74 -156c0 -77.333 -40.667 -141 -122 -191zM1339 517.998
c2 1.33301 4.33398 2.99805 7.00098 4.99805c57.333 38 86 81.667 86 131c0 24.667 -10 45.334 -30 62.001c-24 20 -53.333 30 -88 30c-34 0 -63 -9.66699 -87 -29c-21.333 -17.333 -32 -38.666 -32 -63.999c0 -33.333 23.667 -65.333 71 -96
c15.333 -10 33.666 -20.333 54.999 -31zM1299 385.996c-3.33301 -1.33301 -6.99707 -2.99902 -10.9971 -4.99902c-71.333 -38 -107 -83.667 -107 -137c0 -38.667 15.333 -70 46 -94c25.333 -20 57.666 -30 96.999 -30c38 0 68.333 9.33301 91 28c28 22 42 49.667 42 83
c0 45.333 -25.333 84 -76 116c-14.667 9.33301 -32.334 18.666 -53.001 27.999c-18.667 8 -28.334 11.667 -29.001 11z" />
    </font>
</defs>
</svg>
