<?xml version="1.0" standalone="no"?>
<!DOCTYPE svg PUBLIC "-//W3C//DTD SVG 1.1//EN" "http://www.w3.org/Graphics/SVG/1.1/DTD/svg11.dtd" >
<svg>
<metadata>
Created by FontForge 20090914 at Tue May 23 20:57:19 2017
 By www-data
(URW)++,Copyright 2006 by (URW)++ Design &#38; Development
</metadata>
<defs>
<font id="HDI-GerlingSans-Italic" horiz-adv-x="569" vert-adv-y="2048" >
  <font-face 
    font-family="HDI-Gerling Sans"
    font-weight="400"
    font-style="italic"
    font-stretch="normal"
    units-per-em="2048"
    panose-1="0 0 0 0 0 0 0 0 0 0"
    ascent="1638"
    descent="-410"
    x-height="1049"
    cap-height="664"
    bbox="-431 -536 2238 1938"
    underline-thickness="176"
    underline-position="-127"
    slope="-7"
    unicode-range="U+0020-U+FB04"
  />
<missing-glyph vert-adv-y="2457" 
d="M57 0v1430h455v-1430h-455zM455 57v1316h-341v-1316h341z" />
    <glyph glyph-name="ff" unicode="ff" horiz-adv-x="1407" vert-adv-y="2457" 
d="M307 899l-252.004 0.000976562l32 150h251l27 125c22 103.333 51.333 179 88 227c44.667 58 102 100.333 172 127c47.333 18 97 27 149 27c41.333 0 90 -8 146 -24l-34 -158c-35.333 11.333 -66.333 17 -93 17c-85.333 0 -149.666 -38 -192.999 -114
c-21.333 -38 -43.666 -113.667 -66.999 -227h467l27 125c16 75.333 35.667 135.166 59 179.499s55.333 82.5 96 114.5c72.667 58 157.334 87 254.001 87c41.333 0 90 -8 146 -24l-34 -158c-35.333 11.333 -66.333 17 -93 17c-85.333 0 -149.666 -38.333 -192.999 -115
c-22 -38.667 -44.333 -114 -67 -226h284l-32 -150h-285l-192 -899h-193l191 899h-468l-192 -899h-193z" />
    <glyph glyph-name="fi" unicode="fi" horiz-adv-x="1366" vert-adv-y="2457" 
d="M182 0l191.998 899h-252l32 150h251l27 125c22 103.333 51.333 179 88 227c44.667 58 102 100.333 172 127c47.333 18 97 27 149 27c41.333 0 90 -8 146 -24l-34 -158c-35.333 11.333 -66.333 17 -93 17c-85.333 0 -149.666 -38 -192.999 -114
c-21.333 -38 -43.666 -113.667 -66.999 -227h284l-32 -150h-285l-192 -899h-193zM843.998 0l223 1049h193l-223 -1049h-193zM1091 1216l46 214h216l-46 -214h-216z" />
    <glyph glyph-name="fl" unicode="fl" horiz-adv-x="1366" vert-adv-y="2457" 
d="M182 0l191.998 899h-252l32 150h251l27 125c22 103.333 51.333 179 88 227c44.667 58 102 100.333 172 127c47.333 18 97 27 149 27c41.333 0 90 -8 146 -24l-34 -158c-35.333 11.333 -66.333 17 -93 17c-85.333 0 -149.666 -38 -192.999 -114
c-21.333 -38 -43.666 -113.667 -66.999 -227h284l-32 -150h-285l-192 -899h-193zM843.998 0l328 1544h193l-328 -1544h-193z" />
    <glyph glyph-name="ffi" unicode="ffi" horiz-adv-x="1894" vert-adv-y="2457" 
d="M116 0l191.996 899.001h-252l32 150h251l27 125c22 103.333 51.333 179 88 227c44.667 58 102 100.333 172 127c47.333 18 97 27 149 27c41.333 0 90 -8 146 -24l-34 -158c-35.333 11.333 -66.333 17 -93 17c-85.333 0 -149.666 -38 -192.999 -114
c-21.333 -38 -43.666 -113.667 -66.999 -227h467l27 125c16 75.333 35.667 135.166 59 179.499s55.333 82.5 96 114.5c72.667 58 157.334 87 254.001 87c41.333 0 90 -8 146 -24l-34 -158c-35.333 11.333 -66.333 17 -93 17c-85.333 0 -149.666 -38.333 -192.999 -115
c-22 -38.667 -44.333 -114 -67 -226h284l-32 -150h-285l-192 -899h-193l191 899h-468l-192 -899h-193zM1440 0.000976562l223 1049h193l-223 -1049h-193zM1687 1216l45 214h216l-45 -214h-216z" />
    <glyph glyph-name="ffl" unicode="ffl" horiz-adv-x="1894" vert-adv-y="2457" 
d="M116 0l191.996 899.001h-252l32 150h251l27 125c22 103.333 51.333 179 88 227c44.667 58 102 100.333 172 127c47.333 18 97 27 149 27c41.333 0 90 -8 146 -24l-34 -158c-35.333 11.333 -66.333 17 -93 17c-85.333 0 -149.666 -38 -192.999 -114
c-21.333 -38 -43.666 -113.667 -66.999 -227h467l27 125c16 75.333 35.667 135.166 59 179.499s55.333 82.5 96 114.5c72.667 58 157.334 87 254.001 87c41.333 0 90 -8 146 -24l-34 -158c-35.333 11.333 -66.333 17 -93 17c-85.333 0 -149.666 -38.333 -192.999 -115
c-22 -38.667 -44.333 -114 -67 -226h284l-32 -150h-285l-192 -899h-193l191 899h-468l-192 -899h-193zM1440 0.000976562l328 1544h193l-328 -1544h-193z" />
    <glyph glyph-name=".notdef" vert-adv-y="2457" 
d="M57 0v1430h455v-1430h-455zM455 57v1316h-341v-1316h341z" />
    <glyph glyph-name="space" unicode=" " vert-adv-y="2457" 
 />
    <glyph glyph-name="exclam" unicode="!" horiz-adv-x="797" vert-adv-y="2457" 
d="M183 0l47 222h227l-47 -222h-227zM283 397l204 1033h227l-247 -1033h-184z" />
    <glyph glyph-name="quotedbl" unicode="&#x22;" horiz-adv-x="1139" vert-adv-y="2457" 
d="M583 971h-147l89 573h213zM886 971h-147l89 573h213z" />
    <glyph glyph-name="numbersign" unicode="#" horiz-adv-x="1139" vert-adv-y="2457" 
d="M686 433h-277l-92 -433h-160l92 433h-192l29 137h185l67 316h-185l29 137h192l86 407h160l-85 -401h278l85 401h160l-86 -407h187l-29 -137h-188l-67 -316h192l-29 -137h-192l-92 -433h-160zM715 570l67 316h-277l-67 -316h277z" />
    <glyph glyph-name="dollar" unicode="$" horiz-adv-x="1159" vert-adv-y="2457" 
d="M52 74l64.002 180.002c100 -51.333 205.667 -82.666 317 -93.999l113 515c-78.667 40.667 -139 77 -181 109c-83.333 63.333 -125 150.666 -125 261.999c0 156 69.333 267 208 333c66 31.333 158.333 49.333 277 54l42 190h113l-40 -192
c65.333 -6 119.666 -14.667 162.999 -26c38 -10 86 -27 144 -51l-54 -175c-82.667 51.333 -178 82.666 -286 93.999l-96 -455l25 -15c90.667 -53.333 147.667 -88.333 171 -105s44.333 -36.667 63 -60c47.333 -58.667 71 -130.334 71 -215.001c0 -104 -33 -193.667 -99 -269
c-91.333 -104.667 -235.333 -159 -432 -163l-41 -183h-114l41 182c-108.667 7.33301 -223.334 35.333 -344.001 84zM550.002 159.002c62 2 116.334 16.668 163.001 44.001c78 45.333 117 109.333 117 192c0 66.667 -26.333 120.667 -79 162
c-22.667 17.333 -57.334 38.666 -104.001 63.999zM692.003 1275c-64 -3.33301 -115.333 -18.333 -154 -45c-58 -39.333 -87 -94 -87 -164c0 -52.667 17.667 -95.667 53 -129c24 -23.333 58.667 -45.333 104 -66z" />
    <glyph glyph-name="percent" unicode="%" horiz-adv-x="2048" vert-adv-y="2457" 
d="M385 -83l1127 1595h135l-1127 -1595h-135zM1495 643c74 0 133.666 -18.666 178.999 -55.999c55.333 -44.667 83 -112.667 83 -204c0 -120.667 -31.667 -221.334 -95 -302.001c-55.333 -70 -131 -105 -227 -105c-85.333 0 -152.666 22 -201.999 66
c-50 44.667 -75 112.667 -75 204c0 60 11.333 121 34 183c52.667 142.667 153.667 214 303 214zM1490 538.001c-59.333 0 -105.333 -34.667 -138 -104c-12.667 -26 -23 -59.333 -31 -100c-8.66699 -40 -13 -73.667 -13 -101c0 -98.667 42 -148 126 -148
c54.667 0 97 30.667 127 92s45 131.333 45 210c0 100.667 -38.667 151 -116 151zM610.999 1454c74 0 133.667 -18.666 179 -55.999c55.333 -44.667 83 -112.667 83 -204c0 -120.667 -32 -221.334 -96 -302.001c-55.333 -70 -131 -105 -227 -105
c-85.333 0 -152.333 22 -201 66c-50 44.667 -75 113 -75 205c0 59.333 11.333 120 34 182c52 142.667 153 214 303 214zM605.999 1350c-58.667 0 -104.667 -35 -138 -105c-12.667 -26 -23 -59 -31 -99c-8.66699 -40 -13 -74 -13 -102c0 -98.667 42 -148 126 -148
c54.667 0 97 31 127 93c30 61.333 45 131 45 209c0 101.333 -38.667 152 -116 152z" />
    <glyph glyph-name="ampersand" unicode="&#x26;" horiz-adv-x="1479" vert-adv-y="2457" 
d="M1314 0l-226.998 -0.000976562l-75 116c-111.333 -90.667 -248 -136 -410 -136c-148.667 0 -264.334 38.333 -347.001 115c-77.333 72 -116 166 -116 282c0 138.667 56.333 246.667 169 324c45.333 31.333 124.666 66 237.999 104c-72 108.667 -108 207 -108 295
c0 105.333 40.667 190 122 254c78 61.333 174 92 288 92c113.333 0 205 -28.333 275 -85c67.333 -54 101 -130 101 -228c0 -181.333 -133 -314.666 -399 -399.999l232 -335c80 100.667 133.667 225.667 161 375h179c-35.333 -234 -116.333 -408.667 -243 -524z
M639.002 671.999c-80 -26 -139.668 -51.332 -179.001 -75.999c-74.667 -46 -112 -114.333 -112 -205c0 -74 27 -134.667 81 -182c50 -44 115 -66 195 -66c74.667 0 144.334 18.667 209.001 56c24 13.333 53 33.666 87 60.999zM729.001 860l25.999 8
c74 22.667 133 49.667 177 81c72 50.667 108 110 108 178c0 48.667 -19 88.667 -57 120c-37.333 29.333 -84.666 44 -141.999 44c-61.333 0 -112 -18.333 -152 -55c-42 -38.667 -63 -85.667 -63 -141c0 -54.667 17.333 -110.667 52 -168c9.33301 -15.333 21.333 -32 36 -50
c9.33301 -11.333 14.333 -17 15 -17z" />
    <glyph glyph-name="quotesingle" unicode="'" vert-adv-y="2457" 
d="M450 971h-147l89 573h213z" />
    <glyph glyph-name="parenleft" unicode="(" horiz-adv-x="682" vert-adv-y="2457" 
d="M462 -436l-177.998 0.000976562c-30.667 100 -56.667 201.333 -78 304c-43.333 204 -65 380.333 -65 529c0 263.333 75.333 515.666 226 756.999c63.333 101.333 168.666 231.333 315.999 390h200c-148.667 -164.667 -262 -314.334 -340 -449.001
c-136 -236 -204 -491.333 -204 -766c0 -134 17.667 -292.667 53 -476c19.333 -97.333 42.666 -193.666 69.999 -288.999z" />
    <glyph glyph-name="parenright" unicode=")" horiz-adv-x="682" vert-adv-y="2457" 
d="M249 1544h177c96 -320 144 -597.667 144 -833c0 -263.333 -75.333 -516 -226 -758c-62 -98.667 -167 -228.334 -315 -389.001h-201c148 162.667 261 312.334 339 449.001c136 236.667 204 491.667 204 765c0 222.667 -40.667 478 -122 766z" />
    <glyph glyph-name="asterisk" unicode="*" horiz-adv-x="1139" vert-adv-y="2457" 
d="M783 730l-106 314l-225 -244l-123 135l272 195l-305 141l92 156l273 -199l32 334l183 -37l-100 -317l322 63l18 -180h-333l167 -291z" />
    <glyph glyph-name="plus" unicode="+" horiz-adv-x="1229" vert-adv-y="2457" 
d="M564 651h-415v157h415v400h157v-400h414v-157h-414v-401h-157v401z" />
    <glyph glyph-name="comma" unicode="," vert-adv-y="2457" 
d="M-114 -274l238 506h246l-288 -506h-196z" />
    <glyph glyph-name="hyphen" unicode="-" horiz-adv-x="682" vert-adv-y="2457" 
d="M73 469l34 160h538l-34 -160h-538z" />
    <glyph glyph-name="period" unicode="." vert-adv-y="2457" 
d="M70 0l49 229h233l-49 -229h-233z" />
    <glyph glyph-name="slash" unicode="/" vert-adv-y="2457" 
d="M-428 -436l1153 1980h177l-1153 -1980h-177z" />
    <glyph glyph-name="zero" unicode="0" horiz-adv-x="1159" vert-adv-y="2457" 
d="M753 1449c126 0 224 -40 294 -120c62.667 -72 94 -180.333 94 -325c0 -214.667 -40 -415.334 -120 -602.001c-78 -181.333 -175 -303 -291 -365c-68.667 -37.333 -144 -56 -226 -56c-265.333 0 -398 159 -398 477c0 118.667 22.333 255.667 67 411
c58 200.667 139.333 349.334 244 446.001c96.667 89.333 208.667 134 336 134zM742 1285c-120 0 -222.334 -96.332 -307.001 -288.999c-36.667 -83.333 -66.667 -183.333 -90 -300c-21.333 -104.667 -32 -195 -32 -271c0 -186.667 66.667 -280 200 -280
c114.667 0 213.334 89.333 296.001 268c42 90 74.333 194.667 97 314c18.667 101.333 28 196.333 28 285c0 87.333 -13 152.666 -39 195.999c-30.667 51.333 -81.667 77 -153 77z" />
    <glyph glyph-name="one" unicode="1" horiz-adv-x="1159" vert-adv-y="2457" 
d="M446 0l232.999 1093c10 48 21.667 87 35 117c-35.333 -35.333 -70.666 -63.666 -105.999 -84.999l-198 -124l-92 151l461 278h179l-304 -1430h-208z" />
    <glyph glyph-name="two" unicode="2" horiz-adv-x="1159" vert-adv-y="2457" 
d="M4 0l44.999 207.998c77.333 56 176.333 133.333 297 232c189.333 156 325.666 281.333 408.999 376c90.667 103.333 136 196.666 136 279.999c0 60.667 -24.333 107.334 -73 140.001c-39.333 27.333 -93.666 41 -162.999 41c-112 0 -228.667 -29.333 -350 -88l20 190
c126.667 46.667 248.667 70 366 70c112.667 0 206.334 -24.667 281.001 -74c86.667 -57.333 130 -140.666 130 -249.999c0 -117.333 -46 -235.666 -138 -354.999c-81.333 -104.667 -203 -225 -365 -361c-110.667 -92.667 -216.667 -172 -318 -238h669l-37 -171h-909z" />
    <glyph glyph-name="three" unicode="3" horiz-adv-x="1159" vert-adv-y="2457" 
d="M22 51l50.002 176c104 -54 213 -81 327 -81c113.333 0 207 28.667 281 86c31.333 24.667 56.666 55.667 75.999 93c18 36.667 27 74.667 27 114c0 148.667 -120.667 223 -362 223c-12.667 0 -33.334 -0.333008 -62.001 -1l35 170c22 -0.666992 36.333 -1 43 -1
c146.667 0 263 26 349 78c38 23.333 68 54.666 90 93.999c16.667 30.667 25 64.667 25 102c0 62 -23 108.333 -69 139c-41.333 28 -97.333 42 -168 42c-99.333 0 -213.666 -23.667 -342.999 -71l22 189c128 30.667 240.667 46 338 46c123.333 0 224.333 -25.667 303 -77
c83.333 -54 125 -135 125 -243c0 -123.333 -51.333 -224.333 -154 -303c-52 -39.333 -123 -66.666 -213 -81.999c68 -18.667 118.333 -42.667 151 -72c62 -54.667 93 -130.667 93 -228c0 -73.333 -19.333 -143.333 -58 -210c-96.667 -168.667 -271.334 -253 -524.001 -253
c-132 0 -259.333 23.333 -382 70z" />
    <glyph glyph-name="four" unicode="4" horiz-adv-x="1159" vert-adv-y="2457" 
d="M615 0l67 313h-672l36 171l788 946h292l-200 -946h180l-37 -171h-180l-66 -313h-208zM272 484h446.001l158 666c16 65.333 35 125 57 179c-46.667 -78 -102.334 -156.667 -167.001 -236z" />
    <glyph glyph-name="five" unicode="5" horiz-adv-x="1159" vert-adv-y="2457" 
d="M82 30l38 173.001c115.333 -38.667 211 -58 287 -58c132.667 0 235.667 37.333 309 112c34 35.333 60.333 79 79 131c13.333 38.667 20 77 20 115c0 73.333 -29 131.666 -87 174.999c-54.667 40 -129 60 -223 60c-82.667 0 -171.667 -13.333 -267 -40l171 732h769
l-37 -171h-579l-90 -367c38 7.33301 75 11 111 11c142 0 250.667 -34 326 -102c75.333 -67.333 113 -160 113 -278c0 -90 -22 -177.333 -66 -262c-96 -186.667 -275.667 -280 -539 -280c-116 0 -227.667 16.333 -335 49z" />
    <glyph glyph-name="six" unicode="6" horiz-adv-x="1159" vert-adv-y="2457" 
d="M1205 1397l-60.0039 -164.001c-79.333 34.667 -157.333 52 -234 52c-173.333 0 -313.333 -82.333 -420 -247c-30.667 -48 -69.667 -135 -117 -261c40.667 43.333 79.334 75.333 116.001 96c66.667 36 138.334 54 215.001 54c112 0 202.667 -35 272 -105
c63.333 -63.333 95 -154.333 95 -273s-27.667 -228 -83 -328c-89.333 -160 -235.333 -240 -438 -240c-139.333 0 -246 42.667 -320 128c-67.333 76.667 -101 183.334 -101 320.001c0 126.667 22.333 262.667 67 408c61.333 200 145 348.667 251 446
c120.667 110.667 270.334 166 449.001 166c94.667 0 197.334 -17.333 308.001 -52zM645.996 762.999c-62 0 -118.998 -20.668 -170.998 -62.001c-50 -40 -87.333 -96.333 -112 -169c-17.333 -50 -26 -98.333 -26 -145c0 -79.333 22 -140.333 66 -183
c41.333 -39.333 92.666 -59 153.999 -59c74.667 0 140 32 196 96c75.333 86 113 185.333 113 298c0 74.667 -22.667 131.334 -68 170.001c-42.667 36 -93.334 54 -152.001 54z" />
    <glyph glyph-name="seven" unicode="7" horiz-adv-x="1159" vert-adv-y="2457" 
d="M151 0l811 1259h-700l37 171h916l-42 -189l-780 -1241h-242z" />
    <glyph glyph-name="eight" unicode="8" horiz-adv-x="1159" vert-adv-y="2457" 
d="M830 755c68.667 -30.667 118.668 -66.3301 150.001 -106.997c47.333 -60.667 71 -134.334 71 -221.001c0 -75.333 -19.667 -148 -59 -218c-45.333 -80.667 -111.333 -140.334 -198 -179.001c-74.667 -32.667 -159.667 -49 -255 -49c-145.333 0 -261.333 38.667 -348 116
c-73.333 66 -110 151.333 -110 256c0 133.333 51 239.666 153 318.999c61.333 48 138.666 78 231.999 90c-132.667 82 -199 186.667 -199 314c0 106 38.333 193 115 261c84.667 74.667 201 112 349 112c134 0 240 -27.667 318 -83c35.333 -25.333 64.333 -59.333 87 -102
c22 -42.667 33 -88 33 -136c0 -111.333 -52 -206 -156 -284c-48 -36 -109 -65.667 -183 -89zM604.001 678.004c-25.333 -8 -42.333 -13.667 -51 -17c-174.667 -63.333 -262 -160 -262 -290c0 -69.333 24 -124 72 -164c49.333 -41.333 112.333 -62 189 -62
c83.333 0 153.333 27.333 210 82c56 54 84 118.667 84 194c0 76 -30.667 134 -92 174c-21.333 14 -71.333 41.667 -150 83zM681.001 824.004c42.667 20.667 78.334 39.333 107.001 56c116 68 174 143.667 174 227c0 61.333 -26.667 107.666 -80 138.999
c-44.667 26 -95.334 39 -152.001 39c-65.333 0 -123.333 -16 -174 -48c-58 -37.333 -87 -89.666 -87 -156.999c0 -63.333 29.333 -120.666 88 -171.999c26 -22.667 55 -43.334 87 -62.001c24 -14.667 36.333 -22 37 -22z" />
    <glyph glyph-name="nine" unicode="9" horiz-adv-x="1159" vert-adv-y="2457" 
d="M60 38l61.001 172.997c95.333 -44 181.666 -66 258.999 -66c174.667 0 311 86.333 409 259c21.333 38.667 58.666 131 111.999 277c-42 -49.333 -80.333 -84.666 -115 -105.999c-57.333 -34 -123.666 -51 -198.999 -51c-115.333 0 -207.666 33.333 -276.999 100
c-71.333 68.667 -107 162.334 -107 281.001c0 94.667 21.667 184.667 65 270c51.333 102.667 128.333 177.667 231 225c70.667 32.667 149.667 49 237 49c264 0 396 -143 396 -429c0 -145.333 -27.333 -302.666 -82 -471.999
c-66.667 -204.667 -155.334 -351.667 -266.001 -441c-104 -84 -236.333 -126 -397 -126c-112 0 -221 19 -327 57zM723.001 1285c-66 0 -127.667 -25.333 -185 -76c-47.333 -40.667 -82 -93 -104 -157c-16 -46 -24 -90 -24 -132c0 -72 19 -129.333 57 -172
c35.333 -39.333 84 -59 146 -59c84.667 0 156.667 33.333 216 100c64 71.333 96 158 96 260c0 78 -23.333 139.333 -70 184c-36.667 34.667 -80.667 52 -132 52z" />
    <glyph glyph-name="colon" unicode=":" vert-adv-y="2457" 
d="M66 0l49 229h231l-48 -229h-232zM240 820l49 229h232l-49 -229h-232z" />
    <glyph glyph-name="semicolon" unicode=";" vert-adv-y="2457" 
d="M236 820l49 229h231l-49 -229h-231zM-114 -277l238 504h245l-288 -504h-195z" />
    <glyph glyph-name="less" unicode="&#x3c;" horiz-adv-x="1229" vert-adv-y="2457" 
d="M1116 1254v-192l-723 -338l723 -338v-191l-929 447v165z" />
    <glyph glyph-name="equal" unicode="=" horiz-adv-x="1229" vert-adv-y="2457" 
d="M162 501v157h986v-157h-986zM162 801v157h986v-157h-986z" />
    <glyph glyph-name="greater" unicode="&#x3e;" horiz-adv-x="1229" vert-adv-y="2457" 
d="M188 194v192l724 338l-724 338v191l929 -447v-165z" />
    <glyph glyph-name="question" unicode="?" horiz-adv-x="1024" vert-adv-y="2457" 
d="M306 0l48 222h217l-48 -222h-217zM306 1208l24.001 195.002c45.333 11.333 80 19.666 104 24.999c70 15.333 141.333 23 214 23c130 0 230 -26.667 300 -80c75.333 -57.333 113 -137.666 113 -240.999c0 -96.667 -36.333 -185.334 -109 -266.001
c-32.667 -36 -68.667 -70.333 -108 -103l-127 -105c-53.333 -43.333 -88.666 -88.666 -105.999 -135.999c-10.667 -28 -20.334 -68.333 -29.001 -121h-191l23 110c15.333 72.667 38.333 130.667 69 174c30 42 76 86.667 138 134c76 58.667 121.667 94.667 137 108
s29.666 28.666 42.999 45.999c33.333 43.333 50 87.666 50 132.999c0 115.333 -79 173 -237 173c-96 0 -198.667 -23 -308 -69z" />
    <glyph glyph-name="at" unicode="@" horiz-adv-x="1638" vert-adv-y="2457" 
d="M1088 1058l136.996 -0.00488281l-85 -440c-9.33301 -47.333 -14 -80.666 -14 -99.999c0 -30.667 9.33301 -54.667 28 -72c11.333 -10 25 -15 41 -15c45.333 0 87.333 25.667 126 77c65.333 86.667 98 190.667 98 312c0 154.667 -54.333 280.334 -163 377.001
c-102.667 90.667 -232.334 136 -389.001 136c-172 0 -317.333 -58.667 -436 -176c-122.667 -122 -184 -271.667 -184 -449c0 -115.333 27.333 -221.666 82 -318.999c110 -194.667 290.667 -292 542 -292c160.667 0 307.334 30 440.001 90l35 -124
c-141.333 -60.667 -297.666 -91 -468.999 -91c-225.333 0 -407.333 68 -546 204c-69.333 68 -123.333 149 -162 243c-38 93.333 -57 190 -57 290c0 142.667 37 275.334 111 398.001c72.667 118.667 171.334 209 296.001 271c106.667 52.667 221.334 79 344.001 79
c185.333 0 341 -54.667 467 -164c70.667 -60.667 124.667 -135 162 -223c33.333 -78.667 50 -161.334 50 -248.001c0 -121.333 -30.333 -230.666 -91 -327.999c-73.333 -118 -161 -177 -263 -177c-52 0 -94.333 19.667 -127 59c-16.667 20 -27 45.333 -31 76
c-21.333 -31.333 -45 -57 -71 -77c-61.333 -46.667 -127 -70 -197 -70c-87.333 0 -160 33.333 -218 100c-55.333 64 -83 145.333 -83 244c0 120.667 39.333 225.334 118 314.001c70.667 80 156.334 120 257.001 120c110 0 186.333 -48.333 229 -145zM851.996 937.995
c-41.333 0 -81.333 -13.668 -120 -41.001c-40 -28 -70.667 -68.333 -92 -121c-16 -39.333 -24 -80.666 -24 -123.999c0 -57.333 13.667 -104.333 41 -141c34 -45.333 80 -68 138 -68c74 0 133 37 177 111c33.333 56 50 119 50 189c0 57.333 -14 103 -42 137
c-31.333 38.667 -74 58 -128 58z" />
    <glyph glyph-name="A" unicode="A" horiz-adv-x="1479" vert-adv-y="2457" 
d="M-61 0l918 1430h216l313 -1430h-208l-77 357h-704l-226 -357h-232zM499 521h566l-97 500c-18.667 97.333 -29.667 178 -33 242c-23.333 -61.333 -61.333 -135.333 -114 -222z" />
    <glyph glyph-name="B" unicode="B" horiz-adv-x="1251" vert-adv-y="2457" 
d="M95 0l304 1430h296c115.333 0 202.333 -7.33301 261 -22c89.333 -21.333 155.333 -64.333 198 -129c35.333 -53.333 53 -113 53 -179c0 -70.667 -18.667 -136 -56 -196c-52 -83.333 -136.333 -137.666 -253 -162.999c62.667 -16 111.667 -39 147 -69
c63.333 -56 95 -129.333 95 -220c0 -96 -31 -184.667 -93 -266c-58 -76.667 -137 -128.334 -237 -155.001c-76.667 -20.667 -177.667 -31 -303 -31h-412zM337 164l157.999 -0.000976562c102 0 175.667 5.66699 221 17c74.667 19.333 131.667 55 171 107
c35.333 48 53 101.333 53 160c0 80.667 -31 138.334 -93 173.001c-35.333 20 -75.666 32 -120.999 36c-40.667 3.33301 -87.667 5 -141 5h-142zM475.999 818.999l149 -0.000976562c83.333 0 145.333 5.66699 186 17c64.667 18.667 114.667 53 150 103
c30.667 43.333 46 90.333 46 141c0 62.667 -23 109.334 -69 140.001c-45.333 30.667 -116 46 -212 46h-155z" />
    <glyph glyph-name="C" unicode="C" horiz-adv-x="1251" vert-adv-y="2457" 
d="M1122 213l-25.999 -194c-89.333 -25.333 -183.333 -38 -282 -38c-190 0 -347.333 54.667 -472 164c-131.333 116 -197 271.667 -197 467c0 174 46 332 138 474c92.667 142.667 221 244.334 385 305.001c104.667 38.667 218.667 58 342 58c132 0 248.333 -22 349 -66
l-58 -177c-90.667 42.667 -190 64 -298 64c-172.667 0 -318.334 -54 -437.001 -162c-70 -64 -122.667 -142 -158 -234c-30 -76.667 -45 -157.334 -45 -242.001c0 -164.667 55.667 -290 167 -376c83.333 -64 186.333 -96 309 -96c104 0 198.333 17.667 283 53z" />
    <glyph glyph-name="D" unicode="D" horiz-adv-x="1479" vert-adv-y="2457" 
d="M85 0l304.001 1430h224c182.667 0 322.667 -15.667 420 -47c260.667 -82.667 391 -271.667 391 -567c0 -188.667 -48.333 -354 -145 -496c-100.667 -148.667 -247.334 -243.667 -440.001 -285c-108.667 -23.333 -270.667 -35 -486 -35h-268zM330.001 176h130
c147.333 0 261 11.667 341 35c138.667 40 243.667 120.333 315 241c62 104.667 93 223 93 355c0 179.333 -60.667 303 -182 371c-89.333 50.667 -218 76 -386 76h-82z" />
    <glyph glyph-name="E" unicode="E" horiz-adv-x="1139" vert-adv-y="2457" 
d="M93 0l304 1430h782l-37 -176h-575l-91 -428h538l-38 -176h-537l-101 -474h600l-37 -176h-808z" />
    <glyph glyph-name="F" unicode="F" horiz-adv-x="1024" vert-adv-y="2457" 
d="M84 0l304 1430h755l-38 -176h-547l-93 -435h512l-37 -176h-512l-137 -643h-207z" />
    <glyph glyph-name="G" unicode="G" horiz-adv-x="1479" vert-adv-y="2457" 
d="M1365 791l-162.001 -759.999c-101.333 -33.333 -215 -50 -341 -50c-193.333 0 -350.666 40.667 -471.999 122c-89.333 59.333 -155 143 -197 251c-32 83.333 -48 171.666 -48 264.999c0 172 46.333 330.333 139 475c151.333 236.667 390.333 355 717 355
c163.333 0 310.333 -27.667 441 -83l-57 -177c-131.333 54 -257.333 81 -378 81c-184 0 -333.667 -53 -449 -159c-62.667 -58 -112 -132 -148 -222c-32.667 -83.333 -49 -169.333 -49 -258c0 -150 48.333 -268 145 -354c86.667 -78 201 -117 343 -117
c59.333 0 119.333 8.66699 180 26l91 429h-300l37 176h508z" />
    <glyph glyph-name="H" unicode="H" horiz-adv-x="1479" vert-adv-y="2457" 
d="M88 0l304 1430h207l-127 -601h684l128 601h207l-304 -1430h-207l139 653h-685l-139 -653h-207z" />
    <glyph glyph-name="I" unicode="I" vert-adv-y="2457" 
d="M79 0l304 1430h207l-304 -1430h-207z" />
    <glyph glyph-name="J" unicode="J" horiz-adv-x="797" vert-adv-y="2457" 
d="M-53 17l37.002 181c56.667 -25.333 109 -38 157 -38c80 0 139 22.333 177 67c31.333 36.667 61 120 89 250l203 953h207l-221 -1040c-32.667 -154.667 -80.334 -258.667 -143.001 -312c-75.333 -64.667 -174.333 -97 -297 -97c-64.667 0 -134.334 12 -209.001 36z" />
    <glyph glyph-name="K" unicode="K" horiz-adv-x="1366" vert-adv-y="2457" 
d="M110 0l304 1430h207l-134 -631l683 631h273l-770 -700l578 -730h-261l-527 687l-146 -687h-207z" />
    <glyph glyph-name="L" unicode="L" horiz-adv-x="1024" vert-adv-y="2457" 
d="M78 0l304 1430h207l-266 -1254h599l-38 -176h-806z" />
    <glyph glyph-name="M" unicode="M" horiz-adv-x="1933" vert-adv-y="2457" 
d="M99 0l303.998 1430h344l139 -893c18.667 -120.667 28 -216 28 -286c0 -13.333 -1 -36.666 -3 -69.999c16.667 64.667 62.334 160 137.001 286l569 963h331l-304 -1430h-193l200 940c30.667 144.667 64.667 274.667 102 390h-9c-17.333 -40 -42.666 -91.333 -75.999 -154
c-55.333 -104 -94 -174 -116 -210l-579 -966h-198l-114 669c-54 318 -84.333 539 -91 663h-7c-3.33301 -32 -26 -158.333 -68 -379l-37 -174l-166 -779h-193z" />
    <glyph glyph-name="N" unicode="N" horiz-adv-x="1479" vert-adv-y="2457" 
d="M88 0l304.001 1430h268l259 -761c50.667 -148.667 87.667 -265.667 111 -351c18.667 -72 30.667 -137.667 36 -197c11.333 140 36.333 300.667 75 482l176 827h193l-304 -1430h-269l-274 807c-46.667 138 -79.334 244.333 -98.001 319c-12 49.333 -22.667 105 -32 167
c-3.33301 -88.667 -16.333 -185.334 -39 -290.001l-213 -1003h-193z" />
    <glyph glyph-name="O" unicode="O" horiz-adv-x="1593" vert-adv-y="2457" 
d="M959 1449c181.333 0 320.667 -50.666 418 -151.999c101.333 -106 152 -252.667 152 -440c0 -166 -40.333 -324 -121 -474c-144.667 -268 -365 -402 -661 -402c-184 0 -324.667 49.333 -422 148c-108 109.333 -162 263.666 -162 462.999c0 110 23 225 69 345
c70 183.333 181 320 333 410c114.667 68 246 102 394 102zM950.001 1270c-108 0 -208.667 -36.332 -302 -108.999c-91.333 -71.333 -161.333 -168.333 -210 -291c-40 -100 -60 -197 -60 -291c0 -130 31.667 -230.333 95 -301c70.667 -78.667 170 -118 298 -118
c164.667 0 294.667 69.667 390 209c46 67.333 82.333 142.666 109 225.999c30 94 45 185 45 273c0 132 -40 235.333 -120 310c-66 61.333 -147.667 92 -245 92z" />
    <glyph glyph-name="P" unicode="P" horiz-adv-x="1139" vert-adv-y="2457" 
d="M83 0l304.001 1430h276c171.333 0 300.333 -26.667 387 -80c53.333 -32.667 93.333 -77.667 120 -135c22.667 -48 34 -101.667 34 -161c0 -70.667 -15.833 -138.5 -47.5 -203.5s-75.167 -118.5 -130.5 -160.5c-65.333 -49.333 -138 -81.333 -218 -96
c-74.667 -14 -156.334 -21 -245.001 -21h-151l-122 -573h-207zM450.001 749h116c103.333 0 180 8.66699 230 26c70.667 24 123 66.667 157 128c24.667 43.333 37 89.333 37 138c0 74.667 -27 129 -81 163c-53.333 33.333 -134.333 50 -243 50h-109z" />
    <glyph glyph-name="Q" unicode="Q" horiz-adv-x="1593" vert-adv-y="2457" 
d="M802 -17c-28 -1.33301 -47 -1.99902 -57 -1.99902c-182 0 -322 49.333 -420 148c-108 108.667 -162 258.667 -162 450c0 171.333 43 332.666 129 483.999c81.333 142.667 191.333 247 330 313c100.667 48.667 213 73 337 73c182 0 321.333 -50.667 418 -152
c101.333 -106.667 152 -253.334 152 -440.001c0 -192 -52 -369.667 -156 -533c-96 -151.333 -218.333 -252.666 -367 -303.999l252 -283h-249zM950 1270c-108 0 -208.667 -36.333 -302 -109c-90.667 -70.667 -160.667 -167.667 -210 -291
c-40.667 -101.333 -61 -198.333 -61 -291c0 -129.333 32 -229.666 96 -300.999c70.667 -78.667 170 -118 298 -118c164.667 0 294.667 69.667 390 209c46 67.333 82.333 142.666 109 225.999c30 94 45 185 45 273c0 132 -40 235.333 -120 310
c-66 61.333 -147.667 92 -245 92z" />
    <glyph glyph-name="R" unicode="R" horiz-adv-x="1251" vert-adv-y="2457" 
d="M85 0l304 1430h261c146 0 247 -7 303 -21c170.667 -42.667 256 -147.667 256 -315c0 -138 -55.333 -245.667 -166 -323c-61.333 -42.667 -128 -68.667 -200 -78c40 -15.333 67 -33 81 -53c16.667 -22 31.667 -59.667 45 -113l134 -527h-210l-112 473
c-12.667 54.667 -27 91.667 -43 111c-19.333 22.667 -48.333 37 -87 43c-22.667 3.33301 -59 5 -109 5h-115l-135 -632h-207zM464 808l119.999 0.000976562c121.333 0 213.666 15.667 276.999 47c42.667 21.333 76.334 53 101.001 95c20 35.333 30 73.333 30 114
c0 72 -27.333 123 -82 153c-31.333 17.333 -67 27.666 -107 30.999c-41.333 4 -87.666 6 -138.999 6h-105z" />
    <glyph glyph-name="S" unicode="S" horiz-adv-x="1024" vert-adv-y="2457" 
d="M30 66l65.001 179c116 -56.667 219 -85 309 -85c96 0 172.667 26.667 230 80c52.667 48.667 79 109 79 181c0 68 -30.667 125.667 -92 173c-14.667 11.333 -74.334 49 -179.001 113c-86 52 -146 105 -180 159c-30.667 48 -46 103.667 -46 167c0 109.333 37 202 111 278
c89.333 92 212.666 138 369.999 138c124.667 0 237.667 -24.333 339 -73l-53 -177c-90 47.333 -182.333 71 -277 71c-93.333 0 -164.666 -24 -213.999 -72c-41.333 -40 -62 -87.667 -62 -143c0 -58 25.667 -107.667 77 -149c23.333 -19.333 67.333 -47.666 132 -84.999
c120 -68.667 197.667 -130.667 233 -186c36.667 -56.667 55 -123.334 55 -200.001c0 -94 -25.667 -179.333 -77 -256c-88 -132 -230.667 -198 -428 -198c-142 0 -272.667 28.333 -392 85z" />
    <glyph glyph-name="T" unicode="T" horiz-adv-x="1139" vert-adv-y="2457" 
d="M368 0l267 1254h-446l37 176h1097l-38 -176h-443l-266 -1254h-208z" />
    <glyph glyph-name="U" unicode="U" horiz-adv-x="1479" vert-adv-y="2457" 
d="M386 1430h209l-168 -778c-17.333 -82 -26 -150.667 -26 -206c0 -92.667 31 -165 93 -217c56 -46 125.667 -69 209 -69c82 0 155.667 22.667 221 68c63.333 44 113.333 112.333 150 205c22.667 57.333 44.334 134 65.001 230l165 767h206l-171 -807
c-38 -178 -83 -307 -135 -387c-62.667 -98.667 -149.334 -169 -260.001 -211c-76.667 -29.333 -160 -44 -250 -44c-138.667 0 -253.667 34 -345 102c-103.333 77.333 -155 184 -155 320c0 80.667 10.667 170.667 32 270z" />
    <glyph glyph-name="V" unicode="V" horiz-adv-x="1366" vert-adv-y="2457" 
d="M458 0l-234 1430h205l127 -824c32.667 -213.333 49.667 -367.666 51 -462.999c45.333 116 110.333 246.333 195 391l529 896h222l-851 -1430h-244z" />
    <glyph glyph-name="W" unicode="W" horiz-adv-x="2048" vert-adv-y="2457" 
d="M348 0l-120.001 1430h202l53 -737c12 -158.667 18.333 -251.667 19 -279c3.33301 -63.333 5 -159 5 -287c8 44.667 22 92.667 42 144c17.333 43.333 56 129.333 116 258l422 901h277l31 -765c4.66699 -123.333 7 -241 7 -353c0 -67.333 -2.66699 -129 -8 -185
c26.667 96 94.334 251.333 203.001 466l422 837h219l-742 -1430h-265l-36 979c-2 49.333 -3 100 -3 152c0 66.667 2.66699 128.334 8 185.001c-36.667 -117.333 -90 -251.666 -160 -402.999l-423 -913h-269z" />
    <glyph glyph-name="X" unicode="X" horiz-adv-x="1366" vert-adv-y="2457" 
d="M268 1430h220l278 -540l475 540h258l-619 -687l376 -743h-227l-304 621l-541 -621h-264l688 768z" />
    <glyph glyph-name="Y" unicode="Y" horiz-adv-x="1366" vert-adv-y="2457" 
d="M474 0l128 601l-383 829h227l283 -641l564 641h259l-743 -829l-128 -601h-207z" />
    <glyph glyph-name="Z" unicode="Z" horiz-adv-x="1139" vert-adv-y="2457" 
d="M-24 0l37 174l963 1080h-726l37 176h957l-37 -179l-944 -1075h747l-38 -176h-996z" />
    <glyph glyph-name="bracketleft" unicode="[" horiz-adv-x="682" vert-adv-y="2457" 
d="M15 -436l421 1980h393l-29 -136h-204l-363 -1708h204l-29 -136h-393z" />
    <glyph glyph-name="backslash" unicode="\" vert-adv-y="2457" 
d="M582 -436h-162l-312 1980h162z" />
    <glyph glyph-name="bracketright" unicode="]" horiz-adv-x="682" vert-adv-y="2457" 
d="M712 1544l-421 -1980h-393l29 136h204l363 1708h-204l29 136h393z" />
    <glyph glyph-name="asciicircum" unicode="^" horiz-adv-x="1229" vert-adv-y="2457" 
d="M362 763h-205l369 672h253l369 -672h-207l-290 519z" />
    <glyph glyph-name="underscore" unicode="_" horiz-adv-x="1024" vert-adv-y="2457" 
d="M14 -127h1072v-176h-1072v176z" />
    <glyph glyph-name="grave" unicode="`" vert-adv-y="2457" 
d="M206 1510h201l171 -293h-130z" />
    <glyph glyph-name="a" unicode="a" horiz-adv-x="1139" vert-adv-y="2457" 
d="M262 834l39 179c110.667 35.333 209.667 53 297 53c123.333 0 220 -26.667 290 -80c34.667 -26 61.667 -58.333 81 -97c23.333 -48 35 -96.667 35 -146c0 -55.333 -6.66699 -116 -20 -182l-54 -264c-11.333 -58 -28.333 -157 -51 -297h-176
c10 83.333 20.333 144.333 31 183c-84.667 -133.333 -202 -200 -352 -200c-96.667 0 -175.334 26 -236.001 78c-63.333 54.667 -95 128 -95 220c0 76.667 24 145 72 205c86 106 263.667 159 533 159c50 0 102.333 -3.33301 157 -10c4.66699 38 7 66 7 84
c0 52 -15.333 95 -46 129c-41.333 45.333 -103.666 68 -186.999 68c-104 0 -212.333 -27.333 -325 -82zM776 500l-31.999 2c-28 1.33301 -48.667 2 -62 2c-81.333 0 -156 -8 -224 -24c-135.333 -32 -203 -95 -203 -189c0 -56 21.667 -98.333 65 -127
c32 -20.667 70.333 -31 115 -31c91.333 0 167.666 35.667 228.999 107c36.667 42 63.667 91 81 147l18 68z" />
    <glyph glyph-name="b" unicode="b" horiz-adv-x="1251" vert-adv-y="2457" 
d="M59 0l332.998 1544h191l-138 -648c48.667 59.333 94.334 100.333 137.001 123c56.667 31.333 125.667 47 207 47c113.333 0 204.333 -30.667 273 -92c82.667 -74 124 -182.667 124 -326c0 -127.333 -26.667 -247.666 -80 -360.999c-96 -202.667 -246.333 -304 -451 -304
c-101.333 0 -184.666 20 -249.999 60c-52 32 -87.667 86 -107 162l-43 -205h-196zM745.998 915.999c-75.333 0 -145.334 -26.667 -210.001 -80c-63.333 -52 -110.666 -121 -141.999 -207c-22.667 -61.333 -34 -121.333 -34 -180c0 -105.333 27 -186 81 -242
c48 -49.333 109.667 -74 185 -74c105.333 0 189.333 50.667 252 152c68 108 102 229 102 363c0 84 -19.333 148.333 -58 193c-43.333 50 -102 75 -176 75z" />
    <glyph glyph-name="c" unicode="c" horiz-adv-x="909" vert-adv-y="2457" 
d="M803 179l-39.002 -166c-85.333 -20 -159.666 -30 -222.999 -30c-138.667 0 -248 38.667 -328 116c-84 80 -126 193.667 -126 341c0 116.667 25.333 224.667 76 324c56.667 111.333 139 193.333 247 246c78 37.333 167.667 56 269 56c84 0 171.667 -16 263 -48l-43 -147
c-76 30 -145 45 -207 45c-118.667 0 -214 -43.667 -286 -131c-75.333 -92.667 -113 -206 -113 -340c0 -107.333 26 -186.333 78 -237c52 -50 122.333 -75 211 -75c62.667 0 136.334 15.333 221.001 46z" />
    <glyph glyph-name="d" unicode="d" horiz-adv-x="1251" vert-adv-y="2457" 
d="M992 0l-180.001 -0.00292969c9.33301 69.333 19.333 124.333 30 165c-33.333 -53.333 -68.333 -92.666 -105 -117.999c-62 -42.667 -140.667 -64 -236 -64c-119.333 0 -213.333 33.667 -282 101c-39.333 38.667 -69.666 86.334 -90.999 143.001
c-24 63.333 -36 129.333 -36 198c0 107.333 23.333 212 70 314c98 218 253.667 327 467 327c112.667 0 202.667 -28.667 270 -86c37.333 -31.333 62.333 -78.666 75 -141.999c7.33301 74 19.666 151.333 36.999 232l101 474h193l-255 -1200
c-19.333 -89.333 -38.666 -204 -57.999 -344zM656.999 915.997c-62 0 -120.668 -19.332 -176.001 -57.999c-62 -43.333 -110 -112.333 -144 -207c-24.667 -70 -37 -138.333 -37 -205c0 -93.333 19.333 -168 58 -224c41.333 -59.333 103.333 -89 186 -89
c120.667 0 214.334 56.333 281.001 169c57.333 96.667 86 201.667 86 315c0 91.333 -20.667 162.666 -62 213.999c-45.333 56.667 -109.333 85 -192 85z" />
    <glyph glyph-name="e" unicode="e" horiz-adv-x="1139" vert-adv-y="2457" 
d="M916 194l-36.998 -167c-104.667 -29.333 -202.334 -44 -293.001 -44c-144 0 -256 30.333 -336 91c-101.333 76.667 -152 195 -152 355c0 121.333 28.667 238 86 350c97.333 191.333 254.666 287 471.999 287c128 0 227.333 -34.667 298 -104
c70 -69.333 105 -165 105 -287c0 -55.333 -7.66699 -121 -23 -197h-738c-5.33301 -38.667 -8 -69.667 -8 -93c0 -87.333 33.667 -154 101 -200c49.333 -34 122.666 -51 219.999 -51c76.667 0 150.334 10.667 221.001 32c19.333 6 47.333 15.333 84 28zM865.002 628
c3.33301 36 5 63.666 5 82.999c0 65.333 -19.667 115.333 -59 150c-40.667 36.667 -92.667 55 -156 55c-97.333 0 -178 -36.667 -242 -110c-34.667 -39.333 -63.667 -98.666 -87 -177.999h539z" />
    <glyph glyph-name="f" unicode="f" horiz-adv-x="797" vert-adv-y="2457" 
d="M183 0l191.998 899h-252l32 150h251l27 125c22 103.333 51.333 179 88 227c44.667 58 102 100.333 172 127c47.333 18 97 27 149 27c41.333 0 90 -8 146 -24l-34 -158c-35.333 11.333 -66.333 17 -93 17c-85.333 0 -149.666 -38 -192.999 -114
c-21.333 -38 -43.666 -113.667 -66.999 -227h284l-32 -150h-285l-192 -899h-193z" />
    <glyph glyph-name="g" unicode="g" horiz-adv-x="1251" vert-adv-y="2457" 
d="M45 -374l37.001 163.999c129.333 -60 245.333 -90 348 -90c160.667 0 270.667 69.667 330 209c16 37.333 39 121.333 69 252c-40.667 -55.333 -82.334 -94.666 -125.001 -117.999c-56 -30 -121 -45 -195 -45c-96 0 -178.667 24 -248 72c-106 74 -159 196.333 -159 367
c0 113.333 25.333 222.333 76 327c97.333 201.333 252 302 464 302c110 0 196.667 -25.667 260 -77c36 -29.333 62.333 -74 79 -134c7.33301 53.333 20.333 118 39 194h186l-217 -1019c-28.667 -136.667 -67 -235 -115 -295c-98 -123.333 -247.667 -185 -449 -185
c-110 0 -236.667 25.333 -380 76zM666.001 915.999c-68.667 0 -132 -23.332 -190 -69.999c-55.333 -44.667 -98.333 -108.334 -129 -191.001c-24.667 -67.333 -37 -134.333 -37 -201c0 -90 19 -162 57 -216c41.333 -59.333 104 -89 188 -89c102 0 185.333 43.333 250 130
c74.667 100 112 217 112 351c0 80.667 -18.667 144.667 -56 192c-48 62.667 -113 94 -195 94z" />
    <glyph glyph-name="h" unicode="h" horiz-adv-x="1251" vert-adv-y="2457" 
d="M66 0l328.002 1544h193l-135 -637c39.333 48.667 76.666 83.667 111.999 105c59.333 36 130.333 54 213 54c121.333 0 215 -33.333 281 -100c52 -52.667 78 -121.667 78 -207c0 -65.333 -10.333 -147 -31 -245l-110 -514h-193l124 582
c13.333 62.667 20 109.334 20 140.001c0 57.333 -19 103 -57 137c-36.667 33.333 -84.334 50 -143.001 50c-101.333 0 -187.333 -44.333 -258 -133c-58 -72.667 -99.333 -167 -124 -283l-105 -493h-193z" />
    <glyph glyph-name="i" unicode="i" vert-adv-y="2457" 
d="M83 0l223 1049h193l-223 -1049h-193zM330 1216l45 214h216l-45 -214h-216z" />
    <glyph glyph-name="j" unicode="j" vert-adv-y="2457" 
d="M-235 -420l35.0029 153c33.333 -12.667 63.666 -19 90.999 -19c52.667 0 92 16.333 118 49c22 28 41 80 57 156l239 1130h194l-242 -1138c-28.667 -134 -61.334 -223.333 -98.001 -268c-26.667 -32 -66.334 -56.667 -119.001 -74c-38 -12.667 -77.333 -19 -118 -19
c-46 0 -98.333 10 -157 30zM326.003 1216l47 214h218l-46 -214h-219z" />
    <glyph glyph-name="k" unicode="k" horiz-adv-x="1139" vert-adv-y="2457" 
d="M70 0l328 1544h193l-192 -903l496 408h278l-590 -472l429 -577h-248l-386 540l-115 -540h-193z" />
    <glyph glyph-name="l" unicode="l" vert-adv-y="2457" 
d="M83 0l328 1544h193l-328 -1544h-193z" />
    <glyph glyph-name="m" unicode="m" horiz-adv-x="1821" vert-adv-y="2457" 
d="M65 0l222.999 1049h173c-12.667 -70.667 -26 -128.667 -40 -174c40 58.667 81 101.667 123 129c64.667 41.333 137.667 62 219 62c90 0 161 -24.667 213 -74c28 -26 52 -65 72 -117c92.667 127.333 211 191 355 191c103.333 0 184 -29.333 242 -88
c45.333 -45.333 68 -106 68 -182c0 -53.333 -8 -118 -24 -194l-129 -602h-192l129 611c14 66.667 21 112.667 21 138c0 55.333 -16.333 96.333 -49 123c-30.667 24.667 -69 37 -115 37c-92.667 0 -168 -42.333 -226 -127c-47.333 -68.667 -82.333 -156.667 -105 -264
l-110 -518h-193l129 607c14.667 70.667 22 121.334 22 152.001c0 52.667 -21 92.667 -63 120c-29.333 20 -63.666 30 -102.999 30c-77.333 0 -145 -34.333 -203 -103c-65.333 -76.667 -113.333 -187.667 -144 -333l-99 -473h-194z" />
    <glyph glyph-name="n" unicode="n" horiz-adv-x="1251" vert-adv-y="2457" 
d="M71 0l158.999 745.998c11.333 54.667 28.666 155.667 51.999 303h185l-15 -71c-10 -57.333 -19 -99.666 -27 -126.999c40.667 64.667 82.334 112 125.001 142c70.667 48.667 153.334 73 248.001 73c101.333 0 184 -29.333 248 -88c62.667 -56.667 94 -134.667 94 -234
c0 -68 -12 -157.667 -36 -269l-101 -475h-192l102 487c23.333 108.667 35 189.334 35 242.001c0 62 -22.667 109.333 -68 142c-34 25.333 -76.333 38 -127 38c-60 0 -117.333 -17 -172 -51c-104 -65.333 -178.333 -203.333 -223 -414l-94 -444h-193z" />
    <glyph glyph-name="o" unicode="o" horiz-adv-x="1251" vert-adv-y="2457" 
d="M690 1066c146 0 259.668 -41.001 341.001 -123.001c82 -83.333 123 -198.666 123 -345.999c0 -132.667 -34.667 -253.667 -104 -363c-63.333 -100 -151.666 -170.667 -264.999 -212c-70 -26 -142.667 -39 -218 -39c-148.667 0 -265.334 44.333 -350.001 133
c-79.333 82.667 -119 196.667 -119 342c0 112.667 28.333 220.667 85 324c61.333 110.667 148 189.667 260 237c75.333 31.333 157.666 47 246.999 47zM681.001 915.999c-68.667 0 -133.001 -21.668 -193.001 -65.001c-64.667 -46.667 -113.667 -115 -147 -205
c-24 -66 -36 -132 -36 -198c0 -89.333 20.667 -162.333 62 -219c46 -64 113.667 -96 203 -96c104.667 0 191.667 45.667 261 137c75.333 100 113 212.667 113 338c0 90.667 -21.333 163.334 -64 218.001c-47.333 60 -113.666 90 -198.999 90z" />
    <glyph glyph-name="p" unicode="p" horiz-adv-x="1251" vert-adv-y="2457" 
d="M-40 -436l236.998 1113c31.333 147.333 53.666 271.333 66.999 372h182c-5.33301 -45.333 -16.666 -99.333 -33.999 -162c42 54.667 83.667 94 125 118c68 40.667 145.333 61 232 61c110 0 199.333 -31.333 268 -94c82.667 -75.333 124 -183.666 124 -324.999
c0 -126.667 -27.333 -247.334 -82 -362.001c-97.333 -201.333 -251.666 -302 -462.999 -302c-119.333 0 -209.666 30.667 -270.999 92c-25.333 26.667 -48 66 -68 118c-5.33301 -54 -12.333 -101.333 -21 -142l-103 -487h-193zM725.998 916
c-58.667 0 -115.332 -17 -169.999 -51c-68 -42 -121.667 -107.667 -161 -197c-34.667 -77.333 -52 -157.333 -52 -240c0 -95.333 23 -168 69 -218c46.667 -51.333 108.667 -77 186 -77c105.333 0 189.666 50.333 252.999 151c68.667 108.667 103 230 103 364
c0 82.667 -18.333 146.667 -55 192c-40 50.667 -97.667 76 -173 76z" />
    <glyph glyph-name="q" unicode="q" horiz-adv-x="1251" vert-adv-y="2457" 
d="M890 -436l-193 0.000976562l119 556c-44 -42 -81 -72 -111 -90c-54.667 -31.333 -123.334 -47 -206.001 -47c-123.333 0 -221 38 -293 114c-78 81.333 -117 187.666 -117 318.999c0 164 45.333 311.333 136 442c96.667 138.667 233 208 409 208
c118.667 0 208.667 -31.667 270 -95c24.667 -26 47.334 -64.667 68.001 -116l41 194h193zM655 916.001c-71.333 0 -136.332 -24 -194.999 -72c-56.667 -46.667 -99.667 -113.667 -129 -201c-23.333 -68.667 -35 -135.667 -35 -201c0 -96 20 -170.667 60 -224
c42.667 -56.667 105 -85 187 -85c65.333 0 125.666 20.667 180.999 62c57.333 42 103.333 106.333 138 193c30.667 77.333 46 155 46 233c0 82.667 -19.333 150 -58 202c-45.333 62 -110.333 93 -195 93z" />
    <glyph glyph-name="r" unicode="r" horiz-adv-x="797" vert-adv-y="2457" 
d="M68 0l159 744.999c15.333 74 32.333 175.333 51 304h179c-7.33301 -70.667 -19 -137 -35 -199c37.333 62.667 70.333 106.667 99 132c61.333 56 138.666 84 231.999 84c40.667 0 81.334 -8 122.001 -24l-35 -159c-42 17.333 -79.333 26 -112 26
c-94 0 -175 -43.667 -243 -131c-54 -69.333 -96.333 -175.666 -127 -318.999l-97 -459h-193z" />
    <glyph glyph-name="s" unicode="s" horiz-adv-x="797" vert-adv-y="2457" 
d="M-7 33l34.998 160.002c84 -40 166 -60 246 -60c72 0 127.333 18 166 54c32 30 48 65.667 48 107c0 46.667 -22.333 90 -67 130c-10.667 9.33301 -64 47.666 -160 114.999c-90.667 63.333 -136 140.666 -136 231.999c0 89.333 37.333 162 112 218
c68.667 51.333 160.334 77 275.001 77c100 0 195.333 -18.667 286 -56l-54 -148c-81.333 36 -155.333 54 -222 54c-58.667 0 -105 -12.333 -139 -37c-32 -23.333 -48 -56 -48 -98c0 -24 6.33301 -45.333 19 -64c10.667 -17.333 41.334 -42 92.001 -74
c66.667 -42 126 -88 178 -138c47.333 -46 71 -104 71 -174c0 -74 -22.667 -140.333 -68 -199c-76.667 -99.333 -194.667 -149 -354 -149c-92 0 -185.333 16.667 -280 50z" />
    <glyph glyph-name="t" unicode="t" horiz-adv-x="797" vert-adv-y="2457" 
d="M117 899l32.001 149.999h236l51 244l210 75l-68 -319h286l-32 -150h-286l-113 -533c-8.66699 -40.667 -13 -77.667 -13 -111c0 -40 15.333 -69.667 46 -89c27.333 -17.333 60.333 -26 99 -26c36 0 77.333 10.667 124 32l-34 -158
c-56.667 -20.667 -111.334 -31 -164.001 -31c-80.667 0 -146 18.667 -196 56c-49.333 36.667 -74 95.334 -74 176.001c0 42.667 5.66699 90 17 142l115 542h-236z" />
    <glyph glyph-name="u" unicode="u" horiz-adv-x="1251" vert-adv-y="2457" 
d="M979 0h-171.999l9 78c2.66699 23.333 9.66699 62.333 21 117c-40 -61.333 -78.667 -106 -116 -134c-68.667 -52 -152.667 -78 -252 -78c-98 0 -179 26.667 -243 80s-96 124.333 -96 213c0 52 7.66699 114.667 23 188l125 585h193l-131 -615c-8 -38 -12 -73.667 -12 -107
c0 -63.333 21 -111.333 63 -144c35.333 -28.667 79.333 -43 132 -43c82 0 155.333 34.667 220 104c44 46.667 77.333 98.667 100 156c23.333 60 43 128 59 204l95 445h193l-152 -713c-22.667 -107.333 -42.334 -219.333 -59.001 -336z" />
    <glyph glyph-name="v" unicode="v" horiz-adv-x="1024" vert-adv-y="2457" 
d="M310 0l-167 1049h198l88 -608c15.333 -107.333 23 -189 23 -245c0 -13.333 -0.333008 -30.666 -1 -51.999c20 60 50.667 128.333 92 205l379 700h204l-586 -1049h-230z" />
    <glyph glyph-name="w" unicode="w" horiz-adv-x="1706" vert-adv-y="2457" 
d="M261 0l-118.001 1049h193l56 -622c8.66699 -94.667 13 -165.667 13 -213c0 -12.667 -1.33301 -38.667 -4 -78l28 69c78.667 193.333 222.334 474.666 431.001 843.999h233l55 -580c10.667 -116 16 -201.333 16 -256c0 -14 -0.666992 -39.667 -2 -77
c30.667 101.333 80.667 219 150 353l291 560h210l-567 -1049h-218l-67 612c-10 90.667 -15 164.334 -15 221.001c0 15.333 1.33301 44.666 4 87.999c-24 -85.333 -67.667 -186 -131 -302l-335 -619h-223z" />
    <glyph glyph-name="x" unicode="x" horiz-adv-x="1024" vert-adv-y="2457" 
d="M-88 0l485 552l-224 497h208l164 -377l312 377h237l-447 -502l255 -547h-215l-182 414l-348 -414h-245z" />
    <glyph glyph-name="y" unicode="y" horiz-adv-x="1024" vert-adv-y="2457" 
d="M-81 -427l34 160c32.667 -10 63.334 -15 92.001 -15c53.333 0 98.333 13.667 135 41c29.333 21.333 62 63.333 98 126l43 77l-172 1087h199l97 -689c11.333 -80 16.666 -144.667 15.999 -194c16.667 48 42.667 104 78 168l388 715h208l-682 -1208
c-46.667 -82 -85.667 -139.667 -117 -173c-71.333 -76 -165.333 -114 -282 -114c-42.667 0 -87.667 6.33301 -135 19z" />
    <glyph glyph-name="z" unicode="z" horiz-adv-x="1024" vert-adv-y="2457" 
d="M-7 0l33 155l759 744h-595l32 150h828l-33 -153l-760 -746h622l-33 -150h-853z" />
    <glyph glyph-name="braceleft" unicode="{" horiz-adv-x="682" vert-adv-y="2457" 
d="M309 554c31.333 -21.333 52.666 -43.0029 63.999 -65.0029c12 -24.667 18 -54.334 18 -89.001c0 -30 -4.33301 -65.333 -13 -106l-87 -412c-8.66699 -39.333 -13 -69.666 -13 -90.999c0 -42 22 -68.333 66 -79c27.333 -6.66699 64.333 -9.66699 111 -9l-29 -139
c-16 0.666992 -47.333 1 -94 1c-160.667 0 -241 64.333 -241 193c0 34.667 4.66699 74.334 14 119.001l87 408c7.33301 35.333 11 64.333 11 87c0 60 -29.667 97.667 -89 113l30 138c42.667 10.667 76.334 30 101.001 58c27.333 30 47.666 76.667 60.999 140l90 424
c28.667 135.333 92 224 190 266c42.667 18.667 94.667 29.334 156 32.001h70c6 0 17.667 0.333008 35 1l-30 -139c-71.333 0 -123 -7.66699 -155 -23c-27.333 -13.333 -47.333 -34.666 -60 -63.999c-8.66699 -21.333 -17 -50.666 -25 -87.999l-90 -422
c-16.667 -78 -41.667 -137 -75 -177c-21.333 -26.667 -55.666 -52.334 -102.999 -77.001z" />
    <glyph glyph-name="bar" unicode="|" horiz-adv-x="455" vert-adv-y="2457" 
d="M169 1430h193v-1787h-193v1787z" />
    <glyph glyph-name="braceright" unicode="}" horiz-adv-x="682" vert-adv-y="2457" 
d="M355 554c-32 21.333 -53.333 43.002 -64 65.002c-12 24.667 -18 54 -18 88c0 32 4.33301 67.667 13 107l87 412c8.66699 39.333 13 69.666 13 90.999c0 42 -22 68.333 -66 79c-27.333 6.66699 -64.666 9.66699 -111.999 9l30 139c16.667 -0.666992 48 -1 94 -1
c160.667 0 241 -64.333 241 -193c0 -34.667 -4.66699 -74.334 -14 -119.001l-87 -408c-7.33301 -34.667 -11 -64 -11 -88c0 -59.333 29.667 -96.666 89 -111.999l-30 -138c-42.667 -11.333 -76.667 -31 -102 -59c-26.667 -29.333 -46.667 -75.666 -60 -138.999l-90 -424
c-28.667 -136 -92 -224.667 -190 -266c-42.667 -18.667 -94.667 -29.334 -156 -32.001h-70c-6.66699 0 -18.334 -0.333008 -35.001 -1l29 139c72 0 123.667 7.66699 155 23c28 13.333 48 34.666 60 63.999c9.33301 22 18 51.333 26 88l89 422
c16.667 77.333 42 136.333 76 177c20.667 26 55 51.667 103 77z" />
    <glyph glyph-name="asciitilde" unicode="~" horiz-adv-x="1229" vert-adv-y="2457" 
d="M246 1235l-111.001 72.002c32 66.667 58 114 78 142c58.667 80 133.667 120 225 120c52.667 0 131 -22.667 235 -68c70.667 -30.667 116 -48.667 136 -54c23.333 -6 45 -9 65 -9c48 0 88 16 120 48c18 19.333 38.667 48.333 62 87l114 -66
c-43.333 -88.667 -86.666 -150.334 -129.999 -185.001c-57.333 -46.667 -121 -70 -191 -70c-23.333 0 -57.333 7 -102 21c-38.667 12.667 -105.667 39 -201 79c-47.333 20.667 -88.333 31 -123 31c-46 0 -85 -18.667 -117 -56c-18.667 -20.667 -38.667 -51.334 -60 -92.001z
" />
    <glyph glyph-name="uni00A0" unicode="&#xa0;" vert-adv-y="2457" 
 />
    <glyph glyph-name="exclamdown" unicode="&#xa1;" horiz-adv-x="797" vert-adv-y="2457" 
d="M614 1049l-47 -222h-227l47 222h227zM514 652l-204 -1032h-227l247 1032h184z" />
    <glyph glyph-name="cent" unicode="&#xa2;" horiz-adv-x="1159" vert-adv-y="2457" 
d="M562 167c-54.667 10.667 -105.668 30.666 -153.001 59.999c-122 76 -183 204.667 -183 386c0 136.667 33.333 259 100 367c101.333 164.667 256 251 464 259l38 175h114l-39 -179c53.333 -6 113 -20.667 179 -44l-43 -147c-62 24.667 -117.667 39.334 -167 44.001
l-166 -782c12 -0.666992 19.667 -1 23 -1c56.667 0 128.334 15.667 215.001 47l-39 -166c-87.333 -20.667 -164.333 -30.667 -231 -30l-37 -176h-114zM596.999 327.999l160.002 755.001c-60.667 -10.667 -114.667 -36 -162 -76
c-52.667 -44.667 -93.334 -103.334 -122.001 -176.001c-26.667 -66.667 -40 -137.667 -40 -213c0 -130.667 39.333 -220 118 -268c11.333 -6.66699 26.666 -14 45.999 -22z" />
    <glyph glyph-name="sterling" unicode="&#xa3;" horiz-adv-x="1159" vert-adv-y="2457" 
d="M30 0l35.002 164h193l113 530h-175l25 114h174l33 154c25.333 120 56.666 210 93.999 270c88 139.333 227.333 209 418 209c89.333 0 188.333 -18.667 297 -56l-48 -168c-80.667 34.667 -156.667 52 -228 52c-128.667 0 -221.334 -55.667 -278.001 -167
c-22 -43.333 -49 -141.333 -81 -294h335l-25 -114h-334l-113 -530h512l-35 -164h-912z" />
    <glyph glyph-name="currency" unicode="&#xa4;" horiz-adv-x="1139" vert-adv-y="2457" 
d="M53 223l167.001 167c-54.667 75.333 -82 156 -82 242c0 82 27.667 162 83 240l-171 168l93 92l169 -168c80 55.333 162.333 83 247 83s165.667 -27.333 243 -82l169 166l92 -91l-168 -166c56 -80 84 -161 84 -243s-27.333 -162 -82 -240l169 -167l-91 -93l-169 168
c-76.667 -55.333 -158.334 -83 -245.001 -83c-82 0 -164.667 27.333 -248 82l-168 -167zM562.001 899c-76.667 0 -141.334 -26.333 -194.001 -79c-52 -51.333 -78 -114.333 -78 -189c0 -74 26.333 -137 79 -189c52 -52 115 -78 189 -78c74.667 0 138.334 26 191.001 78
c52 52 78 115 78 189c0 75.333 -26 138.333 -78 189c-54 52.667 -116.333 79 -187 79z" />
    <glyph glyph-name="yen" unicode="&#xa5;" horiz-adv-x="1159" vert-adv-y="2457" 
d="M350 0l122 555h-379l26 114h346l-37 115h-294l24 114h234l-168 532h186l197 -642l487 642h220l-398 -532h256l-25 -114h-318l-85 -115h376l-24 -114h-416l-123 -555h-207z" />
    <glyph glyph-name="brokenbar" unicode="&#xa6;" horiz-adv-x="455" vert-adv-y="2457" 
d="M169 1430h193v-723h-193v723zM169 329h193v-686h-193v686z" />
    <glyph glyph-name="section" unicode="&#xa7;" horiz-adv-x="1139" vert-adv-y="2457" 
d="M1146 1520l-57.0029 -180c-98 40 -197 60 -297 60c-84 0 -155.333 -16 -214 -48c-35.333 -19.333 -65 -44 -89 -74c-28 -35.333 -42 -74.666 -42 -117.999c0 -58.667 34 -107 102 -145c30.667 -18 66.334 -36.333 107.001 -55l138 -64c58.667 -27.333 101 -50 127 -68
c79.333 -54 119 -125.667 119 -215c0 -90.667 -32.667 -173.334 -98 -248.001c-44.667 -50.667 -107.667 -94.667 -189 -132c43.333 -24 73.333 -46.667 90 -68c30 -38.667 45 -87.667 45 -147c0 -56 -13.667 -111.667 -41 -167c-58.667 -118 -156.667 -203 -294 -255
c-89.333 -34 -189.666 -51 -300.999 -51c-123.333 0 -236 18.333 -338 55l58 189c105.333 -50 215 -75 329 -75c126.667 0 223 27.667 289 83c58.667 50 88 108.333 88 175c0 56 -27 101.667 -81 137c-28 18 -69 38.667 -123 62l-115 50c-44.667 20 -88 43.333 -130 70
c-79.333 51.333 -119 125.333 -119 222c0 80.667 27 159 81 235c30.667 42.667 64.667 76.334 102 101.001c21.333 14 55.333 29 102 45c-45.333 28 -76.666 53.333 -93.999 76c-30.667 41.333 -46 91.666 -46 150.999c0 113.333 50.333 213 151 299
c110.667 95.333 253 143 427 143c112.667 0 217 -14.333 313 -43zM455.997 850c-116.667 -86 -175 -173.666 -175 -262.999c0 -57.333 28 -105 84 -143c38 -26.667 88 -53.334 150 -80.001l179 -76c110.667 79.333 166 165 166 257c0 56 -27.333 103 -82 141
c-25.333 18 -69.333 42 -132 72z" />
    <glyph glyph-name="dieresis" unicode="&#xa8;" vert-adv-y="2457" 
d="M382 1458l-44 -207h-187l44 207h187zM770 1458l-44 -207h-188l44 207h188z" />
    <glyph glyph-name="copyright" unicode="&#xa9;" horiz-adv-x="1638" vert-adv-y="2457" 
d="M1073 1086l-12.001 -126c-63.333 34.667 -124.666 52 -183.999 52c-101.333 0 -182 -32 -242 -96c-47.333 -50.667 -71 -115.667 -71 -195c0 -95.333 35.333 -171 106 -227c60 -47.333 130.667 -71 212 -71c57.333 0 120.333 12.667 189 38l10 -127
c-60.667 -19.333 -126 -29 -196 -29c-126 0 -228 28.333 -306 85c-108 78 -162 187.667 -162 329c0 107.333 34.333 197.333 103 270c43.333 45.333 100 80.333 170 105c57.333 20.667 117.333 31 180 31c76 0 143.667 -13 203 -39zM828.999 1449
c130.667 0 254.668 -36.333 372.001 -109c117.333 -72 206.666 -169 267.999 -291c53.333 -105.333 80 -216.666 80 -333.999c0 -137.333 -35.667 -265 -107 -383c-71.333 -116.667 -168 -206.334 -290 -269.001c-105.333 -54.667 -216 -82 -332 -82
c-135.333 0 -262 36 -380 108c-118 71.333 -208.333 168.666 -271 291.999c-54 106 -81 217 -81 333c0 138.667 36 267.334 108 386.001c70 116 167.667 206 293 270c104 52.667 217.333 79 340 79zM828 1345c-174 0 -321.667 -61 -443 -183s-182 -271.333 -182 -448
c0 -174 60.667 -322.333 182 -445c58 -58.667 124.667 -104 200 -136c76 -32 154.333 -48 235 -48c114.667 0 222 31.333 322 94c98 62 173.333 145.667 226 251c44.667 90 67 185 67 285c0 117.333 -30.333 227.333 -91 330c-58.667 98.667 -140 175.667 -244 231
c-87.333 46 -178 69 -272 69z" />
    <glyph glyph-name="ordfeminine" unicode="&#xaa;" horiz-adv-x="739" vert-adv-y="2457" 
d="M300 1289l26.998 125.999c76 22.667 141 34 195 34c78.667 0 141.667 -16.333 189 -49c51.333 -35.333 77 -86 77 -152c0 -34.667 -3.66699 -70 -11 -106l-32 -156c-8.66699 -42.667 -18.667 -104 -30 -184h-128c2.66699 23.333 6 49.666 10 78.999
c-33.333 -32.667 -63.333 -54.667 -90 -66c-35.333 -15.333 -73.666 -23 -114.999 -23c-62 0 -113 15.667 -153 47c-42.667 33.333 -64 79.333 -64 138c0 148.667 128.667 223 386 223c28.667 0 59 -1.66699 91 -5c1.33301 8.66699 2 20.334 2 35.001
c0 32.667 -9 57.334 -27 74.001c-28 26 -65.667 39 -113 39c-65.333 0 -136.666 -18 -213.999 -54zM626.998 1098h-13.998c-8 0.666992 -20.333 1 -37 1c-162.667 0 -247.334 -34.667 -254.001 -104c-2.66699 -21.333 0.666016 -39 9.99902 -53
c18.667 -29.333 50.667 -44 96 -44c54.667 0 100 19.667 136 59c21.333 24 37 51.667 47 83zM696 714.999l-20 -93h-552l20 93h552z" />
    <glyph glyph-name="guillemotleft" unicode="&#xab;" horiz-adv-x="1139" vert-adv-y="2457" 
d="M483 107h-170l-192 495l344 344h197l-338 -389zM926 107h-177l-197 448l360 391h192l-351 -422z" />
    <glyph glyph-name="logicalnot" unicode="&#xac;" horiz-adv-x="1229" vert-adv-y="2457" 
d="M923 0v392h-736v180h929v-572h-193z" />
    <glyph glyph-name="uni00AD" unicode="&#xad;" horiz-adv-x="682" vert-adv-y="2457" 
d="M73 469l34 160h538l-34 -160h-538z" />
    <glyph glyph-name="registered" unicode="&#xae;" horiz-adv-x="1638" vert-adv-y="2457" 
d="M551 1119l211.999 0.00292969c84.667 0 149.334 -7 194.001 -21c48.667 -14.667 86 -41.667 112 -81c22.667 -34 34 -72.333 34 -115c0 -56.667 -20.333 -103.334 -61 -140.001c-24 -22 -57 -38.333 -99 -49c32.667 -18.667 61 -52.334 85 -101.001l149 -301h-158
l-112 242c-18.667 41.333 -36 69.666 -52 84.999c-18.667 17.333 -54 26 -106 26h-61v-353h-137v808zM687.999 1006v-228h67c58.667 0 101.667 4.66699 129 14c52 17.333 78 51 78 101s-25.333 83.333 -76 100c-25.333 8.66699 -65 13 -119 13h-79zM831.999 1449
c130.667 0 254.668 -36.333 372.001 -109c117.333 -72 206.666 -169 267.999 -291c53.333 -105.333 80 -216.666 80 -333.999c0 -137.333 -35.667 -265 -107 -383c-71.333 -116.667 -168 -206.334 -290 -269.001c-105.333 -54.667 -216 -82 -332 -82
c-135.333 0 -262 36 -380 108c-118 71.333 -208.333 168.666 -271 291.999c-54 106 -81 217 -81 333c0 138.667 36 267.334 108 386.001c70 116 167.667 206 293 270c104 52.667 217.333 79 340 79zM831 1345c-174 0 -321.667 -61 -443 -183s-182 -271.333 -182 -448
c0 -174 60.667 -322.333 182 -445c58 -58.667 124.667 -104 200 -136c76 -32 154.333 -48 235 -48c114.667 0 222 31.333 322 94c98 62 173.333 145.667 226 251c44.667 90 67 185 67 285c0 117.333 -30.333 227.333 -91 330c-58.667 98.667 -140 175.667 -244 231
c-87.333 46 -178 69 -272 69z" />
    <glyph glyph-name="macron" unicode="&#xaf;" vert-adv-y="2457" 
d="M775 1411l-26 -123h-609l26 123h609z" />
    <glyph glyph-name="degree" unicode="&#xb0;" horiz-adv-x="819" vert-adv-y="2457" 
d="M549 1563c86 0 159.668 -29.666 221.001 -88.999c60.667 -59.333 91 -131.333 91 -216s-30 -156.334 -90 -215.001c-61.333 -60.667 -135 -91 -221 -91c-86.667 0 -160.334 30 -221.001 90s-91 133.333 -91 220c0 82.667 30.333 153 91 211c62.667 60 136 90 220 90z
M549.001 1445c-52 0 -96.667 -18.333 -134 -55c-36.667 -36 -55 -79.333 -55 -130c0 -54 18.333 -99 55 -135c37.333 -36.667 82.333 -55 135 -55c52 0 97 18.667 135 56c36.667 36 55 79.667 55 131c0 52.667 -18.667 97 -56 133c-38 36.667 -83 55 -135 55z" />
    <glyph glyph-name="plusminus" unicode="&#xb1;" horiz-adv-x="1229" vert-adv-y="2457" 
d="M544 779h-415v157h415v401h157v-401h414v-157h-414v-400h-157v400zM129 122v157h986v-157h-986z" />
    <glyph glyph-name="twosuperior" unicode="&#xb2;" horiz-adv-x="739" vert-adv-y="2457" 
d="M81 572l29 135.003c93.333 63.333 202 146.333 326 249c131.333 109.333 197 198.333 197 267c0 33.333 -15 59.666 -45 78.999c-24.667 16 -58 24 -100 24c-68.667 0 -144.334 -19 -227.001 -57l13 131c82 29.333 161.667 44 239 44c73.333 0 134.333 -15 183 -45
c58 -36 87 -88 87 -156c0 -98.667 -64 -206.334 -192 -323.001c-101.333 -92.667 -200.666 -169.334 -297.999 -230.001h403l-25 -118h-590z" />
    <glyph glyph-name="threesuperior" unicode="&#xb3;" horiz-adv-x="739" vert-adv-y="2457" 
d="M95 604l34.998 122.003c70.667 -34.667 142 -52 214 -52c66.667 0 123.334 16.667 170.001 50c38.667 27.333 58 64.666 58 111.999c0 84 -75.333 126 -226 126c-8.66699 0 -23.334 -0.333008 -44.001 -1l25 118c96 0 165.667 8.33301 209 25
c70 27.333 105 68.666 105 123.999c0 68 -48 102 -144 102c-60.667 0 -135 -15 -223 -45l14 130c83.333 19.333 157.333 29 222 29c80 0 145.333 -15.333 196 -46c56 -34 84 -84.667 84 -152c0 -56 -20 -106 -60 -150c-31.333 -34 -77.666 -60 -138.999 -78
c46.667 -20 78.334 -42.667 95.001 -68c21.333 -32.667 32 -69.334 32 -110.001c0 -80.667 -35.333 -148.667 -106 -204c-64.667 -50.667 -153.667 -76 -267 -76c-84 0 -167.333 14.667 -250 44z" />
    <glyph glyph-name="acute" unicode="&#xb4;" vert-adv-y="2457" 
d="M743 1510l-314 -293h-137l236 293h215z" />
    <glyph glyph-name="mu" unicode="&#xb5;" horiz-adv-x="1251" vert-adv-y="2457" 
d="M231 49l-75 -485h-207l316 1485h193l-131 -615c-8 -38 -12 -73.667 -12 -107c0 -62.667 21 -110.667 63 -144c35.333 -28.667 79.333 -43 132 -43c82 0 155.667 34.667 221 104c44 46.667 77 98.667 99 156c23.333 60 43 128 59 204l95 445h193l-152 -713
c-24 -112.667 -43.333 -224.667 -58 -336h-173l9 78c3.33301 27.333 10.333 66.333 21 117c-40 -61.333 -78.333 -106 -115 -134c-69.333 -52 -153 -78 -251 -78c-86 0 -161.667 22 -227 66z" />
    <glyph glyph-name="paragraph" unicode="&#xb6;" horiz-adv-x="1229" vert-adv-y="2457" 
d="M282 -437l228 1073h-28c-98.667 0 -174.667 29.667 -228 89c-46 50.667 -69 118.334 -69 203.001s22.333 167.667 67 249c58 106 139.667 178 245 216c68 24.667 149 37 243 37h568l-32 -150h-108l-365 -1717h-166l365 1717h-189l-365 -1717h-166z" />
    <glyph glyph-name="periodcentered" unicode="&#xb7;" vert-adv-y="2457" 
d="M156 435l49 229h233l-49 -229h-233z" />
    <glyph glyph-name="cedilla" unicode="&#xb8;" vert-adv-y="2457" 
d="M280 1l-79.999 -114.999c37.333 6.66699 64 10 80 10c43.333 0 78 -11 104 -33c30 -25.333 45 -59.333 45 -102c0 -52 -26.333 -97.667 -79 -137c-46.667 -34.667 -105.667 -52 -177 -52c-68.667 0 -133.334 14.333 -194.001 43l43 72c42.667 -18.667 88 -28 136 -28
c34.667 0 61.334 6 80.001 18c26 17.333 39 39.666 39 66.999c0 16.667 -5.33301 31 -16 43c-18.667 19.333 -43.667 29 -75 29c-14.667 0 -40.334 -5 -77.001 -15l-30 35l115 165h86z" />
    <glyph glyph-name="onesuperior" unicode="&#xb9;" horiz-adv-x="739" vert-adv-y="2457" 
d="M313 572l138.999 654c2.66699 12 6.33398 25.667 11.001 41l-153 -98l-68 102l278 161h124l-183 -860h-148z" />
    <glyph glyph-name="ordmasculine" unicode="&#xba;" horiz-adv-x="813" vert-adv-y="2457" 
d="M570 1449c93.333 0 166.668 -25 220.001 -75c55.333 -52 83 -123.333 83 -214c0 -78 -21.667 -149.667 -65 -215c-40.667 -60.667 -97.334 -103.667 -170.001 -129c-45.333 -16 -92 -24 -140 -24c-96 0 -171.667 27 -227 81c-53.333 51.333 -80 122 -80 212
c0 66 17.333 129.667 52 191c38 66 94 114 168 144c48.667 19.333 101.667 29 159 29zM561.002 1343c-66 0 -120.001 -26.667 -162.001 -80c-40 -52 -60 -112.667 -60 -182c0 -52.667 13 -95.667 39 -129c29.333 -36 70.333 -54 123 -54c63.333 0 115.333 25.667 156 77
c44 55.333 66 118.333 66 189c0 53.333 -13.667 96 -41 128c-29.333 34 -69.666 51 -120.999 51zM757.001 715l-20 -93h-626l20 93h626z" />
    <glyph glyph-name="guillemotright" unicode="&#xbb;" horiz-adv-x="1139" vert-adv-y="2457" 
d="M657 946h170l192 -495l-343 -344h-198l338 389zM214 946h177l197 -448l-360 -391h-192l351 422z" />
    <glyph glyph-name="onequarter" unicode="&#xbc;" horiz-adv-x="1708" vert-adv-y="2457" 
d="M277 572l138.999 654c2.66699 12 6.33398 25.667 11.001 41l-153 -98l-68 102l278 161h124l-183 -860h-148zM242.999 -83l1127 1595h134l-1127 -1595h-134zM1308 0l39 185h-423l24 112l493 564h198l-119 -558h113l-25 -118h-113l-39 -185h-148zM1115 303h258l103 428z
" />
    <glyph glyph-name="onehalf" unicode="&#xbd;" horiz-adv-x="1708" vert-adv-y="2457" 
d="M264 572l138.999 654c2.66699 12 6.33398 25.667 11.001 41l-153 -98l-68 102l278 161h124l-183 -860h-148zM251.999 -83l1127 1595h135l-1128 -1595h-134zM950.999 0l28.998 135.001c95.333 64.667 204 147.667 326 249c131.333 109.333 197 198.333 197 267
c0 33.333 -15 59.666 -45 78.999c-24 15.333 -57.333 23 -100 23c-69.333 0 -145 -19 -227 -57l13 131c82.667 29.333 162.334 44 239.001 44c74 0 135 -14.667 183 -44c58 -36.667 87 -89 87 -157c0 -98 -64 -205.333 -192 -322
c-101.333 -92 -200.666 -168.667 -297.999 -230h404l-26 -118h-590z" />
    <glyph glyph-name="threequarters" unicode="&#xbe;" horiz-adv-x="1708" vert-adv-y="2457" 
d="M78 604l34.998 122.003c70.667 -34.667 142 -52 214 -52c66.667 0 123.334 16.667 170.001 50c38.667 27.333 58 64.666 58 111.999c0 84 -75.333 126 -226 126c-8.66699 0 -23.334 -0.333008 -44.001 -1l25 118c96 0 165.667 8.33301 209 25
c70 27.333 105 68.666 105 123.999c0 68 -48 102 -144 102c-60.667 0 -135 -15 -223 -45l14 130c83.333 19.333 157.333 29 222 29c80 0 145.333 -15.333 196 -46c56 -34 84 -84.667 84 -152c0 -56 -20 -106 -60 -150c-31.333 -34 -77.666 -60 -138.999 -78
c46.667 -20 78.334 -42.667 95.001 -68c21.333 -32.667 32 -69.334 32 -110.001c0 -80.667 -35.333 -148.667 -106 -204c-64.667 -50.667 -153.667 -76 -267 -76c-84 0 -167.333 14.667 -250 44zM251.998 -82.9971l1127 1595h135l-1127 -1595h-135zM1324 0.00292969l39 185
h-423l23 112l494 564h197l-118 -558h113l-25 -118h-113l-40 -185h-147zM1131 303.003h257l104 428z" />
    <glyph glyph-name="questiondown" unicode="&#xbf;" horiz-adv-x="1024" vert-adv-y="2457" 
d="M720 1049l-47 -222h-216l47 222h216zM720 -158l-23.999 -194.999c-130.667 -32.667 -236.334 -49 -317.001 -49c-128.667 0 -228.334 26.667 -299.001 80c-75.333 57.333 -113 138 -113 242c0 96.667 36.333 185.334 109 266.001c33.333 37.333 69 71.666 107 102.999
l129 106c52.667 43.333 87.667 88.666 105 135.999c10 27.333 19.667 67.666 29 120.999h190l-23 -110c-15.333 -72.667 -38.333 -130.667 -69 -174c-30 -42 -75.667 -86.667 -137 -134c-75.333 -58.667 -120.666 -94.667 -135.999 -108s-30 -28.666 -44 -45.999
c-33.333 -44 -50 -88.667 -50 -134c0 -65.333 27.667 -112.333 83 -141c38.667 -20.667 90 -31 154 -31c95.333 0 197.333 22.667 306 68z" />
    <glyph glyph-name="Agrave" unicode="&#xc0;" horiz-adv-x="1479" vert-adv-y="2457" 
d="M-93 0l918 1430h216l313 -1430h-208l-77 357h-704l-226 -357h-232zM467 521h566l-97 500c-18.667 97.333 -29.667 178 -33 242c-23.333 -61.333 -61.333 -135.333 -114 -222zM888 1841l174 -279h-140l-266 279h232z" />
    <glyph glyph-name="Aacute" unicode="&#xc1;" horiz-adv-x="1479" vert-adv-y="2457" 
d="M-93 0l918 1430h216l313 -1430h-208l-77 357h-704l-226 -357h-232zM467 521h566l-97 500c-18.667 97.333 -29.667 178 -33 242c-23.333 -61.333 -61.333 -135.333 -114 -222zM1064 1841h244l-320 -279h-148z" />
    <glyph glyph-name="Acircumflex" unicode="&#xc2;" horiz-adv-x="1479" vert-adv-y="2457" 
d="M-93 0l918 1430h216l313 -1430h-208l-77 357h-704l-226 -357h-232zM467 521h566l-97 500c-18.667 97.333 -29.667 178 -33 242c-23.333 -61.333 -61.333 -135.333 -114 -222zM910 1841h191l174 -279h-172l-116 177l-192 -177h-179z" />
    <glyph glyph-name="Atilde" unicode="&#xc3;" horiz-adv-x="1479" vert-adv-y="2457" 
d="M-93 0l918 1430h216l313 -1430h-208l-77 357h-704l-226 -357h-232zM467 521h566l-97 500c-18.667 97.333 -29.667 178 -33 242c-23.333 -61.333 -61.333 -135.333 -114 -222zM1344 1813c-2.66699 -9.33301 -5 -16.333 -7 -21c-18.667 -58 -39.334 -100.333 -62.001 -127
c-41.333 -50 -90.666 -75 -147.999 -75c-29.333 0 -61.666 7.33301 -96.999 22c-9.33301 3.33301 -39 17.333 -89 42c-48.667 24 -82.667 36 -102 36c-37.333 0 -69 -30.667 -95 -92h-98c21.333 66.667 45.666 115.667 72.999 147c42.667 48.667 93.667 73 153 73
c45.333 0 109.333 -22 192 -66c34.667 -18 61 -27 79 -27c48 0 82.333 29.333 103 88h98z" />
    <glyph glyph-name="Adieresis" unicode="&#xc4;" horiz-adv-x="1479" vert-adv-y="2457" 
d="M-93 0l918 1430h216l313 -1430h-208l-77 357h-704l-226 -357h-232zM467 521h566l-97 500c-18.667 97.333 -29.667 178 -33 242c-23.333 -61.333 -61.333 -135.333 -114 -222zM1314 1798l-46 -207h-195l46 207h195zM896 1798l-46 -207h-194l46 207h194z" />
    <glyph glyph-name="Aring" unicode="&#xc5;" horiz-adv-x="1479" vert-adv-y="2457" 
d="M-93 0l918 1430h216l313 -1430h-208l-77 357h-704l-226 -357h-232zM467 521h566l-97 500c-18.667 97.333 -29.667 178 -33 242c-23.333 -61.333 -61.333 -135.333 -114 -222zM977 1931c61.333 0 113.333 -23.333 156 -70c36 -40 54 -87.667 54 -143
c0 -63.333 -23.333 -116 -70 -158c-41.333 -36.667 -89 -55 -143 -55c-63.333 0 -116.333 23.667 -159 71c-36.667 40 -55 88 -55 144c0 61.333 23.667 113.333 71 156c40 36.667 88.667 55 146 55zM975 1822c-32 0 -58.334 -11.333 -79.001 -34
c-17.333 -19.333 -26 -42 -26 -68c0 -31.333 11.333 -57.333 34 -78c20 -18 43 -27 69 -27c30 0 55.333 11.667 76 35c17.333 18.667 26 41.667 26 69c0 31.333 -11 57 -33 77c-19.333 17.333 -41.666 26 -66.999 26z" />
    <glyph glyph-name="AE" unicode="&#xc6;" horiz-adv-x="1933" vert-adv-y="2457" 
d="M-72 0l1145 1430h895l-36 -176h-525l-82 -431h487l-37 -176h-488l-89 -471h538l-37 -176h-747l69 360h-549l-292 -360h-252zM608 536h448l153 761z" />
    <glyph glyph-name="Ccedilla" unicode="&#xc7;" horiz-adv-x="1251" vert-adv-y="2457" 
d="M763 -19l-72.9961 -96.002c34.667 6 59.667 9 75 9c42 0 77 -12 105 -36c30 -25.333 45 -58.333 45 -99c0 -58 -26.333 -106.333 -79 -145c-46.667 -34.667 -107.334 -52 -182.001 -52c-68.667 0 -133 14.333 -193 43l44 76c42.667 -18.667 88 -28 136 -28
c45.333 0 78.666 12.333 99.999 37c13.333 14.667 20 31.334 20 50.001c0 26.667 -13 47.334 -39 62.001c-16 8.66699 -33.667 13 -53 13c-14.667 0 -40.334 -5 -77.001 -15l-30 35l114 154c-78 13.333 -141.667 30.666 -191 51.999c-122 54 -214.667 134 -278 240
c-56 94.667 -84 205 -84 331c0 174 46 332 138 474c92.667 142.667 221 244.334 385 305.001c104.667 38.667 218.667 58 342 58c132 0 248.333 -22 349 -66l-58 -177c-90.667 42.667 -190 64 -298 64c-172.667 0 -318.334 -54 -437.001 -162
c-70 -64 -122.667 -142 -158 -234c-30 -76.667 -45 -157.334 -45 -242.001c0 -165.333 55.667 -290.666 167 -375.999c83.333 -64 186.333 -96 309 -96c104 0 198.333 17.667 283 53l-26 -194c-84 -23.333 -187.667 -36 -311 -38z" />
    <glyph glyph-name="Egrave" unicode="&#xc8;" horiz-adv-x="1139" vert-adv-y="2457" 
d="M83 0l304 1430h782l-37 -176h-575l-91 -428h538l-38 -176h-537l-101 -474h600l-37 -176h-808zM744 1841l174 -279h-140l-266 279h232z" />
    <glyph glyph-name="Eacute" unicode="&#xc9;" horiz-adv-x="1139" vert-adv-y="2457" 
d="M83 0l304 1430h782l-37 -176h-575l-91 -428h538l-38 -176h-537l-101 -474h600l-37 -176h-808zM909 1841h244l-320 -279h-148z" />
    <glyph glyph-name="Ecircumflex" unicode="&#xca;" horiz-adv-x="1139" vert-adv-y="2457" 
d="M83 0l304 1430h782l-37 -176h-575l-91 -428h538l-38 -176h-537l-101 -474h600l-37 -176h-808zM766 1841h191l174 -279h-172l-116 177l-192 -177h-179z" />
    <glyph glyph-name="Edieresis" unicode="&#xcb;" horiz-adv-x="1139" vert-adv-y="2457" 
d="M93 0l304 1430h782l-37 -176h-575l-91 -428h538l-38 -176h-537l-101 -474h600l-37 -176h-808zM1164 1798l-46 -207h-195l46 207h195zM746 1798l-46 -207h-194l46 207h194z" />
    <glyph glyph-name="Igrave" unicode="&#xcc;" vert-adv-y="2457" 
d="M79 0l304 1430h207l-304 -1430h-207zM486 1841l174 -279h-140l-266 279h232z" />
    <glyph glyph-name="Iacute" unicode="&#xcd;" vert-adv-y="2457" 
d="M67 0l304 1430h207l-304 -1430h-207zM614 1841h244l-320 -279h-148z" />
    <glyph glyph-name="Icircumflex" unicode="&#xce;" vert-adv-y="2457" 
d="M79 0l304 1430h207l-304 -1430h-207zM476 1841h191l174 -279h-172l-116 177l-192 -177h-179z" />
    <glyph glyph-name="Idieresis" unicode="&#xcf;" vert-adv-y="2457" 
d="M67 0l304 1430h207l-304 -1430h-207zM790 1798l-46 -207h-184l46 207h184zM492 1798l-46 -207h-184l46 207h184z" />
    <glyph glyph-name="Eth" unicode="&#xd0;" horiz-adv-x="1479" vert-adv-y="2457" 
d="M76 0l138.001 650.999h-143l37 171h143l129 608h224c182 0 321.667 -15.667 419 -47c261.333 -82.667 392 -271.667 392 -567c0 -187.333 -48.333 -352.666 -145 -495.999c-100.667 -148.667 -247.334 -243.667 -440.001 -285c-108.667 -23.333 -270.667 -35 -486 -35
h-268zM320.001 175.999h131c147.333 0 261 11.667 341 35c138 40 243 120.333 315 241c62 104.667 93 223 93 355c0 179.333 -60.667 303 -182 371c-90 50.667 -218.667 76 -386 76h-83l-91 -432h371l-36 -171h-372z" />
    <glyph glyph-name="Ntilde" unicode="&#xd1;" horiz-adv-x="1479" vert-adv-y="2457" 
d="M66 0l304.001 1430h268l259 -761c50.667 -148.667 87.667 -265.667 111 -351c18.667 -72 30.667 -137.667 36 -197c11.333 140 36.333 300.667 75 482l176 827h193l-304 -1430h-269l-274 807c-46.667 138 -79.334 244.333 -98.001 319c-12 49.333 -22.667 105 -32 167
c-3.33301 -88.667 -16.333 -185.334 -39 -290.001l-213 -1003h-193zM1340 1813c-2.66699 -9.33301 -5 -16.333 -7 -21c-18.667 -58 -39.334 -100.333 -62.001 -127c-41.333 -50 -90.666 -75 -147.999 -75c-29.333 0 -61.666 7.33301 -96.999 22
c-9.33301 3.33301 -39 17.333 -89 42c-48.667 24 -82.667 36 -102 36c-37.333 0 -69 -30.667 -95 -92h-98c21.333 66.667 45.666 115.667 72.999 147c42.667 48.667 93.667 73 153 73c45.333 0 109.333 -22 192 -66c34.667 -18 61 -27 79 -27c48 0 82.333 29.333 103 88h98z
" />
    <glyph glyph-name="Ograve" unicode="&#xd2;" horiz-adv-x="1593" vert-adv-y="2457" 
d="M947 1449c181.333 0 320.667 -50.666 418 -151.999c101.333 -106 152 -252.667 152 -440c0 -166 -40.333 -324 -121 -474c-144.667 -268 -365 -402 -661 -402c-184 0 -324.667 49.333 -422 148c-108 109.333 -162 263.666 -162 462.999c0 110 23 225 69 345
c70 183.333 181 320 333 410c114.667 68 246 102 394 102zM938.001 1270c-108 0 -208.667 -36.332 -302 -108.999c-91.333 -71.333 -161.333 -168.333 -210 -291c-40 -100 -60 -197 -60 -291c0 -130 31.667 -230.333 95 -301c70.667 -78.667 170 -118 298 -118
c164.667 0 294.667 69.667 390 209c46 67.333 82.333 142.666 109 225.999c30 94 45 185 45 273c0 132 -40 235.333 -120 310c-66 61.333 -147.667 92 -245 92zM949.001 1841l174 -279h-140l-266 279h232z" />
    <glyph glyph-name="Oacute" unicode="&#xd3;" horiz-adv-x="1593" vert-adv-y="2457" 
d="M947 1449c181.333 0 320.667 -50.666 418 -151.999c101.333 -106 152 -252.667 152 -440c0 -166 -40.333 -324 -121 -474c-144.667 -268 -365 -402 -661 -402c-184 0 -324.667 49.333 -422 148c-108 109.333 -162 263.666 -162 462.999c0 110 23 225 69 345
c70 183.333 181 320 333 410c114.667 68 246 102 394 102zM938.001 1270c-108 0 -208.667 -36.332 -302 -108.999c-91.333 -71.333 -161.333 -168.333 -210 -291c-40 -100 -60 -197 -60 -291c0 -130 31.667 -230.333 95 -301c70.667 -78.667 170 -118 298 -118
c164.667 0 294.667 69.667 390 209c46 67.333 82.333 142.666 109 225.999c30 94 45 185 45 273c0 132 -40 235.333 -120 310c-66 61.333 -147.667 92 -245 92zM1103 1841h244l-320 -279h-148z" />
    <glyph glyph-name="Ocircumflex" unicode="&#xd4;" horiz-adv-x="1593" vert-adv-y="2457" 
d="M947 1449c181.333 0 320.667 -50.666 418 -151.999c101.333 -106 152 -252.667 152 -440c0 -166 -40.333 -324 -121 -474c-144.667 -268 -365 -402 -661 -402c-184 0 -324.667 49.333 -422 148c-108 109.333 -162 263.666 -162 462.999c0 110 23 225 69 345
c70 183.333 181 320 333 410c114.667 68 246 102 394 102zM938.001 1270c-108 0 -208.667 -36.332 -302 -108.999c-91.333 -71.333 -161.333 -168.333 -210 -291c-40 -100 -60 -197 -60 -291c0 -130 31.667 -230.333 95 -301c70.667 -78.667 170 -118 298 -118
c164.667 0 294.667 69.667 390 209c46 67.333 82.333 142.666 109 225.999c30 94 45 185 45 273c0 132 -40 235.333 -120 310c-66 61.333 -147.667 92 -245 92zM963.001 1841h191l174 -279h-172l-116 177l-192 -177h-179z" />
    <glyph glyph-name="Otilde" unicode="&#xd5;" horiz-adv-x="1593" vert-adv-y="2457" 
d="M947 1449c181.333 0 320.667 -50.666 418 -151.999c101.333 -106 152 -252.667 152 -440c0 -166 -40.333 -324 -121 -474c-144.667 -268 -365 -402 -661 -402c-184 0 -324.667 49.333 -422 148c-108 109.333 -162 263.666 -162 462.999c0 110 23 225 69 345
c70 183.333 181 320 333 410c114.667 68 246 102 394 102zM938.001 1270c-108 0 -208.667 -36.332 -302 -108.999c-91.333 -71.333 -161.333 -168.333 -210 -291c-40 -100 -60 -197 -60 -291c0 -130 31.667 -230.333 95 -301c70.667 -78.667 170 -118 298 -118
c164.667 0 294.667 69.667 390 209c46 67.333 82.333 142.666 109 225.999c30 94 45 185 45 273c0 132 -40 235.333 -120 310c-66 61.333 -147.667 92 -245 92zM1390 1813c-2.66699 -9.33301 -5 -16.333 -7 -21c-18.667 -58 -39.334 -100.333 -62.001 -127
c-41.333 -50 -90.666 -75 -147.999 -75c-29.333 0 -61.666 7.33301 -96.999 22c-9.33301 3.33301 -39 17.333 -89 42c-48.667 24 -82.667 36 -102 36c-37.333 0 -69 -30.667 -95 -92h-98c21.333 66.667 45.666 115.667 72.999 147c42.667 48.667 93.667 73 153 73
c45.333 0 109.333 -22 192 -66c34.667 -18 61 -27 79 -27c48 0 82.333 29.333 103 88h98z" />
    <glyph glyph-name="Odieresis" unicode="&#xd6;" horiz-adv-x="1593" vert-adv-y="2457" 
d="M927 1449c181.333 0 320.667 -50.666 418 -151.999c101.333 -106 152 -252.667 152 -440c0 -166 -40.333 -324 -121 -474c-144.667 -268 -365 -402 -661 -402c-184 0 -324.667 49.333 -422 148c-108 109.333 -162 263.666 -162 462.999c0 110 23 225 69 345
c70 183.333 181 320 333 410c114.667 68 246 102 394 102zM918.001 1270c-108 0 -208.667 -36.332 -302 -108.999c-91.333 -71.333 -161.333 -168.333 -210 -291c-40 -100 -60 -197 -60 -291c0 -130 31.667 -230.333 95 -301c70.667 -78.667 170 -118 298 -118
c164.667 0 294.667 69.667 390 209c46 67.333 82.333 142.666 109 225.999c30 94 45 185 45 273c0 132 -40 235.333 -120 310c-66 61.333 -147.667 92 -245 92zM1314 1798l-46 -207h-195l46 207h195zM896.001 1798l-46 -207h-194l46 207h194z" />
    <glyph glyph-name="multiply" unicode="&#xd7;" horiz-adv-x="1229" vert-adv-y="2457" 
d="M547 729l-313 314l111 111l313 -314l314 314l111 -111l-313 -314l313 -313l-111 -111l-314 313l-313 -313l-111 111z" />
    <glyph glyph-name="Oslash" unicode="&#xd8;" horiz-adv-x="1593" vert-adv-y="2457" 
d="M1464 1471l101 -93l-137 -145c67.333 -104.667 101 -231 101 -379c0 -164 -40.333 -321 -121 -471c-144.667 -268 -363.667 -402 -657 -402c-166 0 -296.333 38.667 -391 116l-132 -140l-101 94l140 148c-69.333 105.333 -104 233.333 -104 384
c0 168.667 43 328.667 129 480c81.333 142.667 191.333 247 330 313c100.667 48.667 211.667 73 333 73c158 0 285 -38 381 -114zM1184 1186c-60 56 -138.667 84 -236 84c-107.333 0 -207.333 -36 -300 -108c-90 -70.667 -160 -168 -210 -292
c-40.667 -101.333 -61 -203.333 -61 -306c0 -64.667 14.333 -133.667 43 -207zM1270 1074l-765 -827.999c81.333 -57.333 169 -86 263 -86c166 0 297 69.667 393 209c46 67.333 82.333 142.666 109 225.999c30 94.667 45 187 45 277c0 74.667 -15 142 -45 202z" />
    <glyph glyph-name="Ugrave" unicode="&#xd9;" horiz-adv-x="1479" vert-adv-y="2457" 
d="M367 1430h209l-168 -778c-17.333 -82 -26 -150.667 -26 -206c0 -92.667 31 -165 93 -217c56 -46 125.667 -69 209 -69c82 0 155.667 22.667 221 68c63.333 44 113.333 112.333 150 205c22.667 57.333 44.334 134 65.001 230l165 767h206l-171 -807
c-38 -178 -83 -307 -135 -387c-62.667 -98.667 -149.334 -169 -260.001 -211c-76.667 -29.333 -160 -44 -250 -44c-138.667 0 -253.667 34 -345 102c-103.333 77.333 -155 184 -155 320c0 80.667 10.667 170.667 32 270zM898 1841l174 -279h-140l-266 279h232z" />
    <glyph glyph-name="Uacute" unicode="&#xda;" horiz-adv-x="1479" vert-adv-y="2457" 
d="M367 1430h209l-168 -778c-17.333 -82 -26 -150.667 -26 -206c0 -92.667 31 -165 93 -217c56 -46 125.667 -69 209 -69c82 0 155.667 22.667 221 68c63.333 44 113.333 112.333 150 205c22.667 57.333 44.334 134 65.001 230l165 767h206l-171 -807
c-38 -178 -83 -307 -135 -387c-62.667 -98.667 -149.334 -169 -260.001 -211c-76.667 -29.333 -160 -44 -250 -44c-138.667 0 -253.667 34 -345 102c-103.333 77.333 -155 184 -155 320c0 80.667 10.667 170.667 32 270zM1066 1841h244l-320 -279h-148z" />
    <glyph glyph-name="Ucircumflex" unicode="&#xdb;" horiz-adv-x="1479" vert-adv-y="2457" 
d="M367 1430h209l-168 -778c-17.333 -82 -26 -150.667 -26 -206c0 -92.667 31 -165 93 -217c56 -46 125.667 -69 209 -69c82 0 155.667 22.667 221 68c63.333 44 113.333 112.333 150 205c22.667 57.333 44.334 134 65.001 230l165 767h206l-171 -807
c-38 -178 -83 -307 -135 -387c-62.667 -98.667 -149.334 -169 -260.001 -211c-76.667 -29.333 -160 -44 -250 -44c-138.667 0 -253.667 34 -345 102c-103.333 77.333 -155 184 -155 320c0 80.667 10.667 170.667 32 270zM922 1841h191l174 -279h-172l-116 177l-192 -177
h-179z" />
    <glyph glyph-name="Udieresis" unicode="&#xdc;" horiz-adv-x="1479" vert-adv-y="2457" 
d="M386 1430h209l-168 -778c-17.333 -82 -26 -150.667 -26 -206c0 -92.667 31 -165 93 -217c56 -46 125.667 -69 209 -69c82 0 155.667 22.667 221 68c63.333 44 113.333 112.333 150 205c22.667 57.333 44.334 134 65.001 230l165 767h206l-171 -807
c-38 -178 -83 -307 -135 -387c-62.667 -98.667 -149.334 -169 -260.001 -211c-76.667 -29.333 -160 -44 -250 -44c-138.667 0 -253.667 34 -345 102c-103.333 77.333 -155 184 -155 320c0 80.667 10.667 170.667 32 270zM1314 1798l-46 -207h-195l46 207h195zM896 1798
l-46 -207h-194l46 207h194z" />
    <glyph glyph-name="Yacute" unicode="&#xdd;" horiz-adv-x="1366" vert-adv-y="2457" 
d="M461 0l128 601l-383 829h227l283 -641l564 641h259l-743 -829l-128 -601h-207zM970 1841h244l-320 -279h-148z" />
    <glyph glyph-name="Thorn" unicode="&#xde;" horiz-adv-x="1139" vert-adv-y="2457" 
d="M48 0l304 1430h207l-45 -215h69c170.667 0 299.334 -26.667 386.001 -80c53.333 -32.667 93.666 -77.667 120.999 -135c22.667 -48 34 -101.333 34 -160c0 -98.667 -30 -189.334 -90 -272.001c-62 -86.667 -148.667 -145.667 -260 -177c-74 -21.333 -171 -32 -291 -32
h-151l-77 -359h-207zM369 535.001h117.001c103.333 0 179.666 8.66699 228.999 26c70.667 24 123 66.333 157 127c25.333 44.667 38 91 38 139c0 73.333 -27.333 127.333 -82 162c-52.667 33.333 -133.667 50 -243 50h-109z" />
    <glyph glyph-name="germandbls" unicode="&#xdf;" horiz-adv-x="1251" vert-adv-y="2457" 
d="M63 0l232.998 1098c24.667 116 53.667 202 87 258c49.333 82.667 114.333 140 195 172c59.333 24 133 36 221 36c148.667 0 257 -35.333 325 -106c28.667 -29.333 51.334 -67.666 68.001 -114.999c17.333 -46.667 26 -95.334 26 -146.001
c0 -118.667 -43.333 -216.334 -130 -293.001c-42 -36.667 -87.333 -61.667 -136 -75c-20.667 -6 -48 -11.333 -82 -16c71.333 -24 125.666 -49.667 162.999 -77c75.333 -56 113 -136.333 113 -241c0 -84 -20 -166.333 -60 -247
c-87.333 -176.667 -248.666 -265 -483.999 -265c-60 0 -125.333 5.66699 -196 17l37 161c56 -18.667 109.333 -28 160 -28c106.667 0 189.334 33 248.001 99c57.333 64 86 147.333 86 250c0 112.667 -44.333 187.334 -133 224.001c-46 18.667 -105.667 28.334 -179 29.001
l33 156h26h10c50.667 0 103.334 14.667 158.001 44c52.667 28.667 92.667 67.334 120 116.001c25.333 45.333 38 93.333 38 144c0 69.333 -22.333 124.333 -67 165c-38.667 36 -91.334 54 -158.001 54c-94.667 0 -165 -35 -211 -105c-40 -61.333 -73.333 -156 -100 -284
l-218 -1025h-193z" />
    <glyph glyph-name="agrave" unicode="&#xe0;" horiz-adv-x="1139" vert-adv-y="2457" 
d="M262 834l39 179c110.667 35.333 209.667 53 297 53c123.333 0 220 -26.667 290 -80c34.667 -26 61.667 -58.333 81 -97c23.333 -48 35 -96.667 35 -146c0 -55.333 -6.66699 -116 -20 -182l-54 -264c-11.333 -58 -28.333 -157 -51 -297h-176
c10 83.333 20.333 144.333 31 183c-84.667 -133.333 -202 -200 -352 -200c-96.667 0 -175.334 26 -236.001 78c-63.333 54.667 -95 128 -95 220c0 76.667 24 145 72 205c86 106 263.667 159 533 159c50 0 102.333 -3.33301 157 -10c4.66699 38 7 66 7 84
c0 52 -15.333 95 -46 129c-41.333 45.333 -103.666 68 -186.999 68c-104 0 -212.333 -27.333 -325 -82zM776 500l-31.999 2c-28 1.33301 -48.667 2 -62 2c-81.333 0 -156 -8 -224 -24c-135.333 -32 -203 -95 -203 -189c0 -56 21.667 -98.333 65 -127
c32 -20.667 70.333 -31 115 -31c91.333 0 167.666 35.667 228.999 107c36.667 42 63.667 91 81 147l18 68zM421.001 1510h201l171 -293h-130z" />
    <glyph glyph-name="aacute" unicode="&#xe1;" horiz-adv-x="1139" vert-adv-y="2457" 
d="M262 834l39 179c110.667 35.333 209.667 53 297 53c123.333 0 220 -26.667 290 -80c34.667 -26 61.667 -58.333 81 -97c23.333 -48 35 -96.667 35 -146c0 -55.333 -6.66699 -116 -20 -182l-54 -264c-11.333 -58 -28.333 -157 -51 -297h-176
c10 83.333 20.333 144.333 31 183c-84.667 -133.333 -202 -200 -352 -200c-96.667 0 -175.334 26 -236.001 78c-63.333 54.667 -95 128 -95 220c0 76.667 24 145 72 205c86 106 263.667 159 533 159c50 0 102.333 -3.33301 157 -10c4.66699 38 7 66 7 84
c0 52 -15.333 95 -46 129c-41.333 45.333 -103.666 68 -186.999 68c-104 0 -212.333 -27.333 -325 -82zM776 500l-31.999 2c-28 1.33301 -48.667 2 -62 2c-81.333 0 -156 -8 -224 -24c-135.333 -32 -203 -95 -203 -189c0 -56 21.667 -98.333 65 -127
c32 -20.667 70.333 -31 115 -31c91.333 0 167.666 35.667 228.999 107c36.667 42 63.667 91 81 147l18 68zM1011 1510l-314 -293h-137l236 293h215z" />
    <glyph glyph-name="acircumflex" unicode="&#xe2;" horiz-adv-x="1139" vert-adv-y="2457" 
d="M262 834l39 179c110.667 35.333 209.667 53 297 53c123.333 0 220 -26.667 290 -80c34.667 -26 61.667 -58.333 81 -97c23.333 -48 35 -96.667 35 -146c0 -55.333 -6.66699 -116 -20 -182l-54 -264c-11.333 -58 -28.333 -157 -51 -297h-176
c10 83.333 20.333 144.333 31 183c-84.667 -133.333 -202 -200 -352 -200c-96.667 0 -175.334 26 -236.001 78c-63.333 54.667 -95 128 -95 220c0 76.667 24 145 72 205c86 106 263.667 159 533 159c50 0 102.333 -3.33301 157 -10c4.66699 38 7 66 7 84
c0 52 -15.333 95 -46 129c-41.333 45.333 -103.666 68 -186.999 68c-104 0 -212.333 -27.333 -325 -82zM776 500l-31.999 2c-28 1.33301 -48.667 2 -62 2c-81.333 0 -156 -8 -224 -24c-135.333 -32 -203 -95 -203 -189c0 -56 21.667 -98.333 65 -127
c32 -20.667 70.333 -31 115 -31c91.333 0 167.666 35.667 228.999 107c36.667 42 63.667 91 81 147l18 68zM991.001 1217h-164l-104 197l-194 -197h-164l283 293h184z" />
    <glyph glyph-name="atilde" unicode="&#xe3;" horiz-adv-x="1139" vert-adv-y="2457" 
d="M262 834l39 179c110.667 35.333 209.667 53 297 53c123.333 0 220 -26.667 290 -80c34.667 -26 61.667 -58.333 81 -97c23.333 -48 35 -96.667 35 -146c0 -55.333 -6.66699 -116 -20 -182l-54 -264c-11.333 -58 -28.333 -157 -51 -297h-176
c10 83.333 20.333 144.333 31 183c-84.667 -133.333 -202 -200 -352 -200c-96.667 0 -175.334 26 -236.001 78c-63.333 54.667 -95 128 -95 220c0 76.667 24 145 72 205c86 106 263.667 159 533 159c50 0 102.333 -3.33301 157 -10c4.66699 38 7 66 7 84
c0 52 -15.333 95 -46 129c-41.333 45.333 -103.666 68 -186.999 68c-104 0 -212.333 -27.333 -325 -82zM776 500l-31.999 2c-28 1.33301 -48.667 2 -62 2c-81.333 0 -156 -8 -224 -24c-135.333 -32 -203 -95 -203 -189c0 -56 21.667 -98.333 65 -127
c32 -20.667 70.333 -31 115 -31c91.333 0 167.666 35.667 228.999 107c36.667 42 63.667 91 81 147l18 68zM1045 1457c-16 -56 -37.998 -101.667 -65.998 -137c-39.333 -49.333 -86.333 -74 -141 -74c-24.667 0 -60.334 9.66699 -107.001 29c-26 10.667 -63.667 28 -113 52
c-14 6.66699 -29 10 -45 10c-39.333 0 -69 -27.667 -89 -83h-101c14 49.333 33 90 57 122c43.333 58 97.333 87 162 87c28.667 0 59.667 -7 93 -21c14 -6 43 -19.667 87 -41c31.333 -15.333 55.666 -23 72.999 -23c40 0 69.333 26.333 88 79h102z" />
    <glyph glyph-name="adieresis" unicode="&#xe4;" horiz-adv-x="1139" vert-adv-y="2457" 
d="M262 834l39 179c110.667 35.333 209.667 53 297 53c123.333 0 220 -26.667 290 -80c34.667 -26 61.667 -58.333 81 -97c23.333 -48 35 -96.667 35 -146c0 -55.333 -6.66699 -116 -20 -182l-54 -264c-11.333 -58 -28.333 -157 -51 -297h-176
c10 83.333 20.333 144.333 31 183c-84.667 -133.333 -202 -200 -352 -200c-96.667 0 -175.334 26 -236.001 78c-63.333 54.667 -95 128 -95 220c0 76.667 24 145 72 205c86 106 263.667 159 533 159c50 0 102.333 -3.33301 157 -10c4.66699 38 7 66 7 84
c0 52 -15.333 95 -46 129c-41.333 45.333 -103.666 68 -186.999 68c-104 0 -212.333 -27.333 -325 -82zM776 500l-31.999 2c-28 1.33301 -48.667 2 -62 2c-81.333 0 -156 -8 -224 -24c-135.333 -32 -203 -95 -203 -189c0 -56 21.667 -98.333 65 -127
c32 -20.667 70.333 -31 115 -31c91.333 0 167.666 35.667 228.999 107c36.667 42 63.667 91 81 147l18 68zM633.001 1458l-44 -207h-187l44 207h187zM1021 1458l-44 -207h-188l44 207h188z" />
    <glyph glyph-name="aring" unicode="&#xe5;" horiz-adv-x="1139" vert-adv-y="2457" 
d="M262 834l39 179c110.667 35.333 209.667 53 297 53c123.333 0 220 -26.667 290 -80c34.667 -26 61.667 -58.333 81 -97c23.333 -48 35 -96.667 35 -146c0 -55.333 -6.66699 -116 -20 -182l-54 -264c-11.333 -58 -28.333 -157 -51 -297h-176
c10 83.333 20.333 144.333 31 183c-84.667 -133.333 -202 -200 -352 -200c-96.667 0 -175.334 26 -236.001 78c-63.333 54.667 -95 128 -95 220c0 76.667 24 145 72 205c86 106 263.667 159 533 159c50 0 102.333 -3.33301 157 -10c4.66699 38 7 66 7 84
c0 52 -15.333 95 -46 129c-41.333 45.333 -103.666 68 -186.999 68c-104 0 -212.333 -27.333 -325 -82zM776 500l-31.999 2c-28 1.33301 -48.667 2 -62 2c-81.333 0 -156 -8 -224 -24c-135.333 -32 -203 -95 -203 -189c0 -56 21.667 -98.333 65 -127
c32 -20.667 70.333 -31 115 -31c91.333 0 167.666 35.667 228.999 107c36.667 42 63.667 91 81 147l18 68zM686.001 1578c59.333 0 109.999 -23.002 151.999 -69.002c35.333 -39.333 53 -85.666 53 -138.999c0 -61.333 -23 -112.666 -69 -153.999
c-39.333 -36 -85.666 -54 -138.999 -54c-61.333 0 -113 23 -155 69c-35.333 39.333 -53 86.333 -53 141c0 60 23 111 69 153c38.667 35.333 86 53 142 53zM685 1472c-32 0 -58 -11 -78 -33c-17.333 -19.333 -26 -42 -26 -68c0 -31.333 11.333 -57 34 -77
c19.333 -17.333 42 -26 68 -26c30.667 0 56 11.333 76 34c17.333 19.333 26 42 26 68c0 30 -11.333 55.333 -34 76c-18.667 17.333 -40.667 26 -66 26z" />
    <glyph glyph-name="ae" unicode="&#xe6;" horiz-adv-x="1821" vert-adv-y="2457" 
d="M1744 479l-736.001 -0.00292969c-3.33301 -31.333 -5 -54 -5 -68c0 -93.333 31 -164 93 -212c56 -44 134.333 -66 235 -66c85.333 0 182.333 22.333 291 67l-30 -178c-108 -26 -211.333 -39 -310 -39c-228.667 0 -364 74.667 -406 224
c-32 -66 -70.333 -114.667 -115 -146c-74.667 -52 -174.667 -78 -300 -78c-105.333 0 -192.333 19.667 -261 59c-51.333 29.333 -88.333 71 -111 125c-17.333 40.667 -26 83.334 -26 128.001c0 76 24.667 143.333 74 202c54 64 139 107.667 255 131c76 15.333 172 23 288 23
c55.333 0 114 -2.66699 176 -8c8 30.667 12 56.334 12 77.001c0 50.667 -16.333 93 -49 127c-44 46 -113.667 69 -209 69c-104 0 -217.333 -26 -340 -78l38 180c104.667 32 210 48 316 48c98.667 0 179.334 -13.333 242.001 -40c42 -18.667 74.333 -44.667 97 -78
c8.66699 -12 18.667 -31.667 30 -59c32.667 52.667 68.667 91.667 108 117c62 40 143.667 60 245 60c133.333 0 236.333 -34 309 -102c75.333 -70 113 -172.333 113 -307c0 -53.333 -8 -112.666 -24 -177.999zM821.999 496.997l-12.999 1h-7c-30.667 2.66699 -60 4 -88 4
c-132.667 0 -229.667 -10 -291 -30c-102 -34 -153 -93.667 -153 -179c0 -53.333 21 -95 63 -125c33.333 -23.333 77.666 -35 132.999 -35c113.333 0 201.333 44.333 264 133c25.333 35.333 45.333 75 60 119zM1575 628.997c3.33301 35.333 4.99902 60.3359 4.99902 75.0029
c0 61.333 -15.333 108.666 -46 141.999c-44 46.667 -103.667 70 -179 70c-62 0 -119.667 -17.333 -173 -52s-93.666 -85.334 -120.999 -152.001c-7.33301 -18.667 -16.333 -46.334 -27 -83.001h541z" />
    <glyph glyph-name="ccedilla" unicode="&#xe7;" horiz-adv-x="909" vert-adv-y="2457" 
d="M500 -17l-68.001 -96.999c37.333 6.66699 64.333 10 81 10c42.667 0 77 -11 103 -33c30 -25.333 45 -59.333 45 -102c0 -52 -26 -97.667 -78 -137c-46.667 -34.667 -105.667 -52 -177 -52c-69.333 0 -134.333 14.333 -195 43l43 72
c43.333 -18.667 88.666 -28 135.999 -28c34.667 0 61.334 6 80.001 18c26 17.333 39 39.666 39 66.999c0 16.667 -5.33301 31 -16 43c-18 19.333 -42.667 29 -74 29c-15.333 0 -41.333 -5 -78 -15l-30 35l109 155c-70 11.333 -132 35.333 -186 72
c-112.667 77.333 -169 203 -169 377c0 116.667 25.333 224.667 76 324c56.667 111.333 139 193.333 247 246c78 37.333 167.667 56 269 56c84 0 171.667 -16 263 -48l-43 -147c-76 30 -145 45 -207 45c-118.667 0 -214 -43.667 -286 -131
c-75.333 -92.667 -113 -206 -113 -340c0 -107.333 26 -186.333 78 -237c52 -50 122.333 -75 211 -75c62.667 0 136.334 15.333 221.001 46l-39 -166c-85.333 -20 -158.333 -30 -219 -30h-23z" />
    <glyph glyph-name="egrave" unicode="&#xe8;" horiz-adv-x="1139" vert-adv-y="2457" 
d="M916 194l-36.998 -167c-104.667 -29.333 -202.334 -44 -293.001 -44c-144 0 -256 30.333 -336 91c-101.333 76.667 -152 195 -152 355c0 121.333 28.667 238 86 350c97.333 191.333 254.666 287 471.999 287c128 0 227.333 -34.667 298 -104
c70 -69.333 105 -165 105 -287c0 -55.333 -7.66699 -121 -23 -197h-738c-5.33301 -38.667 -8 -69.667 -8 -93c0 -87.333 33.667 -154 101 -200c49.333 -34 122.666 -51 219.999 -51c76.667 0 150.334 10.667 221.001 32c19.333 6 47.333 15.333 84 28zM865.002 628
c3.33301 36 5 63.666 5 82.999c0 65.333 -19.667 115.333 -59 150c-40.667 36.667 -92.667 55 -156 55c-97.333 0 -178 -36.667 -242 -110c-34.667 -39.333 -63.667 -98.666 -87 -177.999h539zM451.002 1510h201l171 -293h-130z" />
    <glyph glyph-name="eacute" unicode="&#xe9;" horiz-adv-x="1139" vert-adv-y="2457" 
d="M916 194l-36.998 -167c-104.667 -29.333 -202.334 -44 -293.001 -44c-144 0 -256 30.333 -336 91c-101.333 76.667 -152 195 -152 355c0 121.333 28.667 238 86 350c97.333 191.333 254.666 287 471.999 287c128 0 227.333 -34.667 298 -104
c70 -69.333 105 -165 105 -287c0 -55.333 -7.66699 -121 -23 -197h-738c-5.33301 -38.667 -8 -69.667 -8 -93c0 -87.333 33.667 -154 101 -200c49.333 -34 122.666 -51 219.999 -51c76.667 0 150.334 10.667 221.001 32c19.333 6 47.333 15.333 84 28zM865.002 628
c3.33301 36 5 63.666 5 82.999c0 65.333 -19.667 115.333 -59 150c-40.667 36.667 -92.667 55 -156 55c-97.333 0 -178 -36.667 -242 -110c-34.667 -39.333 -63.667 -98.666 -87 -177.999h539zM1048 1510l-314 -293h-137l236 293h215z" />
    <glyph glyph-name="ecircumflex" unicode="&#xea;" horiz-adv-x="1139" vert-adv-y="2457" 
d="M916 194l-36.998 -167c-104.667 -29.333 -202.334 -44 -293.001 -44c-144 0 -256 30.333 -336 91c-101.333 76.667 -152 195 -152 355c0 121.333 28.667 238 86 350c97.333 191.333 254.666 287 471.999 287c128 0 227.333 -34.667 298 -104
c70 -69.333 105 -165 105 -287c0 -55.333 -7.66699 -121 -23 -197h-738c-5.33301 -38.667 -8 -69.667 -8 -93c0 -87.333 33.667 -154 101 -200c49.333 -34 122.666 -51 219.999 -51c76.667 0 150.334 10.667 221.001 32c19.333 6 47.333 15.333 84 28zM865.002 628
c3.33301 36 5 63.666 5 82.999c0 65.333 -19.667 115.333 -59 150c-40.667 36.667 -92.667 55 -156 55c-97.333 0 -178 -36.667 -242 -110c-34.667 -39.333 -63.667 -98.666 -87 -177.999h539zM1018 1217h-164l-104 197l-194 -197h-164l283 293h184z" />
    <glyph glyph-name="edieresis" unicode="&#xeb;" horiz-adv-x="1139" vert-adv-y="2457" 
d="M916 194l-36.998 -167c-104.667 -29.333 -202.334 -44 -293.001 -44c-144 0 -256 30.333 -336 91c-101.333 76.667 -152 195 -152 355c0 121.333 28.667 238 86 350c97.333 191.333 254.666 287 471.999 287c128 0 227.333 -34.667 298 -104
c70 -69.333 105 -165 105 -287c0 -55.333 -7.66699 -121 -23 -197h-738c-5.33301 -38.667 -8 -69.667 -8 -93c0 -87.333 33.667 -154 101 -200c49.333 -34 122.666 -51 219.999 -51c76.667 0 150.334 10.667 221.001 32c19.333 6 47.333 15.333 84 28zM865.002 628
c3.33301 36 5 63.666 5 82.999c0 65.333 -19.667 115.333 -59 150c-40.667 36.667 -92.667 55 -156 55c-97.333 0 -178 -36.667 -242 -110c-34.667 -39.333 -63.667 -98.666 -87 -177.999h539zM658.002 1458l-44 -207h-187l44 207h187zM1046 1458l-44 -207h-188l44 207h188z
" />
    <glyph glyph-name="igrave" unicode="&#xec;" vert-adv-y="2457" 
d="M74 0l223 1049h193l-223 -1049h-193zM171 1510h201l171 -293h-130z" />
    <glyph glyph-name="iacute" unicode="&#xed;" vert-adv-y="2457" 
d="M74 0l223 1049h193l-223 -1049h-193zM775 1510l-314 -293h-137l236 293h215z" />
    <glyph glyph-name="icircumflex" unicode="&#xee;" vert-adv-y="2457" 
d="M74 0l223 1049h193l-223 -1049h-193zM720 1217h-164l-104 197l-194 -197h-164l283 293h184z" />
    <glyph glyph-name="idieresis" unicode="&#xef;" vert-adv-y="2457" 
d="M74 0l223 1049h193l-223 -1049h-193zM426 1458l-44 -207h-177l44 207h177zM709 1458l-44 -207h-176l44 207h176z" />
    <glyph glyph-name="eth" unicode="&#xf0;" horiz-adv-x="1251" vert-adv-y="2457" 
d="M514 1435l52.998 119.001c114 -15.333 214.333 -49.666 301 -102.999l211 130l69 -95l-189 -117c50 -56 89.667 -123 119 -201c53.333 -142 80 -293.667 80 -455c0 -226 -46.333 -400 -139 -522c-104 -136.667 -256 -205 -456 -205
c-147.333 0 -262.666 43.333 -345.999 130c-79.333 83.333 -119 195.666 -119 336.999c0 118 27.667 228 83 330c59.333 108.667 147 187.667 263 237c76 32.667 155.333 49 238 49c76 0 136.667 -14.333 182 -43c22 -14 51 -40.333 87 -79
c-9.33301 144 -52.666 257 -129.999 339l-204 -126l-67 95l176 110c-60 29.333 -130.667 52.666 -212 69.999zM681.998 919.001c-68.667 0 -132.999 -21.3311 -192.999 -63.998c-66.667 -47.333 -116.334 -116 -149.001 -206c-23.333 -64.667 -35 -132.334 -35 -203.001
c0 -89.333 20 -161 60 -215c47.333 -63.333 115.333 -95 204 -95c105.333 0 193 46 263 138c76.667 101.333 115 213.666 115 336.999c0 88.667 -21.667 160.667 -65 216c-48 61.333 -114.667 92 -200 92z" />
    <glyph glyph-name="ntilde" unicode="&#xf1;" horiz-adv-x="1251" vert-adv-y="2457" 
d="M58 0l158.999 745.998c11.333 54.667 28.666 155.667 51.999 303h185l-15 -71c-10 -57.333 -19 -99.666 -27 -126.999c40.667 64.667 82.334 112 125.001 142c70.667 48.667 153.334 73 248.001 73c101.333 0 184 -29.333 248 -88c62.667 -56.667 94 -134.667 94 -234
c0 -68 -12 -157.667 -36 -269l-101 -475h-192l102 487c23.333 108.667 35 189.334 35 242.001c0 62 -22.667 109.333 -68 142c-34 25.333 -76.333 38 -127 38c-60 0 -117.333 -17 -172 -51c-104 -65.333 -178.333 -203.333 -223 -414l-94 -444h-193zM1097 1457
c-16 -56 -37.998 -101.667 -65.998 -137c-39.333 -49.333 -86.333 -74 -141 -74c-24.667 0 -60.334 9.66699 -107.001 29c-26 10.667 -63.667 28 -113 52c-14 6.66699 -29 10 -45 10c-39.333 0 -69 -27.667 -89 -83h-101c14 49.333 33 90 57 122c43.333 58 97.333 87 162 87
c28.667 0 59.667 -7 93 -21c14 -6 43 -19.667 87 -41c31.333 -15.333 55.666 -23 72.999 -23c40 0 69.333 26.333 88 79h102z" />
    <glyph glyph-name="ograve" unicode="&#xf2;" horiz-adv-x="1251" vert-adv-y="2457" 
d="M690 1066c146 0 259.668 -41.001 341.001 -123.001c82 -83.333 123 -198.666 123 -345.999c0 -132.667 -34.667 -253.667 -104 -363c-63.333 -100 -151.666 -170.667 -264.999 -212c-70 -26 -142.667 -39 -218 -39c-148.667 0 -265.334 44.333 -350.001 133
c-79.333 82.667 -119 196.667 -119 342c0 112.667 28.333 220.667 85 324c61.333 110.667 148 189.667 260 237c75.333 31.333 157.666 47 246.999 47zM681.001 915.999c-68.667 0 -133.001 -21.668 -193.001 -65.001c-64.667 -46.667 -113.667 -115 -147 -205
c-24 -66 -36 -132 -36 -198c0 -89.333 20.667 -162.333 62 -219c46 -64 113.667 -96 203 -96c104.667 0 191.667 45.667 261 137c75.333 100 113 212.667 113 338c0 90.667 -21.333 163.334 -64 218.001c-47.333 60 -113.666 90 -198.999 90zM483 1510h201l171 -293h-130z
" />
    <glyph glyph-name="oacute" unicode="&#xf3;" horiz-adv-x="1251" vert-adv-y="2457" 
d="M690 1066c146 0 259.668 -41.001 341.001 -123.001c82 -83.333 123 -198.666 123 -345.999c0 -132.667 -34.667 -253.667 -104 -363c-63.333 -100 -151.666 -170.667 -264.999 -212c-70 -26 -142.667 -39 -218 -39c-148.667 0 -265.334 44.333 -350.001 133
c-79.333 82.667 -119 196.667 -119 342c0 112.667 28.333 220.667 85 324c61.333 110.667 148 189.667 260 237c75.333 31.333 157.666 47 246.999 47zM681.001 915.999c-68.667 0 -133.001 -21.668 -193.001 -65.001c-64.667 -46.667 -113.667 -115 -147 -205
c-24 -66 -36 -132 -36 -198c0 -89.333 20.667 -162.333 62 -219c46 -64 113.667 -96 203 -96c104.667 0 191.667 45.667 261 137c75.333 100 113 212.667 113 338c0 90.667 -21.333 163.334 -64 218.001c-47.333 60 -113.666 90 -198.999 90zM1095 1510l-314 -293h-137
l236 293h215z" />
    <glyph glyph-name="ocircumflex" unicode="&#xf4;" horiz-adv-x="1251" vert-adv-y="2457" 
d="M690 1066c146 0 259.668 -41.001 341.001 -123.001c82 -83.333 123 -198.666 123 -345.999c0 -132.667 -34.667 -253.667 -104 -363c-63.333 -100 -151.666 -170.667 -264.999 -212c-70 -26 -142.667 -39 -218 -39c-148.667 0 -265.334 44.333 -350.001 133
c-79.333 82.667 -119 196.667 -119 342c0 112.667 28.333 220.667 85 324c61.333 110.667 148 189.667 260 237c75.333 31.333 157.666 47 246.999 47zM681.001 915.999c-68.667 0 -133.001 -21.668 -193.001 -65.001c-64.667 -46.667 -113.667 -115 -147 -205
c-24 -66 -36 -132 -36 -198c0 -89.333 20.667 -162.333 62 -219c46 -64 113.667 -96 203 -96c104.667 0 191.667 45.667 261 137c75.333 100 113 212.667 113 338c0 90.667 -21.333 163.334 -64 218.001c-47.333 60 -113.666 90 -198.999 90zM1068 1217h-164l-104 197
l-194 -197h-164l283 293h184z" />
    <glyph glyph-name="otilde" unicode="&#xf5;" horiz-adv-x="1251" vert-adv-y="2457" 
d="M690 1066c146 0 259.668 -41.001 341.001 -123.001c82 -83.333 123 -198.666 123 -345.999c0 -132.667 -34.667 -253.667 -104 -363c-63.333 -100 -151.666 -170.667 -264.999 -212c-70 -26 -142.667 -39 -218 -39c-148.667 0 -265.334 44.333 -350.001 133
c-79.333 82.667 -119 196.667 -119 342c0 112.667 28.333 220.667 85 324c61.333 110.667 148 189.667 260 237c75.333 31.333 157.666 47 246.999 47zM681.001 915.999c-68.667 0 -133.001 -21.668 -193.001 -65.001c-64.667 -46.667 -113.667 -115 -147 -205
c-24 -66 -36 -132 -36 -198c0 -89.333 20.667 -162.333 62 -219c46 -64 113.667 -96 203 -96c104.667 0 191.667 45.667 261 137c75.333 100 113 212.667 113 338c0 90.667 -21.333 163.334 -64 218.001c-47.333 60 -113.666 90 -198.999 90zM1114 1457
c-16 -56 -37.998 -101.667 -65.998 -137c-39.333 -49.333 -86.333 -74 -141 -74c-24.667 0 -60.334 9.66699 -107.001 29c-26 10.667 -63.667 28 -113 52c-14 6.66699 -29 10 -45 10c-39.333 0 -69 -27.667 -89 -83h-101c14 49.333 33 90 57 122c43.333 58 97.333 87 162 87
c28.667 0 59.667 -7 93 -21c14 -6 43 -19.667 87 -41c31.333 -15.333 55.666 -23 72.999 -23c40 0 69.333 26.333 88 79h102z" />
    <glyph glyph-name="odieresis" unicode="&#xf6;" horiz-adv-x="1251" vert-adv-y="2457" 
d="M690 1066c146 0 259.668 -41.001 341.001 -123.001c82 -83.333 123 -198.666 123 -345.999c0 -132.667 -34.667 -253.667 -104 -363c-63.333 -100 -151.666 -170.667 -264.999 -212c-70 -26 -142.667 -39 -218 -39c-148.667 0 -265.334 44.333 -350.001 133
c-79.333 82.667 -119 196.667 -119 342c0 112.667 28.333 220.667 85 324c61.333 110.667 148 189.667 260 237c75.333 31.333 157.666 47 246.999 47zM681.001 915.999c-68.667 0 -133.001 -21.668 -193.001 -65.001c-64.667 -46.667 -113.667 -115 -147 -205
c-24 -66 -36 -132 -36 -198c0 -89.333 20.667 -162.333 62 -219c46 -64 113.667 -96 203 -96c104.667 0 191.667 45.667 261 137c75.333 100 113 212.667 113 338c0 90.667 -21.333 163.334 -64 218.001c-47.333 60 -113.666 90 -198.999 90zM662 1458l-44 -207h-187l44 207
h187zM1050 1458l-44 -207h-188l44 207h188z" />
    <glyph glyph-name="divide" unicode="&#xf7;" horiz-adv-x="1229" vert-adv-y="2457" 
d="M162 651v157h986v-157h-986zM553 1155h204v-204h-204v204zM553 508h204v-204h-204v204z" />
    <glyph glyph-name="oslash" unicode="&#xf8;" horiz-adv-x="1251" vert-adv-y="2457" 
d="M1096 1103l91.998 -80.001l-120 -124c57.333 -81.333 86 -183 86 -305c0 -130.667 -34.667 -250.667 -104 -360c-63.333 -99.333 -151.666 -170 -264.999 -212c-70 -26 -142.667 -39 -218 -39c-115.333 0 -215.333 29.667 -300 89l-112 -116l-91 77l119 124
c-56.667 86.667 -85 184.334 -85 293.001c0 117.333 28.333 228 85 332c60 109.333 147 188.333 261 237c74 31.333 154.667 47 242 47c122.667 0 221.334 -27.333 296.001 -82zM848.998 855.999c-39.333 40 -96.333 60 -171 60c-66.667 0 -130 -21.667 -190 -65
c-65.333 -46.667 -114.333 -115 -147 -205c-24 -66 -36 -135.333 -36 -208c0 -48.667 9 -95.667 27 -141zM398.998 193.999c44.667 -40.667 101.334 -60.999 170.001 -60.999c105.333 0 192.666 45.667 261.999 137c75.333 99.333 113 212.666 113 339.999
c0 44.667 -8.33301 94 -25 148z" />
    <glyph glyph-name="ugrave" unicode="&#xf9;" horiz-adv-x="1251" vert-adv-y="2457" 
d="M966 0h-171.999l9 78c2.66699 23.333 9.66699 62.333 21 117c-40 -61.333 -78.667 -106 -116 -134c-68.667 -52 -152.667 -78 -252 -78c-98 0 -179 26.667 -243 80s-96 124.333 -96 213c0 52 7.66699 114.667 23 188l125 585h193l-131 -615c-8 -38 -12 -73.667 -12 -107
c0 -63.333 21 -111.333 63 -144c35.333 -28.667 79.333 -43 132 -43c82 0 155.333 34.667 220 104c44 46.667 77.333 98.667 100 156c23.333 60 43 128 59 204l95 445h193l-152 -713c-22.667 -107.333 -42.334 -219.333 -59.001 -336zM497.001 1510h201l171 -293h-130z" />
    <glyph glyph-name="uacute" unicode="&#xfa;" horiz-adv-x="1251" vert-adv-y="2457" 
d="M966 0h-171.999l9 78c2.66699 23.333 9.66699 62.333 21 117c-40 -61.333 -78.667 -106 -116 -134c-68.667 -52 -152.667 -78 -252 -78c-98 0 -179 26.667 -243 80s-96 124.333 -96 213c0 52 7.66699 114.667 23 188l125 585h193l-131 -615c-8 -38 -12 -73.667 -12 -107
c0 -63.333 21 -111.333 63 -144c35.333 -28.667 79.333 -43 132 -43c82 0 155.333 34.667 220 104c44 46.667 77.333 98.667 100 156c23.333 60 43 128 59 204l95 445h193l-152 -713c-22.667 -107.333 -42.334 -219.333 -59.001 -336zM1087 1510l-314 -293h-137l236 293h215
z" />
    <glyph glyph-name="ucircumflex" unicode="&#xfb;" horiz-adv-x="1251" vert-adv-y="2457" 
d="M966 0h-171.999l9 78c2.66699 23.333 9.66699 62.333 21 117c-40 -61.333 -78.667 -106 -116 -134c-68.667 -52 -152.667 -78 -252 -78c-98 0 -179 26.667 -243 80s-96 124.333 -96 213c0 52 7.66699 114.667 23 188l125 585h193l-131 -615c-8 -38 -12 -73.667 -12 -107
c0 -63.333 21 -111.333 63 -144c35.333 -28.667 79.333 -43 132 -43c82 0 155.333 34.667 220 104c44 46.667 77.333 98.667 100 156c23.333 60 43 128 59 204l95 445h193l-152 -713c-22.667 -107.333 -42.334 -219.333 -59.001 -336zM1067 1217h-164l-104 197l-194 -197
h-164l283 293h184z" />
    <glyph glyph-name="udieresis" unicode="&#xfc;" horiz-adv-x="1251" vert-adv-y="2457" 
d="M966 0h-171.999l9 78c2.66699 23.333 9.66699 62.333 21 117c-40 -61.333 -78.667 -106 -116 -134c-68.667 -52 -152.667 -78 -252 -78c-98 0 -179 26.667 -243 80s-96 124.333 -96 213c0 52 7.66699 114.667 23 188l125 585h193l-131 -615c-8 -38 -12 -73.667 -12 -107
c0 -63.333 21 -111.333 63 -144c35.333 -28.667 79.333 -43 132 -43c82 0 155.333 34.667 220 104c44 46.667 77.333 98.667 100 156c23.333 60 43 128 59 204l95 445h193l-152 -713c-22.667 -107.333 -42.334 -219.333 -59.001 -336zM706.001 1458l-44 -207h-187l44 207
h187zM1094 1458l-44 -207h-188l44 207h188z" />
    <glyph glyph-name="yacute" unicode="&#xfd;" horiz-adv-x="1024" vert-adv-y="2457" 
d="M-110 -427l34 160c32.667 -10 63.334 -15 92.001 -15c53.333 0 98.333 13.667 135 41c29.333 21.333 62 63.333 98 126l43 77l-172 1087h199l97 -689c11.333 -80 16.666 -144.667 15.999 -194c16.667 48 42.667 104 78 168l388 715h208l-682 -1208
c-46.667 -82 -85.667 -139.667 -117 -173c-71.333 -76 -165.333 -114 -282 -114c-42.667 0 -87.667 6.33301 -135 19zM959 1510l-314 -293h-137l236 293h215z" />
    <glyph glyph-name="thorn" unicode="&#xfe;" horiz-adv-x="1251" vert-adv-y="2457" 
d="M-41 -436l420.996 1980h193l-98 -462c-16 -73.333 -37.333 -138.333 -64 -195c42.667 55.333 84.334 95 125.001 119c67.333 40 144.333 60 231 60c110.667 0 200.334 -31.333 269.001 -94c82.667 -75.333 124 -183.666 124 -324.999
c0 -126.667 -27.333 -247.334 -82 -362.001c-97.333 -201.333 -251.666 -302 -462.999 -302c-119.333 0 -209.666 30.667 -270.999 92c-25.333 26.667 -48 66 -68 118c-4.66699 -52.667 -11.667 -100 -21 -142l-103 -487h-193zM723.996 916
c-94.667 0 -175.666 -37.667 -242.999 -113c-44.667 -48.667 -78.667 -106 -102 -172c-24.667 -68 -37 -135.333 -37 -202c0 -95.333 22.667 -168.333 68 -219c46 -51.333 108 -77 186 -77c105.333 0 189.666 50.333 252.999 151c68.667 109.333 103 231 103 365
c0 81.333 -18.333 145 -55 191c-40 50.667 -97.667 76 -173 76z" />
    <glyph glyph-name="ydieresis" unicode="&#xff;" horiz-adv-x="1024" vert-adv-y="2457" 
d="M-81 -427l34 160c32.667 -10 63.334 -15 92.001 -15c53.333 0 98.333 13.667 135 41c29.333 21.333 62 63.333 98 126l43 77l-172 1087h199l97 -689c11.333 -80 16.666 -144.667 15.999 -194c16.667 48 42.667 104 78 168l388 715h208l-682 -1208
c-46.667 -82 -85.667 -139.667 -117 -173c-71.333 -76 -165.333 -114 -282 -114c-42.667 0 -87.667 6.33301 -135 19zM592 1458l-44 -207h-187l44 207h187zM980 1458l-44 -207h-188l44 207h188z" />
    <glyph glyph-name="Amacron" unicode="&#x100;" horiz-adv-x="1479" vert-adv-y="2457" 
d="M-61 0l918 1430h216l313 -1430h-208l-77 357h-704l-226 -357h-232zM499 521h566l-97 500c-18.667 97.333 -29.667 178 -33 242c-23.333 -61.333 -61.333 -135.333 -114 -222zM1355 1754l-27 -127h-666l27 127h666z" />
    <glyph glyph-name="amacron" unicode="&#x101;" horiz-adv-x="1139" vert-adv-y="2457" 
d="M262 834l39 179c110.667 35.333 209.667 53 297 53c123.333 0 220 -26.667 290 -80c34.667 -26 61.667 -58.333 81 -97c23.333 -48 35 -96.667 35 -146c0 -55.333 -6.66699 -116 -20 -182l-54 -264c-11.333 -58 -28.333 -157 -51 -297h-176
c10 83.333 20.333 144.333 31 183c-84.667 -133.333 -202 -200 -352 -200c-96.667 0 -175.334 26 -236.001 78c-63.333 54.667 -95 128 -95 220c0 76.667 24 145 72 205c86 106 263.667 159 533 159c50 0 102.333 -3.33301 157 -10c4.66699 38 7 66 7 84
c0 52 -15.333 95 -46 129c-41.333 45.333 -103.666 68 -186.999 68c-104 0 -212.333 -27.333 -325 -82zM776 500l-31.999 2c-28 1.33301 -48.667 2 -62 2c-81.333 0 -156 -8 -224 -24c-135.333 -32 -203 -95 -203 -189c0 -56 21.667 -98.333 65 -127
c32 -20.667 70.333 -31 115 -31c91.333 0 167.666 35.667 228.999 107c36.667 42 63.667 91 81 147l18 68zM1018 1411l-26 -123h-609l26 123h609z" />
    <glyph glyph-name="Abreve" unicode="&#x102;" horiz-adv-x="1479" vert-adv-y="2457" 
d="M-61 0l918 1430h216l313 -1430h-208l-77 357h-704l-226 -357h-232zM499 521h566l-97 500c-18.667 97.333 -29.667 178 -33 242c-23.333 -61.333 -61.333 -135.333 -114 -222zM1336 1841c-19.333 -76 -53.333 -137.667 -102 -185c-69.333 -67.333 -156 -101 -260 -101
c-84 0 -147.333 24 -190 72c-36 40 -54 91.333 -54 154c0 12.667 1.66699 32.667 5 60h124c1.33301 -101.333 44 -152 128 -152c114.667 0 189.667 50.667 225 152h124z" />
    <glyph glyph-name="abreve" unicode="&#x103;" horiz-adv-x="1139" vert-adv-y="2457" 
d="M262 834l39 179c110.667 35.333 209.667 53 297 53c123.333 0 220 -26.667 290 -80c34.667 -26 61.667 -58.333 81 -97c23.333 -48 35 -96.667 35 -146c0 -55.333 -6.66699 -116 -20 -182l-54 -264c-11.333 -58 -28.333 -157 -51 -297h-176
c10 83.333 20.333 144.333 31 183c-84.667 -133.333 -202 -200 -352 -200c-96.667 0 -175.334 26 -236.001 78c-63.333 54.667 -95 128 -95 220c0 76.667 24 145 72 205c86 106 263.667 159 533 159c50 0 102.333 -3.33301 157 -10c4.66699 38 7 66 7 84
c0 52 -15.333 95 -46 129c-41.333 45.333 -103.666 68 -186.999 68c-104 0 -212.333 -27.333 -325 -82zM776 500l-31.999 2c-28 1.33301 -48.667 2 -62 2c-81.333 0 -156 -8 -224 -24c-135.333 -32 -203 -95 -203 -189c0 -56 21.667 -98.333 65 -127
c32 -20.667 70.333 -31 115 -31c91.333 0 167.666 35.667 228.999 107c36.667 42 63.667 91 81 147l18 68zM1031 1510c-15.333 -62 -42 -115.666 -80 -160.999c-70 -85.333 -159.667 -128 -269 -128c-98 0 -166.667 31.333 -206 94c-23.333 36.667 -35 81 -35 133
c0 18 2.33301 38.667 7 62h111v-26c0 -42.667 13 -75.334 39 -98.001c26.667 -24 60.334 -36 101.001 -36c72.667 0 133 28.667 181 86c15.333 18 28.666 42.667 39.999 74h111z" />
    <glyph glyph-name="Aogonek" unicode="&#x104;" horiz-adv-x="1479" vert-adv-y="2457" 
d="M1381 0c-105.333 -70 -158 -135.667 -158 -197c0 -26.667 10.333 -48 31 -64c17.333 -13.333 37 -20 59 -20c20 0 43.667 4 71 12l-11 -94c-38 -18 -76.667 -27 -116 -27c-36 0 -69.333 7.33301 -100 22c-27.333 13.333 -49.333 34 -66 62
c-13.333 23.333 -20 48.333 -20 75c0 84.667 66.333 161.667 199 231h-92l-77 357h-704l-226 -357h-232l918 1430h216l313 -1430h-5zM499 521h566l-97 500c-18.667 97.333 -29.667 178 -33 242c-23.333 -61.333 -61.333 -135.333 -114 -222z" />
    <glyph glyph-name="aogonek" unicode="&#x105;" horiz-adv-x="1139" vert-adv-y="2457" 
d="M873 0c-104.667 -70 -157 -133.665 -157 -190.998c0 -24.667 10.333 -45.334 31 -62.001c16 -13.333 34 -20 54 -20c18.667 0 43 4 73 12l-11 -89c-38 -18 -76.667 -27 -116 -27c-34.667 0 -66.667 7 -96 21c-27.333 13.333 -49 34 -65 62c-12.667 21.333 -19 44 -19 68
c0 79.333 65.333 154.666 196 225.999h-60c10 83.333 20.333 144.333 31 183c-84.667 -133.333 -202 -200 -352 -200c-96.667 0 -175.334 26 -236.001 78c-63.333 54.667 -95 128 -95 220c0 76.667 24 145 72 205c86 106 263.667 159 533 159c50 0 102.333 -3.33301 157 -10
c4.66699 38 7 66 7 84c0 52 -15.333 95 -46 129c-41.333 45.333 -103.666 68 -186.999 68c-104 0 -212.333 -27.333 -325 -82l39 179c110.667 35.333 209.667 53 297 53c123.333 0 220 -26.667 290 -80c34.667 -26 61.667 -58.333 81 -97c23.333 -48 35 -96.667 35 -146
c0 -55.333 -6.66699 -116 -20 -182l-54 -264c-11.333 -58 -28.333 -157 -51 -297h-6zM776 500.002l-31.999 2c-28 1.33301 -48.667 2 -62 2c-81.333 0 -156 -8 -224 -24c-135.333 -32 -203 -95 -203 -189c0 -56 21.667 -98.333 65 -127c32 -20.667 70.333 -31 115 -31
c91.333 0 167.666 35.667 228.999 107c36.667 42 63.667 91 81 147l18 68z" />
    <glyph glyph-name="Cacute" unicode="&#x106;" horiz-adv-x="1251" vert-adv-y="2457" 
d="M1122 213l-25.999 -194c-89.333 -25.333 -183.333 -38 -282 -38c-190 0 -347.333 54.667 -472 164c-131.333 116 -197 271.667 -197 467c0 174 46 332 138 474c92.667 142.667 221 244.334 385 305.001c104.667 38.667 218.667 58 342 58c132 0 248.333 -22 349 -66
l-58 -177c-90.667 42.667 -190 64 -298 64c-172.667 0 -318.334 -54 -437.001 -162c-70 -64 -122.667 -142 -158 -234c-30 -76.667 -45 -157.334 -45 -242.001c0 -164.667 55.667 -290 167 -376c83.333 -64 186.333 -96 309 -96c104 0 198.333 17.667 283 53zM1111 1841h244
l-320 -279h-148z" />
    <glyph glyph-name="cacute" unicode="&#x107;" horiz-adv-x="909" vert-adv-y="2457" 
d="M803 179l-39.002 -166c-85.333 -20 -159.666 -30 -222.999 -30c-138.667 0 -248 38.667 -328 116c-84 80 -126 193.667 -126 341c0 116.667 25.333 224.667 76 324c56.667 111.333 139 193.333 247 246c78 37.333 167.667 56 269 56c84 0 171.667 -16 263 -48l-43 -147
c-76 30 -145 45 -207 45c-118.667 0 -214 -43.667 -286 -131c-75.333 -92.667 -113 -206 -113 -340c0 -107.333 26 -186.333 78 -237c52 -50 122.333 -75 211 -75c62.667 0 136.334 15.333 221.001 46zM1042 1510l-314 -293h-137l236 293h215z" />
    <glyph glyph-name="Ccaron" unicode="&#x10c;" horiz-adv-x="1251" vert-adv-y="2457" 
d="M1122 213l-25.999 -194c-89.333 -25.333 -183.333 -38 -282 -38c-190 0 -347.333 54.667 -472 164c-131.333 116 -197 271.667 -197 467c0 174 46 332 138 474c92.667 142.667 221 244.334 385 305.001c104.667 38.667 218.667 58 342 58c132 0 248.333 -22 349 -66
l-58 -177c-90.667 42.667 -190 64 -298 64c-172.667 0 -318.334 -54 -437.001 -162c-70 -64 -122.667 -142 -158 -234c-30 -76.667 -45 -157.334 -45 -242.001c0 -164.667 55.667 -290 167 -376c83.333 -64 186.333 -96 309 -96c104 0 198.333 17.667 283 53zM1092 1562
h-190l-172 279h172l115 -177l193 177h179z" />
    <glyph glyph-name="ccaron" unicode="&#x10d;" horiz-adv-x="909" vert-adv-y="2457" 
d="M803 179l-39.002 -166c-85.333 -20 -159.666 -30 -222.999 -30c-138.667 0 -248 38.667 -328 116c-84 80 -126 193.667 -126 341c0 116.667 25.333 224.667 76 324c56.667 111.333 139 193.333 247 246c78 37.333 167.667 56 269 56c84 0 171.667 -16 263 -48l-43 -147
c-76 30 -145 45 -207 45c-118.667 0 -214 -43.667 -286 -131c-75.333 -92.667 -113 -206 -113 -340c0 -107.333 26 -186.333 78 -237c52 -50 122.333 -75 211 -75c62.667 0 136.334 15.333 221.001 46zM448.998 1510h164l103 -197l195 197h164l-283 -293h-184z" />
    <glyph glyph-name="Dcaron" unicode="&#x10e;" horiz-adv-x="1479" vert-adv-y="2457" 
d="M85 0l304.001 1430h224c182.667 0 322.667 -15.667 420 -47c260.667 -82.667 391 -271.667 391 -567c0 -188.667 -48.333 -354 -145 -496c-100.667 -148.667 -247.334 -243.667 -440.001 -285c-108.667 -23.333 -270.667 -35 -486 -35h-268zM330.001 176h130
c147.333 0 261 11.667 341 35c138.667 40 243.667 120.333 315 241c62 104.667 93 223 93 355c0 179.333 -60.667 303 -182 371c-89.333 50.667 -218 76 -386 76h-82zM950.001 1562h-190l-172 279h172l115 -177l193 177h179z" />
    <glyph glyph-name="dcaron" unicode="&#x10f;" horiz-adv-x="1431" vert-adv-y="2457" 
d="M992 0l-180.001 -0.00292969c9.33301 69.333 19.333 124.333 30 165c-33.333 -53.333 -68.333 -92.666 -105 -117.999c-62 -42.667 -140.667 -64 -236 -64c-119.333 0 -213.333 33.667 -282 101c-39.333 38.667 -69.666 86.334 -90.999 143.001
c-24 63.333 -36 129.333 -36 198c0 107.333 23.333 212 70 314c98 218 253.667 327 467 327c112.667 0 202.667 -28.667 270 -86c37.333 -31.333 62.333 -78.666 75 -141.999c7.33301 74 19.666 151.333 36.999 232l101 474h193l-255 -1200
c-19.333 -89.333 -38.666 -204 -57.999 -344zM656.999 915.997c-62 0 -120.668 -19.332 -176.001 -57.999c-62 -43.333 -110 -112.333 -144 -207c-24.667 -70 -37 -138.333 -37 -205c0 -93.333 19.333 -168 58 -224c41.333 -59.333 103.333 -89 186 -89
c120.667 0 214.334 56.333 281.001 169c57.333 96.667 86 201.667 86 315c0 91.333 -20.667 162.666 -62 213.999c-45.333 56.667 -109.333 85 -192 85zM1650 1544l-177 -329h-130l134 329h173z" />
    <glyph glyph-name="Dcroat" unicode="&#x110;" horiz-adv-x="1479" vert-adv-y="2457" 
d="M76 0l138.001 650.999h-143l37 171h143l129 608h224c182 0 321.667 -15.667 419 -47c261.333 -82.667 392 -271.667 392 -567c0 -187.333 -48.333 -352.666 -145 -495.999c-100.667 -148.667 -247.334 -243.667 -440.001 -285c-108.667 -23.333 -270.667 -35 -486 -35
h-268zM320.001 175.999h131c147.333 0 261 11.667 341 35c138 40 243 120.333 315 241c62 104.667 93 223 93 355c0 179.333 -60.667 303 -182 371c-90 50.667 -218.667 76 -386 76h-83l-91 -432h371l-36 -171h-372z" />
    <glyph glyph-name="dcroat" unicode="&#x111;" horiz-adv-x="1243" vert-adv-y="2457" 
d="M982 0l-180.001 -0.00292969c9.33301 69.333 19.333 124.333 30 165c-33.333 -53.333 -68.333 -92.666 -105 -117.999c-62 -42.667 -140.667 -64 -236 -64c-119.333 0 -213.333 33.667 -282 101c-39.333 38.667 -69.666 86.334 -90.999 143.001
c-24 63.333 -36 129.333 -36 198c0 107.333 23.333 212 70 314c98 218 253.667 327 467 327c112.667 0 202.667 -28.667 270 -86c37.333 -31.333 62.333 -78.666 75 -141.999c7.33301 72.667 19.666 150 36.999 232l33 152h-315l32 150h314l37 172h193l-36 -172h142
l-31 -150h-143l-187 -878c-19.333 -89.333 -38.666 -204 -57.999 -344zM646.999 915.997c-62 0 -120.668 -19.332 -176.001 -57.999c-62 -43.333 -110 -112.333 -144 -207c-24.667 -70 -37 -138.333 -37 -205c0 -93.333 19.333 -168 58 -224
c41.333 -59.333 103.333 -89 186 -89c120.667 0 214.334 56.333 281.001 169c57.333 96.667 86 201.667 86 315c0 91.333 -20.667 162.666 -62 213.999c-45.333 56.667 -109.333 85 -192 85z" />
    <glyph glyph-name="Emacron" unicode="&#x112;" horiz-adv-x="1139" vert-adv-y="2457" 
d="M93 0l304 1430h782l-37 -176h-575l-91 -428h538l-38 -176h-537l-101 -474h600l-37 -176h-808zM1180 1754l-27 -127h-666l27 127h666z" />
    <glyph glyph-name="emacron" unicode="&#x113;" horiz-adv-x="1139" vert-adv-y="2457" 
d="M916 194l-36.998 -167c-104.667 -29.333 -202.334 -44 -293.001 -44c-144 0 -256 30.333 -336 91c-101.333 76.667 -152 195 -152 355c0 121.333 28.667 238 86 350c97.333 191.333 254.666 287 471.999 287c128 0 227.333 -34.667 298 -104
c70 -69.333 105 -165 105 -287c0 -55.333 -7.66699 -121 -23 -197h-738c-5.33301 -38.667 -8 -69.667 -8 -93c0 -87.333 33.667 -154 101 -200c49.333 -34 122.666 -51 219.999 -51c76.667 0 150.334 10.667 221.001 32c19.333 6 47.333 15.333 84 28zM865.002 628
c3.33301 36 5 63.666 5 82.999c0 65.333 -19.667 115.333 -59 150c-40.667 36.667 -92.667 55 -156 55c-97.333 0 -178 -36.667 -242 -110c-34.667 -39.333 -63.667 -98.666 -87 -177.999h539zM1056 1411l-26 -123h-609l26 123h609z" />
    <glyph glyph-name="Edotaccent" unicode="&#x116;" horiz-adv-x="1139" vert-adv-y="2457" 
d="M93 0l304 1430h782l-37 -176h-575l-91 -428h538l-38 -176h-537l-101 -474h600l-37 -176h-808zM955 1798l-44 -207h-194l44 207h194z" />
    <glyph glyph-name="edotaccent" unicode="&#x117;" horiz-adv-x="1139" vert-adv-y="2457" 
d="M916 194l-36.998 -167c-104.667 -29.333 -202.334 -44 -293.001 -44c-144 0 -256 30.333 -336 91c-101.333 76.667 -152 195 -152 355c0 121.333 28.667 238 86 350c97.333 191.333 254.666 287 471.999 287c128 0 227.333 -34.667 298 -104
c70 -69.333 105 -165 105 -287c0 -55.333 -7.66699 -121 -23 -197h-738c-5.33301 -38.667 -8 -69.667 -8 -93c0 -87.333 33.667 -154 101 -200c49.333 -34 122.666 -51 219.999 -51c76.667 0 150.334 10.667 221.001 32c19.333 6 47.333 15.333 84 28zM865.002 628
c3.33301 36 5 63.666 5 82.999c0 65.333 -19.667 115.333 -59 150c-40.667 36.667 -92.667 55 -156 55c-97.333 0 -178 -36.667 -242 -110c-34.667 -39.333 -63.667 -98.666 -87 -177.999h539zM848.002 1458l-44 -207h-187l44 207h187z" />
    <glyph glyph-name="Eogonek" unicode="&#x118;" horiz-adv-x="1139" vert-adv-y="2457" 
d="M895 0c-105.333 -70 -158 -135.667 -158 -197c0 -26 10.333 -47.333 31 -64c18 -13.333 38 -20 60 -20c20 0 43.667 4 71 12l-12 -94c-38 -18 -76.333 -27 -115 -27c-36.667 0 -70 7.33301 -100 22c-27.333 13.333 -49.333 34 -66 62c-14 24 -21 49 -21 75
c0 84.667 66.667 161.667 200 231h-692l304 1430h782l-37 -176h-575l-91 -428h538l-38 -176h-537l-101 -474h600l-37 -176h-6z" />
    <glyph glyph-name="eogonek" unicode="&#x119;" horiz-adv-x="1139" vert-adv-y="2457" 
d="M738 -6c-99.333 -68.667 -148.998 -130.332 -148.998 -184.999c0 -24.667 10.333 -45.334 31 -62.001c16 -13.333 34 -20 54 -20c18.667 0 43 4 73 12l-11 -89c-38 -18 -76.667 -27 -116 -27c-35.333 0 -67.333 7 -96 21c-27.333 13.333 -49 34 -65 62
c-12.667 21.333 -19 44 -19 68c0 76 55 145.667 165 209c-4 0 -10 -0.333008 -18 -1c-17.333 -0.666992 -54.333 2.33301 -111 9c-124.667 14.667 -219.334 61 -284.001 139c-62.667 76.667 -94 176.334 -94 299.001c0 121.333 28.667 238 86 350
c97.333 191.333 254.666 287 471.999 287c128 0 227.333 -34.667 298 -104c70 -69.333 105 -165 105 -287c0 -55.333 -7.66699 -121 -23 -197h-738c-5.33301 -38.667 -8 -69.667 -8 -93c0 -86.667 33.667 -153.334 101 -200.001c50.667 -34.667 124 -52 220 -52
c52 0 98.333 4.16699 139 12.5s96 24.5 166 48.5l-37 -167c-46 -12.667 -93 -23.667 -141 -33zM865.002 628.002c3.33301 36 5 63.666 5 82.999c0 65.333 -19.667 115.333 -59 150c-40.667 36.667 -92.667 55 -156 55c-97.333 0 -178 -36.667 -242 -110
c-34.667 -39.333 -63.667 -98.666 -87 -177.999h539z" />
    <glyph glyph-name="Ecaron" unicode="&#x11a;" horiz-adv-x="1139" vert-adv-y="2457" 
d="M93 0l304 1430h782l-37 -176h-575l-91 -428h538l-38 -176h-537l-101 -474h600l-37 -176h-808zM904 1562h-190l-172 279h172l115 -177l193 177h179z" />
    <glyph glyph-name="ecaron" unicode="&#x11b;" horiz-adv-x="1139" vert-adv-y="2457" 
d="M916 194l-36.998 -167c-104.667 -29.333 -202.334 -44 -293.001 -44c-144 0 -256 30.333 -336 91c-101.333 76.667 -152 195 -152 355c0 121.333 28.667 238 86 350c97.333 191.333 254.666 287 471.999 287c128 0 227.333 -34.667 298 -104
c70 -69.333 105 -165 105 -287c0 -55.333 -7.66699 -121 -23 -197h-738c-5.33301 -38.667 -8 -69.667 -8 -93c0 -87.333 33.667 -154 101 -200c49.333 -34 122.666 -51 219.999 -51c76.667 0 150.334 10.667 221.001 32c19.333 6 47.333 15.333 84 28zM865.002 628
c3.33301 36 5 63.666 5 82.999c0 65.333 -19.667 115.333 -59 150c-40.667 36.667 -92.667 55 -156 55c-97.333 0 -178 -36.667 -242 -110c-34.667 -39.333 -63.667 -98.666 -87 -177.999h539zM460.002 1510h164l103 -197l195 197h164l-283 -293h-184z" />
    <glyph glyph-name="Gbreve" unicode="&#x11e;" horiz-adv-x="1479" vert-adv-y="2457" 
d="M1365 791l-162.001 -759.999c-101.333 -33.333 -215 -50 -341 -50c-193.333 0 -350.666 40.667 -471.999 122c-89.333 59.333 -155 143 -197 251c-32 83.333 -48 171.666 -48 264.999c0 172 46.333 330.333 139 475c151.333 236.667 390.333 355 717 355
c163.333 0 310.333 -27.667 441 -83l-57 -177c-131.333 54 -257.333 81 -378 81c-184 0 -333.667 -53 -449 -159c-62.667 -58 -112 -132 -148 -222c-32.667 -83.333 -49 -169.333 -49 -258c0 -150 48.333 -268 145 -354c86.667 -78 201 -117 343 -117
c59.333 0 119.333 8.66699 180 26l91 429h-300l37 176h508zM1382 1841c-19.333 -76 -53.333 -137.667 -102 -185c-69.333 -67.333 -156 -101 -260 -101c-84 0 -147.333 24 -190 72c-36 40 -54 91.333 -54 154c0 12.667 1.66699 32.667 5 60h124
c1.33301 -101.333 44 -152 128 -152c114.667 0 189.667 50.667 225 152h124z" />
    <glyph glyph-name="gbreve" unicode="&#x11f;" horiz-adv-x="1251" vert-adv-y="2457" 
d="M45 -374l37.001 163.999c129.333 -60 245.333 -90 348 -90c160.667 0 270.667 69.667 330 209c16 37.333 39 121.333 69 252c-40.667 -55.333 -82.334 -94.666 -125.001 -117.999c-56 -30 -121 -45 -195 -45c-96 0 -178.667 24 -248 72c-106 74 -159 196.333 -159 367
c0 113.333 25.333 222.333 76 327c97.333 201.333 252 302 464 302c110 0 196.667 -25.667 260 -77c36 -29.333 62.333 -74 79 -134c7.33301 53.333 20.333 118 39 194h186l-217 -1019c-28.667 -136.667 -67 -235 -115 -295c-98 -123.333 -247.667 -185 -449 -185
c-110 0 -236.667 25.333 -380 76zM666.001 915.999c-68.667 0 -132 -23.332 -190 -69.999c-55.333 -44.667 -98.333 -108.334 -129 -191.001c-24.667 -67.333 -37 -134.333 -37 -201c0 -90 19 -162 57 -216c41.333 -59.333 104 -89 188 -89c102 0 185.333 43.333 250 130
c74.667 100 112 217 112 351c0 80.667 -18.667 144.667 -56 192c-48 62.667 -113 94 -195 94zM1125 1510c-15.333 -62 -42 -115.666 -80 -160.999c-70 -85.333 -159.667 -128 -269 -128c-98 0 -166.667 31.333 -206 94c-23.333 36.667 -35 81 -35 133
c0 18 2.33301 38.667 7 62h111v-26c0 -42.667 13 -75.334 39 -98.001c26.667 -24 60.334 -36 101.001 -36c72.667 0 133 28.667 181 86c15.333 18 28.666 42.667 39.999 74h111z" />
    <glyph glyph-name="Gcommaaccent" unicode="&#x122;" horiz-adv-x="1479" vert-adv-y="2457" 
d="M1365 791l-162.001 -759.999c-101.333 -33.333 -215 -50 -341 -50c-193.333 0 -350.666 40.667 -471.999 122c-89.333 59.333 -155 143 -197 251c-32 83.333 -48 171.666 -48 264.999c0 172 46.333 330.333 139 475c151.333 236.667 390.333 355 717 355
c163.333 0 310.333 -27.667 441 -83l-57 -177c-131.333 54 -257.333 81 -378 81c-184 0 -333.667 -53 -449 -159c-62.667 -58 -112 -132 -148 -222c-32.667 -83.333 -49 -169.333 -49 -258c0 -150 48.333 -268 145 -354c86.667 -78 201 -117 343 -117
c59.333 0 119.333 8.66699 180 26l91 429h-300l37 176h508zM914.999 -99.999l-177 -300h-141l134 300h184z" />
    <glyph glyph-name="gcommaaccent" unicode="&#x123;" horiz-adv-x="1251" vert-adv-y="2457" 
d="M45 -374l37.001 163.999c129.333 -60 245.333 -90 348 -90c160.667 0 270.667 69.667 330 209c16 37.333 39 121.333 69 252c-40.667 -55.333 -82.334 -94.666 -125.001 -117.999c-56 -30 -121 -45 -195 -45c-96 0 -178.667 24 -248 72c-106 74 -159 196.333 -159 367
c0 113.333 25.333 222.333 76 327c97.333 201.333 252 302 464 302c110 0 196.667 -25.667 260 -77c36 -29.333 62.333 -74 79 -134c7.33301 53.333 20.333 118 39 194h186l-217 -1019c-28.667 -136.667 -67 -235 -115 -295c-98 -123.333 -247.667 -185 -449 -185
c-110 0 -236.667 25.333 -380 76zM666.001 915.999c-68.667 0 -132 -23.332 -190 -69.999c-55.333 -44.667 -98.333 -108.334 -129 -191.001c-24.667 -67.333 -37 -134.333 -37 -201c0 -90 19 -162 57 -216c41.333 -59.333 104 -89 188 -89c102 0 185.333 43.333 250 130
c74.667 100 112 217 112 351c0 80.667 -18.667 144.667 -56 192c-48 62.667 -113 94 -195 94zM653.001 1215l177 307h130l-134 -307h-173z" />
    <glyph glyph-name="Imacron" unicode="&#x12a;" vert-adv-y="2457" 
d="M79 0l304 1430h207l-304 -1430h-207zM806 1754l-27 -127h-523l27 127h523z" />
    <glyph glyph-name="imacron" unicode="&#x12b;" vert-adv-y="2457" 
d="M80 0l223 1049h193l-223 -1049h-193zM703 1411l-26 -123h-466l26 123h466z" />
    <glyph glyph-name="Iogonek" unicode="&#x12e;" vert-adv-y="2457" 
d="M281 0c-104.667 -70 -157 -135.667 -157 -197c0 -26.667 10.333 -48 31 -64c17.333 -13.333 37 -20 59 -20c20 0 43.667 4 71 12l-12 -94c-38 -18 -76.333 -27 -115 -27c-36 0 -69.333 7.33301 -100 22c-27.333 13.333 -49.333 34 -66 62
c-13.333 23.333 -20 48.333 -20 75c0 84.667 66.333 161.667 199 231h-92l304 1430h207l-303 -1430h-6z" />
    <glyph glyph-name="iogonek" unicode="&#x12f;" vert-adv-y="2457" 
d="M274 0c-104.667 -70 -157 -133.665 -157 -190.998c0 -24.667 10 -45.334 30 -62.001c16 -13.333 34.333 -20 55 -20c18.667 0 43 4 73 12l-11 -89c-38 -18 -76.667 -27 -116 -27c-35.333 0 -67.333 7 -96 21c-28 13.333 -50 34 -66 62c-12 21.333 -18 44 -18 68
c0 79.333 65.333 154.666 196 225.999h-80l222 1049h194l-224 -1049h-2zM330 1216l46 214h216l-46 -214h-216z" />
    <glyph glyph-name="Idotaccent" unicode="&#x130;" vert-adv-y="2457" 
d="M79 0l304 1430h207l-304 -1430h-207zM654 1798l-44 -207h-194l44 207h194z" />
    <glyph glyph-name="dotlessi" unicode="&#x131;" vert-adv-y="2457" 
d="M80 0l223 1049h193l-223 -1049h-193z" />
    <glyph glyph-name="ij" unicode="&#x133;" horiz-adv-x="999" vert-adv-y="2457" 
d="M33 0l223 1049h193l-223 -1049h-193zM280 1216l45 214h216l-45 -214h-216zM220 -420l35.0029 153c33.333 -12.667 63.666 -19 90.999 -19c52.667 0 92 16.333 118 49c22.667 28 42 80 58 156l238 1130h194l-242 -1138c-28.667 -134 -61.334 -223.333 -98.001 -268
c-26.667 -32 -66.334 -56.667 -119.001 -74c-38 -12.667 -77.333 -19 -118 -19c-46 0 -98.333 10 -157 30zM781.003 1216l47 214h218l-46 -214h-219z" />
    <glyph glyph-name="Kcommaaccent" unicode="&#x136;" horiz-adv-x="1366" vert-adv-y="2457" 
d="M110 0l304 1430h207l-134 -631l683 631h273l-770 -700l578 -730h-261l-527 687l-146 -687h-207zM708 -100l-177 -300h-141l134 300h184z" />
    <glyph glyph-name="kcommaaccent" unicode="&#x137;" horiz-adv-x="1139" vert-adv-y="2457" 
d="M70 0l328 1544h193l-192 -903l496 408h278l-590 -472l429 -577h-248l-386 540l-115 -540h-193zM557 -93l-177 -300h-130l134 300h173z" />
    <glyph glyph-name="Lacute" unicode="&#x139;" horiz-adv-x="1024" vert-adv-y="2457" 
d="M78 0l304 1430h207l-266 -1254h599l-38 -176h-806zM637 1841h244l-320 -279h-148z" />
    <glyph glyph-name="lacute" unicode="&#x13a;" vert-adv-y="2457" 
d="M83 0l328 1544h193l-328 -1544h-193zM891 1938l-314 -293h-137l236 293h215z" />
    <glyph glyph-name="Lcommaaccent" unicode="&#x13b;" horiz-adv-x="1024" vert-adv-y="2457" 
d="M78 0l304 1430h207l-266 -1254h599l-38 -176h-806zM565 -100l-177 -300h-141l134 300h184z" />
    <glyph glyph-name="lcommaaccent" unicode="&#x13c;" vert-adv-y="2457" 
d="M83 0l328 1544h193l-328 -1544h-193zM257 -93l-177 -300h-130l134 300h173z" />
    <glyph glyph-name="Lcaron" unicode="&#x13d;" horiz-adv-x="1024" vert-adv-y="2457" 
d="M78 0l304 1430h207l-266 -1254h599l-38 -176h-806zM1034 1430l-177 -329h-141l134 329h184z" />
    <glyph glyph-name="lcaron" unicode="&#x13e;" horiz-adv-x="715" vert-adv-y="2457" 
d="M83 0l328 1544h193l-328 -1544h-193zM948 1544l-177 -329h-130l134 329h173z" />
    <glyph glyph-name="Lslash" unicode="&#x141;" horiz-adv-x="1024" vert-adv-y="2457" 
d="M473 840l342 195l-43 -203l-342 -195l-98 -463h600l-37 -174h-808l118 555l-164 -101l43 204l165 100l142 672h207z" />
    <glyph glyph-name="lslash" unicode="&#x142;" vert-adv-y="2457" 
d="M470 930l162 94l-39 -189l-163 -93l-158 -742h-194l142 671l-163 -95l40 189l163 95l146 684h193z" />
    <glyph glyph-name="Nacute" unicode="&#x143;" horiz-adv-x="1479" vert-adv-y="2457" 
d="M88 0l304.001 1430h268l259 -761c50.667 -148.667 87.667 -265.667 111 -351c18.667 -72 30.667 -137.667 36 -197c11.333 140 36.333 300.667 75 482l176 827h193l-304 -1430h-269l-274 807c-46.667 138 -79.334 244.333 -98.001 319c-12 49.333 -22.667 105 -32 167
c-3.33301 -88.667 -16.333 -185.334 -39 -290.001l-213 -1003h-193zM1091 1841h244l-320 -279h-148z" />
    <glyph glyph-name="nacute" unicode="&#x144;" horiz-adv-x="1251" vert-adv-y="2457" 
d="M71 0l158.999 745.998c11.333 54.667 28.666 155.667 51.999 303h185l-15 -71c-10 -57.333 -19 -99.666 -27 -126.999c40.667 64.667 82.334 112 125.001 142c70.667 48.667 153.334 73 248.001 73c101.333 0 184 -29.333 248 -88c62.667 -56.667 94 -134.667 94 -234
c0 -68 -12 -157.667 -36 -269l-101 -475h-192l102 487c23.333 108.667 35 189.334 35 242.001c0 62 -22.667 109.333 -68 142c-34 25.333 -76.333 38 -127 38c-60 0 -117.333 -17 -172 -51c-104 -65.333 -178.333 -203.333 -223 -414l-94 -444h-193zM1085 1510l-314 -293
h-137l236 293h215z" />
    <glyph glyph-name="Ncommaaccent" unicode="&#x145;" horiz-adv-x="1479" vert-adv-y="2457" 
d="M88 0l304.001 1430h268l259 -761c50.667 -148.667 87.667 -265.667 111 -351c18.667 -72 30.667 -137.667 36 -197c11.333 140 36.333 300.667 75 482l176 827h193l-304 -1430h-269l-274 807c-46.667 138 -79.334 244.333 -98.001 319c-12 49.333 -22.667 105 -32 167
c-3.33301 -88.667 -16.333 -185.334 -39 -290.001l-213 -1003h-193zM722.001 -99.999l-177 -300h-141l134 300h184z" />
    <glyph glyph-name="ncommaaccent" unicode="&#x146;" horiz-adv-x="1251" vert-adv-y="2457" 
d="M71 0l158.999 745.998c11.333 54.667 28.666 155.667 51.999 303h185l-15 -71c-10 -57.333 -19 -99.666 -27 -126.999c40.667 64.667 82.334 112 125.001 142c70.667 48.667 153.334 73 248.001 73c101.333 0 184 -29.333 248 -88c62.667 -56.667 94 -134.667 94 -234
c0 -68 -12 -157.667 -36 -269l-101 -475h-192l102 487c23.333 108.667 35 189.334 35 242.001c0 62 -22.667 109.333 -68 142c-34 25.333 -76.333 38 -127 38c-60 0 -117.333 -17 -172 -51c-104 -65.333 -178.333 -203.333 -223 -414l-94 -444h-193zM612.999 -93.002
l-177 -300h-130l134 300h173z" />
    <glyph glyph-name="Ncaron" unicode="&#x147;" horiz-adv-x="1479" vert-adv-y="2457" 
d="M88 0l304.001 1430h268l259 -761c50.667 -148.667 87.667 -265.667 111 -351c18.667 -72 30.667 -137.667 36 -197c11.333 140 36.333 300.667 75 482l176 827h193l-304 -1430h-269l-274 807c-46.667 138 -79.334 244.333 -98.001 319c-12 49.333 -22.667 105 -32 167
c-3.33301 -88.667 -16.333 -185.334 -39 -290.001l-213 -1003h-193zM1064 1562h-190l-172 279h172l115 -177l193 177h179z" />
    <glyph glyph-name="ncaron" unicode="&#x148;" horiz-adv-x="1251" vert-adv-y="2457" 
d="M71 0l158.999 745.998c11.333 54.667 28.666 155.667 51.999 303h185l-15 -71c-10 -57.333 -19 -99.666 -27 -126.999c40.667 64.667 82.334 112 125.001 142c70.667 48.667 153.334 73 248.001 73c101.333 0 184 -29.333 248 -88c62.667 -56.667 94 -134.667 94 -234
c0 -68 -12 -157.667 -36 -269l-101 -475h-192l102 487c23.333 108.667 35 189.334 35 242.001c0 62 -22.667 109.333 -68 142c-34 25.333 -76.333 38 -127 38c-60 0 -117.333 -17 -172 -51c-104 -65.333 -178.333 -203.333 -223 -414l-94 -444h-193zM498.999 1510h164
l103 -197l195 197h164l-283 -293h-184z" />
    <glyph glyph-name="Omacron" unicode="&#x14c;" horiz-adv-x="1593" vert-adv-y="2457" 
d="M959 1449c181.333 0 320.667 -50.666 418 -151.999c101.333 -106 152 -252.667 152 -440c0 -166 -40.333 -324 -121 -474c-144.667 -268 -365 -402 -661 -402c-184 0 -324.667 49.333 -422 148c-108 109.333 -162 263.666 -162 462.999c0 110 23 225 69 345
c70 183.333 181 320 333 410c114.667 68 246 102 394 102zM950.001 1270c-108 0 -208.667 -36.332 -302 -108.999c-91.333 -71.333 -161.333 -168.333 -210 -291c-40 -100 -60 -197 -60 -291c0 -130 31.667 -230.333 95 -301c70.667 -78.667 170 -118 298 -118
c164.667 0 294.667 69.667 390 209c46 67.333 82.333 142.666 109 225.999c30 94 45 185 45 273c0 132 -40 235.333 -120 310c-66 61.333 -147.667 92 -245 92zM1374 1754l-27 -127h-666l27 127h666z" />
    <glyph glyph-name="omacron" unicode="&#x14d;" horiz-adv-x="1251" vert-adv-y="2457" 
d="M690 1066c146 0 259.668 -41.001 341.001 -123.001c82 -83.333 123 -198.666 123 -345.999c0 -132.667 -34.667 -253.667 -104 -363c-63.333 -100 -151.666 -170.667 -264.999 -212c-70 -26 -142.667 -39 -218 -39c-148.667 0 -265.334 44.333 -350.001 133
c-79.333 82.667 -119 196.667 -119 342c0 112.667 28.333 220.667 85 324c61.333 110.667 148 189.667 260 237c75.333 31.333 157.666 47 246.999 47zM681.001 915.999c-68.667 0 -133.001 -21.668 -193.001 -65.001c-64.667 -46.667 -113.667 -115 -147 -205
c-24 -66 -36 -132 -36 -198c0 -89.333 20.667 -162.333 62 -219c46 -64 113.667 -96 203 -96c104.667 0 191.667 45.667 261 137c75.333 100 113 212.667 113 338c0 90.667 -21.333 163.334 -64 218.001c-47.333 60 -113.666 90 -198.999 90zM1106 1411l-26 -123h-609
l26 123h609z" />
    <glyph glyph-name="Ohungarumlaut" unicode="&#x150;" horiz-adv-x="1593" vert-adv-y="2457" 
d="M959 1449c181.333 0 320.667 -50.666 418 -151.999c101.333 -106 152 -252.667 152 -440c0 -166 -40.333 -324 -121 -474c-144.667 -268 -365 -402 -661 -402c-184 0 -324.667 49.333 -422 148c-108 109.333 -162 263.666 -162 462.999c0 110 23 225 69 345
c70 183.333 181 320 333 410c114.667 68 246 102 394 102zM950.001 1270c-108 0 -208.667 -36.332 -302 -108.999c-91.333 -71.333 -161.333 -168.333 -210 -291c-40 -100 -60 -197 -60 -291c0 -130 31.667 -230.333 95 -301c70.667 -78.667 170 -118 298 -118
c164.667 0 294.667 69.667 390 209c46 67.333 82.333 142.666 109 225.999c30 94 45 185 45 273c0 132 -40 235.333 -120 310c-66 61.333 -147.667 92 -245 92zM942.001 1841h216l-285 -279h-133zM1272 1841h215l-284 -279h-134z" />
    <glyph glyph-name="ohungarumlaut" unicode="&#x151;" horiz-adv-x="1251" vert-adv-y="2457" 
d="M690 1066c146 0 259.668 -41.001 341.001 -123.001c82 -83.333 123 -198.666 123 -345.999c0 -132.667 -34.667 -253.667 -104 -363c-63.333 -100 -151.666 -170.667 -264.999 -212c-70 -26 -142.667 -39 -218 -39c-148.667 0 -265.334 44.333 -350.001 133
c-79.333 82.667 -119 196.667 -119 342c0 112.667 28.333 220.667 85 324c61.333 110.667 148 189.667 260 237c75.333 31.333 157.666 47 246.999 47zM681.001 915.999c-68.667 0 -133.001 -21.668 -193.001 -65.001c-64.667 -46.667 -113.667 -115 -147 -205
c-24 -66 -36 -132 -36 -198c0 -89.333 20.667 -162.333 62 -219c46 -64 113.667 -96 203 -96c104.667 0 191.667 45.667 261 137c75.333 100 113 212.667 113 338c0 90.667 -21.333 163.334 -64 218.001c-47.333 60 -113.666 90 -198.999 90zM899 1510l-271 -293h-123
l193 293h201zM1213 1510l-271 -293h-123l194 293h200z" />
    <glyph glyph-name="OE" unicode="&#x152;" horiz-adv-x="1933" vert-adv-y="2457" 
d="M1744 176l-38.001 -176h-596c-31.333 -0 -78.666 -2.66699 -141.999 -8c-72.667 -6 -128.334 -9 -167.001 -9c-193.333 0 -346.666 50.333 -459.999 151c-64.667 57.333 -113 126.333 -145 207c-36 92 -54 189.667 -54 293c0 151.333 34 290 102 416
c81.333 150 195.666 257.333 342.999 322c112.667 50 250.334 75 413.001 75l328 -17h647l-36 -176h-544l-91 -429h516l-37 -176h-516l-101 -473h578zM1186 1245c-56 10.667 -111.668 16 -167.001 16c-149.333 0 -277 -33 -383 -99c-102.667 -64.667 -179 -159 -229 -283
c-33.333 -84 -50 -170.667 -50 -260c0 -138 45.333 -250 136 -336c86 -80.667 196.667 -121 332 -121c42.667 0 87.334 4.66699 134.001 14z" />
    <glyph glyph-name="oe" unicode="&#x153;" horiz-adv-x="1933" vert-adv-y="2457" 
d="M1833 476l-726 -0.00195312c-4 -31.333 -6 -55 -6 -71c0 -90.667 36 -160.667 108 -210c60 -41.333 137.333 -62 232 -62c66.667 0 132.334 11.333 197.001 34c18 6 43.333 15.667 76 29l-29 -164c-108.667 -32.667 -205.667 -49 -291 -49
c-124 0 -225.667 24.667 -305 74c-55.333 34 -92.333 89 -111 165c-20.667 -49.333 -42 -86.666 -64 -111.999c-76 -84.667 -194.333 -127 -355 -127c-149.333 0 -267.333 45.333 -354 136c-82.667 86.667 -124 199 -124 337c0 114 27.667 221 83 321
c106 192.667 277.333 289 514 289c135.333 0 234.666 -30.333 297.999 -91c26 -25.333 51 -68.333 75 -129c25.333 46 49.333 81.333 72 106c72 76 176 114 312 114c133.333 0 237 -34 311 -102c73.333 -68 110 -168.333 110 -301c0 -57.333 -7.66699 -119.666 -23 -186.999
zM673 915.998c-106 0 -197 -46 -273 -138c-74 -90 -111 -199 -111 -327c0 -109.333 26.667 -190 80 -242c52 -50.667 116.667 -76 194 -76c91.333 0 171.333 39.333 240 118c87.333 101.333 131 221 131 359c0 92 -21.667 165 -65 219c-46.667 58 -112 87 -196 87z
M1666 625.998c2.66699 37.333 3.99707 62.668 3.99707 76.001c0 65.333 -15.333 114.666 -46 147.999c-41.333 44 -97.666 66 -168.999 66c-91.333 0 -167.666 -35.667 -228.999 -107c-35.333 -41.333 -65.666 -102.333 -90.999 -183h531z" />
    <glyph glyph-name="Racute" unicode="&#x154;" horiz-adv-x="1251" vert-adv-y="2457" 
d="M85 0l304 1430h261c146 0 247 -7 303 -21c170.667 -42.667 256 -147.667 256 -315c0 -138 -55.333 -245.667 -166 -323c-61.333 -42.667 -128 -68.667 -200 -78c40 -15.333 67 -33 81 -53c16.667 -22 31.667 -59.667 45 -113l134 -527h-210l-112 473
c-12.667 54.667 -27 91.667 -43 111c-19.333 22.667 -48.333 37 -87 43c-22.667 3.33301 -59 5 -109 5h-115l-135 -632h-207zM464 808l119.999 0.000976562c121.333 0 213.666 15.667 276.999 47c42.667 21.333 76.334 53 101.001 95c20 35.333 30 73.333 30 114
c0 72 -27.333 123 -82 153c-31.333 17.333 -67 27.666 -107 30.999c-41.333 4 -87.666 6 -138.999 6h-105zM904.999 1841h244l-320 -279h-148z" />
    <glyph glyph-name="racute" unicode="&#x155;" horiz-adv-x="797" vert-adv-y="2457" 
d="M68 0l159 744.999c15.333 74 32.333 175.333 51 304h179c-7.33301 -70.667 -19 -137 -35 -199c37.333 62.667 70.333 106.667 99 132c61.333 56 138.666 84 231.999 84c40.667 0 81.334 -8 122.001 -24l-35 -159c-42 17.333 -79.333 26 -112 26
c-94 0 -175 -43.667 -243 -131c-54 -69.333 -96.333 -175.666 -127 -318.999l-97 -459h-193zM933 1510l-314 -293h-137l236 293h215z" />
    <glyph glyph-name="Rcommaaccent" unicode="&#x156;" horiz-adv-x="1251" vert-adv-y="2457" 
d="M85 0l304 1430h261c146 0 247 -7 303 -21c170.667 -42.667 256 -147.667 256 -315c0 -138 -55.333 -245.667 -166 -323c-61.333 -42.667 -128 -68.667 -200 -78c40 -15.333 67 -33 81 -53c16.667 -22 31.667 -59.667 45 -113l134 -527h-210l-112 473
c-12.667 54.667 -27 91.667 -43 111c-19.333 22.667 -48.333 37 -87 43c-22.667 3.33301 -59 5 -109 5h-115l-135 -632h-207zM464 808l119.999 0.000976562c121.333 0 213.666 15.667 276.999 47c42.667 21.333 76.334 53 101.001 95c20 35.333 30 73.333 30 114
c0 72 -27.333 123 -82 153c-31.333 17.333 -67 27.666 -107 30.999c-41.333 4 -87.666 6 -138.999 6h-105zM648.999 -99.999l-177 -300h-141l134 300h184z" />
    <glyph glyph-name="rcommaaccent" unicode="&#x157;" horiz-adv-x="797" vert-adv-y="2457" 
d="M67 0l159 744.999c15.333 74 32.333 175.333 51 304h179c-7.33301 -70.667 -19 -137 -35 -199c37.333 62.667 70.333 106.667 99 132c61.333 56 138.666 84 231.999 84c40.667 0 81.334 -8 122.001 -24l-35 -159c-42 17.333 -79.333 26 -112 26
c-94 0 -175 -43.667 -243 -131c-54 -69.333 -96.333 -175.666 -127 -318.999l-97 -459h-193zM248 -93.001l-177 -300h-130l134 300h173z" />
    <glyph glyph-name="Rcaron" unicode="&#x158;" horiz-adv-x="1251" vert-adv-y="2457" 
d="M85 0l304 1430h261c146 0 247 -7 303 -21c170.667 -42.667 256 -147.667 256 -315c0 -138 -55.333 -245.667 -166 -323c-61.333 -42.667 -128 -68.667 -200 -78c40 -15.333 67 -33 81 -53c16.667 -22 31.667 -59.667 45 -113l134 -527h-210l-112 473
c-12.667 54.667 -27 91.667 -43 111c-19.333 22.667 -48.333 37 -87 43c-22.667 3.33301 -59 5 -109 5h-115l-135 -632h-207zM464 808l119.999 0.000976562c121.333 0 213.666 15.667 276.999 47c42.667 21.333 76.334 53 101.001 95c20 35.333 30 73.333 30 114
c0 72 -27.333 123 -82 153c-31.333 17.333 -67 27.666 -107 30.999c-41.333 4 -87.666 6 -138.999 6h-105zM892.999 1562h-190l-172 279h172l115 -177l193 177h179z" />
    <glyph glyph-name="rcaron" unicode="&#x159;" horiz-adv-x="797" vert-adv-y="2457" 
d="M68 0l159 744.999c15.333 74 32.333 175.333 51 304h179c-7.33301 -70.667 -19 -137 -35 -199c37.333 62.667 70.333 106.667 99 132c61.333 56 138.666 84 231.999 84c40.667 0 81.334 -8 122.001 -24l-35 -159c-42 17.333 -79.333 26 -112 26
c-94 0 -175 -43.667 -243 -131c-54 -69.333 -96.333 -175.666 -127 -318.999l-97 -459h-193zM337 1510h164l103 -197l195 197h164l-283 -293h-184z" />
    <glyph glyph-name="Sacute" unicode="&#x15a;" horiz-adv-x="1024" vert-adv-y="2457" 
d="M30 66l65.001 179c116 -56.667 219 -85 309 -85c96 0 172.667 26.667 230 80c52.667 48.667 79 109 79 181c0 68 -30.667 125.667 -92 173c-14.667 11.333 -74.334 49 -179.001 113c-86 52 -146 105 -180 159c-30.667 48 -46 103.667 -46 167c0 109.333 37 202 111 278
c89.333 92 212.666 138 369.999 138c124.667 0 237.667 -24.333 339 -73l-53 -177c-90 47.333 -182.333 71 -277 71c-93.333 0 -164.666 -24 -213.999 -72c-41.333 -40 -62 -87.667 -62 -143c0 -58 25.667 -107.667 77 -149c23.333 -19.333 67.333 -47.666 132 -84.999
c120 -68.667 197.667 -130.667 233 -186c36.667 -56.667 55 -123.334 55 -200.001c0 -94 -25.667 -179.333 -77 -256c-88 -132 -230.667 -198 -428 -198c-142 0 -272.667 28.333 -392 85zM812.001 1841h244l-320 -279h-148z" />
    <glyph glyph-name="sacute" unicode="&#x15b;" horiz-adv-x="797" vert-adv-y="2457" 
d="M-7 33l34.998 160.002c84 -40 166 -60 246 -60c72 0 127.333 18 166 54c32 30 48 65.667 48 107c0 46.667 -22.333 90 -67 130c-10.667 9.33301 -64 47.666 -160 114.999c-90.667 63.333 -136 140.666 -136 231.999c0 89.333 37.333 162 112 218
c68.667 51.333 160.334 77 275.001 77c100 0 195.333 -18.667 286 -56l-54 -148c-81.333 36 -155.333 54 -222 54c-58.667 0 -105 -12.333 -139 -37c-32 -23.333 -48 -56 -48 -98c0 -24 6.33301 -45.333 19 -64c10.667 -17.333 41.334 -42 92.001 -74
c66.667 -42 126 -88 178 -138c47.333 -46 71 -104 71 -174c0 -74 -22.667 -140.333 -68 -199c-76.667 -99.333 -194.667 -149 -354 -149c-92 0 -185.333 16.667 -280 50zM872.998 1510l-314 -293h-137l236 293h215z" />
    <glyph glyph-name="Scedilla" unicode="&#x15e;" horiz-adv-x="1024" vert-adv-y="2457" 
d="M455 -18l-73.9971 -97.002c34.667 6 59.667 9 75 9c41.333 0 76.333 -12 105 -36c30 -25.333 45 -58.333 45 -99c0 -58 -26.333 -106.333 -79 -145c-47.333 -34.667 -108 -52 -182 -52c-68.667 0 -133 14.333 -193 43l44 76c42.667 -18.667 88 -28 136 -28
c45.333 0 78.666 12.333 99.999 37c13.333 14.667 20 31 20 49c0 27.333 -13 48.333 -39 63c-16 8.66699 -33.667 13 -53 13c-14.667 0 -40.334 -5 -77.001 -15l-30 35l110 148c-127.333 10.667 -238.333 38.334 -333 83.001l65 179c116 -56.667 219 -85 309 -85
c96 0 172.667 26.667 230 80c52.667 48.667 79 109 79 181c0 68 -30.667 125.667 -92 173c-14.667 11.333 -74.334 49 -179.001 113c-86 52 -146 105 -180 159c-30.667 48.667 -46 104.334 -46 167.001c0 109.333 37 202 111 278c89.333 92 212.666 138 369.999 138
c123.333 0 236.333 -24.333 339 -73l-53 -177c-90 47.333 -182.333 71 -277 71c-93.333 0 -164.666 -24 -213.999 -72c-41.333 -40 -62 -87.667 -62 -143c0 -57.333 25.667 -107 77 -149c23.333 -19.333 67.333 -47.666 132 -84.999c120 -68.667 197.667 -130.667 233 -186
c36.667 -56.667 55 -123.334 55 -200.001c0 -108.667 -33 -204 -99 -286c-82 -101.333 -206.333 -157 -373 -167z" />
    <glyph glyph-name="scedilla" unicode="&#x15f;" horiz-adv-x="797" vert-adv-y="2457" 
d="M312 -16l-68.002 -97.998c37.333 6.66699 64 10 80 10c43.333 0 78 -11 104 -33c30 -25.333 45 -59.333 45 -102c0 -52 -26 -97.667 -78 -137c-47.333 -34.667 -106.666 -52 -177.999 -52c-68.667 0 -133.334 14.333 -194.001 43l43 72c42.667 -18.667 88 -28 136 -28
c34.667 0 61.334 6 80.001 18c26 17.333 39 39.666 39 66.999c0 16.667 -5.33301 31 -16 43c-18.667 19.333 -43.667 29 -75 29c-14.667 0 -40.334 -5 -77.001 -15l-30 35l104 148c-81.333 6.66699 -159.333 23 -234 49l35 160c84 -40 166 -60 246 -60
c72 0 127.333 18 166 54c32 30 48 65.667 48 107c0 46.667 -22.333 90 -67 130c-10.667 9.33301 -64 47.666 -160 114.999c-90.667 62.667 -136 140 -136 232c0 89.333 37.333 162 112 218c68.667 51.333 160.334 77 275.001 77c100 0 195.333 -18.667 286 -56l-54 -148
c-81.333 36 -155.333 54 -222 54c-58.667 0 -105 -12.333 -139 -37c-32 -23.333 -48 -56 -48 -98c0 -24 6.33301 -45.333 19 -64c10.667 -17.333 41.334 -42 92.001 -74c66.667 -42 126 -88 178 -138c47.333 -46 71 -104 71 -174c0 -86 -30 -160.667 -90 -224
c-67.333 -71.333 -165 -112.333 -293 -123z" />
    <glyph glyph-name="Scaron" unicode="&#x160;" horiz-adv-x="1024" vert-adv-y="2457" 
d="M14 66l65.001 179c116 -56.667 219 -85 309 -85c96 0 172.667 26.667 230 80c52.667 48.667 79 109 79 181c0 68 -30.667 125.667 -92 173c-14.667 11.333 -74.334 49 -179.001 113c-86 52 -146 105 -180 159c-30.667 48 -46 103.667 -46 167c0 109.333 37 202 111 278
c89.333 92 212.666 138 369.999 138c124.667 0 237.667 -24.333 339 -73l-53 -177c-90 47.333 -182.333 71 -277 71c-93.333 0 -164.666 -24 -213.999 -72c-41.333 -40 -62 -87.667 -62 -143c0 -58 25.667 -107.667 77 -149c23.333 -19.333 67.333 -47.666 132 -84.999
c120 -68.667 197.667 -130.667 233 -186c36.667 -56.667 55 -123.334 55 -200.001c0 -94 -25.667 -179.333 -77 -256c-88 -132 -230.667 -198 -428 -198c-142 0 -272.667 28.333 -392 85zM781.001 1562h-190l-172 279h172l115 -177l193 177h179z" />
    <glyph glyph-name="scaron" unicode="&#x161;" horiz-adv-x="797" vert-adv-y="2457" 
d="M-16 33l34.998 160.002c84 -40 166 -60 246 -60c72 0 127.333 18 166 54c32 30 48 65.667 48 107c0 46.667 -22.333 90 -67 130c-10.667 9.33301 -64 47.666 -160 114.999c-90.667 63.333 -136 140.666 -136 231.999c0 89.333 37.333 162 112 218
c68.667 51.333 160.334 77 275.001 77c100 0 195.333 -18.667 286 -56l-54 -148c-81.333 36 -155.333 54 -222 54c-58.667 0 -105 -12.333 -139 -37c-32 -23.333 -48 -56 -48 -98c0 -24 6.33301 -45.333 19 -64c10.667 -17.333 41.334 -42 92.001 -74
c66.667 -42 126 -88 178 -138c47.333 -46 71 -104 71 -174c0 -74 -22.667 -140.333 -68 -199c-76.667 -99.333 -194.667 -149 -354 -149c-92 0 -185.333 16.667 -280 50zM266.998 1510h164l103 -197l195 197h164l-283 -293h-184z" />
    <glyph glyph-name="Tcommaaccent" unicode="&#x162;" horiz-adv-x="1139" vert-adv-y="2457" 
d="M368 0l267 1254h-446l37 176h1097l-38 -176h-443l-266 -1254h-208zM549 -100l-177 -300h-141l134 300h184z" />
    <glyph glyph-name="tcommaaccent" unicode="&#x163;" horiz-adv-x="797" vert-adv-y="2457" 
d="M117 899l32.001 149.999h236l51 244l210 75l-68 -319h286l-32 -150h-286l-113 -533c-8.66699 -40.667 -13 -77.667 -13 -111c0 -40 15.333 -69.667 46 -89c27.333 -17.333 60.333 -26 99 -26c36 0 77.333 10.667 124 32l-34 -158
c-56.667 -20.667 -111.334 -31 -164.001 -31c-80.667 0 -146 18.667 -196 56c-49.333 36.667 -74 95.334 -74 176.001c0 42.667 5.66699 90 17 142l115 542h-236zM479.001 -93.001l-177 -300h-130l134 300h173z" />
    <glyph glyph-name="Tcaron" unicode="&#x164;" horiz-adv-x="1139" vert-adv-y="2457" 
d="M368 0l267 1254h-446l37 176h1097l-38 -176h-443l-266 -1254h-208zM891 1562h-190l-172 279h172l115 -177l193 177h179z" />
    <glyph glyph-name="tcaron" unicode="&#x165;" horiz-adv-x="797" vert-adv-y="2457" 
d="M117 899l32.001 149.999h236l51 244l210 75l-68 -319h286l-32 -150h-286l-113 -533c-8.66699 -40.667 -13 -77.667 -13 -111c0 -40 15.333 -69.667 46 -89c27.333 -17.333 60.333 -26 99 -26c36 0 77.333 10.667 124 32l-34 -158
c-56.667 -20.667 -111.334 -31 -164.001 -31c-80.667 0 -146 18.667 -196 56c-49.333 36.667 -74 95.334 -74 176.001c0 42.667 5.66699 90 17 142l115 542h-236zM1022 1544l-177 -329h-130l134 329h173z" />
    <glyph glyph-name="Umacron" unicode="&#x16a;" horiz-adv-x="1479" vert-adv-y="2457" 
d="M386 1430h209l-168 -778c-17.333 -82 -26 -150.667 -26 -206c0 -92.667 31 -165 93 -217c56 -46 125.667 -69 209 -69c82 0 155.667 22.667 221 68c63.333 44 113.333 112.333 150 205c22.667 57.333 44.334 134 65.001 230l165 767h206l-171 -807
c-38 -178 -83 -307 -135 -387c-62.667 -98.667 -149.334 -169 -260.001 -211c-76.667 -29.333 -160 -44 -250 -44c-138.667 0 -253.667 34 -345 102c-103.333 77.333 -155 184 -155 320c0 80.667 10.667 170.667 32 270zM1342 1754l-27 -127h-666l27 127h666z" />
    <glyph glyph-name="umacron" unicode="&#x16b;" horiz-adv-x="1251" vert-adv-y="2457" 
d="M979 0h-171.999l9 78c2.66699 23.333 9.66699 62.333 21 117c-40 -61.333 -78.667 -106 -116 -134c-68.667 -52 -152.667 -78 -252 -78c-98 0 -179 26.667 -243 80s-96 124.333 -96 213c0 52 7.66699 114.667 23 188l125 585h193l-131 -615c-8 -38 -12 -73.667 -12 -107
c0 -63.333 21 -111.333 63 -144c35.333 -28.667 79.333 -43 132 -43c82 0 155.333 34.667 220 104c44 46.667 77.333 98.667 100 156c23.333 60 43 128 59 204l95 445h193l-152 -713c-22.667 -107.333 -42.334 -219.333 -59.001 -336zM1109 1411l-26 -123h-609l26 123h609z
" />
    <glyph glyph-name="Uring" unicode="&#x16e;" horiz-adv-x="1479" vert-adv-y="2457" 
d="M386 1430h209l-168 -778c-17.333 -82 -26 -150.667 -26 -206c0 -92.667 31 -165 93 -217c56 -46 125.667 -69 209 -69c82 0 155.667 22.667 221 68c63.333 44 113.333 112.333 150 205c22.667 57.333 44.334 134 65.001 230l165 767h206l-171 -807
c-38 -178 -83 -307 -135 -387c-62.667 -98.667 -149.334 -169 -260.001 -211c-76.667 -29.333 -160 -44 -250 -44c-138.667 0 -253.667 34 -345 102c-103.333 77.333 -155 184 -155 320c0 80.667 10.667 170.667 32 270zM1004 1931c61.333 0 113.333 -23.333 156 -70
c36 -40 54 -87.667 54 -143c0 -63.333 -23.333 -116 -70 -158c-41.333 -36.667 -89 -55 -143 -55c-63.333 0 -116.333 23.667 -159 71c-36.667 40 -55 88 -55 144c0 61.333 23.667 113.333 71 156c40 36.667 88.667 55 146 55zM1002 1822c-32 0 -58.334 -11.333 -79.001 -34
c-17.333 -19.333 -26 -42 -26 -68c0 -31.333 11.333 -57.333 34 -78c20 -18 43 -27 69 -27c30 0 55.333 11.667 76 35c17.333 18.667 26 41.667 26 69c0 31.333 -11 57 -33 77c-19.333 17.333 -41.666 26 -66.999 26z" />
    <glyph glyph-name="uring" unicode="&#x16f;" horiz-adv-x="1251" vert-adv-y="2457" 
d="M979 0h-171.999l9 78c2.66699 23.333 9.66699 62.333 21 117c-40 -61.333 -78.667 -106 -116 -134c-68.667 -52 -152.667 -78 -252 -78c-98 0 -179 26.667 -243 80s-96 124.333 -96 213c0 52 7.66699 114.667 23 188l125 585h193l-131 -615c-8 -38 -12 -73.667 -12 -107
c0 -63.333 21 -111.333 63 -144c35.333 -28.667 79.333 -43 132 -43c82 0 155.333 34.667 220 104c44 46.667 77.333 98.667 100 156c23.333 60 43 128 59 204l95 445h193l-152 -713c-22.667 -107.333 -42.334 -219.333 -59.001 -336zM766.001 1578
c59.333 0 109.999 -23.002 151.999 -69.002c35.333 -39.333 53 -85.666 53 -138.999c0 -61.333 -23 -112.666 -69 -153.999c-39.333 -36 -85.666 -54 -138.999 -54c-61.333 0 -113 23 -155 69c-35.333 39.333 -53 86.333 -53 141c0 60 23 111 69 153
c38.667 35.333 86 53 142 53zM765 1472c-32 0 -58 -11 -78 -33c-17.333 -19.333 -26 -42 -26 -68c0 -31.333 11.333 -57 34 -77c19.333 -17.333 42 -26 68 -26c30.667 0 56 11.333 76 34c17.333 19.333 26 42 26 68c0 30 -11.333 55.333 -34 76
c-18.667 17.333 -40.667 26 -66 26z" />
    <glyph glyph-name="Uhungarumlaut" unicode="&#x170;" horiz-adv-x="1479" vert-adv-y="2457" 
d="M386 1430h209l-168 -778c-17.333 -82 -26 -150.667 -26 -206c0 -92.667 31 -165 93 -217c56 -46 125.667 -69 209 -69c82 0 155.667 22.667 221 68c63.333 44 113.333 112.333 150 205c22.667 57.333 44.334 134 65.001 230l165 767h206l-171 -807
c-38 -178 -83 -307 -135 -387c-62.667 -98.667 -149.334 -169 -260.001 -211c-76.667 -29.333 -160 -44 -250 -44c-138.667 0 -253.667 34 -345 102c-103.333 77.333 -155 184 -155 320c0 80.667 10.667 170.667 32 270zM922 1841h216l-285 -279h-133zM1252 1841h215
l-284 -279h-134z" />
    <glyph glyph-name="uhungarumlaut" unicode="&#x171;" horiz-adv-x="1251" vert-adv-y="2457" 
d="M979 0h-171.999l9 78c2.66699 23.333 9.66699 62.333 21 117c-40 -61.333 -78.667 -106 -116 -134c-68.667 -52 -152.667 -78 -252 -78c-98 0 -179 26.667 -243 80s-96 124.333 -96 213c0 52 7.66699 114.667 23 188l125 585h193l-131 -615c-8 -38 -12 -73.667 -12 -107
c0 -63.333 21 -111.333 63 -144c35.333 -28.667 79.333 -43 132 -43c82 0 155.333 34.667 220 104c44 46.667 77.333 98.667 100 156c23.333 60 43 128 59 204l95 445h193l-152 -713c-22.667 -107.333 -42.334 -219.333 -59.001 -336zM921.001 1510l-271 -293h-123l193 293
h201zM1235 1510l-271 -293h-123l194 293h200z" />
    <glyph glyph-name="Uogonek" unicode="&#x172;" horiz-adv-x="1479" vert-adv-y="2457" 
d="M387 1430l208.998 -0.00292969l-168 -778c-17.333 -82 -26 -150.667 -26 -206c0 -92.667 31 -165 93 -217c56 -46 125.667 -69 209 -69c82 0 155.667 22.667 221 68c63.333 44 113.333 112.333 150 205c22.667 57.333 44.334 134 65.001 230l165 767h206l-171 -807
c-35.333 -163.333 -75.666 -285.666 -120.999 -366.999c-36.667 -64.667 -90.334 -122.667 -161.001 -174c-8 -6 -42.333 -29.667 -103 -71c-49.333 -34 -88.333 -72.333 -117 -115c-22 -32 -33 -61 -33 -87c0 -15.333 4.33301 -29.666 13 -42.999c16.667 -26 42 -39 76 -39
c22.667 0 47 3.66699 73 11l-12 -94c-38 -17.333 -76.333 -26 -115 -26c-39.333 0 -73 7 -101 21c-27.333 14.667 -49 35.334 -65 62.001c-14 24 -21 49.333 -21 76c0 45.333 21 89.333 63 132c18.667 20 54.334 48.333 107.001 85c-54 -8.66699 -97.333 -13 -130 -13
c-136.667 0 -251 34.333 -343 103c-103.333 76.667 -155 183 -155 319c0 80.667 10.667 170.667 32 270z" />
    <glyph glyph-name="uogonek" unicode="&#x173;" horiz-adv-x="1251" vert-adv-y="2457" 
d="M972 0c-104.667 -70 -156.999 -133.665 -156.999 -190.998c0 -24.667 10.333 -45.334 31 -62.001c16 -13.333 34 -20 54 -20c18.667 0 43 4 73 12l-11 -89c-38 -18 -76.667 -27 -116 -27c-35.333 0 -67.333 7 -96 21c-27.333 13.333 -49 34 -65 62
c-12.667 21.333 -19 44 -19 68c0 79.333 65.333 154.666 196 225.999h-55l9 78c2.66699 23.333 9.66699 62.333 21 117c-40 -61.333 -78.667 -106 -116 -134c-68.667 -52 -152.667 -78 -252 -78c-98 0 -179 26.667 -243 80s-96 124.333 -96 213c0 52 7.66699 114.667 23 188
l125 585h193l-131 -615c-8 -38 -12 -73.667 -12 -107c0 -63.333 21 -111.333 63 -144c35.333 -28.667 79.333 -43 132 -43c82 0 155.333 34.667 220 104c44 46.667 77.333 98.667 100 156c23.333 60 43 128 59 204l95 445h193l-152 -713
c-22.667 -107.333 -42.334 -219.333 -59.001 -336h-7z" />
    <glyph glyph-name="Ydieresis" unicode="&#x178;" horiz-adv-x="1366" vert-adv-y="2457" 
d="M461 0l128 601l-383 829h227l283 -641l564 641h259l-743 -829l-128 -601h-207zM1230 1798l-46 -207h-195l46 207h195zM812 1798l-46 -207h-194l46 207h194z" />
    <glyph glyph-name="Zacute" unicode="&#x179;" horiz-adv-x="1139" vert-adv-y="2457" 
d="M-24 0l37 174l963 1080h-726l37 176h957l-37 -179l-944 -1075h747l-38 -176h-996zM912 1841h244l-320 -279h-148z" />
    <glyph glyph-name="zacute" unicode="&#x17a;" horiz-adv-x="1024" vert-adv-y="2457" 
d="M-7 0l33 155l759 744h-595l32 150h828l-33 -153l-760 -746h622l-33 -150h-853zM989 1510l-314 -293h-137l236 293h215z" />
    <glyph glyph-name="Zdotaccent" unicode="&#x17b;" horiz-adv-x="1139" vert-adv-y="2457" 
d="M-24 0l37 174l963 1080h-726l37 176h957l-37 -179l-944 -1075h747l-38 -176h-996zM939 1798l-44 -207h-194l44 207h194z" />
    <glyph glyph-name="zdotaccent" unicode="&#x17c;" horiz-adv-x="1024" vert-adv-y="2457" 
d="M-7 0l33 155l759 744h-595l32 150h828l-33 -153l-760 -746h622l-33 -150h-853zM809 1458l-44 -207h-187l44 207h187z" />
    <glyph glyph-name="Zcaron" unicode="&#x17d;" horiz-adv-x="1139" vert-adv-y="2457" 
d="M-43 0l37 174l963 1080h-726l37 176h957l-37 -179l-944 -1075h747l-38 -176h-996zM862 1562h-190l-172 279h172l115 -177l193 177h179z" />
    <glyph glyph-name="zcaron" unicode="&#x17e;" horiz-adv-x="1024" vert-adv-y="2457" 
d="M-29 0l33 155l759 744h-595l32 150h828l-33 -153l-760 -746h622l-33 -150h-853zM387 1510h164l103 -197l195 197h164l-283 -293h-184z" />
    <glyph glyph-name="florin" unicode="&#x192;" horiz-adv-x="1159" vert-adv-y="2457" 
d="M-53 -410l46.999 165.999c44 -8 80.667 -12 110 -12c50.667 0 90.334 12.667 119.001 38c20.667 18.667 39 56 55 112l241 841h-255l33 114h254l74 258c32 109.333 75.667 189 131 239c67.333 60 151 90 251 90c53.333 0 116 -8.66699 188 -26l-46 -165
c-40 17.333 -79.667 26 -119 26c-59.333 0 -104 -14.667 -134 -44c-26.667 -25.333 -50.667 -75.333 -72 -150l-65 -228h276l-33 -114h-275l-238 -845c-24 -83.333 -48.333 -143.666 -73 -180.999c-62 -92 -163.333 -138 -304 -138c-50.667 0 -105.667 6.33301 -165 19z" />
    <glyph glyph-name="uni01D3" unicode="&#x1d3;" horiz-adv-x="1438" vert-adv-y="2457" 
d="M346 1430h209l-168 -778c-17.333 -82 -26 -150.667 -26 -206c0 -92.667 31 -165 93 -217c56 -46 125.667 -69 209 -69c82 0 155.667 22.667 221 68c63.333 44 113.333 112.333 150 205c22.667 57.333 44.334 134 65.001 230l165 767h206l-171 -807
c-38 -178 -83 -307 -135 -387c-62.667 -98.667 -149.334 -169 -260.001 -211c-76.667 -29.333 -160 -44 -250 -44c-138.667 0 -253.667 34 -345 102c-103.333 77.333 -155 184 -155 320c0 80.667 10.667 170.667 32 270zM1030 1562h-190l-172 279h172l115 -177l193 177h179z
" />
    <glyph glyph-name="Scommaaccent" unicode="&#x218;" horiz-adv-x="1089" vert-adv-y="2457" 
d="M47 66l65.001 179c116 -56.667 219 -85 309 -85c96 0 172.667 26.667 230 80c52.667 48.667 79 109 79 181c0 68 -30.667 125.667 -92 173c-14.667 11.333 -74.334 49 -179.001 113c-86 52 -146 105 -180 159c-30.667 48 -46 103.667 -46 167c0 109.333 37 202 111 278
c89.333 92 212.666 138 369.999 138c124.667 0 237.667 -24.333 339 -73l-53 -177c-90 47.333 -182.333 71 -277 71c-93.333 0 -164.666 -24 -213.999 -72c-41.333 -40 -62 -87.667 -62 -143c0 -58 25.667 -107.667 77 -149c23.333 -19.333 67.333 -47.666 132 -84.999
c120 -68.667 197.667 -130.667 233 -186c36.667 -56.667 55 -123.334 55 -200.001c0 -94 -25.667 -179.333 -77 -256c-88 -132 -230.667 -198 -428 -198c-142 0 -272.667 28.333 -392 85zM523.001 -100l-177 -300h-141l134 300h184z" />
    <glyph glyph-name="scommaaccent" unicode="&#x219;" horiz-adv-x="819" vert-adv-y="2457" 
d="M-5 33l34.998 160.002c84 -40 166 -60 246 -60c72 0 127.333 18 166 54c32 30 48 65.667 48 107c0 46.667 -22.333 90 -67 130c-10.667 9.33301 -64 47.666 -160 114.999c-90.667 63.333 -136 140.666 -136 231.999c0 89.333 37.333 162 112 218
c68.667 51.333 160.334 77 275.001 77c100 0 195.333 -18.667 286 -56l-54 -148c-81.333 36 -155.333 54 -222 54c-58.667 0 -105 -12.333 -139 -37c-32 -23.333 -48 -56 -48 -98c0 -24 6.33301 -45.333 19 -64c10.667 -17.333 41.334 -42 92.001 -74
c66.667 -42 126 -88 178 -138c47.333 -46 71 -104 71 -174c0 -74 -22.667 -140.333 -68 -199c-76.667 -99.333 -194.667 -149 -354 -149c-92 0 -185.333 16.667 -280 50zM389.998 -92.998l-177 -300h-130l134 300h173z" />
    <glyph glyph-name="circumflex" unicode="&#x2c6;" vert-adv-y="2457" 
d="M740 1217h-164l-104 197l-194 -197h-164l283 293h184z" />
    <glyph glyph-name="caron" unicode="&#x2c7;" vert-adv-y="2457" 
d="M178 1510h164l103 -197l195 197h164l-283 -293h-184z" />
    <glyph glyph-name="uni02C9" unicode="&#x2c9;" vert-adv-y="2457" 
d="M775 1411l-26 -123h-609l26 123h609z" />
    <glyph glyph-name="breve" unicode="&#x2d8;" vert-adv-y="2457" 
d="M785 1510c-15.333 -62 -42 -115.666 -80 -160.999c-70 -85.333 -159.667 -128 -269 -128c-98 0 -166.667 31.333 -206 94c-23.333 36.667 -35 81 -35 133c0 18 2.33301 38.667 7 62h111v-26c0 -42.667 13 -75.334 39 -98.001c26.667 -24 60.334 -36 101.001 -36
c72.667 0 133 28.667 181 86c15.333 18 28.666 42.667 39.999 74h111z" />
    <glyph glyph-name="dotaccent" unicode="&#x2d9;" vert-adv-y="2457" 
d="M575 1458l-44 -207h-187l44 207h187z" />
    <glyph glyph-name="ring" unicode="&#x2da;" vert-adv-y="2457" 
d="M466 1578c59.333 0 109.999 -23.002 151.999 -69.002c35.333 -39.333 53 -85.666 53 -138.999c0 -61.333 -23 -112.666 -69 -153.999c-39.333 -36 -85.666 -54 -138.999 -54c-61.333 0 -113 23 -155 69c-35.333 39.333 -53 86.333 -53 141c0 60 23 111 69 153
c38.667 35.333 86 53 142 53zM464.999 1472c-32 0 -58 -11 -78 -33c-17.333 -19.333 -26 -42 -26 -68c0 -31.333 11.333 -57 34 -77c19.333 -17.333 42 -26 68 -26c30.667 0 56 11.333 76 34c17.333 19.333 26 42 26 68c0 30 -11.333 55.333 -34 76
c-18.667 17.333 -40.667 26 -66 26z" />
    <glyph glyph-name="ogonek" unicode="&#x2db;" vert-adv-y="2457" 
d="M585 0l110 0.00292969c-104.667 -70.667 -157 -134.334 -157 -191.001c0 -24.667 10 -45.334 30 -62.001c16 -13.333 34.333 -20 55 -20c18.667 0 43 4 73 12l-11 -89c-38 -18 -76.667 -27 -116 -27c-35.333 0 -67.333 7 -96 21c-28 13.333 -50 34 -66 62
c-12 21.333 -18 44 -18 68c0 79.333 65.333 154.666 196 225.999z" />
    <glyph glyph-name="tilde" unicode="&#x2dc;" vert-adv-y="2457" 
d="M791 1457c-16 -56 -37.998 -101.667 -65.998 -137c-39.333 -49.333 -86.333 -74 -141 -74c-24.667 0 -60.334 9.66699 -107.001 29c-26 10.667 -63.667 28 -113 52c-14 6.66699 -29 10 -45 10c-39.333 0 -69 -27.667 -89 -83h-101c14 49.333 33 90 57 122
c43.333 58 97.333 87 162 87c28.667 0 59.667 -7 93 -21c14 -6 43 -19.667 87 -41c31.333 -15.333 55.666 -23 72.999 -23c40 0 69.333 26.333 88 79h102z" />
    <glyph glyph-name="hungarumlaut" unicode="&#x2dd;" vert-adv-y="2457" 
d="M558 1510l-271 -293h-123l193 293h201zM872 1510l-271 -293h-123l194 293h200z" />
    <glyph glyph-name="tonos" unicode="&#x384;" vert-adv-y="2457" 
d="M156 435l49 229h233l-49 -229h-233z" />
    <glyph glyph-name="dieresistonos" unicode="&#x385;" vert-adv-y="2457" 
d="M156 435l49 229h233l-49 -229h-233z" />
    <glyph glyph-name="Alphatonos" unicode="&#x386;" vert-adv-y="2457" 
d="M156 435l49 229h233l-49 -229h-233z" />
    <glyph glyph-name="anoteleia" unicode="&#x387;" vert-adv-y="2457" 
d="M156 435l49 229h233l-49 -229h-233z" />
    <glyph glyph-name="Epsilontonos" unicode="&#x388;" vert-adv-y="2457" 
d="M156 435l49 229h233l-49 -229h-233z" />
    <glyph glyph-name="Etatonos" unicode="&#x389;" vert-adv-y="2457" 
d="M156 435l49 229h233l-49 -229h-233z" />
    <glyph glyph-name="Iotatonos" unicode="&#x38a;" vert-adv-y="2457" 
d="M156 435l49 229h233l-49 -229h-233z" />
    <glyph glyph-name="Omicrontonos" unicode="&#x38c;" vert-adv-y="2457" 
d="M156 435l49 229h233l-49 -229h-233z" />
    <glyph glyph-name="Upsilontonos" unicode="&#x38e;" vert-adv-y="2457" 
d="M156 435l49 229h233l-49 -229h-233z" />
    <glyph glyph-name="Omegatonos" unicode="&#x38f;" vert-adv-y="2457" 
d="M156 435l49 229h233l-49 -229h-233z" />
    <glyph glyph-name="iotadieresistonos" unicode="&#x390;" vert-adv-y="2457" 
d="M156 435l49 229h233l-49 -229h-233z" />
    <glyph glyph-name="Alpha" unicode="&#x391;" vert-adv-y="2457" 
d="M156 435l49 229h233l-49 -229h-233z" />
    <glyph glyph-name="Beta" unicode="&#x392;" vert-adv-y="2457" 
d="M156 435l49 229h233l-49 -229h-233z" />
    <glyph glyph-name="Gamma" unicode="&#x393;" vert-adv-y="2457" 
d="M156 435l49 229h233l-49 -229h-233z" />
    <glyph glyph-name="uni0394" unicode="&#x394;" vert-adv-y="2457" 
d="M156 435l49 229h233l-49 -229h-233z" />
    <glyph glyph-name="Epsilon" unicode="&#x395;" vert-adv-y="2457" 
d="M156 435l49 229h233l-49 -229h-233z" />
    <glyph glyph-name="Zeta" unicode="&#x396;" vert-adv-y="2457" 
d="M156 435l49 229h233l-49 -229h-233z" />
    <glyph glyph-name="Eta" unicode="&#x397;" vert-adv-y="2457" 
d="M156 435l49 229h233l-49 -229h-233z" />
    <glyph glyph-name="Theta" unicode="&#x398;" vert-adv-y="2457" 
d="M156 435l49 229h233l-49 -229h-233z" />
    <glyph glyph-name="Iota" unicode="&#x399;" vert-adv-y="2457" 
d="M156 435l49 229h233l-49 -229h-233z" />
    <glyph glyph-name="Kappa" unicode="&#x39a;" vert-adv-y="2457" 
d="M156 435l49 229h233l-49 -229h-233z" />
    <glyph glyph-name="Lambda" unicode="&#x39b;" vert-adv-y="2457" 
d="M156 435l49 229h233l-49 -229h-233z" />
    <glyph glyph-name="Mu" unicode="&#x39c;" vert-adv-y="2457" 
d="M156 435l49 229h233l-49 -229h-233z" />
    <glyph glyph-name="Nu" unicode="&#x39d;" vert-adv-y="2457" 
d="M156 435l49 229h233l-49 -229h-233z" />
    <glyph glyph-name="Xi" unicode="&#x39e;" vert-adv-y="2457" 
d="M156 435l49 229h233l-49 -229h-233z" />
    <glyph glyph-name="Omicron" unicode="&#x39f;" vert-adv-y="2457" 
d="M156 435l49 229h233l-49 -229h-233z" />
    <glyph glyph-name="Pi" unicode="&#x3a0;" vert-adv-y="2457" 
d="M156 435l49 229h233l-49 -229h-233z" />
    <glyph glyph-name="Rho" unicode="&#x3a1;" vert-adv-y="2457" 
d="M156 435l49 229h233l-49 -229h-233z" />
    <glyph glyph-name="Sigma" unicode="&#x3a3;" vert-adv-y="2457" 
d="M156 435l49 229h233l-49 -229h-233z" />
    <glyph glyph-name="Tau" unicode="&#x3a4;" vert-adv-y="2457" 
d="M156 435l49 229h233l-49 -229h-233z" />
    <glyph glyph-name="Upsilon" unicode="&#x3a5;" vert-adv-y="2457" 
d="M156 435l49 229h233l-49 -229h-233z" />
    <glyph glyph-name="Phi" unicode="&#x3a6;" vert-adv-y="2457" 
d="M156 435l49 229h233l-49 -229h-233z" />
    <glyph glyph-name="Chi" unicode="&#x3a7;" vert-adv-y="2457" 
d="M156 435l49 229h233l-49 -229h-233z" />
    <glyph glyph-name="Psi" unicode="&#x3a8;" vert-adv-y="2457" 
d="M156 435l49 229h233l-49 -229h-233z" />
    <glyph glyph-name="uni03A9" unicode="&#x3a9;" vert-adv-y="2457" 
d="M156 435l49 229h233l-49 -229h-233z" />
    <glyph glyph-name="Iotadieresis" unicode="&#x3aa;" vert-adv-y="2457" 
d="M156 435l49 229h233l-49 -229h-233z" />
    <glyph glyph-name="Upsilondieresis" unicode="&#x3ab;" vert-adv-y="2457" 
d="M156 435l49 229h233l-49 -229h-233z" />
    <glyph glyph-name="alphatonos" unicode="&#x3ac;" vert-adv-y="2457" 
d="M156 435l49 229h233l-49 -229h-233z" />
    <glyph glyph-name="epsilontonos" unicode="&#x3ad;" vert-adv-y="2457" 
d="M156 435l49 229h233l-49 -229h-233z" />
    <glyph glyph-name="etatonos" unicode="&#x3ae;" vert-adv-y="2457" 
d="M156 435l49 229h233l-49 -229h-233z" />
    <glyph glyph-name="iotatonos" unicode="&#x3af;" vert-adv-y="2457" 
d="M156 435l49 229h233l-49 -229h-233z" />
    <glyph glyph-name="upsilondieresistonos" unicode="&#x3b0;" vert-adv-y="2457" 
d="M156 435l49 229h233l-49 -229h-233z" />
    <glyph glyph-name="alpha" unicode="&#x3b1;" vert-adv-y="2457" 
d="M156 435l49 229h233l-49 -229h-233z" />
    <glyph glyph-name="beta" unicode="&#x3b2;" vert-adv-y="2457" 
d="M156 435l49 229h233l-49 -229h-233z" />
    <glyph glyph-name="gamma" unicode="&#x3b3;" vert-adv-y="2457" 
d="M156 435l49 229h233l-49 -229h-233z" />
    <glyph glyph-name="delta" unicode="&#x3b4;" vert-adv-y="2457" 
d="M156 435l49 229h233l-49 -229h-233z" />
    <glyph glyph-name="epsilon" unicode="&#x3b5;" vert-adv-y="2457" 
d="M156 435l49 229h233l-49 -229h-233z" />
    <glyph glyph-name="zeta" unicode="&#x3b6;" vert-adv-y="2457" 
d="M156 435l49 229h233l-49 -229h-233z" />
    <glyph glyph-name="eta" unicode="&#x3b7;" vert-adv-y="2457" 
d="M156 435l49 229h233l-49 -229h-233z" />
    <glyph glyph-name="theta" unicode="&#x3b8;" vert-adv-y="2457" 
d="M156 435l49 229h233l-49 -229h-233z" />
    <glyph glyph-name="iota" unicode="&#x3b9;" vert-adv-y="2457" 
d="M156 435l49 229h233l-49 -229h-233z" />
    <glyph glyph-name="kappa" unicode="&#x3ba;" vert-adv-y="2457" 
d="M156 435l49 229h233l-49 -229h-233z" />
    <glyph glyph-name="lambda" unicode="&#x3bb;" vert-adv-y="2457" 
d="M156 435l49 229h233l-49 -229h-233z" />
    <glyph glyph-name="uni03BC" unicode="&#x3bc;" vert-adv-y="2457" 
d="M156 435l49 229h233l-49 -229h-233z" />
    <glyph glyph-name="nu" unicode="&#x3bd;" vert-adv-y="2457" 
d="M156 435l49 229h233l-49 -229h-233z" />
    <glyph glyph-name="xi" unicode="&#x3be;" vert-adv-y="2457" 
d="M156 435l49 229h233l-49 -229h-233z" />
    <glyph glyph-name="omicron" unicode="&#x3bf;" vert-adv-y="2457" 
d="M156 435l49 229h233l-49 -229h-233z" />
    <glyph glyph-name="pi" unicode="&#x3c0;" vert-adv-y="2457" 
d="M156 435l49 229h233l-49 -229h-233z" />
    <glyph glyph-name="rho" unicode="&#x3c1;" vert-adv-y="2457" 
d="M156 435l49 229h233l-49 -229h-233z" />
    <glyph glyph-name="uni03C2" unicode="&#x3c2;" vert-adv-y="2457" 
d="M156 435l49 229h233l-49 -229h-233z" />
    <glyph glyph-name="sigma" unicode="&#x3c3;" vert-adv-y="2457" 
d="M156 435l49 229h233l-49 -229h-233z" />
    <glyph glyph-name="tau" unicode="&#x3c4;" vert-adv-y="2457" 
d="M156 435l49 229h233l-49 -229h-233z" />
    <glyph glyph-name="upsilon" unicode="&#x3c5;" vert-adv-y="2457" 
d="M156 435l49 229h233l-49 -229h-233z" />
    <glyph glyph-name="phi" unicode="&#x3c6;" vert-adv-y="2457" 
d="M156 435l49 229h233l-49 -229h-233z" />
    <glyph glyph-name="chi" unicode="&#x3c7;" vert-adv-y="2457" 
d="M156 435l49 229h233l-49 -229h-233z" />
    <glyph glyph-name="psi" unicode="&#x3c8;" vert-adv-y="2457" 
d="M156 435l49 229h233l-49 -229h-233z" />
    <glyph glyph-name="omega" unicode="&#x3c9;" vert-adv-y="2457" 
d="M156 435l49 229h233l-49 -229h-233z" />
    <glyph glyph-name="iotadieresis" unicode="&#x3ca;" vert-adv-y="2457" 
d="M156 435l49 229h233l-49 -229h-233z" />
    <glyph glyph-name="upsilondieresis" unicode="&#x3cb;" vert-adv-y="2457" 
d="M156 435l49 229h233l-49 -229h-233z" />
    <glyph glyph-name="omicrontonos" unicode="&#x3cc;" vert-adv-y="2457" 
d="M156 435l49 229h233l-49 -229h-233z" />
    <glyph glyph-name="upsilontonos" unicode="&#x3cd;" vert-adv-y="2457" 
d="M156 435l49 229h233l-49 -229h-233z" />
    <glyph glyph-name="omegatonos" unicode="&#x3ce;" vert-adv-y="2457" 
d="M156 435l49 229h233l-49 -229h-233z" />
    <glyph glyph-name="theta1" unicode="&#x3d1;" vert-adv-y="2457" 
d="M156 435l49 229h233l-49 -229h-233z" />
    <glyph glyph-name="Upsilon1" unicode="&#x3d2;" vert-adv-y="2457" 
d="M156 435l49 229h233l-49 -229h-233z" />
    <glyph glyph-name="phi1" unicode="&#x3d5;" vert-adv-y="2457" 
d="M156 435l49 229h233l-49 -229h-233z" />
    <glyph glyph-name="omega1" unicode="&#x3d6;" vert-adv-y="2457" 
d="M156 435l49 229h233l-49 -229h-233z" />
    <glyph glyph-name="afii10023" unicode="&#x401;" vert-adv-y="2457" 
d="M156 435l49 229h233l-49 -229h-233z" />
    <glyph glyph-name="afii10051" unicode="&#x402;" vert-adv-y="2457" 
d="M156 435l49 229h233l-49 -229h-233z" />
    <glyph glyph-name="afii10052" unicode="&#x403;" vert-adv-y="2457" 
d="M156 435l49 229h233l-49 -229h-233z" />
    <glyph glyph-name="afii10053" unicode="&#x404;" vert-adv-y="2457" 
d="M156 435l49 229h233l-49 -229h-233z" />
    <glyph glyph-name="afii10054" unicode="&#x405;" vert-adv-y="2457" 
d="M156 435l49 229h233l-49 -229h-233z" />
    <glyph glyph-name="afii10055" unicode="&#x406;" vert-adv-y="2457" 
d="M156 435l49 229h233l-49 -229h-233z" />
    <glyph glyph-name="afii10056" unicode="&#x407;" vert-adv-y="2457" 
d="M156 435l49 229h233l-49 -229h-233z" />
    <glyph glyph-name="afii10057" unicode="&#x408;" vert-adv-y="2457" 
d="M156 435l49 229h233l-49 -229h-233z" />
    <glyph glyph-name="afii10058" unicode="&#x409;" vert-adv-y="2457" 
d="M156 435l49 229h233l-49 -229h-233z" />
    <glyph glyph-name="afii10059" unicode="&#x40a;" vert-adv-y="2457" 
d="M156 435l49 229h233l-49 -229h-233z" />
    <glyph glyph-name="afii10060" unicode="&#x40b;" vert-adv-y="2457" 
d="M156 435l49 229h233l-49 -229h-233z" />
    <glyph glyph-name="afii10061" unicode="&#x40c;" vert-adv-y="2457" 
d="M156 435l49 229h233l-49 -229h-233z" />
    <glyph glyph-name="afii10062" unicode="&#x40e;" vert-adv-y="2457" 
d="M156 435l49 229h233l-49 -229h-233z" />
    <glyph glyph-name="afii10145" unicode="&#x40f;" vert-adv-y="2457" 
d="M156 435l49 229h233l-49 -229h-233z" />
    <glyph glyph-name="afii10017" unicode="&#x410;" vert-adv-y="2457" 
d="M156 435l49 229h233l-49 -229h-233z" />
    <glyph glyph-name="afii10018" unicode="&#x411;" vert-adv-y="2457" 
d="M156 435l49 229h233l-49 -229h-233z" />
    <glyph glyph-name="afii10019" unicode="&#x412;" vert-adv-y="2457" 
d="M156 435l49 229h233l-49 -229h-233z" />
    <glyph glyph-name="afii10020" unicode="&#x413;" vert-adv-y="2457" 
d="M156 435l49 229h233l-49 -229h-233z" />
    <glyph glyph-name="afii10021" unicode="&#x414;" vert-adv-y="2457" 
d="M156 435l49 229h233l-49 -229h-233z" />
    <glyph glyph-name="afii10022" unicode="&#x415;" vert-adv-y="2457" 
d="M156 435l49 229h233l-49 -229h-233z" />
    <glyph glyph-name="afii10024" unicode="&#x416;" vert-adv-y="2457" 
d="M156 435l49 229h233l-49 -229h-233z" />
    <glyph glyph-name="afii10025" unicode="&#x417;" vert-adv-y="2457" 
d="M156 435l49 229h233l-49 -229h-233z" />
    <glyph glyph-name="afii10026" unicode="&#x418;" vert-adv-y="2457" 
d="M156 435l49 229h233l-49 -229h-233z" />
    <glyph glyph-name="afii10027" unicode="&#x419;" vert-adv-y="2457" 
d="M156 435l49 229h233l-49 -229h-233z" />
    <glyph glyph-name="afii10028" unicode="&#x41a;" vert-adv-y="2457" 
d="M156 435l49 229h233l-49 -229h-233z" />
    <glyph glyph-name="afii10029" unicode="&#x41b;" vert-adv-y="2457" 
d="M156 435l49 229h233l-49 -229h-233z" />
    <glyph glyph-name="afii10030" unicode="&#x41c;" vert-adv-y="2457" 
d="M156 435l49 229h233l-49 -229h-233z" />
    <glyph glyph-name="afii10031" unicode="&#x41d;" vert-adv-y="2457" 
d="M156 435l49 229h233l-49 -229h-233z" />
    <glyph glyph-name="afii10032" unicode="&#x41e;" vert-adv-y="2457" 
d="M156 435l49 229h233l-49 -229h-233z" />
    <glyph glyph-name="afii10033" unicode="&#x41f;" vert-adv-y="2457" 
d="M156 435l49 229h233l-49 -229h-233z" />
    <glyph glyph-name="afii10034" unicode="&#x420;" vert-adv-y="2457" 
d="M156 435l49 229h233l-49 -229h-233z" />
    <glyph glyph-name="afii10035" unicode="&#x421;" vert-adv-y="2457" 
d="M156 435l49 229h233l-49 -229h-233z" />
    <glyph glyph-name="afii10036" unicode="&#x422;" vert-adv-y="2457" 
d="M156 435l49 229h233l-49 -229h-233z" />
    <glyph glyph-name="afii10037" unicode="&#x423;" vert-adv-y="2457" 
d="M156 435l49 229h233l-49 -229h-233z" />
    <glyph glyph-name="afii10038" unicode="&#x424;" vert-adv-y="2457" 
d="M156 435l49 229h233l-49 -229h-233z" />
    <glyph glyph-name="afii10039" unicode="&#x425;" vert-adv-y="2457" 
d="M156 435l49 229h233l-49 -229h-233z" />
    <glyph glyph-name="afii10040" unicode="&#x426;" vert-adv-y="2457" 
d="M156 435l49 229h233l-49 -229h-233z" />
    <glyph glyph-name="afii10041" unicode="&#x427;" vert-adv-y="2457" 
d="M156 435l49 229h233l-49 -229h-233z" />
    <glyph glyph-name="afii10042" unicode="&#x428;" vert-adv-y="2457" 
d="M156 435l49 229h233l-49 -229h-233z" />
    <glyph glyph-name="afii10043" unicode="&#x429;" vert-adv-y="2457" 
d="M156 435l49 229h233l-49 -229h-233z" />
    <glyph glyph-name="afii10044" unicode="&#x42a;" vert-adv-y="2457" 
d="M156 435l49 229h233l-49 -229h-233z" />
    <glyph glyph-name="afii10045" unicode="&#x42b;" vert-adv-y="2457" 
d="M156 435l49 229h233l-49 -229h-233z" />
    <glyph glyph-name="afii10046" unicode="&#x42c;" vert-adv-y="2457" 
d="M156 435l49 229h233l-49 -229h-233z" />
    <glyph glyph-name="afii10047" unicode="&#x42d;" vert-adv-y="2457" 
d="M156 435l49 229h233l-49 -229h-233z" />
    <glyph glyph-name="afii10048" unicode="&#x42e;" vert-adv-y="2457" 
d="M156 435l49 229h233l-49 -229h-233z" />
    <glyph glyph-name="afii10049" unicode="&#x42f;" vert-adv-y="2457" 
d="M156 435l49 229h233l-49 -229h-233z" />
    <glyph glyph-name="afii10065" unicode="&#x430;" vert-adv-y="2457" 
d="M156 435l49 229h233l-49 -229h-233z" />
    <glyph glyph-name="afii10066" unicode="&#x431;" vert-adv-y="2457" 
d="M156 435l49 229h233l-49 -229h-233z" />
    <glyph glyph-name="afii10067" unicode="&#x432;" vert-adv-y="2457" 
d="M156 435l49 229h233l-49 -229h-233z" />
    <glyph glyph-name="afii10068" unicode="&#x433;" vert-adv-y="2457" 
d="M156 435l49 229h233l-49 -229h-233z" />
    <glyph glyph-name="afii10069" unicode="&#x434;" vert-adv-y="2457" 
d="M156 435l49 229h233l-49 -229h-233z" />
    <glyph glyph-name="afii10070" unicode="&#x435;" vert-adv-y="2457" 
d="M156 435l49 229h233l-49 -229h-233z" />
    <glyph glyph-name="afii10072" unicode="&#x436;" vert-adv-y="2457" 
d="M156 435l49 229h233l-49 -229h-233z" />
    <glyph glyph-name="afii10073" unicode="&#x437;" vert-adv-y="2457" 
d="M156 435l49 229h233l-49 -229h-233z" />
    <glyph glyph-name="afii10074" unicode="&#x438;" vert-adv-y="2457" 
d="M156 435l49 229h233l-49 -229h-233z" />
    <glyph glyph-name="afii10075" unicode="&#x439;" vert-adv-y="2457" 
d="M156 435l49 229h233l-49 -229h-233z" />
    <glyph glyph-name="afii10076" unicode="&#x43a;" vert-adv-y="2457" 
d="M156 435l49 229h233l-49 -229h-233z" />
    <glyph glyph-name="afii10077" unicode="&#x43b;" vert-adv-y="2457" 
d="M156 435l49 229h233l-49 -229h-233z" />
    <glyph glyph-name="afii10078" unicode="&#x43c;" vert-adv-y="2457" 
d="M156 435l49 229h233l-49 -229h-233z" />
    <glyph glyph-name="afii10079" unicode="&#x43d;" vert-adv-y="2457" 
d="M156 435l49 229h233l-49 -229h-233z" />
    <glyph glyph-name="afii10080" unicode="&#x43e;" vert-adv-y="2457" 
d="M156 435l49 229h233l-49 -229h-233z" />
    <glyph glyph-name="afii10081" unicode="&#x43f;" vert-adv-y="2457" 
d="M156 435l49 229h233l-49 -229h-233z" />
    <glyph glyph-name="afii10082" unicode="&#x440;" vert-adv-y="2457" 
d="M156 435l49 229h233l-49 -229h-233z" />
    <glyph glyph-name="afii10083" unicode="&#x441;" vert-adv-y="2457" 
d="M156 435l49 229h233l-49 -229h-233z" />
    <glyph glyph-name="afii10084" unicode="&#x442;" vert-adv-y="2457" 
d="M156 435l49 229h233l-49 -229h-233z" />
    <glyph glyph-name="afii10085" unicode="&#x443;" vert-adv-y="2457" 
d="M156 435l49 229h233l-49 -229h-233z" />
    <glyph glyph-name="afii10086" unicode="&#x444;" vert-adv-y="2457" 
d="M156 435l49 229h233l-49 -229h-233z" />
    <glyph glyph-name="afii10087" unicode="&#x445;" vert-adv-y="2457" 
d="M156 435l49 229h233l-49 -229h-233z" />
    <glyph glyph-name="afii10088" unicode="&#x446;" vert-adv-y="2457" 
d="M156 435l49 229h233l-49 -229h-233z" />
    <glyph glyph-name="afii10089" unicode="&#x447;" vert-adv-y="2457" 
d="M156 435l49 229h233l-49 -229h-233z" />
    <glyph glyph-name="afii10090" unicode="&#x448;" vert-adv-y="2457" 
d="M156 435l49 229h233l-49 -229h-233z" />
    <glyph glyph-name="afii10091" unicode="&#x449;" vert-adv-y="2457" 
d="M156 435l49 229h233l-49 -229h-233z" />
    <glyph glyph-name="afii10092" unicode="&#x44a;" vert-adv-y="2457" 
d="M156 435l49 229h233l-49 -229h-233z" />
    <glyph glyph-name="afii10093" unicode="&#x44b;" vert-adv-y="2457" 
d="M156 435l49 229h233l-49 -229h-233z" />
    <glyph glyph-name="afii10094" unicode="&#x44c;" vert-adv-y="2457" 
d="M156 435l49 229h233l-49 -229h-233z" />
    <glyph glyph-name="afii10095" unicode="&#x44d;" vert-adv-y="2457" 
d="M156 435l49 229h233l-49 -229h-233z" />
    <glyph glyph-name="afii10096" unicode="&#x44e;" vert-adv-y="2457" 
d="M156 435l49 229h233l-49 -229h-233z" />
    <glyph glyph-name="afii10097" unicode="&#x44f;" vert-adv-y="2457" 
d="M156 435l49 229h233l-49 -229h-233z" />
    <glyph glyph-name="afii10071" unicode="&#x451;" vert-adv-y="2457" 
d="M156 435l49 229h233l-49 -229h-233z" />
    <glyph glyph-name="afii10099" unicode="&#x452;" vert-adv-y="2457" 
d="M156 435l49 229h233l-49 -229h-233z" />
    <glyph glyph-name="afii10100" unicode="&#x453;" vert-adv-y="2457" 
d="M156 435l49 229h233l-49 -229h-233z" />
    <glyph glyph-name="afii10101" unicode="&#x454;" vert-adv-y="2457" 
d="M156 435l49 229h233l-49 -229h-233z" />
    <glyph glyph-name="afii10102" unicode="&#x455;" vert-adv-y="2457" 
d="M156 435l49 229h233l-49 -229h-233z" />
    <glyph glyph-name="afii10103" unicode="&#x456;" vert-adv-y="2457" 
d="M156 435l49 229h233l-49 -229h-233z" />
    <glyph glyph-name="afii10104" unicode="&#x457;" vert-adv-y="2457" 
d="M156 435l49 229h233l-49 -229h-233z" />
    <glyph glyph-name="afii10105" unicode="&#x458;" vert-adv-y="2457" 
d="M156 435l49 229h233l-49 -229h-233z" />
    <glyph glyph-name="afii10106" unicode="&#x459;" vert-adv-y="2457" 
d="M156 435l49 229h233l-49 -229h-233z" />
    <glyph glyph-name="afii10107" unicode="&#x45a;" vert-adv-y="2457" 
d="M156 435l49 229h233l-49 -229h-233z" />
    <glyph glyph-name="afii10108" unicode="&#x45b;" vert-adv-y="2457" 
d="M156 435l49 229h233l-49 -229h-233z" />
    <glyph glyph-name="afii10109" unicode="&#x45c;" vert-adv-y="2457" 
d="M156 435l49 229h233l-49 -229h-233z" />
    <glyph glyph-name="afii10110" unicode="&#x45e;" vert-adv-y="2457" 
d="M156 435l49 229h233l-49 -229h-233z" />
    <glyph glyph-name="afii10193" unicode="&#x45f;" vert-adv-y="2457" 
d="M156 435l49 229h233l-49 -229h-233z" />
    <glyph glyph-name="afii10050" unicode="&#x490;" vert-adv-y="2457" 
d="M156 435l49 229h233l-49 -229h-233z" />
    <glyph glyph-name="afii10098" unicode="&#x491;" vert-adv-y="2457" 
d="M156 435l49 229h233l-49 -229h-233z" />
    <glyph glyph-name="uni0492" unicode="&#x492;" vert-adv-y="2457" 
d="M156 435l49 229h233l-49 -229h-233z" />
    <glyph glyph-name="uni0493" unicode="&#x493;" vert-adv-y="2457" 
d="M156 435l49 229h233l-49 -229h-233z" />
    <glyph glyph-name="uni0496" unicode="&#x496;" vert-adv-y="2457" 
d="M156 435l49 229h233l-49 -229h-233z" />
    <glyph glyph-name="uni0497" unicode="&#x497;" vert-adv-y="2457" 
d="M156 435l49 229h233l-49 -229h-233z" />
    <glyph glyph-name="uni049A" unicode="&#x49a;" vert-adv-y="2457" 
d="M156 435l49 229h233l-49 -229h-233z" />
    <glyph glyph-name="uni049B" unicode="&#x49b;" vert-adv-y="2457" 
d="M156 435l49 229h233l-49 -229h-233z" />
    <glyph glyph-name="uni049C" unicode="&#x49c;" vert-adv-y="2457" 
d="M156 435l49 229h233l-49 -229h-233z" />
    <glyph glyph-name="uni049D" unicode="&#x49d;" vert-adv-y="2457" 
d="M156 435l49 229h233l-49 -229h-233z" />
    <glyph glyph-name="uni04A2" unicode="&#x4a2;" vert-adv-y="2457" 
d="M156 435l49 229h233l-49 -229h-233z" />
    <glyph glyph-name="uni04A3" unicode="&#x4a3;" vert-adv-y="2457" 
d="M156 435l49 229h233l-49 -229h-233z" />
    <glyph glyph-name="uni04AE" unicode="&#x4ae;" vert-adv-y="2457" 
d="M156 435l49 229h233l-49 -229h-233z" />
    <glyph glyph-name="uni04AF" unicode="&#x4af;" vert-adv-y="2457" 
d="M156 435l49 229h233l-49 -229h-233z" />
    <glyph glyph-name="uni04B0" unicode="&#x4b0;" vert-adv-y="2457" 
d="M156 435l49 229h233l-49 -229h-233z" />
    <glyph glyph-name="uni04B1" unicode="&#x4b1;" vert-adv-y="2457" 
d="M156 435l49 229h233l-49 -229h-233z" />
    <glyph glyph-name="uni04B2" unicode="&#x4b2;" vert-adv-y="2457" 
d="M156 435l49 229h233l-49 -229h-233z" />
    <glyph glyph-name="uni04B3" unicode="&#x4b3;" vert-adv-y="2457" 
d="M156 435l49 229h233l-49 -229h-233z" />
    <glyph glyph-name="uni04B8" unicode="&#x4b8;" vert-adv-y="2457" 
d="M156 435l49 229h233l-49 -229h-233z" />
    <glyph glyph-name="uni04B9" unicode="&#x4b9;" vert-adv-y="2457" 
d="M156 435l49 229h233l-49 -229h-233z" />
    <glyph glyph-name="uni04BA" unicode="&#x4ba;" vert-adv-y="2457" 
d="M156 435l49 229h233l-49 -229h-233z" />
    <glyph glyph-name="uni04BB" unicode="&#x4bb;" vert-adv-y="2457" 
d="M156 435l49 229h233l-49 -229h-233z" />
    <glyph glyph-name="uni04C0" unicode="&#x4c0;" vert-adv-y="2457" 
d="M156 435l49 229h233l-49 -229h-233z" />
    <glyph glyph-name="uni04D8" unicode="&#x4d8;" vert-adv-y="2457" 
d="M156 435l49 229h233l-49 -229h-233z" />
    <glyph glyph-name="afii10846" unicode="&#x4d9;" vert-adv-y="2457" 
d="M156 435l49 229h233l-49 -229h-233z" />
    <glyph glyph-name="uni04E8" unicode="&#x4e8;" vert-adv-y="2457" 
d="M156 435l49 229h233l-49 -229h-233z" />
    <glyph glyph-name="uni04E9" unicode="&#x4e9;" vert-adv-y="2457" 
d="M156 435l49 229h233l-49 -229h-233z" />
    <glyph glyph-name="uni2011" unicode="&#x2011;" horiz-adv-x="682" vert-adv-y="2457" 
d="M73 469l34 160h538l-34 -160h-538z" />
    <glyph glyph-name="figuredash" unicode="&#x2012;" horiz-adv-x="1024" vert-adv-y="2457" 
d="M-4 474l32 149h1026l-32 -149h-1026z" />
    <glyph glyph-name="endash" unicode="&#x2013;" horiz-adv-x="1024" vert-adv-y="2457" 
d="M-4 474l32 149h1026l-32 -149h-1026z" />
    <glyph glyph-name="emdash" unicode="&#x2014;" horiz-adv-x="2048" vert-adv-y="2457" 
d="M-3 474l32 149h2049l-31 -149h-2050z" />
    <glyph glyph-name="afii00208" unicode="&#x2015;" horiz-adv-x="2048" vert-adv-y="2457" 
d="M-3 474l32 149h2049l-31 -149h-2050z" />
    <glyph glyph-name="quoteleft" unicode="&#x2018;" vert-adv-y="2457" 
d="M685 1544l-238 -505h-246l288 505h196z" />
    <glyph glyph-name="quoteright" unicode="&#x2019;" vert-adv-y="2457" 
d="M210 1039l238 505h246l-288 -505h-196z" />
    <glyph glyph-name="quotesinglbase" unicode="&#x201a;" vert-adv-y="2457" 
d="M-116 -273l238 505h246l-288 -505h-196z" />
    <glyph glyph-name="quotedblleft" unicode="&#x201c;" horiz-adv-x="1139" vert-adv-y="2457" 
d="M1160 1544l-238 -506h-246l288 506h196zM759 1544l-238 -506h-246l288 506h196z" />
    <glyph glyph-name="quotedblright" unicode="&#x201d;" horiz-adv-x="1139" vert-adv-y="2457" 
d="M281 1038l238 506h246l-288 -506h-196zM682 1038l238 506h246l-288 -506h-196z" />
    <glyph glyph-name="quotedblbase" unicode="&#x201e;" horiz-adv-x="1139" vert-adv-y="2457" 
d="M2 -274l238 504h246l-288 -504h-196zM403 -274l238 504h246l-288 -504h-196z" />
    <glyph glyph-name="dagger" unicode="&#x2020;" horiz-adv-x="1139" vert-adv-y="2457" 
d="M278 -436l313 1475h-353l33 156h353l74 349h183l-74 -349h353l-33 -156h-353l-313 -1475h-183z" />
    <glyph glyph-name="daggerdbl" unicode="&#x2021;" horiz-adv-x="1139" vert-adv-y="2457" 
d="M701 1544h183l-74 -349h353l-33 -156h-354l-195 -919h353l-33 -156h-353l-85 -400h-183l85 400h-353l33 156h353l195 919h-353l34 156h353z" />
    <glyph glyph-name="bullet" unicode="&#x2022;" horiz-adv-x="1229" vert-adv-y="2457" 
d="M1007 1108v-786h-786v786h786z" />
    <glyph glyph-name="ellipsis" unicode="&#x2026;" horiz-adv-x="2048" vert-adv-y="2457" 
d="M264 0l49 229h233l-49 -229h-233zM824 0l49 229h233l-49 -229h-233zM1385 0l49 229h233l-49 -229h-233z" />
    <glyph glyph-name="perthousand" unicode="&#x2030;" horiz-adv-x="2048" vert-adv-y="2457" 
d="M83 -83l1127 1595h135l-1128 -1595h-134zM1032 643c73.333 0 132.999 -18.667 178.999 -56c55.333 -45.333 83 -113.333 83 -204c0 -69.333 -13.333 -137 -40 -203c-54.667 -136 -149 -204 -283 -204c-85.333 0 -152.666 22 -201.999 66s-74 112 -74 204
c0 60.667 11.333 121.667 34 183c52 142.667 153 214 303 214zM1026 538c-58.667 0 -104.332 -34.667 -136.999 -104c-29.333 -61.333 -44 -128.333 -44 -201c0 -98.667 41.667 -148 125 -148c55.333 0 98 30.667 128 92c11.333 24 21.666 56 30.999 96
c9.33301 42 14 80 14 114c0 100.667 -39 151 -117 151zM486.001 1454c74 0 133.667 -18.667 179 -56c55.333 -44.667 83 -112.667 83 -204c0 -70 -13 -137.667 -39 -203c-55.333 -136 -150 -204 -284 -204c-85.333 0 -152.333 22 -201 66c-50 44.667 -75 113 -75 205
c0 59.333 11.333 120 34 182c52 142.667 153 214 303 214zM481.001 1350c-58.667 0 -104.666 -35 -137.999 -105c-12.667 -26 -23.334 -59 -32.001 -99c-8 -40 -12 -74 -12 -102c0 -98.667 42 -148 126 -148c54.667 0 97 31 127 93c30 61.333 45 131 45 209
c0 101.333 -38.667 152 -116 152zM1719 643c73.333 0 133 -18.668 179 -56.001c55.333 -45.333 83 -113.666 83 -204.999c0 -120 -32 -220.333 -96 -301c-55.333 -70 -131 -105 -227 -105c-84.667 0 -151.667 22 -201 66c-50 44.667 -75 113 -75 205
c0 60 11.333 120.667 34 182c52.667 142.667 153.667 214 303 214zM1714 537.999c-59.333 0 -105.332 -34.665 -137.999 -103.998c-12.667 -26.667 -23.334 -60 -32.001 -100c-8 -38.667 -12 -72.334 -12 -101.001c0 -98.667 42 -148 126 -148c54.667 0 97 30.667 127 92
s45 131.666 45 210.999c0 100 -38.667 150 -116 150z" />
    <glyph glyph-name="guilsinglleft" unicode="&#x2039;" horiz-adv-x="682" vert-adv-y="2457" 
d="M480 106h-176l-199 475l360 365h194l-345 -409z" />
    <glyph glyph-name="guilsinglright" unicode="&#x203a;" horiz-adv-x="682" vert-adv-y="2457" 
d="M210 946h176l199 -475l-360 -365h-194l346 409z" />
    <glyph glyph-name="uni203E" unicode="&#x203e;" vert-adv-y="2457" 
d="M-214 1870h1072v-174h-1072v174z" />
    <glyph glyph-name="fraction" unicode="&#x2044;" horiz-adv-x="342" vert-adv-y="2457" 
d="M-431 -83l1127 1595h135l-1128 -1595h-134z" />
    <glyph glyph-name="zerosuperior" unicode="&#x2070;" horiz-adv-x="739" vert-adv-y="2457" 
d="M546 1444c81.333 0 144.999 -24.334 190.999 -73.001c42.667 -45.333 64 -113.666 64 -204.999c0 -126 -24 -243 -72 -351c-75.333 -169.333 -186.333 -254 -333 -254c-173.333 0 -260 98.667 -260 296c0 69.333 13 148.333 39 237
c68.667 233.333 192.334 350 371.001 350zM535.999 1330c-70.667 0 -130.999 -54.333 -180.999 -163c-22 -48.667 -39.667 -107 -53 -175c-12 -59.333 -18 -110.333 -18 -153c0 -109.333 40.333 -164 121 -164c68 0 126.333 50.667 175 152c48.667 100.667 73 215 73 343
c0 52.667 -8.33301 92 -25 118c-18.667 28 -49.334 42 -92.001 42z" />
    <glyph glyph-name="foursuperior" unicode="&#x2074;" horiz-adv-x="739" vert-adv-y="2457" 
d="M463 572l39 185h-423l24 112l493 563h198l-119 -557h113l-25 -118h-113l-39 -185h-148zM271 875h257l103 428z" />
    <glyph glyph-name="fivesuperior" unicode="&#x2075;" horiz-adv-x="739" vert-adv-y="2457" 
d="M111 591l25.998 121.001c78 -24.667 141.333 -37 190 -37c81.333 0 143.333 20.667 186 62c38 37.333 57 82.666 57 135.999c0 42 -18 75.333 -54 100c-33.333 22.667 -79 34 -137 34c-52.667 0 -111.667 -8.66699 -177 -26l107 451h501l-25 -118h-366l-49 -197
c18.667 2.66699 39.334 4 62.001 4c90 0 160 -20.333 210 -61s75 -98.667 75 -174c0 -98 -36 -178 -108 -240c-66 -56.667 -158.667 -85 -278 -85c-75.333 0 -148.666 10 -219.999 30z" />
    <glyph glyph-name="sixsuperior" unicode="&#x2076;" horiz-adv-x="739" vert-adv-y="2457" 
d="M840 1411l-42.998 -114.001c-54.667 22 -106.334 33 -155.001 33c-83.333 0 -153.333 -29.667 -210 -89c-36.667 -37.333 -70.334 -94.666 -101.001 -171.999c52 44 115 66 189 66c72.667 0 131.667 -21 177 -63c42.667 -40 64 -96.667 64 -170
c0 -70.667 -17.333 -135.667 -52 -195c-56 -97.333 -150 -146 -282 -146c-90 0 -159.333 25.667 -208 77c-45.333 47.333 -68 115.333 -68 204c0 127.333 33 253 99 377c42 80 101.333 139.333 178 178c60.667 31.333 128.667 47 204 47c64.667 0 134 -11 208 -33z
M480.002 1021c-58 0 -104 -24.334 -138 -73.001c-28 -39.333 -42 -84.333 -42 -135c0 -46.667 13.333 -81.667 40 -105c24.667 -22 55.667 -33 93 -33c44.667 0 83 17.333 115 52c44 48 66 103.667 66 167c0 42.667 -14 75.334 -42 98.001c-25.333 19.333 -56 29 -92 29z
" />
    <glyph glyph-name="sevensuperior" unicode="&#x2077;" horiz-adv-x="739" vert-adv-y="2457" 
d="M156 572l500 742h-436l26 118h594l-27 -122l-486 -738h-171z" />
    <glyph glyph-name="eightsuperior" unicode="&#x2078;" horiz-adv-x="739" vert-adv-y="2457" 
d="M615 1026c84 -39.333 126.001 -104.332 126.001 -194.999c0 -72 -26.333 -133.333 -79 -184c-60 -57.333 -143.333 -86 -250 -86c-93.333 0 -168.333 23.333 -225 70c-49.333 40.667 -74 94 -74 160c0 63.333 20.667 117.666 62 162.999c28.667 30.667 82 57.667 160 81
c-74 43.333 -111 104 -111 182c0 64.667 24.667 117.334 74 158.001c55.333 46 130.666 69 225.999 69c85.333 0 153.666 -16.667 204.999 -50c53.333 -34.667 80 -84.334 80 -149.001c0 -68.667 -33.333 -126.334 -100 -173.001
c-27.333 -19.333 -58.666 -34.666 -93.999 -45.999zM446.001 972.001c-5.33301 -2 -11 -4 -17 -6c-110.667 -36 -166 -90.333 -166 -163c0 -40 14.667 -71 44 -93c30.667 -23.333 69 -35 115 -35c50.667 0 92.334 15 125.001 45c31.333 29.333 47 64.666 47 105.999
c0 42.667 -18.667 75.334 -56 98.001c-14.667 9.33301 -45.334 25.333 -92.001 48zM498.001 1077c21.333 9.33301 42.001 19.332 62.001 29.999c67.333 37.333 101 78.666 101 123.999c0 34 -16 59.667 -48 77c-26.667 14.667 -57.334 22 -92.001 22
c-40 0 -74.667 -9 -104 -27c-32 -19.333 -48 -46.666 -48 -81.999s18.333 -68 55 -98c16 -13.333 33.667 -25.333 53 -36c13.333 -7.33301 20.333 -10.666 21 -9.99902z" />
    <glyph glyph-name="ninesuperior" unicode="&#x2079;" horiz-adv-x="739" vert-adv-y="2457" 
d="M90 597l43.0039 121.001c65.333 -28.667 122.333 -43 171 -43c84.667 0 154 31.667 208 95c31.333 37.333 62 97 92 179c-34.667 -26.667 -63.334 -44.334 -86.001 -53.001c-22.667 -9.33301 -53.334 -14 -92.001 -14c-74 0 -134 20 -180 60
c-47.333 42 -71 100.667 -71 176c0 91.333 30.333 167.666 91 228.999c62.667 64.667 146 97 250 97c174 0 261 -90 261 -270c0 -82.667 -16.333 -173 -49 -271c-40.667 -123.333 -96.334 -211.666 -167.001 -264.999c-68 -51.333 -153.333 -77 -256 -77
c-70.667 0 -142.334 12 -215.001 36zM506.004 1330c-58.667 0 -106.666 -26.333 -143.999 -79c-26 -36.667 -39 -77.667 -39 -123c0 -42.667 11.667 -75.667 35 -99c21.333 -22 50.666 -33 87.999 -33c50 0 92.333 18.333 127 55c37.333 40 56 88 56 144
c0 44.667 -14.667 80 -44 106c-22 19.333 -48.333 29 -79 29z" />
    <glyph glyph-name="zeroinferior" unicode="&#x2080;" horiz-adv-x="739" vert-adv-y="2457" 
d="M425 872c81.333 0 145.001 -24.333 191.001 -73c42.667 -45.333 64 -114 64 -206c0 -125.333 -24 -242 -72 -350c-75.333 -169.333 -186.333 -254 -333 -254c-173.333 0 -260 98.667 -260 296c0 69.333 13 148.333 39 237c35.333 120.667 86.666 210 153.999 268
c62 54.667 134.333 82 217 82zM415.001 758c-70.667 0 -131 -54.667 -181 -164c-22 -48 -39.667 -106.333 -53 -175c-12 -58.667 -18 -109.667 -18 -153c0 -108.667 40.333 -163 121 -163c68 0 126.333 50.333 175 151c48.667 101.333 73 216 73 344
c0 106.667 -39 160 -117 160z" />
    <glyph glyph-name="oneinferior" unicode="&#x2081;" horiz-adv-x="739" vert-adv-y="2457" 
d="M201 0l138.999 654c2.66699 12 6.33398 25.667 11.001 41l-153 -98l-68 103l278 161h124l-183 -861h-148z" />
    <glyph glyph-name="twoinferior" unicode="&#x2082;" horiz-adv-x="739" vert-adv-y="2457" 
d="M-60 0l29 135.002c94 64 202.667 147 326 249c131.333 109.333 197 198.333 197 267c0 33.333 -15 59.666 -45 78.999c-24 15.333 -57.333 23 -100 23c-68.667 0 -144.334 -19 -227.001 -57l13 131c82 29.333 161.667 44 239 44c74 0 135 -14.667 183 -44
c58 -36.667 87 -89 87 -157c0 -98 -64 -205.333 -192 -322c-101.333 -92.667 -200.666 -169.334 -297.999 -230.001h403l-25 -118h-590z" />
    <glyph glyph-name="threeinferior" unicode="&#x2083;" horiz-adv-x="739" vert-adv-y="2457" 
d="M-49 33l34.998 122c70 -34.667 141.333 -52 214 -52c68 0 124.667 16.333 170 49c38.667 28 58 65.333 58 112c0 84 -75.333 126 -226 126h-44l25 117h33c92.667 0 164.667 14.667 216 44c43.333 25.333 65 60.333 65 105c0 68 -48 102 -144 102
c-60.667 0 -135 -15 -223 -45l14 130c86 19.333 160 29 222 29c79.333 0 144.666 -15.333 195.999 -46c56 -34 84 -84.667 84 -152c0 -56 -20 -106 -60 -150c-31.333 -34 -77.666 -60 -138.999 -78c46.667 -19.333 78.334 -42 95.001 -68c21.333 -32 32 -68.333 32 -109
c0 -81.333 -35.333 -149.333 -106 -204c-64.667 -50.667 -153.667 -76 -267 -76c-85.333 0 -168.666 14.667 -249.999 44z" />
    <glyph glyph-name="fourinferior" unicode="&#x2084;" horiz-adv-x="739" vert-adv-y="2457" 
d="M341 0l39 185h-423l24 112l493 564h198l-119 -558h113l-25 -118h-113l-39 -185h-148zM149 303h257l103 428z" />
    <glyph glyph-name="fiveinferior" unicode="&#x2085;" horiz-adv-x="739" vert-adv-y="2457" 
d="M-11 19l26.002 121c79.333 -24.667 142.666 -37 189.999 -37c80.667 0 142.667 21 186 63c38 36.667 57 81.667 57 135c0 42 -18 75.333 -54 100c-32.667 22.667 -78.334 34 -137.001 34c-54 0 -113 -8.66699 -177 -26l107 452h501l-25 -118h-366l-49 -198
c20 3.33301 40.667 5 62 5c89.333 0 159.333 -20.333 210 -61c50 -40.667 75 -98.667 75 -174c0 -98.667 -36 -179 -108 -241c-66 -56.667 -158.667 -85 -278 -85c-74.667 0 -148 10 -220 30z" />
    <glyph glyph-name="sixinferior" unicode="&#x2086;" horiz-adv-x="739" vert-adv-y="2457" 
d="M719 839l-43 -114.999c-55.333 22.667 -107 34 -155 34c-83.333 0 -153.333 -29.333 -210 -88c-36.667 -38 -70.334 -95.333 -101.001 -172c52.667 44 115.667 66 189 66c72 0 131 -21.333 177 -64c42.667 -40 64 -96.667 64 -170c0 -70 -17.333 -134.667 -52 -194
c-56 -98 -150 -147 -282 -147c-89.333 0 -158.666 25.667 -207.999 77c-45.333 47.333 -68 115.333 -68 204c0 127.333 33 253 99 377c42 79.333 101.333 138.666 178 177.999c61.333 31.333 129.333 47 204 47c62.667 0 132 -11 208 -33zM359 450.001
c-56.667 0 -102.667 -24.334 -138 -73.001c-28 -38.667 -42 -84 -42 -136c0 -46.667 13.333 -81.667 40 -105c25.333 -22 56.333 -33 93 -33c44 0 82.333 17.333 115 52c44 48 66 103.667 66 167c0 42.667 -14 75.334 -42 98.001c-26 20 -56.667 30 -92 30z" />
    <glyph glyph-name="seveninferior" unicode="&#x2087;" horiz-adv-x="739" vert-adv-y="2457" 
d="M34 0l500 743h-436l26 118h594l-27 -122l-486 -739h-171z" />
    <glyph glyph-name="eightinferior" unicode="&#x2088;" horiz-adv-x="739" vert-adv-y="2457" 
d="M493 453c84 -38.667 125.999 -103.665 125.999 -194.998c0 -71.333 -26.333 -132.333 -79 -183c-60 -57.333 -143.333 -86 -250 -86c-93.333 0 -168.333 23.333 -225 70c-49.333 40.667 -74 93.667 -74 159c0 64 20.667 118.667 62 164c28.667 30.667 82 57.667 160 81
c-74 42.667 -111 103 -111 181c0 65.333 24.667 118.333 74 159c56 46 131.333 69 226 69c84.667 0 153 -16.667 205 -50c53.333 -34.667 80 -84.334 80 -149.001c0 -68.667 -33.333 -126.334 -100 -173.001c-27.333 -19.333 -58.666 -35 -93.999 -47zM323.999 399.002
c-5.33301 -1.33301 -11 -3 -17 -5c-110.667 -36 -166 -90.333 -166 -163c0 -40 14.667 -71 44 -93c30 -23.333 68.333 -35 115 -35c50.667 0 92.334 15 125.001 45c31.333 29.333 47 64.333 47 105c0 43.333 -18.667 76.333 -56 99c-14.667 9.33301 -45.334 25 -92.001 47z
M375.999 504.002c21.333 10 42.001 20.333 62.001 31c67.333 37.333 101 78.666 101 123.999c0 34 -16 59.667 -48 77c-27.333 14.667 -58 22 -92 22c-38.667 0 -73.334 -9 -104.001 -27c-32 -19.333 -48 -46.666 -48 -81.999s18.333 -68 55 -98
c16 -13.333 33.667 -25.333 53 -36c13.333 -7.33301 20.333 -11 21 -11z" />
    <glyph glyph-name="nineinferior" unicode="&#x2089;" horiz-adv-x="739" vert-adv-y="2457" 
d="M-32 25l43.0029 120c64.667 -28 121.667 -42 171 -42c85.333 0 154.666 31.333 207.999 94c31.333 37.333 62 97.333 92 180c-34.667 -26.667 -63.334 -44.667 -86.001 -54c-23.333 -9.33301 -54 -14 -92 -14c-73.333 0 -133.333 20.333 -180 61
c-47.333 41.333 -71 99.666 -71 174.999c0 92 30.333 168.667 91 230c62.667 64.667 146 97 250 97c174 0 261 -90 261 -270c0 -82.667 -16.333 -173 -49 -271c-40.667 -123.333 -96.334 -211.666 -167.001 -264.999c-67.333 -51.333 -152.666 -77 -255.999 -77
c-70.667 0 -142.334 12 -215.001 36zM384.003 758c-58.667 0 -106.667 -26.334 -144 -79.001c-26 -36.667 -39 -77.667 -39 -123c0 -43.333 11.667 -76.666 35 -99.999c22 -22 51.333 -33 88 -33c50 0 92.333 18.667 127 56c37.333 39.333 56 87 56 143
c0 45.333 -14.667 81 -44 107c-22 19.333 -48.333 29 -79 29z" />
    <glyph glyph-name="Euro" unicode="&#x20ac;" horiz-adv-x="1159" vert-adv-y="2457" 
d="M518 905h551.999l-86 -132h-514c-1.33301 -4 -6.66602 -23 -15.999 -57c-2.66699 -8.66699 -6 -30.334 -10 -65.001h448l-79 -132h-370c3.33301 -50 17 -99.667 41 -149c34 -70.667 87 -124.667 159 -162c56.667 -29.333 117 -44 181 -44c58 0 129.667 18 215 54
l-43 -201c-70 -24 -140.667 -36 -212 -36c-134 0 -245.333 27.667 -334 83c-144.667 91.333 -219 243 -223 455h-180l83 132h105c4.66699 33.333 8.33398 54.333 11.001 63c10 35.333 15.333 55 16 59h-150l82 132h112c36 85.333 81 161 135 227
c81.333 100.667 180.666 179 297.999 235c114 54.667 227.667 82 341 82c118.667 0 212.667 -29 282 -87l-101 -161c-32.667 24.667 -58 41.334 -76 50.001c-34.667 16 -76 24 -124 24c-100 0 -195.667 -27 -287 -81c-108 -64 -193.333 -160.333 -256 -289z" />
    <glyph glyph-name="afii61352" unicode="&#x2116;" vert-adv-y="2457" 
d="M156 435l49 229h233l-49 -229h-233z" />
    <glyph glyph-name="trademark" unicode="&#x2122;" horiz-adv-x="2028" vert-adv-y="2457" 
d="M362 615l150 701h-268l25 116h675l-25 -116h-266l-149 -701h-142zM896 615l173.999 816.997h220l92 -505c8.66699 -47.333 15 -97.666 19 -150.999c18.667 36.667 39.667 74.334 63 113.001l337 543h213l-174 -817h-133l114 535c11.333 52.667 24 104.334 38 155.001
c-43.333 -78.667 -70.666 -126.667 -81.999 -144l-343 -546h-130l-75 380c-22 112 -40.333 218.667 -55 320c-19.333 -103.333 -36.333 -188.333 -51 -255l-94 -445h-133z" />
    <glyph glyph-name="uni2126" unicode="&#x2126;" horiz-adv-x="1430" vert-adv-y="2457" 
d="M99 0l-0.000976562 174h356c-98 58.667 -174 123.667 -228 195c-85.333 112.667 -128 250.334 -128 413.001c0 204 70.667 373 212 507c122.667 116.667 270 175 442 175s319.333 -58.333 442 -175c140.667 -134 211 -303 211 -507c0 -172.667 -48 -316.667 -144 -432
c-53.333 -64.667 -123.666 -123.334 -210.999 -176.001h355v-174h-564v156c94 53.333 166.333 110 217 170c100 120 150 264.333 150 433c0 152 -47.333 280.333 -142 385c-88 97.333 -192 146 -312 146c-112.667 0 -212 -40.667 -298 -122
c-106.667 -101.333 -160 -238.333 -160 -411c0 -264 122.667 -464.333 368 -601v-156h-566z" />
    <glyph glyph-name="onethird" unicode="&#x2153;" horiz-adv-x="1708" vert-adv-y="2457" 
d="M269 572l138.999 654c2.66699 12 6.33398 25.667 11.001 41l-153 -98l-68 102l278 161h124l-183 -860h-148zM239.999 -83l1127 1595h135l-1127 -1595h-135zM973.999 33l34.9971 122c70 -34.667 141 -52 213 -52c68 0 125 16.333 171 49c38.667 28 58 65.333 58 112
c0 84 -75.333 126 -226 126h-45l25 117h34c92.667 0 164.667 14.667 216 44c44 26 66 61 66 105c0 34 -14.333 60 -43 78c-24.667 16 -59 24 -103 24c-60 0 -134 -15 -222 -45l14 130c86 19.333 159.667 29 221 29c79.333 0 145 -15.333 197 -46c56 -34 84 -84.667 84 -152
c0 -55.333 -20 -105.333 -60 -150c-31.333 -34 -77.666 -60 -138.999 -78c46.667 -19.333 78.334 -42 95.001 -68c21.333 -32.667 32 -69 32 -109c0 -80.667 -35.333 -148.667 -106 -204c-65.333 -50.667 -154.666 -76 -267.999 -76c-84.667 0 -167.667 14.667 -249 44z" />
    <glyph glyph-name="twothirds" unicode="&#x2154;" horiz-adv-x="1708" vert-adv-y="2457" 
d="M69 572l29 135.003c93.333 63.333 202 146.333 326 249c131.333 109.333 197 198.333 197 267c0 33.333 -15 59.666 -45 78.999c-24.667 16 -58 24 -100 24c-68.667 0 -144.334 -19 -227.001 -57l13 131c82 29.333 161.667 44 239 44c73.333 0 134.333 -15 183 -45
c58 -36 87 -88 87 -156c0 -98.667 -64 -206.334 -192 -323.001c-101.333 -92.667 -200.666 -169.334 -297.999 -230.001h403l-25 -118h-590zM313 -82.9971l1127 1595h134l-1127 -1595h-134zM1016 33.0029l34.998 121.999c70 -34.667 141.333 -52 214 -52
c68 0 124.667 16.333 170 49c39.333 28.667 59 66 59 112c0 84 -75.667 126 -227 126h-44l25 117h33c92.667 0 164.667 14.667 216 44c43.333 25.333 65 60.333 65 105c0 68 -48 102 -144 102c-60.667 0 -135 -15 -223 -45l14 130c86 19.333 160 29 222 29
c79.333 0 144.666 -15.333 195.999 -46c56 -34 84 -85 84 -153c0 -55.333 -20 -105 -60 -149c-31.333 -34 -77.666 -60 -138.999 -78c46.667 -19.333 78.334 -42 95.001 -68c22 -33.333 33 -69.666 33 -108.999c0 -42.667 -12.333 -84.667 -37 -126
c-61.333 -102.667 -173.666 -154 -336.999 -154c-84.667 0 -168 14.667 -250 44z" />
    <glyph glyph-name="oneeighth" unicode="&#x215b;" horiz-adv-x="1708" vert-adv-y="2457" 
d="M287 572l138.999 654c2.66699 12 6.33398 25.667 11.001 41l-153 -98l-68 102l278 161h124l-183 -860h-148zM239.999 -83l1127 1595h135l-1127 -1595h-135zM1516 453c84 -38 125.999 -102.998 125.999 -194.998c0 -71.333 -26.667 -132.333 -80 -183
c-59.333 -57.333 -142.333 -86 -249 -86c-94 0 -169 23.333 -225 70c-49.333 40.667 -74 93.667 -74 159c0 64.667 20.667 119.334 62 164.001c28 30.667 81 57.667 159 81c-23.333 13.333 -43.666 30.666 -60.999 51.999c-33.333 39.333 -50 82.333 -50 129
c0 64.667 25 117.667 75 159c55.333 46 130.333 69 225 69c84.667 0 153 -16.667 205 -50c54 -34.667 81 -84.334 81 -149.001c0 -68.667 -33.667 -126.334 -101 -173.001c-26.667 -19.333 -57.667 -35 -93 -47zM1347 399.002c-6 -1.33301 -12 -3 -18 -5
c-110 -36 -165 -90.333 -165 -163c0 -40 14.667 -71 44 -93c30 -23.333 68.333 -35 115 -35c50.667 0 92.334 15 125.001 45c31.333 29.333 47 64.333 47 105c0 42.667 -18.667 75.667 -56 99c-14.667 9.33301 -45.334 25 -92.001 47zM1398 504.002
c22 10 43 20.334 63 31.001c67.333 37.333 101 78.666 101 123.999c0 34 -16 59.667 -48 77c-28 14.667 -59 22 -93 22c-38.667 0 -73 -9 -103 -27c-32.667 -19.333 -49 -46.666 -49 -81.999c0 -34.667 18.333 -67.334 55 -98.001c16 -13.333 34 -25.333 54 -36z" />
    <glyph glyph-name="threeeighths" unicode="&#x215c;" horiz-adv-x="1708" vert-adv-y="2457" 
d="M116 604l34.998 122.003c70.667 -34.667 142 -52 214 -52c66.667 0 123.334 16.667 170.001 50c38.667 27.333 58 64.666 58 111.999c0 84 -75.333 126 -226 126c-8.66699 0 -23.334 -0.333008 -44.001 -1l25 118c96 0 165.667 8.33301 209 25
c70 27.333 105 68.666 105 123.999c0 68 -48 102 -144 102c-60.667 0 -135 -15 -223 -45l14 130c83.333 19.333 157.333 29 222 29c80 0 145.333 -15.333 196 -46c56 -34 84 -84.667 84 -152c0 -56 -20 -106 -60 -150c-31.333 -34 -77.666 -60 -138.999 -78
c46.667 -20 78.334 -42.667 95.001 -68c21.333 -32.667 32 -69.334 32 -110.001c0 -80.667 -35.333 -148.667 -106 -204c-64.667 -50.667 -153.667 -76 -267 -76c-84 0 -167.333 14.667 -250 44zM287.998 -82.9971l1128 1595h134l-1127 -1595h-135zM1504 453.003
c84 -38.667 125.999 -103.665 125.999 -194.998c0 -71.333 -26.333 -132.333 -79 -183c-60 -57.333 -143.333 -86 -250 -86c-93.333 0 -168.333 23.333 -225 70c-49.333 40.667 -74 93.667 -74 159c0 64 20.667 118.667 62 164c28 30.667 81 57.667 159 81
c-73.333 42.667 -110 103 -110 181c0 65.333 24.667 118.333 74 159c56 46 131.333 69 226 69c84 0 152.333 -16.667 205 -50c53.333 -34.667 80 -84.334 80 -149.001c0 -68.667 -33.333 -126.334 -100 -173.001c-27.333 -19.333 -58.666 -35 -93.999 -47zM1335 399.005
c-122 -37.333 -183 -93.333 -183 -168c0 -40 14.667 -71 44 -93c30 -23.333 68.333 -35 115 -35c50.667 0 92.334 15 125.001 45c31.333 29.333 47 64.333 47 105c0 43.333 -18.667 76.333 -56 99c-14.667 9.33301 -45.334 25 -92.001 47zM1386 504.005
c109.333 47.333 164 98.999 164 154.999c0 34 -16 59.667 -48 77c-27.333 14.667 -58 22 -92 22c-39.333 0 -74 -9 -104 -27c-32 -19.333 -48 -46.666 -48 -81.999s18 -68 54 -98c16.667 -13.333 34.667 -25.333 54 -36z" />
    </font>
</defs>
</svg>
